<mxfile host="Electron" modified="2024-05-05T15:11:24.255Z" agent="Mozilla/5.0 (Macintosh; Intel Mac OS X 10_15_7) AppleWebKit/537.36 (KHTML, like Gecko) draw.io/24.2.5 Chrome/120.0.6099.109 Electron/28.1.0 Safari/537.36" etag="eG73nsDEEvWtlmRQ-e9M" version="24.2.5" type="device">
  <diagram name="Page-1" id="s9QroiTIih9tSUmH2SlO">
    <mxGraphModel dx="956" dy="605" grid="1" gridSize="10" guides="1" tooltips="1" connect="1" arrows="1" fold="1" page="1" pageScale="1" pageWidth="850" pageHeight="1100" math="0" shadow="0">
      <root>
        <mxCell id="0" />
        <mxCell id="1" parent="0" />
        <mxCell id="8HKQdC73j9jO4bcsfkeK-2" value="" style="shape=image;aspect=fixed;image=data:image/png,iVBORw0KGgoAAAANSUhEUgAAAgAAAAIACAYAAAD0eNT6AAAABHNCSVQICAgIfAhkiAAAAAlwSFlzAAAOxAAADsQBlSsOGwAAABl0RVh0U29mdHdhcmUAd3d3Lmlua3NjYXBlLm9yZ5vuPBoAACAASURBVHic7N13vB1V1f/xz02HAIEk1FBCR3qRjiKIIAiKFQsgKAjKo6CoiIrELoqIXVQQREURRAUVRQSkiHTpLRA6BAIhpJd7f3+se3+5XG45Z9bae2bO+b5fr/3y0SczZ83cc2bW7Nl77Q5EpMcYYHvgVcDGwCbAWsBYYCVgOWBkadFJq5oB3Af8ETgDmJXxs3cBPgjsAawBjM742R6zgNnAHOBZ4AHsHN4H3Aw8Ul5oIlIXWwOfBy4H5gFdamoltunAvqS3LHBuCceXqz0I/Ax4N5bAi4gAsDrwSeB2yr9Qqan1bYuBt5POaODfFTjOXO0l4Bzg9cCwgPMnIjW0EXAWsJDyL0pqaoO12cDapHFaBY6vrHYPcCgwwn0WRaQW1gPOw56syr4Aqak12n5OvDWBBRU4trLbQ8DhQIfvdIpIVY0EjsWepsq+4KipNdtmAqOI9fEKHFeV2k3YwN+2pPch0qp2BO4ETkeDgKSexgHrB+9zm+D91d12wHXAN4lPtipPCYC0mg7geOBq7J2/SJ1NDN7fhOD9tYIRwKewgZGTyw0lLyUA0kqWB/4EnIrm60treC54fzOC99dKdgRuAfYrO5BclABIqxgP/AM4oOxARILMBKYG7/Pm4P21mpWAPwNHlh1IDkoApBVMBv4D7FRyHCKRfo9NWY10ITYLQAY2HKvIeELZgaQ2vOwARJwmYe/7owdLiZRpNnAQ8WWBZwErYiWAZWAdwF5YddBrS45FRPqxEnAH5U8lUlOLbIuBt5LOKOCqChxnHVoncFihsywiyYwGrqH8C4SaWmR7GtiH9JbByuN2Zj6+OrZF5FmfQUQa9APKvzCoqUW0Z7Fk9nhsxcmcdsIWzZmKFsMarM0A1il4jitLZRCljt4OXJBw/7OwLtKrgbuxlcWmY+9lFyX8XBFpzApYga91sGW7twP2BDZN+JnXA69F1wCR0qyNTY+KzvAXYUnFAaiGgEhdrQt8AZhGmp6Ab2Q7EhF5hT8S+4NejHWBahaBSOsYCbwf672LflDYMuNxiEi3/Yn9MV+PaqOLtLIxwBRgPnHXjWvQ63ORrEZjS3hG/ICXAF9Da4KLtIttie0NeH/e8EXa21HE/HDnkXaOtYhU0zjgCmKuIw+iBwiRLEZg05S8P9rZwOvyhi4iFTKauHFEB2eOXaQtHYL/x7oQeGPuwEWkcsYQ0xNwF1pPRyS56/D/WD+UPWoRqapxwAP4ryt75g5cpJ1shP9H+uvsUYtI1W2Lf3bAL7JHLdJGvozvB/ocMCF71CJSB1PwXV9ewioSikgC3m66w7JHLCJ1MQb/AON3Zo9apA2sje+H+QAwPHvUIlInh+O7zvwkf8girc/7wzw8f8hSMcOAlbrbasB6WL34nv9N3bcyEt/aAfdnjziIChlIle3h2HYW8NuoQKRylmXpzXxyd1sTWAUb89HTRje4v5nYsrwzutsz2E3h4V7/+URM6FIxi7DBfFMKbr8hsBbwWFRAImLzbItm5T8vIV5JYxJWvfFkbMXGB7Byzp7eoSJtJrZE9A+xypQ7opUjW8X6+L4bB+YPWaR1jQAWUPwHqXK/9bUFcAw2fXMa+W/0zbS5wFXY2hL7A8vHnw7J5B6Kfw8+U0K8Ii1rA4r/GJegqX91MhY4ADgDeJTyb+qethi4CetO3g6tGlcnP6T43/2sEuIVaVn7UfzH+EAJ8UpzVsIGaf4NK9Nc9o07VXsY+Cbw6pjTJgl5Bh1fU0K8Ii3rYIr/GC8pIV4Z2mjgIOzv43m9U9c2Ffgq1rsl1bMLxf+295QQr0jL+jDFf4w/KiFeGdjGwKnAdMq/CVehdQL/xJKhRmcpSHqTKP431QwRkUCfpviP8ZQS4pWX68Be41yO3fDKvulWtU0HvohNX5RyLU/xv+OsEuJ101KGUlWeAi1zwqKQZo0GPgjcCfwFWy1NA+EGtjLwBeAR4KfAJuWG09Y8141aFpRSAiBV5blpdIVFIY0aiS25PBWrwbBpueHUzhjgSOBu4GJgy3LDaUudjm1reS+tZdAiUhnDsMVQ7sGm8U0qN5za68DqCdwKnI9VmRNJQgmAiBT1JuyJ9XyskprE6Ums7gJOx6ZNioRSAiAizdoI66a+BBvhL+mMBI4FHuz+T63fImGUAIhIo5bFpvPdiXVTSz7jsZ6Am4GdSo5FWoSySRFpxF7YO/71yg6kSUtYOkVrAVa7vwNYsft/G0W9RnBvCVwLfB/4PDC73HCkzpQAiMhgVgROAw6jetP5lmBrsd/Py5fufQZb0vdZbAW/oYzG1o6Y2N3WwpYZ7mmbU6138MOw1wEHYjMv/lFuOFJXSgBEZCC7A78E1i47EGyK1l1YzfUbgdu7//v8gH0vAJ7sbgNZC3v63gbYGSsbu+Ig/z6HdYBLsd6AE4g5FyIipfsixatynVRCvK1kJLa87WLKrZJ3D9b7sC8wLukRN28YsBnwf9hgyDmUe67uwJZRFh/P30BEgigBKMc6wA2UcxNbAvwbu6lOTnyc0cYAewM/wV49lHH+5gFHpz7QFqcEQKQClADktxfl3LxuBY6jdYoIjQD2Ac6mnJ6BX2AJiTRPCYBIBXwJJQC5dGCDyhaR7yY1CxtfsFeG4yvTCthAvZvJn1Stm+H4Wo0SAJEKUA9AHqOBX5PvxvQocDx2Y2w3uwEXYa86cpzr6dhgRWmcEgCRClACkN547J17jpvRncB7sQGG7W5DbOW/haQ/7/OwksLSGCUAIhWgBCCt9YF7SX8Duh94H6o62p/1sHECqWdbLAE+leeQak8JgEgFKAFIZ3PgKdLedJ7B3n2r1sjQNsGmEqZOxk6lesWcqkYJgEgFaBBgGtuSdqT/QuC7VG/efh28HitwlDIJOAP1xgxGCYBIBagHIN4uWGncVDeXf2NPs1LcSKyq31zS/Z3OAYbnOqCaUQIgUgFKAGLtiE29S3FDmY3dtPRkGWc94DLSJQHnor9Xf5QAiFSAEoA42wAvkOZGcgXVWCugFXUAx5CuN+AMNCagLyUAIhWgBCDGxsDTxN88FgFTUFdyDq8CbiFNEvDdjMdRB0oARCpACYDf2sATxN80Hga2y3gcYgWbvk+aJODzGY+j6pQAiFSAEgCfFYD/EX+zuAJYJeNxyMu9l/j1BTqBQ3IeRIUpARCpACUAxY0kzQCyr6Mu/yrYGphG7N92PrB7xmOoKiUAIhWgBKC4nxN7c1gIfCDrEchQVgNuJPbvPAPYKOdBVJASAJEKUAJQzDHE3hRmAftmPQJp1Fjgj8T+ve+lPRdq6qEEQKQCpqAEoFk7AwuIuxlMx7qbpbqGA2cRmwScT/tOD2yrBECFIKSq2vUCVNSqwO+BUUH7exrYE7gtaH+SxhLgg8Dpgft8J7Zks4hIKaagHoBGDQP+SdwT4KPYaoFSL6cQ9x1YhJWObjfqARCpAPUANO54bCGZCNOBvYGpQfuTfE7AVvyLMAL4Fe09HkBESqJBgI3ZHJhHzFPfs8BmecOXYB1Yid+onoBf5g2/dOoBEKmAWv6gMlsG+B0wJmBfs4E3AncF7EvK0wV8BLggaH+HAO8O2pdUjBIAqSq9AhjaycCmAftZAhwM3BywLynfEuzGfV3Q/n6Aqj+2JCUAIvW0FfCJoH0dB/wpaF9SDfOBNwMPBOxrAnBawH6kYpQASFXpFcDARmBzv0cG7OsH3U1azwwsCXgpYF/vA/YL2I9UiBIAkfo5Ftg2YD/XEteLINV0L3AYMQn1j4FlA/YjFaEEQKReViFmlsPTwEHYfG9pbX/AagR4rY1NNRQRSWoKmgbYn4iFfpYAe+QOXEo1HLga/3dnLpYItCpNAxSRStoGODxgP6cCVwTsR+pjCfBe4AXnfpYBvukPR6pACYBIfZyG/zd7K63dQyIDewz4aMB+3oUtPCU1pwRApB72Al7n3MdC4NDu/5T29GvgQuc+OoAvB8QiJVMCIFIPERfcrwF3BuxH6u3/8L8KeD0aR1J7SgBEqm9/YCfnPu4FvhEQi9Tf08CnA/ajXoCaUwIgUn0nO7fvAo4EFgTEIq3hTOAa5z52xV5NSU0pARCptj2AVzv38Tv8F3tpLV3Ax4BO534+GRCLlEQJgEi1He/cfh7wmYhApOXcCvzCuY99gK0DYpESKAEQqa5N8NdfPw14JCAWaU2fw5aC9vh4RCCSnxIAkeo6Dt+yyC9gRX9EBvIM8D3nPt4NrB4Qi2SmBECkmpYD3uPcx6nAzIBYpLV9C9+0wFHYgkNSM0oARKrpPcAKju2fxf9kJ+1hJnC6cx9H4OutkhIoARCppg85t/8+/ne70j6835f1gD2DYpFMlACIVM9W+Kb+zcPWbhdp1AtYbQCPIyICkXxGlB2AiLzCe53bnwM8FxFItz2AdwDbAWOxSnLXYXXl7w/8nBW7P2c/YANszYKHgL8B5wHzAz8rwlbA+4BdgHHADOAW4LfADYGfMwZ4M3AgsDH24PYkcBn2t/aW9e1xOnAMxe8Lb8bGrqjnSURcplB8Xe46r3bXATxM8WPvxKYPRlgbuHKIz7ocOAhYvuBnDMMqyv0CW2t+oM96Anhjwc+INg5LfjoZON5bsNc4Kzs+ZyvgO1hiMdDnzAKOdnxGXxcM8lmNNO/A1bJ5jl1EgkyhPROAHfBdhK4KimMD7Em/0c+djz2pn4StXbA2tnZ8XysDu2M3rd9ggxWbSW4ODTq+olYE/kfjMS8Grsbq5r8DWB9Ytp/9jgO2Bz4InAE82sRndAGnBB3fPk1+bt92UVAcZVECIFIBU2jPBODb+C5CBwfEMBK4yxlHT5uHzTV/Pmh/C7En47JcNEBcRY7jOSwBWhS0z4MCjm8YMM0Rwzx8s1fKpgRApAKm0J4JwIMUP+4Z2Ptir2McMeRolwUcYxG7NxFjGe0xLHnz+oIzjncFxFAWz3HXjmYBiFTHhlgXcVEXEjNQ7vCAfaS0J7BWCZ9b9fOyJvD6gP382rl9VcZqyBCUAIhUx77O7X8XEMMYYJuA/aQ0DNixhM/dtYTPbNbOAfuYCtzk2H5fVBSoFpQASFXVskvNyfPkNJ2YAYCrUY/rwholfGYd6t1HnRdPMrka5Y7TkAbV4Ycu0g5GA69zbH8RNuLcqy5zuMuI86USPrNZs4L2c4Fz+71DopCklABIVbVbF+J29D9trlF/DYrjOeqxfPAtJXzmrSV8ZrOiYpwG3OPYfregOCQhJQBSVe32CsDz7nYh8K+oQIA/BO4rhQeA20v4XO9TcWpzsFoMUTxJ5S60XxJfO0oARKrBM8DsamK7xL9NXFdyCl/EigLl9iss+aiq72NTQaNc6th2AnEVKSURJQAi1bCLY9vLw6IwTwBHUs5Ndijn4p+mVtRCrNTtnJI+fzDXY7UzIl0DLHBsX4dZE21NCYBI+dYEVnVsf11UIL2cD7yb6vQEdGFPuGXPxb8Zm2v/eMlx9HYJNujOc7Puz3x80wG3jQpE0lACIFK+LR3bLgRujAqkj99jq899D5iZ6DOGsgS7we0GfKz7v5ftv8CrgJOx3pKyXAu8DTiAdDMUrnVs6/lei0gbO5niJTnrVgr4MxQ/1uszxbgscBjW25CrrO0Uyqn414zh2DK4f8GSk9Tn5QXgu8BmOQ4OO7aisc6kfgMB26oUsEhVtVMCcB7Fj/WHJcS7LrbU7fnYRT7ixrYE627+BrAXMTXtc1sZeCe2mt8TxN30p3bv8wBi1npoxprO2CdnjterrRKAEWUHICJs6tj2jrAoGvcw8NPuNgp717s51i2+GbaewQRsidu+rxlnYd3Vj2ArDt7d3W4mdgR7GZ7FXpv8HjvuLbDzshn2N94YSxJW4JUJzhzs3DyJnY+ec3ML5b5meBxbyXF8we03w2oKSAUpARAp33qObcuYD9/bQuw1xECvIpYDxnb/uxdyBVUBncD/ult/lsESgYXYjb8KYxsGcge2EmIRnu+2JKZBgCLlmojdJIvoopwegGbMBp6hvW7+jZjH0vNS5Zs/+L5jk6OCkHhKAETKta5j2+nUoz691NtUx7ae77ckpgRApFyTHdtOC4pBZDAPO7ZVAlBhSgBEyjXJsa3nwizSKM/3rIxlm6VBSgCkqmo5raaAoqOrAR4Ni0JkYNMc246nfrUA2oYSAKmqdrlorOzY9pmwKEQGNgsrC1zECGDFwFgkkBIAkXJNcGxb93nzUh+e79rEsCgklBIAqSq9AhiaEgDJxfNd8yS5kpASAJFyLevY9vmwKEQG5/mueb7jkpASAKmqdhkDMNqxbdH3siLN8nzXRoVFIaGUAIiUy3NxXBgWhcjgFji29SS5kpASAJFyKQGQOvB815QAVJQSAKmqdhkE6Fn2dlFYFCKD8yQAdVzauS0oARApl+cmrgur5OLpqVKiWlFKAETK5Xmy0uAqycXzXfOMH5CElACIlEsJgNSB5z2+xqpUlBIAkXJ5no6WCYtCZHBjHNsqAagoJQAi5Zrr2NZTRVCkGZ7v2pywKCSUEgCRcqnGutSB57v2XFgUEkoJgEi5PBdH1ViXXLRmRQtSAiBSLs/FcZWwKEQGtgLFxwAsAV4MjEUCKQGQqmqXQkCeHoB1wqIQGZjne/YC0BkViMRSAiBV1S6LAT3p2HZyVBAig5js2PaxqCAknhIAkXJNc2w7OSgGkcFMdmw7LSgGSUAJgFRVu7wCeNix7SrAuKhARAawgWPbR8OikHBKAKSq2uUVwAzgJcf2W0QFIjIAz3dsWlQQEk8JgFRVu/QAADzk2HbLsChE+re5Y9upYVFIOCUAIuW707GtEgBJaVVgZcf2d0UFIvGUAIiU73bHttuFRSHySjs4tp2Nb4yLJKYEQKR8dzi23RpYLioQkT52cWx7F+31Kq92lACIlM/TAzAC2D4qEJE+dnZs63m1JRkoARAp3xPA047td40KRKSXUfiSyxujApE0lACIVMO1jm1fHxaFyFK7Ass6tr8uKhBJQwmASDV4EoBdUUEgibePY9tZwN1RgUgaSgBEqsGTAIwE9owKRKSbJwH4D7YSoFSYEgCRargVmOPYfr+oQESAScBWju2viQpE0lECIFINi4ArHdsfiPUEiER4J75y3JdGBSLpKAEQqQ7PRXMieg0gcd7p2PY54JaoQCQdJQBSVe1YQORvzu0PColC2t0kYCfH9pcBnUGxSEJKAESqYypwv2P7t+GbtiUCcDC+e8PfowKRtJQASFW1y3LAff3Rse04fF23IgCHObZdBFwcFIckNqLsAEQG0I6vAADOBz7t2P5I4JygWHLrwGoa7AasA7yIlZP9O/BsiXENpCfe1wKrAQuw+vcXAzNKjMvjNcAmju0vB54PikVE2tTnsSSgSDuphHgjPUjxY+8CNssfstsbgHvo/3jmAt8HVi8tupfrAN4O/I/+410AfAdYvqwAHc7F9937QP6QQ3mOXUSCtHMC8DV8F6Kf5Q/Z5VisaMxQxzUHOAUYX06YgJVdvoHG/g63YT0DdTEJS16Kfu8WUu7fJoISAJEKaOcEYHN8F6J5wKrZoy5mf2zEeDPHNxP4OjA5U4xjgEOw4jbN/i2upj6vWr+O73t3Uf6QwykBEKmAdk4AwEqpei5GX8ofctNGAY9R/BgXY1Mn30/8WggdwLbA6dj7fM/f4kPBsaWwHPbu3nOcB2SPOp4SAJEKaPcE4AP4LkYzqP4CQe/Bd4y920LsaftkbDzBKk3GMhzYFDvvZ2FLNEfFdmeTsZThBHzH+CT16ekYTFslAK3wBxNpRb/DBpKtUHD78cBxwBfDIooXWblwJDZ7YLde/9vTwEPd//k49mqk978fD0wANgTWw3okUtgMeyXzTKL9ey0PfNK5j3OwHhkREbd27wEA+CG+J5KZVHtQ1t+Je8quent10DlL4bP4jm0xlkC1grbqAVAhIJHqOh1fSdVx+GoKpFbLi2ZBVS2NOx7/0/8fsZ4WqRklACLV9QDwZ+c+jqO6T2f3lR1AJp1YmecqmgKs5NzHtwPikBIoARCpNu/FdTTwrYhAEmiXkrFXYVUNq+ZVwNHOfVyHzViRGlICIFJt1+C/wL6Nai4V/C/gprKDyODUsgMYwHewwZAeVU0uRaTGNAhwqb3xD0K7DytoUzXbAC9R/iC9VO3ssDMV6734j+1mWm/RrrYaBChSVZ9DCUBv/8Z/wf5a9qgbsyfwHOXfrKPbb/A/YacwAZuS6D2+Vij805cSAJEKUALwcrvjv2AvBLbOHXiD1gIuoPybdkR7AqtOWFVn4z/GG2i9p39QAiBSCUoAXukf+C/ct1PNVwE9Xou/DHJZbQb26mps+FmJ8zZijnXv3IFnogRApAKUALzSFljRFe/F+/TcgRewD8UW3ymjPYHNpV8uyZmIM4mYVy2X5A48IyUAIhWgBKB/P8J/Ae/EbrB1sD3wS2A+5d/o+57Dy7An6jqUVB8G/BP/cS8ENs4ce05KAEQqQAlA/ybiX7WtC5iOvXevi4nAR7BegWaXD45st2DVFddJe7jhvkjM8X8nd+CZKQEQqQAlAAP7KDEX8/9ihYLqZh3gw1gJ2lmkveG/BPwJOAZYP8fBJbA/sAT/uXgKWDFz7LkpARCpACUAAxsGXE/MDe5nmWOPNgrYAesdOAu4FZhNsXMxB7itez8fxhbwqeI0vmZsALxAzHflnZljL0NbJQB1eHclIi/XCRyBFWLxLmF7BHAPcJo3qJIsxKak3dDnf18Z6ylYE6t1PxpbHGkZbFngud1tJjaI72Gqu1xvUeOxcssRT+0XA78P2I+IyJDUAzC0qPe6S7DBbNI6RgGXE/P9mEW9xot4tFUPgEhVKQEY2misyzriIj8X2Dlv+JJIB1aFMOJ70YX1ErWLtkoAtBiQSH0twGq6zwvY1zLA34BtA/Yl5ToVeE/Qvi4Cfh60L6kYJQAi9XY3cELQvsYBlwKbBu1P8vsG8ImgfT0BHBm0LxGRhukVQOM6gL8Q1+X7OK1d7KVVnUTcd2AJ8Pq84VdCW70CEKkqJQDNmQhMI+4G8DSwZc4DEJd3E1sg6Qt5w68MJQAiFaAEoHnbYeMBom4CM7A59lJtyxOzvG9Pu5j2fT3cVglAu/6RRVrRzVhBnCjjsalk+wfuU+K9B1glaF8PAodgvQnS4pQASFXVMqOugF8APwzc33JYyd3IxEJiRS3NOwurBzEzaH9ScUoARFrPsdigwCjDsaTidFQ9tIrWCdjHIuBdwB0B+5KaUAIgVdVRdgA1tgS7mPctj+t1LHAFsHrwfsVnScA+jgX+HrAfqRElAFJVegXgMxd4K/Bo8H53A24Edg3erxQ31bn9V4EfRwQi9aIEQKR1PQnshU3pizQJuBKYgl4JVMHfHNv+hPadNSMiFfVZNA0wyubAc8RNE+vdrgPWy3co0o9R2GqGzf7tzkEPgX1pGqCItJQ7gX2AFxPse2ds4NgnsMGCkt9C4IPA4ia2uQD4AJruJyIVpB6AeNtjxX1S9AR0YWMDts52NNLXu2msENQvsF4DeaW26gEQqSolAGlsiY0JSJUELAZ+hJUmlvy2wKaALuGVf5v7sCRBBqYEQKQClACkszHwGOmSgC7geeA49KRZltWAtwMfBg4Gtio3nNpQAiBSAUoA0loDuIW0SUAXNg3xWGB0nsMScWmrBECDAEXa05PA64DLEn/OWlgFwTuxgWpKBEQqQgmASPuaBbwJODPDZ20A/Bxbsvhz2EJDIlIiJQAi7W0RcATwse7/O7XVgK8Aj2Pz0F+T4TPLNBY4APgS1hNyIrAnmjIpIjIgjQHIbzfs1UDqcQF92z3Y33v99IeYxQhgX+BXwGz6P+ZpwEElxScDa6sxACJVpQSgHKsDV5E/CehpNwKfAl6V+kCDLYM96f8cmE7jx/vtMoKVASkBEKkAJQDlGQ58HnslUFYi0IWVt/0xtqjRKkmPuHnDgG2A44FLgDkUP85jM8cuA1MCIFIBJ6IEoGw7Ag9SbhLQu90HnAUcja1GuEK6Q3+FtVn6Lv9SrM5B1HHNBlbNdygyiLZKALSSl4gM5L/YU+4pwFGUP2h4o+52eK//7WHgge7/7GlPYyWPe9pQgxuXx2YlrIS9Almru00GNsEKJy0fdAz9GYsNxPxqws8QEakN9QBUy27YYL2yewGKtCXYE/vz2OyDZ3v9984KxNcFXNH4n0ISaqsegLIzehGph2uwhX6+DCwoOZZmDcOe7lcCJmHrFPT8944S4+pt7bIDkPajBEBEGrUA+AKwKfCHkmNpNVqWV7JTAiAizXoIW2hmT+D2kmNpFQ+UHYC0HyUAIlLUFdggwfcB95ccS91dUnYA0n6UAEgrUpnVfDqB3wCbYaPzHy43nFp6Gji37CCEkY5tF4dFkZESAKmi5bFpWEUtFxWINGwxcDY2Te992FLDMrROrK7BS2UHIq6pnvr7iRQ0ETgQOA0rBbsY33ScHKvbydD2BP6CTcMre5pdFdsCbIlkqYb1Kf63nJY/XJF6Gg3shdVBv5P4udhX5TsUacC62PTBxyn/pluF1gn8DRs/IdWxD8X/pneUEK9IbayDdXX+iYFXSItq0zMdkzRnOFZO93x8tfPr2u7DplG2yqqHreZYiv9t/15CvCKVtj5wAnAT+S+2G2c4PiluLPBu4CJgHuXfnFO1e7FSytvHnDZJ6HyK/52/V0K8IpWzIbaS3y2Ue+E9OvWBSphlgTcBP6Baiw8VafOw6ZEnYOsISD0Mw0pEF/27H5M/ZJFqGAd8CLiO8i/APe3ypEcsKW2ATSk8C3uCLvu7NFibjY05+QrwemCZBOdD0tsD3/dgz/wh+1WlDrbUzzDsS38Y8Daqd+HrxFZze6zkOMRvZawLfQtgy+7/3ATfvO0ipgN3Y0nJzcANwF3YLAept7N4+SqTzViErSY5Oy6cPJQASLMmYEuXHo3dYKvsVOBTZQchSYzCFtCZjM0yWBerHTEBm1a6cvf/3cjcRCc39gAAIABJREFU7oXYyoAvsHSVwGnYrIXHgEewm/7zgfFLdayKFbAq+hBzLbZapkjL2g7Lkus0YGsWdhOQ9jacl68GOKH7/16xzKCkMk7Bd535Uv6QRdIbDryLar3bb7b9KPysiEirWA+Yi+8as0v2qEUSGg0cia1QVvYN3NsWoylYItK/S/BdXx5Er9KlRSyHFcN4jPJv3JHtAWCFwPMkIvV3DP5ry5TcQYtEGwucCMyg/Jt1qnY+WvxKRMyOwHx815RObMqqSC2NwubvP0n5N+gc7Ycxp01EamwD4Bn815M/5A5cJMIIbBWyRyj/pjxYexL4HfBRbKpNxD5PRe/sRNrVZsS94nx15thF3PYF7qH8m3t/7QngF1hxob5da68J/JxfUr3CRSKS1p5YLYeIa8jfMscu4rIJtjZ72Tf53m0hS+umb8XQT+aR8f8P1WoXaQcjgJOxGUER147FwNZZj0CkoBWB72A327Jv+F3YMrC/Bw6i+ZH5GxJbiGg+8EXUGyDSqnYFbiP2GvbdrEcgUkAH8H6sfnnZN/1ZwHnA27GV3zymJIjvSeDj2DRIEam/nYCLsZH60deKcRmPQ6RpGwH/otyb/hLgn8Ah+G/6vY0CbkoU80vA2cB+KBkQqZtNsbU/bifN9aETOCDb0WSg0dCtZRT2Pv2zwJiSYngQG2R3DvBoos/YGFuNbWyi/YOt8HUrtvrbg9ha4S9iF4FW9wLwFPA0VhuinYzGFoeZBKyC/aakesZiSfpk7HqwHbB64s88DTg+8WeIFLILdrMq62n/z8De5Esq30V8957aK9tU4HRsBHWrPjBMAj4CXIq/OIxaa7b/kH/5aZEhjQK+TtwI12bac9hKWpNTH+QAvjREfGqx7WYsyWsVk7Bpp1UZIKtWzfYwsAYiFbMl8SNcG2lTgaMp7zVDjw5sieKyLxDt1v4GrNbA36fKPogNTi37XKpVuz2LvWIQqYzh2Lv+3N2VtwHv6f78qhiOVQss+0LRbu1JYJsG/j5VMxz4KeWfP7XqtxeBHRCpkEnAVeT9IVyPjYyv6jvgEVhXbtkXjHZrLwI7N/D3qYoRKFlUa6w9RT0TXGlhbyTvvP7bqM+0lw5sPELZF452a3VJAkZgK0KWfb7Uqt8eANZDpCJGAF/DRtvn+AHci1Xqq+PyuQcDcyn/ItJOrepJgG7+ao22vwITEamINYGryfPln44N7huR5cjS2Rq4i/IvJu3UqpoE6Oav1khbBHyG6r7mlDa0K1aMJfWXfyFW5GLFPIeVxTLYGghlTI9s11a1JEA3f7VG2v+w0sEilXEEsID0X/5LaO1pLtsA11L+RaZdWlWSAN381YZqs7A1QOre4yktZATwfdJ/+R8F3pLpmMrWAbyNdDXC1V7eyk4CdPNXG6zNBr5N+tLBIk2ZQPpFfBZjXePLZzqmKhkGHIgtUqQywmlbWUmAbv5qA7XpwFeBlRGpmPWA+0j7A7gZWzRDYBPgK8D9lH9hatWWOwnQzV+tb5uH1X7YH9Xyl4ranrSD/RYCn0PvugayOXAs8CesAEjZF61WarmSAN381bqwcVM3AN/A1q2IXIq85WjKQ/n2B35LuqVt7wQOxZa2lcasCmwBrAWsjdW9H0XrvDbp4OUzPoYB43r993WB8YGfNwsrYvWfwH32NgI4D3hH8H7vxG4ofQ20LHQXMDM4BunfXOAl7H3+dGzJ7nuxhXsWlxiXSMOOIt00tSXAN7H1zUWasSHwOLHfx1Q9ASOA3wfH2oUV3hIRSeKzpOsGexzYPd+hSAuqQxKgm7+I1M4U0t38/0n9l2qVakiRBMwmJjkdDvwmOLYu4FsBsYmIvEIHVnEvxY1/EZZY1LF+v1RXFZMA3fxFpFaGAWeQ5ub/GLBLvkORNlOl1wHq9heRWhkGnE2am/91qKKVpFeFJEA3fxGplQ7gJ6S5+Z+JRvlLPmUmAanm+evmLyLJfJP4i9Zi4IScByHSrYwxAcOBXwd/Zhd65y8iCX2N+IvWi8Abch6ESB85ewL05C8itXMS8Retx4Gtch6EyAByJAG6+YtI7RxJ/EXrTqwsrUhVpHwdoG5/EamdA4gv7/svXl67XaQqUiQBs4CbgvfZBfwy0TkQEWF77Akm8qJ1MTAm50GINClFEpCizcRWfhQRCbU+8AyxF6zfojWspR7qkgQ8BKyS6ByISBtaGVuOMvJCdRb2HlSkLuqSBFyLetVEJMBI4EpiL1A/wAoIidRNXZKA89BvTEScfkzshenn6MIk9VaXJODLqU6AiLS+o4i9IJ2Fbv7SGuqSBLw71QkQkda1K7CAuAvR77HCJyKtog5JwGw0M0BEmrAOsSP+L0Q3f2lNdUgC7gNWSHUCRKpK3c3NGwVcDewQtL9/AfsCC4P2V3UjgFWBNYHVsPO5Iku/i13YfO2XgKeAZ4En84dZumHYMs+rYudpLLBSr/9/J1Y6dwF2fp7AktLOvGE2ZEPgCmBS2YEM4o/A27Dvn0hbUALQvG8Dnwja1x3Aa7ALeStaEdgNK5C0ObAFsB7NT2+cAzwA3ItViLux+z/nhkVaruWxhHIHYDtgY2ADmp+qthi4HysbfQdwA3Ad1s1dtjokAScC3yg7CBGppgOwJ6yIbsfHsKfgVjIMW8zlFOAW4ksi927zsd6TE4FX5Ti4YNsAU4BrgEWkO0+LgP8AX+r+zDKtA9xD3LEtAL4IzAja32Jgz2RHLyK1tRbwHDEXmhdorYFHWwDfxbqiU93Ihmp3AJ8D1kh8rB7rYVPPootGNdMeAr6O9TCUYQXgV0PE2Eh7GOtZAtgDe4UWcX6eACamOXQRqaMR2Hv/iAvMQlrjKWMEcDD2dFnWzay/tgj4E/C6ZEfenA7gTcBlwBLKPz89rRO4HDgQ67nJ7Q0UW/DnWazXZ/k++/tggX0N1C6KP1wRqasvE3dx+b/MsUcbDRyNPUmWfRMbql0P7J/mNAxpGDbH/PYhYqxCuxNL5sooPf0a4JvA3YPENwu7KR8FLDfIvk4ZZB/NtiPjDlFE6moH4t7R/jRz7NHeQT1u/H3b1djYhFz2xsZAlH3czbY7umMvy8rAlsB+2Ij812ADIhtdEGsY8AdizsVsYKOAYxKRmlqGuEFLV2NT3upoU+DflH+D8rROrNLiysHnpre1sJoOZR+rt10CTI49NdmMJa7X5Ua0GqdI2/o2MReSR7D53HUzAhtYN5/yb0pR7TngnZEnCXvPfxRWu6Ds44tqs4CPUM+pwhthU2sjzsNXMscuIhXwGmIGbS1g6WjlOpmMzSMv+0aUqp3LKweSFbEy8JcKHE+q9g/S9pqk8jZipuwuBLbKHLuIlGgsVlAl4gJ6XObYI+xH3NzqKrf7gM0c52lbbDpa2ceRuj2OrX1RN98i5vhvRaW6RdrGacRcOP5E/bpQP0m1pqulbi8C+xQ4T++ltV6NDNUWAocWOE9lGgFcRczxfzJz7CJSgq2IGfX/CDA+c+wew7BiPmXfaMq6uR3WxLk6gbiKkHVqncBnmzhPVbAGVjvAe+xzgPUzxy4iGQ3Daqd7LxaLgF0yx+4xDHsnXvYNpuybWyM1Gr5agVjLbt9q4DxVSc8iP972T+rXoyciDTqSmAvFSbkDd+gAzqT8m0oVWidwzCDn6isViLEqrW6j46O+4+/PHbhIKspml5qIrTY3wbmfm4GdsIVF6uB04NjMn7kAGzz3NNY9+yJLl7Edh1UbXAOrnZ+7Lnsn8D7gt33+92Oxc5Xb01jxpaewMQdzuv/3Ydi5WhVbNngy+eesfwarvlcHy2OD+bzd+E9jxYlmuSMSkco4C//TwXx8o8pz+wh5nhYfBM4A3gNsQnMlZ1cAdsfqv1+M3QBTxzsfeG2vGN5OnoGRM7FCQp/AXiGNbeI8jcQWZToUOBtbbTJ1vEuAtzYRY9l2JmZ8T12SHhFpwKuJGdT16dyBO+xF2mVoH8e6ibcMjntZ7KZzHtaTkCr+Z7DlmjclbYGfOVjyuS+xlSI7gB2xGS1Rq1j212YDWwfGnVrEa5wFwIa5AxeRNK7Ef1G4jnIWUyliVawrM8UN4XZsEZwc3dGrYpUKn0l0LNcTu3597zYNqxGxYvRJ6ccywBHA1ETHch+DL9JTJWOwV33eY/5z7sBFJN5b8F8M5mNd23XQQZrKdY9hXfxlLC27HPB5rAs9xQ0usj2DjScYneRMDG4k8GHSFHk6M+NxeL2WmB6/IvUjRKQiRhLzNPDl3IE7fIjYC38n8APsXX3ZVgMuoPyb/EDn6efkeeIfysrAr4k/xgNyHoTTGfiP927q0+snIn0cg/8iMBXrYq2DicQ+/T0LvCnrETTmHVSrN+ApbMxF1RyCjWaPOs6HsTEadbAi8CT+Yz48d+Ai4rcCMB3/BWC/3IE7RM73v4tqLxm7Iba+fdk3/+uASYmP1WNL4FHijrdO9QHegf94p1HfZb5F2tYX8P/4L8wedXGbEjeV7Rqq0ZU9lOWBKyjv5n8h5bzrb9YaWHd2xDHPxeoS1MU/8R9zIxUkRaQixgHP4/vRzwHWyh24w3nE3fwjltHNZRngr+S/+f+Seq0gtyrWqxNx7GUUTCpqC6xol+d4n6I+rz5E2t5J+C9yX8oedfMmANtg73ojnv7vBlbKegQxxgDXku/m/2fqOThsLeAJ/Mc/DyuetCX16Cn6Ef5jPiF71CLStBXwD4R7imrNex4F7IANajwbm4sfXTHveWDdTMeTwkSsImHqm//NNFfBr2q2IX6Z4xexMrw/w9bb2Jpq9Y5MxN8jOAPrWRSRCvs8/gvakdmjfqVVsLKv55O2Ul1Pe0+ew0pqG9JWD3yJ1qgQ9wnSf5/mYKWdP0Q1xgwch/+Y6lQJVKTtRDz930l53bvLA0cBN5B3PfpzcxxcJieS7jy1ypSwDuAy8n2/FmPVOA/GXteUYST+HqInqcegT5G2dDz+i9W+2aO2gUpnEDtnu9E2jdbq2hxOmumBV+Q8iAwmkaZi4FBtBvAd/Kv2FXFIgXj7tiOyRy0iQxoBPILvx31t5pg3xUaTe0cpe9rbkx9lfm8k9hwtwRaUajUfpbzv3RLs9VbOVyrD8U+HvI9yymGLyCAOwn9RylXNbR1sPfocS9AO1m7CuoNb0TXEnacLMseeyyisul+Z38GF2ODBVRIfa493BsRcpyWSRdrC9fh+1NdliHEEtlBMjkF9jbQ3pj3cUkUkhD3ttZljz+lwyv8edgEvYL+N1E/XHcAtzlhvSByjiDRhV/wXoDckjnFb4H8BcUa1a9IebulGErMk8p25A89sOOmWRC76vdwo6RHD/gFx7pw4RhFp0IX4fsypn/4PxUqoln1x7d1+k/SIq+Fn+M9THQpCeV1O+d/H3m0W6ael3uqM8ZzE8YlIA9bCP4gu1YI/K2ADncq+oPbX/pvomKvkLfjP007Zo85vGuV/H/trPybdtEHvjIB5WCVOESmRd9Gfu0gzEG4NrGJf2RfRgdpzCY65albCd47mUs+Sv80YTfmDUQdr/yZNueGR+GcNfTJBXCLSoGH4n15SVP3bmPJHVzfSWqGq3VAeo/j5uamEeHN7DeV/D4dqd5BmyeWPO+N6gNadRSNSefvg+wFPx1aTi7Q18KwzrlytHRY4+TvFz087vOc9jfK/h420acQXD1oe/xoBewfHJBKm1QtWeKty/Rh7lxdlQ+yGMzFwnym1w3zmZx3btsNrkrp8B9YB/kHsugIvYRU4PY6KCEREmrMKvoVf5mNrpEeZRDnd/p6V3TqBrQLPQRX9kOLn5+QS4s3pDZT33Sva/kfsmIDJ+MZALADGB8YjEqaVewAOwSqZFXUh8ExQLGOBS7GLSUqdwI3AV7E1C1YD3uXYXwfw5YC4qmxuSdvWgfdvvzs2C+fNwLewQa+pbQlcRNxyw9Ow325Ro4B3xIQiIo26Cd+TxB6BsZzrjGWodjO2nGl/PRbLALOd+98x5jRU0jcpfl4+VUK8ubwZ33fmCfp/wFgbW5ExdXGhb8ScBsB/Lq4KjEVEhrA+vh/sVOJG7x7ljGWg1omtp97I+gR/cH7W/4gfDFkVSgBeaRz2G/B8Z37UwOfshn2HUyxt3QkcWPQE9DEc32yiTtL3/olIt5PwXTw+ExTHptggwuiL2xXAdk3EcWjAZ/6g6aOvByUAr/R7/N+XfZr4vN3x99j1154nblCgt55I1DVFRIZwF8V/qIuIuWh0YEVKIi9o0yn2Tn8sMWu7t+LSwEoAXu7D+L8nU2m+QNIwrLdsVsDn926/azKOgUzCNxjwjqA4RGQQW+C7YPwxKI4POOPo2y7GtyTqVwNimAGs6YihipQALLUZMWtSfNQRwzrA1QEx9G77OuLpzbsmwmZBcYjIALw3uncGxDAemyMecfFagk03845JWJ2YaVk/c8ZRNUoAlroE//fjeWA5ZxwjsVdOUQnAVKyksdcHnXGcGBCDiAzibor/QF8Clg2I4cuOGHq3RcD7AuLpcWZATPNorQGBSgDMGsTU/P9aYEwfJ26A4IcD4lkRXxL9n4AYRGQA6+G7SPwqIIYVgZnOOLqAhcSNYu6xOvBiQGy7BsdVJiUA5h34vxdPYitcRjqSmCTgEXx1QXp4ZtQswWpziFRCqxUC2t+5/W8DYjgOm0bl0YUNiIoaj9DjKWLWr69LKWNp3MoB+/gkNogv0s+IGUG/NnBYwH5+49h2GP5rlIgM4FKKZ+fP439CGIlVD/Q+rXzBGcdQMd7pjM+zwMlobIW5D2BPd7uRbk33RtS1B2AsVqzqQ9iNbSd81e/ej+87cSVpV777iTO+Lmx2kJe3sNafA2IQkT6Ww/d+7syAGN7i+Pye9g/S98zshL1iKBJfJ8WmSS6LjY3ob3DkC8DXsZtabnVLACZgA+T6uwk9CXwaS/KatW0/+2u0zcKWuE5pDFbx0vv72iEgFs9rgLnEjDMSkV4OxHdhiFj17CJnDC+Q7x3hxwrG+O8Cn7UmjdVmuA9Yt+gBFVSnBGAr4LEG4rqe5heg6QDub2Df/TXPehPN2AT/TJYfBsRxuDOGZookiUgDzqD4D3I+tva3x3h8qw92AUc7Y2jWeU3G1wns2eRnjKW5mRkP4h9D0Yy6JABrAk83Edt1NP9K4L1N7L+nne44piK+WCDG3m0GxXpIelsF34yJU5yfLyJ9FH166QL+HvD53lHUd5B/UOZywK1NxFjkwlXkBpuz7HBdEoALCsR3fIHPOaeJ/V+B/2barGWwVx2e31rELJZrHZ9/Q8Dni0i3NfBdEI4NiOHHzhgOCoihiJUYusLZYuArND/IazmKTTucS+ya7oOpQwKwLsWeOB+j+ZK8I7Bu8qGm3l1Aee+yjxsitqFaxCDbExyfv5i8vVwiLe09+C4IGwTE4OmBmEa5UzI7sIJDV2PFh3riehF7TdDMwkO9vZXi5yTXugN1SACOccS4S8HPfC3wJ14+2HAh1lt2QMF9RlkWX62NIuNY+vKWHC/7HIq0DM/7//sDPn9Vx+d3AVMCYogyGiuotA7+pMTzd8lVNrUOCcB3HTF66z6MwHogJpO/u38wP6X4OVmA/1g6sMW5isbwHefni7i1SiGg3R3bXhnw+a9ybu8pLhJtAfAQVjmt07mvNzq2TTmnvG4858I74nwx8DDWS7XIua9Int/MKGB95+d34bt27OH8fBG3VkgAVsc3B/nKgBg2cWz7CDG9EFWzPlZ9raiHowJpAQ85tn01/sV5qug67PVEUZ7fbI8rHNtuTmv+XaRGWiEBKPqOs8dVATF4LiZXBnx+FW3p3P7akChawzWObYdhN5tWsxDfdyQiAbjSse1wrPiSSGlaIQEoOkANbM75EwExrOXY9s6Az68iTwJwD/BoVCAt4BasgmJR3mSsqjy/HU/vVI97sfU1ioqoSihSWLsnABFP/+ArInRfUAxVs4Vj23+ERdEaOrGpmkV5/hZV5vnteAt/gX9GwfYBMYgU5lk8pCo8CcDVQTF4LibPFthmFezpYRlsOtSt+J4QU5jk2PaWsChax60UrxXh+VuksjpW2nh57F3+f7EFuZox3fH5EQkAWFGfon8XJQBSqronAOtii6MUdVNQHJ6LyUsN/ruxWM31D/LKSmaLgb8CnyVmxbMIniWDq3IMVeLp7q7S8s07Al/FRsH37oHsxAbVnYkttrOggX15lh5ewbFtb55ryLrYMsxFHgJE2p6n/O5smq+SNpB7HXFsNsS+1wK+R2MV9RZiy7pWgadQS5HVBouqQx0A8K3Wd0/GOAfzaRqraDgD+AZ2cxzMng3sa6AW9fpvOSwBLxrHvkFxiDSt7mMAPN3/t2EXowjzHNuuNMD/vg62BvqDwEdp7IllJPALbFnisnl6RWaERdE6PK94orq7PY7G1pJo5JozHiu1+zBwKvbKqz8D/XYa4fnN9jYbX4LVijM0pCbqngAM9fQ8mKjuf7Da9UX1vYiNAU7CLipHYUVLmtEB/JzyL/pVKhrT7haX/PlrAqcV2G4stqDR/djy1X1fWXoSAM9vtq8bHdt6i4iJFFb3BMAzl/fmsCjgGce2G/b6v9+ArQr4JWyAX1ETsbECZVro2LbZpKcdeErXlp2MHYPv+zwOK4d8EzaGoMdGjn0+7di2L8/DhBIAKU2dE4DR2CCaom6NCgTfXOBtsRvet7CFViIWJoLy3y16EoA1wqJoHZ5z4vlbRNgvaD9bYUWRPotdu7Zx7Mvzm+3rbse2SgCkNHVOADag+CyGxcADgbFMdWz7Gqyi2SeJrX+/aeC+ivA8YXkSu1a1nmPbyKfdIjyv6voagc0i+Ce+MUCe32xfnjEA41DCKyWpcwLg6f5/mMamGTXK8wSwNlavPVrZK7c94tg2xfmoO885mRYVRAHDSXOd2QPfGIDIqabP0HwNg97UCyClaNcE4N6wKMztwfuL4FlAJoInAXhNWBStw3NOPH8LryVUr6zzQuIrcHquKRHrEog0rc4JgGcFwOgE4Emqt3rdv0r+fM859j7dtZoNsfffRUV/35tV9nexr5uB+cH79JzjyVFBiDSjzgmAZzGPFBfEqLLCERYAZ5Ucw3WObUcB744KpAUc4tze87eI8GOs6E1VeFZXHIhnHIBnMTGRwuqcAKzp2Pb+sCiWujTBPov6KuW/ArgNmOPY/uPU+/sZZRmsiE5RjwKPB8VS1I3AGSXH0FuK36qnB1AJgJSirhfYDnwLnKR4J/k3yp9vDfbk/5Wyg8BmWlzv2H5D4E1BsdTZ+xi6JO5gqtIz9THgz2UHgQ3W86zgN5DHHNtGLE0s0rS6JgATsYp5RSzB3tlHm4lNTSrL08CHsAJAVeluvci5/WERQdTc4c7t/xAShd8i4K3Y+gmeEfNefyRNZUTPQ8Xq1H9hNpFsPAujpOwOfacjriKtExtgdQhWGKlqVsW3UIrnqapRVV4MaARWs75ofLPwVeBLZSyWrN5I3t9LF+lmmAzDBhYWjUu9ACINejPFf2iebumhjMbWKE99EVsE/JLyi/004nKKH2dkvfaBVDkBWNERWxfwq8TxRdgZ+Ad5bv73Eltsq6+pjtj6LvEtklxdXwF4lotN2QOwAPhRwv2DXSy3Ag7FV4AoF8/5eCksinqaj2/Fyh9HBZLQf4C9u1tkdb7+fAe72abi6bHyjPMQKaSuCcB4x7apR0T/kDRPrrOwd+L7UI8bf48/UrzscuR6DXU0n+IV667DSkzXxWXAFtjvJ4XpWK9ZSp6xRap7IdnVNQHw/FhSrzX/LPC94H3ehY17OCd4vzksAb5dcNvzIgOpqd8U3O5boVHkMQ/4P+Bg4gv1fL17/ym94NhWCYBk144JgOdH2qhTiBvpfBn2njR192hKZ9P8k+xdwG/jQ6mdM4Anmtzmaqox5a6oX2OrWc4K2t8j5Hkd4vnNe3o1RQpRApDGEmwRFK+/YwMe6/4ufAH2VDezwX8/s/vfRy7YVFczsVkejT69Pgm8H5shUmdXAm8k5nXaMPKcD/UASK20YwKQYw7yB7FlPj1uBt5OfFdoWW4DXs/Q4wEe6P53tyWPqD6uAPZj6PErtwCvo3rrUhT1H6wktGcgJFilvXf4wxmSJwFQD4BIg26h+HSbnRLHNgy7AHumKz1D664RvgxwDDYdcwF2vAuA/wIfBZbNHE+VpwH2NQ74NDY4cmF3DHOAq7ABoq1aTOYk/FMAU07/7XGgI74qlRIXqbQHKP5D86wi2Ii9HbF1YV2V+yeOsSpGYr05I0uMoU4JQG+jsHMX8aqp6obhqyfR07ZIHOfujthSlCcWGVRdXwGMcmybeiTwYc7tfwVcEhBHHSzCuk2rsIZC3SzEzp23e7wOOrHKgd7xAN6yykPxvK7zXNNECqlrAuB5Ykx5s1keq3de1Cysi1dEXm4q8DXnPt5L2h4Tz7VFCYBkV9cEwPNjWRgWxSu9ieKLFAGcji3qIyKvdBrNT4nsbVXSltz1XFvKfA0mbaquCUBVewAOdGw7m/gCQiKtZB7+Akee3+hQPAmAegAku7omAFXsARiOzVsu6jzSVykUqbuzgBcd26ccYKsEQGqlrglAFXsAtsU39//MqEBEWthLWKXAojbE6gKkoARAaqWuCUAV7eHY9mFsHryIDO1C5/ae36pIy6hrAlDFTNszuOjisChEWt9VwHOO7XeOCqSP0Y5tVfZasqtrAuD5sXh+pIPZxrHtP8KiEGl9S/DVytguKpA+qjg2SWRAdU0AqtYDsArF3yvmKlMq0ko8qx1uQZppd+oBkFpRAhBjE8e2D6DR/yLNutmx7RhgclAcvXkSAPUASHZKAGJs4Nj2rrAoRNrHo/hW3/P8ZgfiSQBaZdVPqZG6JgBVGwOwnmPb+8OiEGkvdzi2XT8siqU0BkBqpR0TgLFhUSy1umPbh8OiEGkvtzu29fxmB+JZyloJgGRX1wTgJce2E8KiWGoVx7bPhEUh0l4edWy7clgUMfv0VDcUKaSBFN5iAAAdUElEQVSuCYBn0FyKBMCzz2fDohBpL7Mc204Mi2Kp8Y5tnw+LQqRBSgBiLOPYdk5YFCLtZaZjW89vdiCepMJT2EikkLomAJ4fS4oEwDP4R/N/RYrxdJunGAzsubZoKrBkV9cEwPNjSdH1N8Kx7eKwKETai6f3LEUhICUAUivtmACk6AHwzOFNVZpYpNWNcWw7LyyKpfQKQGqlrgmA58eyalgUS3meRDxTh0TaWdXG3nhmA6kHQLKrawLg+bGsExbFUp6LyQphUYi0l3GObaMTgA581xYlAJJdXROAxx3broXvnX1/PBeTNcOiEGkvkxzbzg6LwqxK8R6JTuDJwFhEGlLnBGBRwW1H4rtw9Mfz4y26iqBIu1vbsW30DXddx7ZPobUApAR1TQCWAI85tvf8WPszzbFtikVJRNqBp57/tKgguk12bKty4FKKuiYA4PsBTw6Kocc0x7bbRAUh0ma2dWwbfdP1LAimBEBKUecEwPOjie4B8MSyCb7pTCLtaC180+6mBcXRY7Jj22lBMYg0pc4JwDTHttFLgd6DvZYoYiSwU2AsdbAe8E3gFqwG+nPAf4GTSbNKW6tYF/gGcDN23p4Hrge+BKxRYlxl2M2x7Ux8A4n747mmqAdApEnvA7oKtv8liOcORzxfTRBPFQ0DPo8N4BzoXMwCPpQxpm8OEstQ7VOZYuwATsQGig0Uy1zgI5niqYIzKf53uyxBPM864tkjQTwiLW0Xiv/gFuCr398fzwXppuBYquonNH5OTsgUUx0SgNObiOnkTDGVqQNbCrjo3y064V7DEUsXaWqTiLS0cdj82aI/ui2D4znKEUsn8a8lqqbZHpslwGszxFX1BOAdTcbUCeyVIa4yeZL/LuAtwfHs44hlFpbQiGRX5zEAL2JPAUVFJwD/dmzbAbw3KpAKGg58vclthgFfSRBLnRQ5Bx3AKQliqRLPb2UJcE1UIN0815KeV4ci2dU5AQC43bHtFmFRmHuAqY7tD6H+f4+BvI5iBY9eA2wUG0qt7ApsXGC7bYHNgmOpimWAgxzbX0982V3PtcRzDRNxqfsNx/Pjie4BALjEse2GwL5RgVTMqx3bviEsivrZ27Gt55xX2XvxTf/z/EYH4u0BEClFOycAKQrweC8ux4ZEUT0rOrZt9ffZg/EkP55zXlUd+H8j0QnAMsCrHNurB0BKE70oTm6eH8+qWBneB4NiARsH8CywcsHt3wDsDPwnLCKf1YG3A9thT13PY/P1/wA83cR+Zjli2ANLVDsd+6ijcfie4ps955OBt3Z/5jjgGeAG4EKqs1b9W/B1t98H3BkUS4/tKT6jqIv4eETaxnBs/nPREbjvTxDTaY54uoB/JYipWWOArzHwvPN52KC+kQ3ub68B9tNom+w/pAFVdRbAzo64umj8Rrks8GMGrs0wG/gs5T8sDMdulp5zkuLvdaIjnmkJ4hFpK9dT/Af40wTxbO6Ip6ftlyCuRk0Gbuwnpv7a5TRWxngsVnuh6Pl4Y8SBDaCqCcAHHHFNp7HXe+OwaoyN7PMKrNesLJ7z0QUsJE38lzhiuihBPCINq/sYAIBrHdvuGhbFUndi3eQe36f42uIee2FFiRrtet4T+GED/24OlqgV5XnHWleeY/4Xjb0y+TWNj4V5HVaCePuCMXlMwD+18S/Ya41Iw7CemqI81y4Rt3ZPAF4FjI8KpJdGboqDWQ84KSKQJhyEXSQnNLnd4cAODfy725qOaKk1HdvWleeYGyl1/WbgTU3udxKWXHhmJxTxTXwj/wF+EBFIH5viu34oAZBStUICcJ1j2w58GfxAzgMecu7jU6TpoejPUcBvKDaYqQM4ooF/d3+BffdYwbFtXXmO+b4G/s2RBfe9HHAxVqEwh7dgSabHf7HXVdE8v895WI+KSGlaIQF4Gl8Bnj2jAullMfbU4jEC66JNPZ3rUGwQmOe78LoG/o2n+IoSgOY0cq5f59j/KCxhTD1WZRK2xoa3VO7XAmLpj+facSM2LkGkNK2QAICvKy1V8Z2zgSec+1gH+CXp/k5vIeYC20h39RzH/pd1bFtXYx3bDnWuV8Se5D1GAr/HtyzvYEYD59P8K6m+bsd6LKKNwFenQd3/UjolADYOYHJQHL0tAKYE7OcA0iwXvAXWwxAxvWtuA/+mkdkCA5nn2LauPMc81Llu5O/ViGWBPwLrBu2vtx9gi/549UzTi7YjsJJj++j1CESapgTApJpmdhY2zcrrMzT2nr1RK2HFfDxPmb3d3cC/GefYv6f3oK5mO7Yd6rXRQuABx/57m4D1BETOWvk8Md/3vwF/DdhPfzzXjE6qU+xL2lirJAB34+tuT/UaoBM4jpgnkJ8A7w7YT8++NgjaF8CfGvg3nuWOlQA0p5Fz/WfH/vvajrgVCD8GfDlgP4uATwTsZyCea8ZNwAtRgYgI/JziBTlewt45pnKeI7a+xUze5ozl3UGx9LRnaWzA2p8cn/FZ1xEPrqqFgL7viOsnDex/TSyxivoeLMHKNnschSXNEfGc6oxlMKtix1s0tikJYxNpS2/Hd8FIuejMythshYgL22KKd49OwOq6R130F9PYk9Aw5+emnHJW1QTgo4647mrwMw5zfEZ/bSrFx3qcSNzN/z7SDhx9vzO+nRLGJtKWxmFPyEV/lI08NXm8xRFb39aJFQpqdvT+9wJjmIclXY3YzvlZKZZu7lHVBGAfR1ydNF5I6EgGXgegSDuxyeMcAZwe+PmLSVPbo7eLHfE9h61rICLBrqL4D3M66Rc8+YUjvv7a+TQ+kG9jfAlS7/YYzZWEPdXxWQtIWxa5qgnAmo64uoDjm/isPbFXORHfjVk0XnN/AnBZ0Of2tK83cdxFrIRvXYvfJI5PpG19Bt/FI3WJ0xWAe50x9m23A5s18NnnBH3eDTS3qMoo4EnH56WeLlXVBACsS71obHfQXA/RZOK+m40MCNwJq5YZ+Vu4nrRjecCqEnpiPDRxfCJta2t8P84zM8S4MTDTGWffNg84gYFndayJ76mlp91M87XPvau4RYwIH0yVE4AzHbF10XylvlWx8QPe78mLDDztczj2XY3qjeppT5NnzYi/O2LspNwVFUVaWgfwMMV/oDMoVg+/WW8lbsBT73YF/a8i942Afd9L82WJO4B7nJ/7+iY/s1lVTgAOdsTWBfy7wGdOwtdj09OO62ffr8amwEV/7xeQriJhbxPxJS6edUtEpAGn4LuYNLtCWlFfdMY52MXwq8Dy3Z8zHHjcuc8XgU0KHONezs+djpWcTanKCcBKwHxHfF1Yxcdm7Yy/x6j36o8TsMp+i537HKh9qMAxFnGkM85jM8Up0ra8I87PyxRnBzbzIMUFsQtb+/yjWDewd1+HFDxGbzL2/YKf24wqJwAAFzji6wI+XvBzP+383C7sPf9niX/l1bt9oeDxFfFvR5xLsN4VEUnsAYr/UOfjX3u8UcOB3zlibaR5n7r+SfHFgi50fvaOBT+3GVVPAA50xNcF/LDg547AnuLL/O4N1b5b8NiK2ATfa7urMsYq0pBWKQXc1/mObUdT/Im3WUu6P+vShJ/hmXPciXVbdhXcvuh2AP/D1nFvd3/FXuEU1Vlwu8X4S+mmnO/+S/ofZ5DKEfhWzfRck0SkCVvhe7K4B/8Suc0YhS2okvJpqUj7g/O4vub47Kh1D4ZS9R4AsG78ojH+n/Ozr3V8dqp2NulrdvQ2CnulVjTexWj0v0hW3tHnOUYV9zYCu7CVfXHt3V7rPKbdC37ug+SrllaHBGAsxQr1dGLTTj0OKvC5Kdsp5E3OAd7ljPnyzPGKtL2T8P1oz8kfMh3ElkX1tCfwvyLqwGoHNPvZhzs/txnfKhBfT8uVAIDNnW82vksCPncssYsGFW2d3eegDP9oMMaB2gfyhyzS3tbENwhpLs0XvYlyFDGFezztR0HHsg1WqKjRz/0reZ/wftBEbH1bzhHoI7EqjI3G9gJW3S/CH5r43BTtJfyrYBa1Ab6V/2YBy2WPWkRci3Z0AZ/LH/L/tyvw1ABx5WiRJUvfiF3Eh/rMf5H/YnluA3EN1FIuOduflYFbG4jrWWCHwM+NmBJYtE2lWC2DKJ4EsQs4I3/IIgLwZnw/3qdIX1t8MGtS3iCsRtYXaMZ6wEX03yvzBDbQrYxV0v7aTzyNtrNKiHc0VkRqRj/xLAB+BawW/Jnegk5F218prxcOrICR9/XHq7NHLSKADazzVsH7YPaoX2441hMRXTt9qLZCouNZHVtG+Cjs3O5G+mp/g5lG8XN0ff5w/78x2Cp+R2Ir/72ZdPUrNiLvd28O8GHyD/br6/P4juPW/CGLSG9fxvcjvpdq1EvYApsbn+MCvJDyL745jMNX3GU21fhupDaefDf//+KfuRBhNP5XcB/JHrWIvMxkfIN4usi3PsBQlgGm0NyguiJtEfmqIZYpokzyttmjzm9j0t/4Z2KFfXLO7x+Mt+7/HJpfPEtEEvgLvh/zldkjHtx6wJ9Ie0E+KtvRlOdH+M9TzpkAZTmZdN+zTqyqX/S4BY9h+OuI5FhaXEQasCf+C9XrcgfdgH2BW0hzYb4643GUIWKVxC7s/LeyYfjW1hjqO7ZrvkNp2HvxJzXRg2hFxKFIQZre7Zr8ITdsL9Kss759zoPIzLvITu+WY9Gisnhn0vTXrgMOyHkQTRiO/+k/ogCTiATyZvVdwN7Zo25cB/BW7Kkq6kL966xHkNdlxJ2nczPHntNVxJyjTuDvwBvyht+0w/Af6x65gxaRwY0AHsH3w76ReoyO3wRbKrWR4juDtSVYJb9WsztxN/8urLbB5lmPII834T83L2LFcOrQJT4SKzzkOd6bskctIg05Hv8Frapdl/0Zh3+MwN+zR51WB5bIRSYAXdhA01YyErgT3zn5J7aWQF0chf978J7sUYtIQ1bApht5fuC3Uq+53/+H/6J2cPao04k4HwO1d2Q8jtS8i2l1Ae/MHnVxY4BH8R3vNKozjVFE+uFZo76nHZY7aIeJ+BcWeg4rS1x3ryLtynbPAWtkO5p0tgPm4zsXz1NuGe1mfRb/3/+Y7FGLSFPG4+8FeBJYPnfgDhfgv7hdS7kle71WAG4n3c2/p10FjMp0TCmMBx7Gfx6+nztwhzXwj5d5hHolPCJt62T8F7ivZ4+6uB2Jubn9nHoMguxrJHAp6W/+Pe1c6nmeRmMrMnqPfxFWrKouzsF/zEdkj1pEChlH/6upNdPmUa+LXMSFvQt7hVInI4DfkO/m39NOp15JwAhieoq6qNf00R3wrQfRBTxIvXvHRNrOifgvdBdmj7q41xN3c/sm9bi5jcaWIM598+9pP6OcJY6bNYa487QYW7iqDjqA/+A/5kNzBy4iPssBz+D/8b8+d+AOkesHnI3dOKpqDWzcQlk3/572V2ClxMfqsTK21kXU8f4ka/Q+h+A/3nuoR5InIn18Av8F4AFslb462AD/6O7e7QZgnaxH0Jg98S/lGtmmAq9OesTFbI+/OFbv9jz1WUVyIjAd/zEflDtwEYkxGnt/570IfCN34A5fJvbm9iK2dGoVXgmMw6rOed/ppmiLgFOoRrI4GvgKFlPkMX4450E4nYv/eP9DNb73IlLQW4m5uNelZO5I0iwcdDXlLYozErv5PDlEjFVoU7HCSmUVk3orcP8QMRZpl1Kfm+E++I+3k9ZeBEqkbVyO/4JwM/WpAvYqYC7xN4FO4I/AbpmOYzngaPz12wdqdxLbRd673Y69g84xd3wYduOPGPDWX6tTAaSxxNQ5+GXuwEUkjS2x0cvei8KncwfucBhpbgY97SbgY8AqwXEPwxKM7+Ev6DRYmwlshL0njxw30bdNx14NvJr4J+j1sZoXEa+5BmqLgf2C407pO/iP+SVgUu7ARSSdH+O/MMzFnq7r4lTSJgE9N4jrsbEHe9N8QjAMW0nuCOAXxMzcaCTmN/WK4fAMn9mF1aL/CTatbKMmzxPAWsBbgNPwL+TTaDu+QJxl2ZWYRP9zuQMXSaEu7+xymIiN6F/RuZ9bgZ2Ahe6I0huOTQ1801D/MNjTwEPA41j38UvYU/YobJDcWKxLeT1gXfJPNzwaG0zY2xTsaTqnudh5egg7Z3OwAlRLsHM1Dkuo1sLO1YTM8Z1JfSrgjQNuAyY79zMNS/LnO/cjIhUTtVLc/2vvzmO0qs44jn9nmAGGGUAWLYtVoRiBiVTBxmo1tkq3FAFjFzXW2mAwURqFVk3VNrSp1obWRKIt3RtsCwFrYymtxSbSCkgbqVUWhbJVVEBEBIZBmGHe/vG8b3iZzv6e5d77/j7JEwgJk3Pu3HvOXc55nnmhG16CGtysgchKfKOd41QBPJaA9iUlFpOu/e+/wU2/p4duuIiEUQmsovRB4gTpShDUD3iW+JNK7PhmJ8epAityE7udseNJ0pX69kbc9PuJ0A0XkbDqKb18bg57vR36lWwp6oDlxJ9cYsQJYHYXj1MFtmgvdptjxULSVe1wFG4Wix4gPTsdRKQEc3EzWP6OdK2zqMK+fceeZELGUXqWzW0WbhaUpSm+TfrOZxdv9HLAzMBtF5FI+gAbcTNwzAncdhfmYIsYY084vuO/lJaidzKwLwH98B1HSGfBmx/gpv8rSdeNj4iU6FLs1XCpg0cT8NGwTXfiw9iK59iTj6/4I27y1p+Fu6fMJMZG7LNY2nwBN/0/Ss+2ZIpIys3HzSCyFzgzcNtdGAT8mviTkMtoAG7F7RNdL6y8tIu1I0mJE8Cj2ALRtKnHtpa6OA5fD9x2EUmIvljKVhcDyVrCpH314QrgVeJPSqXGMkrfB96Rc4G/JKCfpcbLwCWOj00o/YFNuDkOz5GurY4i4tgFuEsF+6PAbXepBrgXWw0de4LqbqwnXLraCuB6/NUn8Bl7sMWNadriV6wCq0Xh4lgcIJmlrkUksDm4G2RvD9x21wZj2+AaiD9hdRZbsJoHMZ7iemOT6WtdbGvMeAe4H9sKmmYP4O6YXB+47SKSUBXACtwMLM3AlLDN92IQcBf+quWVEs8B1xKv5G6xamwF/TriH5fW8SpwG5Z6Oe1m4O64qNKfiJxiBO62fB0GJoZtvjdVwFRgEbZdLNZk9jpWBGe83+6WZBLwQ6wCYKzj9C5WVGky2dna9nHcbVvdBgwI23wRSYNpWM17FwPNm9gWsiypw16d/gqbkH1OZC1YcZd5WJW3JDztd1UvLFX0fNwtWOtsUvsxcA3hCyv5dj5wEDfH6TjpXfwo0m1ZeQII6XvA3Y5+1gastv1BRz8vacZh+RQuyMcEevZ0lQN2Ya+sX8jHauxJOgtGYjcxF2FvCcbS87SzB7Abo0KswqoJZtEI4Hnc3UjfCTzi6GeJJJ5uALqvF7bVy1Wxn5XYCvWjjn5e0g3CciKcDQzDPiEMxBbNNWNP9oexV9V787GN8jk+BXVYid9hWMnf07Bv9b2wtx1N2GTfDOzGFhvuAg7FaGwEg7ECVhMc/bxFwA2OfpaIZNhg7KnK1SvaFaQ3R4BIaLXYQk9X19/LZGMhpIgEciHQiLtB6PfY07CItK8Gt6WrD2GfXEREuuWLuF2s9TjpWswmElJvrIaDq+utBVsYKSLSI67L5y5AazNEWqvCymu7vNbmhuyAiGRPNe7zv/8EvQkQKegNLMXtNbYY3WiLiAP9sS1XLgeo35LenOwirvQBnsLttfV3tOhWRBwaiW3DcjlQ/YHsJW4R6apa4BncXlNbgaEhOyEi5eFC3NUhL8SfsZXPIuXkNGANbq+lfVjJZhERLz6DJWdxOXA9iyXLESkHw3D/Sa0RuDhkJ0SkPM3AXc2AQqwne7UDRFqrB3bi9to5DlwdsA8iUuZm4XYQy2EpXy8K2QmRgK7E0hu7vGZOYAWqRESCug/3NwENWPldkSy5GTiG22ulBZgZsA8iIqd4EPc3Ac3AV0J2QsSTCiwhj+tPZjnga+G6ISLStu/jfnDLAQvRDgFJrzpgCX6ujXsD9kNEpF0VWHY/HwPdWqy8rkiajAU24eea+E7AfoiIdKoCeBg/A94+YHK4roiUZCrwLn6uhYcC9kNEpFvm4mfgawbuQfnNJbl64e97fwswO1hPRER6yMfugEI8CQwJ1xWRLnk/sBI/5/wJ4JZgPRERKdFt2MDlY0DcA3w6XFdEOnQtsB9/b76+FK4rIiJu3IL7tMHFT0XzsFKqIjHUAb/A39uuo8C0YL0REXHsE8BB/A2S64EJwXojYj4EbMHfeb0fuDxYb0REPJkIvIm/wbIRuBuoCtUhKVs1wHeBJvydz1uAMaE6JCLi2wjgRfwNmjngJezJTMSHy4BX8HsOPw+cHqpDIiKh1AHL8TuANgGPALWB+iTZNxA7p3wtai3EUpT5UkQyrBp/WQOL4z/AVYH6JNn1Ofx+vsphe/wfQDkuRKRM3IR9u/d9I7AM+ECgPkl2jAOexv/5eQj4bKA+iYgkxkRgB/4H2ePYK9wBYbolKTYYO1d8bV8tjs1AfZhuiYgkz1BgBf4H2xxWU+AOLGWrSLFqYCZ2joQ4F5/C1haIiJS1Kiypj48c6m3Fi1jBFn1zlUrgRvzu6S+OJuAudO6JiJxiOvA2YQbiHPAP4JNBeiZJU4Et8NtIuPPtNeCKEJ0TEUmj9+F/q2DrWIPKDZeTycA6wp5jT2DrC0REpAMVwFeB9wg7SP8NmIJez2ZRFXAd4Sf+Q8DN/rsnIpIt9Vh2v5ADdg7LIXAHSsqSBXXY4r5Q3/iL45/Auf67KCKSTTXAfPxnYWsr9gD3A0O891JcG47l7H+H8OfNceBbqDaFiIgTlwAbCD+Y57BPEUuwb8f6PJBcldjvaAlwjDjnyr+w/BYiIuJQNXAP4dcGFMfmfBvO8NxX6brh2O9kG/HOiyP5NijHhIiIR+OB1cQb7AtvBRYDVwO9/XZX2tAP+DyW6jlE1r6O4k/A2X67KyIiBZXA7cT5xts6DgC/BD6FvaUQP/oC1wCLgAbi/97fAG7w2mMREWnXEOAxLMNa7AkhhyUy+imWYKivx36Xi1pgGvA4cJD4v98ccBR4ENthICIikY3FXsXGnhyKoxF4Bvs2PN5f1zNnNLZ1bxlx13u0Fcvy7RMRkYSZDmwl/kTRVmzBKs1NxYogiRmOpeVdAOwk/u+prfg38DFP/RcREUf6AHcCe4k/cXQUrwA/B74MnOflSCRPJZbg6VZgIXFX7ncldgIz0Op+kdTRnu3yVgvMwqqvpSGZzz6sUuFLwPp8bMISy6RRDTbZTwDOz8dEYFDMRnXRG9h3/p+R3uMvUtZ0AyAAA7A3AnNIXw32Jiz3wAbs08YO7Kl0B7AL2wIXU29sC9w5wKj8n2OwSX8M6XtyfgvLILgAW38gIimlGwApNggrMjSL9N0ItKUZeB0rM7sb2N9ONOYDbCV9C3Zj0ZD/t/5Y2tqq/N/B3p70w96cFGJo/s/TsaqN5wAjsNf6afcW8DDwKJbUR0REMqgOK/azk/jfmBVxYyt2LvRDRETKRiWWyW8t8SciRdh4AbiJ9H2iEBERx64ElhOn6qAiTDRhhYIuRkREpJWRWOKencSfsBRuYhfwEHAWIiIinSguLXuc+JOYontxDJVwFhGREo0E7gM2En9iU3Qc64DZKNOiSNnTnb+4Vo+lrb2O8snel3SbgKVYlcDNkdsiIiJloB6Yi+X4j/3kW26xHfuuP66zX5KIlCe9AZBQRmNbCqcAl2P1CMSd94BVwF/zsS5uc0Qk6XQDIDH0Ay7FbgimYalypfu2c3LCfxo4HLc5IpImugGQJDgP+AhwGXZjoLUD/68Fq464Clid/3NH1BaJSKrpBkCS6AzsRqBwQ/BByi8V7WGs8uHqfKwBDkRtkYhkim4AJC1GAJOA8djiwknAWLJRaGc39s1+I7Zifx32tN8Ss1Eikm26AZA064+tch/NyVK7o/JxFlaKNwmOcbJE8Y6iv2/HJvrG9v6jiIgvugGQrKrEEhSdSdvlegv/Vgv0BWry/29g/v9WY1URwV7HN2N1EA7l/+0IlgGxAXgb2EfbpYYLpYhzXnopItJD/wM4YtfE7Sxn7gAAAABJRU5ErkJggg==;" vertex="1" parent="1">
          <mxGeometry x="105" y="495" width="90" height="90" as="geometry" />
        </mxCell>
        <UserObject label="Positive induced mood" link="https://www.flaticon.com/search?word=positive%20mood" id="8HKQdC73j9jO4bcsfkeK-3">
          <mxCell style="text;whiteSpace=wrap;fontStyle=1;fontSize=14;align=center;" vertex="1" parent="1">
            <mxGeometry x="80" y="588" width="140" height="20" as="geometry" />
          </mxCell>
        </UserObject>
        <mxCell id="8HKQdC73j9jO4bcsfkeK-4" value="" style="shape=image;aspect=fixed;image=data:image/png,iVBORw0KGgoAAAANSUhEUgAAAgAAAAIACAYAAAD0eNT6AAAACXBIWXMAAA7DAAAOwwHHb6hkAAAAGXRFWHRTb2Z0d2FyZQB3d3cuaW5rc2NhcGUub3Jnm+48GgAAIABJREFUeJzsnXeYXVXVh99J7500AkF6r4HQkSZNqlQLfIqioqAoCGJDAQEVkSIqSgdpUkNvUUroNZDQAgk1BNIJCSlzvz/WXDKEmVvWbuecu97nWc+AeM797X3K3mfvVcAwDMMwDMMwDMMwDMMwDMMwDMMwDMMwDMMwDMMwDMMwDMMwDMMwDMMwDMMwDMMwDMMwDMMwDMMwDMMwDMMwDMMwDMMwDMMwDMMwDMMwDMMwDMMwDMMwDMMwDMMwDMMwDMMwDMMwDMMwDMMwDMMwDMMwDMMwDMMwDMMwDMMwDMMwDMMwDMMwDMMwckNTagGRWA7YC9gA6Aq8C9wPPASUEuoyDMMw0tEEbA3sAAwHPgGeBW4BPkyoy/BAZ+Bk4GNkoF/WngY2SabOMAzDSMUoZAxoa2yYB/wOGUOMHNIVuJ22L25r+xjYNZFGwzAMIz67A/OpPj7cjowlRo7oAFxL9YtbttnAikmUGoZhGDEZibzzax0frkXGFCMnnEPtF7dsFyZRahiGYcTkEuofH85JIdSon+Op/+KWgI+ALgn0GoZhGHHoSvs+YdXs+AR6jTo4FGhGd3FLwPrxJRuGYRiR2BD9+NCMjDFGBtkFWIj+4paAL8YWbRiGYUTji7iNEQuRsaYQFMWxYRTwH9xDNorSH4ZhGMbncX3HdwZuALbwoCU5RRjwVgZuBXqlFmIYhmEUnh5IoqDVUwtxJe8TgOWAO4AhqYUYhmEYDcMgZOwZmlqIC3meABRmFmYYhmHkjtyvPud1AtAZuB7YPLUQwzAMo2HZBLiZnGYLzOMEoAm4AEvfaxiGYaRnB+BiGqe4XlLOwC2Mo5LtELEdhmEYRlx2INz4cXrEdjQk3yfcxbMJgGEYRrEJOQEoAT+O15TGYm9gMTYBMAzDMHSEngAsAQ6I1hpH8uIDsB1wNdAxtRDDMAzDaIcOwBXAzqmF1EIeJgDrAjcC3VILMQzDMIwqdEEy026YWkg1sj4BGAHcDvRPLcQwDMMwaqQPcBuwUmIdFcnyBGAgcDewQmohhmEYhlEnw4F7kIy1mSSrE4DuwE3AWqmFGIZhGIaSVZFsgT1TC2mLLE4AOiJOFFunFmIYhmEYjmyGOLF3Si1kWbI4AfgLsF9qEYZhGIbhiS8D56cWkXVOImyMpuUBMAzDaFxC5wGoZr8J38R88h38dfJc5XE2ATAMwygu2gmAdkxpy74TvJU1kpUtAJ/LIycDj3s6l2EYhmE8Dpzi6Vx/w7a5P2Uz4CP8zKwuRyoy3ac83lYADMMwiot2BeA+ZGz5l/L4Ze1jYKvAba1Kaq/ENZFEPz5CJG4Dvol0rpZhwMoetBhGnvgIWNTyzzNTCjEq0hWJKe+SWkiOGeZwbAn4HjAU2MNRR3fgZiTa7SXHc6lJOQEYDtyJJPxx5THgIKRYkAtXeNBiGEVgITCv5Z/ntfz7dODDlr+t7UPgg1b//j7uz6KxlC8DPwK2QSYBRjoWI2PNfcBox3MNRMbALYF3Hc+lItUEoC/y5T/Sw7leQR6QedX+j4Zh1EwXln5pllNx17o6thh4C5gMvNHyt/zPbyAvO5eVukahK3Ah8LXUQozPMA8Zcx4GVnc810hkLNwOmO14rrpJMQHoihT32cDDud4DdkW+QAzDyAadgC+02PZt/PdPgDeBl4HxwHMtf1/BVg7KNCE+TbkpLdtgfIiMPeOQLQEXNkDGxN2QZ6OwNAGX4ceJYg6wUTu/o3UCNDMzS2cLgReBa5GcIHvitmebZw4k/fUwW2r3tXOd1kP8Znz8xjVEjsyLvQLwZ+AbHs6zCNgfeMbDuQzDyAadgbVbrDXvAU8BDyHLro8jk4Ui85PUAoyaGI+E9N2Bu3/GgYgPzZGuorLIcfiZJS0BDqnyW7YCYGZWXJuDVAr9DbAT0Jti0Q9oJn0/my219lYAyhyCv2t2XJXfyh1fx1/n1DIztgmAmVnj2GLgaeCPSJx33sPkNiR9n5p91qpNAEDGJh+/1YyMmYXgS8hynY+OObPG37ze0++ZmZnlz+Yi5cS/i59Io9isS/o+NPus/afiFVvKmZ5+byEyduaaTZDlOh8d8m/EibAWfu/pN83MzPJvLwJ/QrYL8hBH3x1YQPp+M1tqtaYB7oCMVT5+cw4yhuaSVYCp+OmIe6hvWW+Up981MzMrls0FrgT2JtuTgRtI31dmS23jypfrM3QB7vX0u1ORsTRXLAe8ip8OeBroo9Bwi6ffNzMzK6bNAi5F0rpmzW9gIyTaKXUfmUmMfr30QcYuH7//KjKm5oJeSJiOj4a/jj7JwnLAJE86zMzMim0zkKx7u5C+RkqZo0nfL41urwGDql2odhiGjGE+dDyOjK2ZpjOS1tBHgz/APc3iUCwiwMzMrD77ADgXP9lKXTkMSRGbuk8a0e4BhlS/RBVZHbmffOi5HRljvVGrU12t57oYuWFdmQfsiBT58cGXkCQL65KjpRTDiEQv5MXShMSgG0t5HPgncDVSNTEFw4HTkCRqPt/Z7fEeMD/C72SRD5DkPtciEwAfjAbuB3p4ONeluFe9/RSfN9PvgZ97OM9iYB+kvK9hGGnoytIXVu8WG9hig5CJ9MBlbDCwAtnbT/fBXGQS8E/giUQaRgNn416FrhqvAAdjmVZ9sgcSmupje+k04EQP5/HGD/GzxNGMzG4Mw8gnHZBJwDbAoUi2vouBsUhFwCI4tj2DpGvt66fL6qIJWQl4pw69GlsAHEWcFYdG4Vv4S4j3w8ja22V/JD2vj0b9IrJ2wzDi0glYC9mSOxUYg0wMUg/qGpsDnAWs5LF/aqUXsuo6v0atWrsJGBCpTY3AL/FzXZYgY29StsPfDXh+ZO2GYWSHfsiqwZHAP1ha8Cf1IF+LLQKuQvKPxGYV4K469dZrU4CtYzWoATgfP9dlPjIGJ2EdJHTGR0NuBjrGlW8YRsbpgQw8P0Kcsj4k/WBfzR4CDiD+++wA4H1H7ZVsMVKi2d7T7nRAUgv7uC6zSRCtsgLwtqPwsj0AdIsr3zCMHNIBieT5HnAZ8AbpB/z2bALwbeJmGxyA5DIIWUnwXiS+3XCjO/Agfq7J28iYHIUBSG5tH8JfAPrHEm4YRuFYA/gxsgweej9cY+8gDlsxJwLbAS95bkdrmwpsG601xaU/Mgb6uCYvEsFXw+es5S0izloMwyg8PYDdkSQ+r5F+8G9tU4Dv4DmRSwW6Ar8lnB/FQuD7kdpSZFZAxkIf1+RBZIwOQkckJ7IPoTMQHwLDMIxQrIasDjxM2GXxemwSkiwt1l76Jvj7ymzLLqCYeR9isi4wEz/X40YC3VuneRI4H/H2NQzDiMUKwE+Q7KKpJwElZIn+YMSvITTdkHLIvsK1l7WH0NdsMYRt8beF9Xvf4jbAzwx6MbCfb3GGYRh18AXgeOAp0k8ExgN7hm3up2xDuAJpbwGbRmpHUfkKfiZpS4D1fAr7pwdRJSTG1zAMIyushmQrnELaicBdwNqB2wqSQOgfhNkSmY9kKTT0/AA/1+IfPkX5KGl4ik9BhmEYHukA7AbcQLoERIsQB8YYmfd2B6YFaseZZKekch45Ffdr8JpPQZ84ivkPllPaMIx8MBQ4gXSRBNOR0MHQg+jywH8DtWEM0DOw/qLSBFyPW/8v8CnI1UPxA6QusmEYRl5oQsqSX4X7R5DGXgB2DtzGjsDvCOMg+ChWfl3DGsiY6dL3M3wK+p+jmBKyjWAZpAzDyCPLA2fgL1yrHrsZWDFw+3YA3g2g/RWkXoFRG8Pwk+FyrE9RR3oQVAKeBvr4FGYYhhGR3sAxxK9gOBc4mrBhg0OAuwNof580hZLyRh+k1LSPPv+eT2HdgJc9CbsXSxxhGEa+6QQcAjxJ3InAI4RNotYBiYrwvSUwF3GyNNqmCzI2+ujrlwiQenoDpP61D4H/Jk4CDMMwjNBsD9xBvEnAJ0ia35D1BfZEKs351L0I+GZAzXmlAzIm+ujjOcD6oYRuj3gX+hD611AiDcMwErA54v0eayLwKvJODsVq+Cv81tpOD6g5j5yJn35dCOwSWuzX8JdE4iehxRqGYUTmi/grmlbNlgDnIQl+QtAHuCWA7nOw0HCAn+KnP5uRsTkKx3oUfWgs0YZhGBHZGj8RVLXYG8BWgdrRhKRO9u0XcAGNvRV8MP769KeRtXOWJ+GfADtF1m4YhhGLPYFnCT8JWAj8gnCVBvcF5nnWfBGNOQnYCX+5Jc6KrB2QWeFlCrFt2Rxg47jyDcMwotGErHa+R/iJwCOEi73fAH/168t2FY2VOng9/OWTuJqEE6jO+IsbnYY4nRiGYRSVnsBJ+Cv92p7NBr4eqA3L439F41pkPCk6X8DfJHAsYSNBaqIPkuDHR4NeQ5JRGIZhFJlVkUEv5CSgPLD2D6C/N/5DH8eQgQEtIIOQGH0fffU80C+u/Pbxlb6whOSPtiIShmE0AjsB4wk7CXgd2DSA9i7AJZ61FnUS0BMZ23z00Rt4SqvvMwxjDeBhYKCHc90G7AMs9nCuMisiey9DaKz9JsOoxMyWv4uAj1r++WPEQQlgVotNj6yrkegEfB8pmR4qVfonSIXBf3k+bxPwayR7oK/x5B6kgmxsFiNpi8cDb3o8byeknsPuHs41HYn2eNnDubyzOf68RC/Ezw21A+IUE3KGbWZWdFuC+OlMQGLcb0Ke0dOQwWs3YC0kbbihYwThEwn9kzBf2N8jTEXBVDYOyefgShMS6eBD0zxkjM00eyJfEz4afLKjluPxl7TIzMysNnsXeYH+GzgV+Cqy+tYITl4+OAiYSrjr8zhhqgsegoQipr7/fNkS4GeOfXKKJy2LkLE1F3wbfxfh+0oNh3rUYGZm5m6fINXOLgOOA74EDMVoiwHI/nqoD5hpwI4BdH8Z2UJKfa/5NG2GPV9VdEvImJorfo2fhi9GElDUQx/gA0+/b2ZmFtYmA1cgL8z1CZfIJo/sDEwiTL8vRr5wfafk3Q7/hYRS2jQk6qEe9kP618fv/7rO384Mf8dPB8wHtqnjd7/p6XfNzMzi22wkxOxXyD5so5cP74Hkzg+1GnBdy2/4ZBTF+gg7rI62b4O/PA9/r+N3M0dHxFnIR0fMoPY62Bd7+k0zM7P0Nhd5j3wXGEnjsivhMgk+jv/tmLURf5DU948Pu6jGNq+DjFU+fvMmCrAa1h14CD8d8ibiKVuNOz39npmZWfbsReBPSAx9EWPGKzGYcJECbyCDtk/WJE7649B2Zw1tHYGMUT5+7yFk7CwEfYHn8PfwV8tsdZ+n3zIzM8u2zUKcCveksbYKDkXyNvjuzznISoNP1iD/KwH3VWljX/ylR34RcQItFMsDU/DTQY9Qec/KJgBmZo1nM1g6GWiEkMM1gafw34+LgCM8a12DfK8EVJoAdAMe8PQ771DgbS6fVZD+Q/v7IzYBMDNrbJsG/A0YTbHpCpyJfwfBZqRokc8IgXWR65L63tBYexOAjsD1nn5jJjJGFprtgAX46bDz2vkNmwCYmZmV7TkkDW5miqcE4CvI8r3vvrsMv1sr65PP6ID2JgB/9XT+BcjY2BAcgL+0kSe2cX6bAJiZmS1rHwOXAltTTNYCJuK/3+7Ar0PaBuTPJ6CtCcCJns69BBkTG4qj8NN5zcD/LXNumwCYmZlVsgnIqkDRKo/2xt+SdGv7L/Unw6nECsAtAXSGsmUnAP+Hv22Xo1Q96AHfGaDq5TTgBA/nWQzsDdze8u/3IUWA6uVWZGZqGI1COaKmC0sHw54t/94JqWE+kOIW+ZmB+Aqch+TfLwJNSIa/U/EbR/4YUvRpZrX/Yx2sg1TJG0kcx83hSLriermfpamTd0eq+/moKns68HMP58klTciSnI9Z1EfAZi3n1a4AaCYNhtEI9EQKyGwM7IIU+DkGOBv5khuPJOxJ/aWmtQVIqVzfcfAp2Qn/++3PILkI8soOuK0AbIa/8MtLSf8RnpzOyB6Tjw6dBqyGTQAMIxWDgE2BA4HfATciuezzUpWzGbgN2NZ3xyRiJPA8fvtoIhLWnUdcJgCr4S+K4Q4aI1S1JnoBT+CnYyehv+FtAmAYYegNbImk8z0fed59lQ0PZfcAW4TojMj0Ae7Gb99MAr4QsxGe0E4AnsdfUaYnkDHPaMVg4FXSPvA2ATCMePQEtkeK/tyBZPVLPei3ZbcCmwTqg1h0RrY4fPbLW8DqMRvhAe0EwJe9Sr63UIKyCuKIYxMAw2g8OiCJUH6E5F73VVHNhzUDN5D/RC0n4nc75i3ytRKQcgIwFRnjjApsQjpnIpsAGEZ26IF4XJ8LvEb6SUAJidm+gtqKkmWVQ/CXjK2ELI3nxScg1QRgLvlfRYrGLsBCbAJgGMZSVgOORUrXpp4IzAN+TX4rtm0DTMdff0wgH0vbKSYAC5ExzaiDbxDfc9gmAIaRD1ZGcog8Q9qJwBTgIPIZzrUG/srXlpBrUa1Sa2piTwCakbHMUPAzbAJgGEZlVkccCV8h3UTgQfK5xDsSv9srj+I3Y6BvYk8AfhanWcXlbGwCYBhGdZqQqIIr8bvHXastQUIc+4RuqGeGIzXoffXDWLK7NRJzAnB2pDYVmg7ANdgEwDCM2hkI/Bi/A1ut9jawV/gmemU54Gn89cEd+K0i6ItYE4BrkLHL8EBXZFZpEwDDMOpla+A6pGZIzInAtcDQCO3zRT9gHP7an8VUtzEmAGORMcvwSB/CO/zYBMAwissXkGVZX7nca7GZwBFkbyBsj574zRr4m7jyqxJ6AjCe7DtCfkpebsoyw5EZ6shA598RqfqUFfogxVdWILt7aiGZgTgojUf2Vw3DBwOA7yPlgGN9od8LfAtJnJN1uiMlhXfzcK4SUjr3Mg/n8sEOfL60ry+mIOmuraJsQNYCPqTYKwDLIw9MljKhpbQ3gR/gt7SpYXRFahP4DIWrZDOAA6K0zJ3u6IuqLWufIM6ZWSDUCsCHyNhkRGBL4GP8X8QsTABGIy+K1INuFu02GnMlxAhLV+Ao5Mstxn18MdkOlSvTC38+ATPJRqnlEBOAj5ExyYjIXvh36kk9AVgLmE36gTbLdrm6dw2jMj2An+Kv5Gslew2Z7GedfviLDngDGBJX/ufwPQFYTP4iPgrDEfi9mCknAP2Al9vRZfZZy8pyolFMegG/AOYQ9j5ehCQwyvrW1nL4C6d8HJlopcL3BOCIuPKNZTkJfxcz1QSgIxI3m3pgzYtdo+tmw6iLocBFiANqyPv5HmBQpDZpGY6/jIHXkc4B3ecE4KS40o32uAA/FzTVBOCMOjSamZetEZdRwEOEvaentPxOllkJfw6Tx8WV/im+JgAXxBZutE9H4GbcL2qKCcBXHfQ2qi0hfyGsRr5pAg4mbMTAfODwWA1SsgZ+qgguJs371scE4Gayv23TcPQAHsbtwsb25NyYMNEMRbeZms42DA/0AP6A7N+Hur8vINuZ5LbFT62FaUiOk5hs5aj5YdL6MBgVGAhMRH9xh0XUOhhZ9ks9mObR7lX0t2H4ZGP85s5f1h4DRkRrTf0cgp9y7Y8Td7KzvIPWicgYY2SYkcA71H9xn4uosSOScTD1QJpXO6z+LjcM73QCjifcKt7bwIbRWlM/J+KnnbH308crNL5DuAy0hmfWB2ZR3wX+RkR9v65Tm9lSewp58RpGVliVcBP6OfhJyRuKf+Gnnd+OqPmwOrXNQsYUI0dsT+2pdG8knlPZdsSvSlYUm4J4IhtG1mgCfkSY9N2LgO/Fa0pddAbuwr2N84FNI2luAm6qQ5flHckpOwIfUPkCXw10i6RnELKsl3ogzaP9l3yVVjUak/WA5wnzDPyBbNaY74OfNk9qOVcMuiPlmivp+QDYJpKeJDRCKNVgJL3nwcCKLf/bIuB/wDnAmEg6mlp+aw/H87wJ3Okuxzt9gIPwf081A6cCv8UqAhr5oBuS2+Mo/D8P1wGHIl74WWIk8CTuCY0uR9oXi72Q67QNS50R30A+DP+IRRwViv7IJCDFHvJPcZ8hf0w2nYIGIN68vr943kNWcQwjj+yK3MO+n4v7kHTFWWMn/GxvHhxbOLKVsTzQM8FvJ6MRVgCywGbAg0AXx/McRnbqapcZAtyNfyeZe4GvA+97Pm8R6YI4og1FUraGilP+GPGGnoqkhV0U6HeKxGAkdfUXPZ93HLKaOMvzeV05ATjN8RyzgA2Q1U7DyDW9kb0t11nxX2MLr4ERwEv4/bpZjBRIyeJeZ5boCOwP/Jv6I1582EzgSuArWFa0anQC/oSfuPnW9hTZqyHQBFyPe9v+h91XRgH4O+4PwzjcVw98szKyV+bzhfYOEiVhVGYnJG9F7EG/PZsAHBC0xcXgQGAufvv+BeImMKuF3rglZCvbibGFG4ZPdsR91j8V2ZvKEmsCb+H3RfYcS500jbbpDlxF+gG/PbuCeBE1eWUN/JXWLdsbyIQ8S6yB+8rUImDz2MINwwd9cS8csojsfRGvh+Tw9vkCu5EGc75RMAx4gvSDfDV7DAvXrEZf4Fb89vsUspep7iu4fwC9QjYdHg2jIhfi/lD/PLrqyqyGf6/mrMY2Z4nuhImyCGVPYwVTqtEROBe//f4q2dsOOBP3dp0bXbVhOLAH7jf9A2TLCWYEfvf8FwFHRm1BPmmiesKSLNq/Q3RGAfkRkt/CV7+/hETmZIWuwDO4tWkJUsXPMDJPP9z3x2eSrf3w5RBHL18vqRmkqQWeRw4g/WCutX0D9EcR2QeYh79+fxbJeZIV1sK9fRPJdolkwwAkTt/1Ad4/uur26Yf7DL61TQJWj9qC/NIZ2QNNPZBr7eWWNhjVGY04/Prq+4fJll/Nkbi36aTYog2jHnbC/Sb/V3TV7dMTeZH4eilNQBLVGLVxKOkHcVf7mvdeKS4rA6/jr+/vJTtRGeVU6C7t+QRYO7Zww6iFrsgXj8sN/jLZmbV3Ae7B38voGWQrwaidW0g/gLvaDd57pdiMwE8MfdmuITtOtoNxdyIeR3baYxif8kvcbuyFwKjoqtvnEvy9hB4hW3uSeaAHfveFU9k8LCKgXgYj+/i+rsEZceVXZDfcQwN/GF21YVRgZSRPustNfXJ01e1zIv5ePmORzGBGfYwm/eDty2LVeS8SA5CcCr6uwXfjyq/IObi1ZQ7ZcpI2GhzXpB4vkh0P1wPwl7P8diSG3aif/Ug/cPuyvT33TaPQG8mJ7+MaLEKqE2aBnrj7OtwYXXUBSVEWt2jsi8T9a1kCHI44uKRmNHApfqpE3gAcgmxtGPWjzab3MjJohGA7JMVrvZjjp465yJL5HcC2jufqhOST2AZJu52SeciKxF3o3zX7IE7X9/oSZRj10hNJwekyk/1zdNVtMxJ/Wf7uIHvFi/LG79D1/SkBNZ2m1HRSQE2NQG/8bQe8TXZqi1yCW1vGYx+xRkJ+j9sN/BrZcJDqAzyPnxfMw2SjTXnnb+j6/xcBNf1aqem8gJoahQH4cwx8lGxsOQ4E3setLT+IrtowECeU+ehv3GZg++iqP08TcBN+XizPYd7+vrgO3TU4OqCmY5SargmoqZEYjKT69fGs/j2y9vY4GLd2fIhMjgwjKq4Z/y6IL7lNjsPPC+U1sleIJM9oUy9/JaCmg5Sang+oqdEYgb9kQd+MrL09XBMEnR1fstHIbIxbAY/pyPJXarZBvINdXyTvkL165HlmKPpIjNEBdW2p1NSMJYHyycq4L52XkBXMTSJrb4sVkNA+bTsWYhkCjYjch9uD9/34kj/HYGTgdn2JTAfWjay96ByCfqDtE1BXf/QTkwMD6mpERuOee6QETCYbHyNH49aOO+NLNhoR11K/T5O+zG9HJHzG9eWxACvTGYK70V2PVyNo00a93B5BW6OxH35KCd9N+ndSJ+AF3Nrx5eiqjYaiI243aTPu8bw+0IaYLWvfji28AVgH/Vf25RH0XaPU1oyUhTX88hP8PMsnxhbeBjvg1obxWJ0AIyBH4HaDXhZf8ufYBT9fDX+KLdyBDsAWSBjbRUjmxgcQT/uzkYmMNvGOb65Cf01iOHV9x0FfjAlKLQwBvoWkpL0W+C9yT1yIhFFuSr4GkvNwf54XApvFFt4GrgWwDoov2WgEugPvor8xZ5PeS34QfpL93E76JcNaGAj8gdocppYgRYv2SaJU2L0NXbXaEuIkeFkRt1TRu0TQ2B57Ide4lgnwVCTPRx7CWjvino68BLwC9IqsfVlWQ7KiatswkXy8m4yc8SPcHq5j40v+HNfi/pKYCPSNLbxOOgDHA7PQtXEcsFFkzYNwyyr5QESt4xx0Tia+09lGyMCv0TsTeXZ9pMcOSV9kAHd9vi+MLbwN/ohbGw6NL9koMt2QFJouL73Umbe+hvvLYQYyQ88yvXFfRiwhHtaxlhN7oB+gyhaz2tsPHbU+TLwiUQfhp6zyDaT/Oq7GmshKo2tbUy+j98ZttfU1oHN01UZhOQq3Byr1jHQ4Eq7n0obFSGGSLDMUfymNS8hS98mE/frriWypuOicRdzBqQ9ucdslJPlLyJTRTci181XZsoTcW1nxFWmPfXFv80zSl9v9Nm5tMAdlwwtdcfv6H0/aPakmJEbW9eV3fGzhdTIU2Z7w9bJvbVcT5ot1GPCkB31nBtBWjbMd9JbtccIMqN3RRytUswmBNPvkTNzbeTdptz06IKnFtfonYwXJDA/8ALcHKXVs6vdx018CxpJtx5qQg3/ZHkNC9HxxIH6yuX2EeLXHZjh+EtG8D+zvUde6yMQi5L2Q9UlAJ+SZdW3n/0XWvSx746b/yPiSjSLRFXgT/Q0Y0zGrLVZBBgjXF3Tq6IVKxBj8y7YQ+bpycYLcDPcl/9Z2qoMWV86ooKteuxUJv9PSDzgLP6mta7GsTwKGIJEMLm2cTprJZZkm3CZz75De98rIMa5fz6mz5LkONM3AntFV107Mwb+1fQRcjNRSqGVlZDkkh8RYzzqmID4EqegNvNWGLhcbi/RVLbUDOiGJtS7BfaLgSCPJAAAgAElEQVSrsaxPAnbB3R/g6uiqP8tuuOk/PL7k/JD10JaUdEK8SUcqj7+ZtDHlB+JehvUsJNNYFhmKDBZrJtYxD9nHfxZxxpuFfHUMQiq3jQJWDfTbeyMRDynZB7gx0LlfBZ5CfHA+ROLD+7XYRkghm5QTIJAJ6A7I13YWOReJ2nBhL8RpMxUPof+YmoBsC5X8yTEaAW3p07KNii/5U3rj5rhYQl68WXWiGYJ73vC82/nOveiPC0jfHyntJcQnIot0w82ZroQspfeLLbwVrimC94gv2cg7LnHZqQufnIXbAzMXWD266toYiszqU7/0U9pTxIujr4UeyApI6n5JaVneDlgfKdzl0r6/Rlf9We5Hr/3+BHqNHLMFbg9Lyr3/DXB3hMpqDO1g7Mv/XaR+etYYjvuqU94tyysBP8atbUuInx2zNVu1o6tW2yS+ZCOvuMQQj02gt0wHJMuay4NyP9n0DbEvf9kH38C1IwOyEZItMnU/pbSsrgQ0IUWPXNqWOqrJJZ/JvxPoNXLISNy+oHeML/lTXLNnLSC9U11b+B78n0Sq2s33eM7QNh3Y2LUjIzCKfE0C5iP3go+ETGXL6iRgNdxzNxwYXfVSXHwBFgMrx5ds5A2XLFqPJtBbphfucb8nRFddnRCDf7nC2w64p7SNYZOBtVw6MTLr4FbYKJbNBrZv0dyfxpgEnIhbu94kbArnajzWjq5a7M8J9Bo5ojf6CnIl0sbM/66CrlrsGST0MUuEHPzLrIeEe6YejNqzB8h2Iqb2GI6Eb6Xuv/bsVT6f2bERJgGdcXfY/GV01Uv5agVd1WwO2a9kaiTEpejPBNLtnQ9FPPe12heTNmyxLWIM/mUGIHkbUg9Ky16T35O9SVk9dAJOR9qSuj9b2420fy80wiRgFG7X5CNg+eiqhU64rS59P75kIy+4VJJLeWP9rYKuWixFMZlKxBz8W3M4bitAvuwFYHTNvZV9Nicb0RszqS2/fSNMAv6EW5suiy/5U35SQVc1ezqBXiMHjMbtxZIqI9nquDktvk76bGqtSTX4lxkCXISEPcUeoKYhWduKWMu8M7LC9gHx+3UJ8E9qSy9cpuiTgJ64pXFegt/iWPXQB7eJetZWO40M4JLN7I8J9Ja5voKuWsxnJTZXeuO2CrOs1Tv4t2ZdJA96jInA28BxLe0vOn2QtsbIGbAYuAJYW6nV9yTgebJ1jb+GW3uuiy/5U1wKUf09gV4jw/RCPIK1L5kvxJcMSGU5l2Ifj5CdmP8O+N2Hdxn8W7MScAr+B6yFSH71/cluyuWQdAEOQPrAdwW/N4Hf4idhku9JwE3IvZ4FmoAH0belmXTJgZZHakNodM8lWxMxIzGHo38IQhVCqQWX9JjNyN5sVjgefy9ZX4N/a5qQ/vo9kmxJ8/J5FbgUODiAvjwzADgE2Vd+lfr7dQEykJ2ClBT2Pan1PQk41rM+F1w/IlIWo7q6gq5q9q0EejNHVr7+UvMI+sFweyTDVmw2R3RruRp56WaBgcAk/IToPAXsjPhlhKQbsEaLrYDs7/Zp9d8/RvYp30LCDF9EkvkY1RmI7C+vAqyIFKJpHXs+C3gf6duXW+yTwJr6A/fgJ6XsLKRtMzycyweXAoc6HL8FaXKg7IRcEw2PIrqNBmcd9LPI8Qn0lhlTQVc1m48sbWeFP5LdL3/DKONzJeCMyNorMRy3MOK74ksG5AN2Uo0a27L14ks2ssaf0d9AxyTQC5IP3mXZLksvnw64ZzAsIeE9AyJrNxqPvrhloyvb+2THFwDg17i1Z+v4kgH4eR0al7WzE+g1MkQHpNa15uZZRLqwnqtq1NiWTSNb2bBcq3zZ4G/ExtckIEs+OL2Qd4O2Lal8AYYiDrUazR+Q70RbhiMuxSVSOf+tilsWr6PjS67ISbi9RG3Z30iBj+2AX0dXXZmfoW9LM+nqVdxYo8a2bOcEeo2M4BL7nyrv/z/r0LisTQW6x5dckYvRt8e+/I2UuK4E/Cu+5Ir0xG077p/xJQOwex0as6LZSExnpL66diBNka3NJfa1RLbCj8rcgQ3+Rn5xmQTcnkBvNX6M/v2ygDSFqzogFTM1mmfQmHk4gGw5ocRmJyTcSMPliA9AbH6I/madTjYzYGnTEP+N7IRRGY3LbOBC5bG9fArxxN8RvygNXYEjPWqplWbgEuWx/YEd/Ukx8sIl6Ge62tSiLnTFzUknZQnPSlyHrj2fALsk0GsYrdkBCavV3MPXJtBbC0eif898SJraImso9ZbQTx6MnNIVfTGJpxLoBfh6HRqXtVlIMpUsci76ds3BYnmNdGyAW/x8VsPQuiFhitp2/SC+ZACeqUNja5uJjAkNR6NuAeyOPhQu1azd5aE6F5kEZJHnHY7tjXgAmy+AEZuByL3nsozvcu+HZAHwV4fjf0iaLLPad3M/GnQ1sVFTAV+OfFFrWBXJPhWTjdDXsZ6HZP370JsavwxD9hxd7sVbgL39yCkkw5BSuIOQgascNtmx5e+Slr8zkftkOhIj/V5EjXmiCcnEuYfDOZoRp96pXhT5ZxAwhc+mYK6HrZGaGTFZBUm7reFK9GOCkSM6oq9Jnmr53yX076wEeuvlUfTtK1ujF/doQuKwDwZOQwaoiej3p0stx05oOddpLedek8b9cCjzXdzv13HRVdfPX9G37+IEegGeqENja5tDA0cDNBIumeeOT6C3H/CRUm8zsHp8yXWzL+4v1FnAkNjCE7M+krxlDPLV7tqHtdqHyKrLscC6wVuZLYYhg4VrH+ZhxWpl9EnHPiaN39FxSr0lpLCbUXBOQX+DrJJA748c9N6dQK+GJqSyoetLVRuOlSc2R77M3iLegF/N3gTOA0YHbHdWuBT3/oq9NO7C9ejbmSIkcCT6Oil/TKDXiMyz6G6OJ1OIRfb+tQ/gvgn0atkY+WpwebEuQao7Fo2RwC+Al0g/2Fezl1q0rhikJ9KyPm5FuEqIT86GsYU7sA36tmr9llzRfkykrO5qRGAE+gf4hAR611ZqLSFfiHkrdHEI7i/Yq6KrDkMTskx8PzKxST2w12tLWrTvRXF8Bq7FrU+agYOiq3ZnIvo2j0qg9ycOeldIoNeIhIvzToovS5ftiqwVGqkVlzaXkD3LkdFV+6MjMhF6nvSDuC97DnEgLEcd5JFVcJ+InRxdtR9cBtTzEuhd00HvdxLoNSJxC7qb4s0EWpuA15V6FwLD40v2QhMSktNoL9rOwKHkY5lfa5MQn5Y8Jl05Hbe2X0t+V0IGIrkBNO2eRpqVyElKvTck0GpEoBt6b/oUOfS3VGotv2zyTHfgcfTtf4t8vWx3Al4m/QAdyyYiKXTzQgfgXfTtfQR5/+SZq9G3P0Wu/fOVWmeTptCbEZjt0N/AKUJ2XGJw8/RybY+1kZUMbR/kwSN9GHAZ6QfkVDaGfOy5bo2+jYsoRqjkjuj74B8J9O7loPeL8eUaofkNupvhEyTlbEw6oc/F/Q7FSfF8FvqH+NQEemulE1J2dTbpB+HUNhvZFsiyw+oZ6NtXlNCyJuBVdH3wAfG/qnui37Y4PbJWIwL3obsZ7kmgdXel1hLw5wR6Q9EPCZvS9MNDCfTWwkr4yXxYNHuE7DpvasPK5qKvOZJFTkJ/fVPk2r9XqfWJBFqNgHRBP5D8JIFel9S/mybQG5JL0PXDArK377oPMIP0g21WbQbZy5DXHVkF1LTnXwn0hsTFu/6iBHqPVWpdhFuRJyNjuOzhrR1ZaxOyjK/ROol8Ob/Vwrbor936CfS2RRfgL7jnOGgEa0ZWsbKSl30j9G3ZIoHe0GjDU2cQ/5quo9Raohh+VFXJ8r6bT76oPG4a4rEck43Rh/CVPXWLxDhk9aan4tg1SV9ydQUknWrqlZmpwNtIzYS5SJ/Oa/lvPVusN7LtMgIYmkAjyAT2GKRmx37IZDglaymPmws85lNIRrgGWE9xXH/kQ+x+v3Iq8iJyz49QHLsVcbUmoVEmANspj3uQ+APqng7HFiULXmsWI1UYt1Ucm9rDfC3grsg6FiEhlA8glfxeBl5BnO3qoS9SSGpNZBVsG2Az4jlzbYZM/nZBciOkQpvS+ElkNaNoXI0k69KwK/EH1QeRxFr1spVvIUYaOqOP//9RAr1PKrVOSKA1Fueg65MzUohtYXOkal6MZfMJSFt3RbdSUiu9Wn7jD7ilh63HPiBtSOef29FVzf6SQmwktPVJUqzG/UCpdTb5zlxptLA5+pfPRpG1Dke/T/yryFpjchK6PkkRfwywG/pJZz0D47mk3VrYrEVD6InOR8jEIwUX1ahxWctrKu5aOB79tYy9Krehg9YNIms1AnAUuos/i/gzwCOUWkvo9uXywjHo+iSFF/bBuCUwqmZPAvuTHSc5EC37o1+9qsUWkqaQjrb879EJtMZiLfTX8duRtXZA3uUarSnKGUelKAljKrGx8riHkeIfMdldedy7wAs+hWSMLA12ldgNyewXYp/8oZbzjwL+gwyIWWEhomkUcg+HqHffGbicdCsB9ZKXe1bDRGCy8tjdPOqohWYk74aGwvsBNMIEYBPlcQ94VVGdjuijFe5GZqxFZaDyuDleVVRmc+A6/A/+45GQpG2AOz2fOwR3IN7eO+J/UtoZmWjE9Amo13myjPaezQvae3En4mcF1E5IbQKQc3qgD+MJ8RVTifXRZw27y6eQDKLdN5zlVUX7rAXcil8HvI+QRCYbA2M9njcW9yPaj0Pa4oueSF+v6fGclZipPC51BEpo7lAe14f4+RG07/KRwCCfQoy4bIVu72cxYb2p2+JHDlqL/rWhzUH+zQjaVkDKRfvc774BWD6C9liMAG7Cbx9NIU4ffVupL2XoYgxccu2fmECr1i+nIRICFRWtA2CKkLr/KLUWMdlIa5ZDHxmxTWBtXXArW7yszafYjkc/QD9otGWPEn6vfXultmaKPzHX5tq/LYHWJ5RaU4SCG564BN1FvyKyzib01f9+G1lrbLSRETFewH9RamvLXiV+2GkKNka/otOWnRlY72AHbbE93mOjzbU/k/jbzxcotV4YWafhkRfQXfRjIut0KbKxZWStsRmLrl9eCaxrX/zl9h+D7I02Cn2QfXwffdeM1H4PyetKbUVPJbsx+uu2bmSt2tVgqwyYU7oi++Oai/7FyFq/o9Q5m2Knc94U/QvmkoC6VsJfVb+LKfY1bI9O6FfolrXphC0lfIWDtlEBdaWmE1LzQNMv34usdTulznlYRsBcsh66C95M/Brelyu13h1ZZ2xuR//iDZU0phPid+Fj4DqD4lVvrIcmJK2wj74cR7gX9dccdI0JpCkr3IOuXy6PrLO/UmcJWCOyVsMD+6O72K8m0PqKUqu2KEceOBD9A7sQqWoXAm1WwmXthED68sgJ+OnTUNn3BiJFlrS6vhJIVxY4CV2fvJ5A61tKrQck0Go48kt0F/u6yDp7IxkHNVpdKgdmmWHonSJLwC2BdA1Hkgu5DlQpixRlFR8rAbMIV8b4NgddUwPqSs3O6PtlSGSt2mv4u8g6DQ9ol9VPjqxTm6ughHgoF43uSHiXy0AQ6ovrakddJeS+bORl//ZoQjyuXfs3VASPy4pUCamTEDu3SAx6o/e12jmy1tOUOm+KrNPwgDbu8+uRdf5QqXNSZJ0x6IHbvn8JWeYLERvu8qVTtjE0psNfrXTG7Uu7hPjwbB9AWxfgbUdttyIT3KKhLQ/808g6v6rUWeRS64WkCf1S7WaRtWrjU6+KrDM0g4BHcB9kQ7xUugAvO+p6lcYK9dPSF3gNt76eQJh88z9z1FVCnBWLll727+j64pLIOtdV6vwYW7XLFSPQP6CxIwC0meR+HFlnSHZHUru6vlzfR5YkfXO4o675NEaSH19sgnvGwMMC6OoLfOCoq4RU0stLVcNaOBJdPzwdWWcX9P5WwyJrNRzYCd1Ffi+yzk7I4KDRGrMiWijWAf6N+wu1bD8IoLEj+iiNshU5vW8otFtjZXuJMGGB2podbdkV6IuVZYlt0LV/AfG3xLSRAJtH1mk4oE0f+9/IOtdR6lxCfvcShwAHIxUMfWXSKyFlc0Ms+x7iqOuGAJoaBdcCQiFyQXRBthh83bfNSGW9g8ivU28/9M/y2pG1PqDU+dXIOqNQVIckbSnOl72qqM56yuPeRFYOskgPpLTxEKRa22Bkz3MI8rCHeOCXIHnXF3k+bxNulcvmEi42vRE4CtgR6KU8/kTgWuQF7ouFyL32IH7y2Tch2wG7IjontNg04MOWv+8goYTPk83nfhbyZb2i4tj1iOtk9wa6ImEredZhBORidLO8YyPr/IVS552RdVajM/AN5IttHv6+jmq13wdq1z6OumJ7OReR43C7BqHqBPjKYFiPzQNuRCKVsvbxNgZdm2LH2P9WqfOfkXUaDmjLVB4YWac27vkvkXW2RxOScdHVQ97FHiDcy3Csg67nA+pqJDqjL+pVIlxBns7Aww66XO0lYD+y453+e3TtuCyyzm8qdd4TWafhwER0F3mryDq1A0wWnMp6ANeQ7gVYQrypQ3nnjkTvMVwiTCx6o6J16i0h11CzNF0Lw5HtuJTPwFVkwx9IWy/hwcg6v6jU+VpknYYD2gpVIyPr1L48doisc1mGIpnNUr74phPWg1qbSjrFS60RGIf+evw8oK51kfr2KZ+FJ0ifangLdNrfjqxzpFLnQqwqYC7QVn1aQpgMcu3RFf0X5vIRdS5LN9xT9braDKRUcEhectC3S2Btjcge6K9HaOfejRGHvZTPxFPIqlwqhrajq5b3bteIOjsig7lG6/CIOg0l2jLAsXMArK7UOZe0+34+4/Y19g6wQeA2bu6g74nA2hqVJmSQ016X0BPGjZB3SMpnI1QdhFpoQjLmaXSvHlnr60qd2qitzOIjjCVraEMAYy9FraI8ruxwl4I9kbj4VDyNpGp+LvDvHOpwrFX6C0MJt779hi8h7fAMce7NSnwNyaqZghKSzVPDSh511MI05XFFS+FcyAnAcsrj3vGqojpfUB6nfchc6YhU00rF5Uj8bujr1IQ+dGw64UoRGxJmOl157D4+hbTDW8jq0TkRfqs9TifdXvXryuNW9qqiOtp7aKBXFRmgiBOA/srjYk8AtN7r73tVUTv7IpkLY/MmsDfyVf5xhN9bD72PxVXI/qIRhoVIYh8NKxAn69wCJF3wPsRfVQS5f/dO8LsgUTkaQkVptIdNAFqwCcBSZnhVUR3tctJUrypqZ7/IvzcPWXFYm7hf1S5FWmLHNDciLn0c0znzZiRK5QziTFxbE/tZLfOG8jjtqq2WD5XH2RZADhigPG6mVxXV0d70KSYAXYDdIv3WbODPiI/EichEICbbKo+biDkAxuAxpLSyBu211fIRcAKwKpK8a06k392dMHUxqqF9N8X+srYVgBaKOAHQrgDkZQKQYgtgFaTgRyiakdj57yGlnH9KmnY2IfHMGsb4FGK0Swl9X29Fmgia94BjkHv7SOAh5J4PRX/i76uD/ss69sBqKwAt2ARgKbEnAHnaAvCdba8ETELClr6F7AFuC/wD+WpKxRroV5DG+hRiVESb3nc5YDWfQupkLvA3xJl1JHA4cCVLw9J8kiJmXftlHXtgtRWAFoqYq1z7Ap/lVUV1tDd9ii9j7QTgJWQvdBZSxeztFptIvOXQethIedwi5KvOiMMDwGJ0768NgVf8ylHxNnBRiwH0QXwGRrRYd2TVbR9kYlovKSYAefmyzovO4BRxAtBXeVzMCUAT+olKigmANsPYA8geaF5YX3ncY6RduWg05iKpqDdXHLse+kiCkMxB7qPHlvnfB6CbAKTICqj9sh6AvBNj5TfR6tSuLmcW2wJYSswJQH90k685ZLMeeFHQZvqy3P/x+Z/yOO0kz6jOHHRhsJ3Qf7hp0L7rs1B0yStFnAD0VB4XcwKg/fqf7VWFsSza7IwTvKowamGi8jjtNTZqIw/7658oj4tZKyYKRZwAaMNfYn5Za4tfLPCqwmhNE/qEJKGLzRifR9vnK5G2lkbR0TpTx/y61ibrilm0KApFnABoZ2mLvKqojE0AsscQ9PumWXAqazS0E4CexE8800jk4es6DxqjULQJQCd0bVpM2LjcZdFOALQ3rlEdbT3197CtmRTMRF/UZYhPIcZnyMPXdR40RqFoEwDt8n/s/O22ApA9tHuQb3lVYdTDm8rjChfOlSG0HykxB9clLVYvHShY5FzRJgB5WP4HmwBkEe0EYK5XFUY9aHNJFC6hS4bIy/J6XnQGpWgTgLysAGhvItsCCIc2esQmAOnQ5l7QXmujOnlZXs/DSkVwijYBsBUAQ4v23rEJQDq0fV+or7iMkZcva+1EpVD3TtEmANoVgLxMAGwFIBw2Acgf2i2AQn3FZYy8fFnnRWdQijYBKDqxUmUahmEUGe27tFA5JIo2AcjLsk5edDYS2mvS26sKox76KI+zlbRwdFMeF/uaaN+lsf3FglK0CUBelnXyorORsAlA/tD2faFe4hnDJgA5omgTgLx8WedFZyMxT3mcTQDSoe177bU2qmMTgBxhEwAh9pd1XnQ2Etoa4TYBSIe277XX2qhOXiYAeQkZD0oRJwAa547OxHXuyEuoTCOhrWKmLSBkuDNSeZxNAMKRlwlAXkLGg1K0CQDkY3ndVgCyx/vK44YSt5a5IfRHX9RHW0PAqE4eJgB5qRkTnCJOAPLgYJcHjY3G+8DHymNX9ynEqIk1lMfNwyYAIdG+o2IureclX0xwijgByMPX9Xzlcf29qjBaU0JfXEY7GBl6tH0+2acI43NoVwBiZjntrjyuUPv/UMwJQB6+rrX7zVbFLCyvKY9b26sKoxbWUh6nvcZGbWi3w2Z4VVGZfsrjChc9UsQJgHYmGXMfdxa6cpTdsEImIRmvPG4bryqMWthOedzzXlUYremF7v20CJjtWUsltCupM72qyACFqm3cwgxgFcVxMb+umxGdGiemQcSfiWr3xrcDTkdytn8MvAO8DUwg7gNfK9rBYTTy8tNWpzPqow8wSnnsCz6FeKQfsqqxAjAc6IG0c1vl+bTPrAvDlMd9QNw059oJQMxViigUcQKgXV6PXSN8OroJwEBgimct1XhPedwawPHt/LfJwKPAfcBdwFvK3/DJs8rjOgNbA3d61GK0zzbo313aa+ybFYFdgB2BzdGHNLbHu57PVwtDlMfFDsu0FYAWijgB0N5MsffX86IT9BOASqzUYgcjs/9HgH8Dl6Ov8ubKy8jETDMZ3AGbAMRiB+Vx04BXfQqpk77AocAhyKAfMvdIignAUOVxsScAWh+Awk0AiugDkKcVAA2xdYI4Ts0KeP4mYEvgPGQl4C/olxNdKE9ENOzpU4jRLk3o+3ocaSpqLg+cg9zb5wBbEHbwnwm8HvD87aFdAfjAq4rq2ApACzYBWErsgVU769XOsl1YBNwe6bf6AD9CJh2nI3vrMXlAedyawGY+hRhtsjmwmvLY//kUUgN9gD8hqw5HES9t9G2kiVkfrDxO+87WonX4DvkRlIQiTgDysrSu1fkFrypq54bIv9cD8R+YCOwd8XddlvG/4U2F0R4ufXyXNxXV2Rdxdv0p+rhzLbGf1TJ52QLQfuzZCkAOyMsKgNaRbyWfIurgJtJ4UI9o+e3LiBMCOR59QqBDsGyNIekCHKg8djIymQxNd+BsZBBePsLvLct44JYEvwv6LYDY/gra62ITgByQlxWAycrjVvKooR6WAD9P9NsgX34PI2FSoblVedxAzBcgJPugn6jHGBRXAh4Hjo7wW+1xPLocIz7Qrk7G9lcYoTxOWy/EiMgGiKNPvRY7Q9haSp1zI+tclivR6fZl7wIbBW7j5g76ngysrVFpAp5Gf120eQNqZRNgqoM+H3Z54DZWogOSn0SjW5O3xYVpSp2W8TMHLI/u4n4CdIyoszuSEEijNWVK4G5I/H7KF91MJPlOSCY66Ns1sLZG5Mvor8eEwNo2QbYeUz4TTyF+M6kY2Y6uarYIfXEeDd3Qv3f7RNRpKOmE3FSaC6xdGtLynlJn6K+ZagwFniDtC28GsE7ANv7CQdtDAXU1KuUQPo2F3LpaD/EOT/ksPEGa6KDW7IJOe+zl/1WVOgsXAVBkXkd3kWPndNe+1LSOUD7pDlxF2hffFCRtaghGInupWm3aZDXG59kZ/XVYgmTdC8HySGx/ymfgSuJHGbTF0ej03xtZ57ZKnVlNIe1EEZ0AIT8OdpOVx4X88q2V+YjX+1eQDHopWBG4ljAZLaegzwkA4gkec2mzqHRGEkNp+R/6qI5KdAauI/6qYZmXkFDDr6EvL+4TbXnmSV5VVEfrRBziHkpOUScAbyiPix1jr9W5gVcVbtwArIt46d9E/CIkWwGnBDq3y8CzLpLQyHDjJ7g5X7lcw0qchmT0i8nHwI3A15Gth5si/34ltBMA7TtQi3bC9o5XFRmhiLUAQP9lHXsC8KLyuPW8qnBnMXBFi3UH1kf2JEcgBY8GtfxdB3mZ+06DeizyMnzU83lvQeKqtf39G+BqpAKiUT8rAr9yOP55YIwnLa3ZCjgmwHlLyDthApIe98OWv28hEQbjycbXflvkZQVgdeVx9gzniK+j2+cZG1nnukqdzcRLK+qbwcBBwB3ovXHb26MLseR+iKOuGwNoagSagJtx6/sQvjJdcIsQaetZvr1FqzaVbmp6oX+W14ys9UGlzm9F1mk4sDW6i/xGZJ2dgAVKrVtG1hqCtfCbV+CHATR2BF5x1PWDALqKjtaprGwTCbPF+WNHXa3tcuIPgCHQOtZ9RPxt6A+UWreLrNNwQJsLIHZMKkh9co3W70bWGZJdEac71xfqNMLE6n7LUdcCYOMAuorKKPQT47IdGkBXX2RZ3vU+nYyEzRWFY9H1g7byppYBSp0l0odZGnXQAf0LZK3IWi9T6vxrZJ2hGYRbrHfZjg2grTPuy76voa9C1kj0Q/aFXfr6RcL4Nx3vqKuE5IhIUZZCtOkAACAASURBVNI7JNeh64u/R9apzfBZuBoAjYB22fagyDqPU+osYsrZ7kgefpcX7FvIPq1vdnTUVWppW1Edb33QGdkPd+njZuCLAbR1QTzBXbTdQjZi9n2jzYUQexXz/5Q6Y69UGB4Yg+5inxpZpzaD1iLiVMeLTXfcUw1/JZA2H4mPrsB/FEQRaAIuwr1/Q+XDP9BR15MU83kdjr5PYodR/l6p85LIOg0PnIruYscupTlUqbNEcbPNDUMqb2n7JdQ1HA7MdtBVtj8E0pdn/oB7v84i3F7tbQ663kNfKjfr7IuuT5YQf0J0g1LrCZF1Gh44CN3FnpxA6xtKrS4x0lnnAPQv3IVA/0C6fHmB20tlKSfgp0+PCqRvEJLrQqtrv0C6ssDp6PrkpQRatSni902g1XBkbXQXuxlxRIqJNhTuzsg6Y+Py1XVwIE2d8FcN8Q809nZAE/BH/PTlw4Sr5qnNK1Ii/opibP6Lrl8uiaxzAPpcBbEdww0PdEKyZmkueOyiQEcqdc6iuOmcATZF/+K9NKCulZBqhD4GrktpzJoBndFHwCxr0wlX8AfcclWkrtwZks7AXHT9cnhkrTspdS4ijFOxEYGn0F302Ilb1lfqLLUcW2TGouuXVwPr2gd/mQxvo7FCBPshmSB99F0zsGdgvW8otY0NrCs126G/bqtF1qoN4Xw2sk7DIxeju+ix41M7oK8pXvSCM0egHxhCx1ufpdTWlr0GbBJYbxYYhXucf2v7U2C9Qxy0fTuwttRoverfS6D1GqXWfyXQanjiGHQX/fEEWu9Uai26H8By6L+0Q2/ldAEeU2pryxYQJp1xVjga9wx/re0Rwm+fbK/UFmMCmhrtCuvVCbS+qtR6ZAKthie0+z4LgR6Rtf5KqXV+Aq2x0T6834ygbQR+0hi3tpvQ1y3PIisgznA++2gykvI7NN9W6kvh5R6T5ZBQvjwMqn3Rf0RsGllrVIrsQAZSDlRDZ2Azn0Jq4EHlcd0Ik/ksS2izHsYYRN9GahlM93jOvZHUw8eRbwfBzsje60T87tN/iCTQilGjXetcWMRMna3ZBf34oX3XadkEXbTNIqQEc2Ep+gRgGvCm8titfAqpgXGIR62G3XwKySBvKY8LlQtgWSYCewDzPJ6zJxIm+AyykpU3dkYcqE7Hb8KXj5C+ftnjOSuhvYe092xe0BYzmo6U7o6J9l3+ArJlVViKPgEAiQ/WEHsCsBC4X3nsrj6FZBDt13Vvryoq8xiSvGiR5/OuA9yD3Me7k+28AU3I4DwOuBvJxeGTRcD+xPXR0VaX9LkilDU6AF9SHjsWWVqPybbK457yqiKDNMIEYJzyuC2I3z9ah75VW6yoLEwtoEbuAL6B/0kAwJZIuOBTSF76LMUmd0U0PYUUPAqR430R0rd3BTh3CPJyz2rYCBisPHaMTyE10AmpAqih6Ns4DTEB0K4A9EO+vmJyh8Ox+3hTkT20MfJLvKqojWuAvfC7HdCajVp+4z3gfOIXVGnNFi0a3m3RtFGg3/kI8SG4JtD5K6G9h2JnE43J3srjmokftbQx0Et5bOEnAI1AR/Qx9rHLVQJMUGpNEboYi3PR9ckZKcS2MBpxVvPp+d6evQKciSy/h9z26A18Gfgz+nLb9doHxHfIbc2f29FVzf6SQmwkXkbXJ9qPMReOVWqdg5XuLgx3o7sJLkug9Uyl1hLF3Qb4H7r++GkKsa1YC/8hgtVsEbLtdTpwGDIR0Tiy9W859jBkIjWu5dwx2zIZWEOh3SfaQkVaf56sMwr99Twxgd6blVpvS6A1Oo0yw3kY8Uqul9g1AUC2AX6iPHZ/5MVfJDqhz6eujQDxxUTEmfR64n3FdkKW5pfdGpiGeKbPQpbUywayRFq2fkjo23IxxFbgUeR+jhHqV4kpyuNGIVuszR61ZIEDHY691ZuK2ugAbK089gGfQoy0aBMClYj/BdIV/ZbFM5G1xmA79NduvQR626ILspTsq3ZAka0ZSe+blfwHG6Jvy5YJ9IakCf2KlnYi5YJLjRWt46CRQXqhX75MkWv/EqXWEsUrXXkpun5YgEymssTeSHhY6kE2qzad8IV96qUb8Am69lyYQG9ItkZ/bc9LoFdbAGgu2ZmAGp7Q5q1OEXa0u1JrCUkpXBT6Id70mn6InW2sVkYiOexTD7ZZs3GELenrwjj0A0mRqjxqnXFL6PMGuPBfpda8hJoadfAndDdDilz7ndF7kL9GtpPF1MNf0L9wTk6gt1Y6IoVxtFs9RbJZwFEtfZJVTkPfvtDVCmPREZiKrg/eJ76/WR8kF4NGbwpnRSMwO6B/iPdIoPdfDnq3T6DXN+ugf4BL6B0HYzIUiTRpVN+AMUgxpayzBfo2LiI7vigufAl9H6QIifyKg97YWWCNCHRBluQ0N8S5CfS6PHBXJtDrk+7AE+jbP4V8rYLsgEQMpB6QY9mL5KuAVQckGkHb3kcRX4I8cwP69qfI46D9gJpDtrJsGh7RxoS+nkBrR2TpTKN3ATAovmQvNAH/xm2A+W101e50QGoJFHkiMAk4gnyGH/8et7ZfS74mpa1ZAb0T9avEb3cTUqVTo/c/kbUaEfku+gd4tQR6/+ag98cJ9PrgZNxetIvJrjNZLXQADgaeI/2A7cueQ+LH85x6/AtIWmCXfvhddNV++B36Np8UXy4bKLWWgG8l0GtEYiT5GlBHO+h9MYFeVw7CfT/8iuiqw9CEhA3ej/vAk8KWtGjfi/x++S7L1bj1STNuiXRS0Bmp9aBtc4oPp18qtTYjfjlGgXkR3c2RIo81uH0JarNgpWAj9CF/rQcd3yVos8CKiGdyHrYHJgA/J9+rMO2xLu6TsY+QL9S8cCD6tj6WQC/As3VobG1PpBBrxEUbDtiM7IXF5odKvSXgugR6NTQhjlKug88/YwtPwGbAOUie/NSDfdneAM4mH5EXrlyMe389FF21nrHo23lkAr2rO+g9Kb5cIzYuaYFTFJfpi/7LeDH5KBC0N+4v1Zmkz18fm7WRuhE3Ibn+Yw3404AbkW2xNYO3MlsMBWbj3ocpQovrZS30W3JzkVj82GiX/0s0xgS24emKhHpobpBUS1radLgl0oQw1ouPzHiHRVedPdZAlmxPRSYFL+C2rTKv5Rw3Aqe0nHv1aK3JLt/G/X7NwyrAeejbd34CvaBf/n+PfDupqiiKc069XAl8VXFcCVgFWfKMydboU9vOQ/ZjZ/iT45WhiJORy714E7CvHzmFZAgwGBjYYn0Q565y9r0lSJjXHCQf/3TkK//96Erzwy241S0oO5x94EeOd4Yg77nuyuPXB8b7k1MTqwGvKI+9GIsAaBhclpyPT6AX9M6LJeAXCfTWiuvX1OvIoGYYMemPxLgXddXqDPTt+l8CvSDvOa3m3RPoNRLhUnL3qQR6wc0Z8D2yVxmvjEuBkdlIymDDSMF66LcTS8BZ8SXXxADc2nVIfMmAlEPX6J2OZf9rOFz21VPEtvbErZTsd+NLron/oGvPJ8DOCfQaRmu2RwqGae7hqxPorYWT0L9nppJmMF1XqbdEY0QPGcuwB/ob5jcJ9II4Ymk1v0k2VwH+h64930kh1jDa4Ah09/DYFGKr0AfxF9K+Z06NLxmAM+vQuKzZh0QD0hn9F/WbpClfOhj910YJKbuaNW5D15ansb1/Iz39kOggzT18SwK91fg5+vfLAmD5+JLphGxzajRPI5+1KQwPXIj+Zt81gV5wKxP8HtAjvuSKuFwDmwQYKXEZ/EvAP+JLrkgP9AXISkjtkhTsV4fGZe28BHqNjLAL+hvn+gR6QZK/uOTLT5HMqBK/Qt+WEvAk4pFtGDHpj9x7LvfuidFVV+YY9G1ZBKwcXzIgKyla3dsm0GtkhE7oZ7yLgGHxJQP6ZfMSEnfcO77kdnEpeFQ2WwkwYuL65V+2jWMLr0B/4EP0bbk8vmRA8hUsrFHjsvYuDZj8x/gsLmFoJyTQCzJrdXnxZCkvQAfEc9gmAUYe8DX4uya/8s2f0belmXThuD+rUWNb9qcEeo2M4VI7+jXSPcT31KixLZtDtspeno77C7WEbQcYYfGx7F+2UyJrr8SqSFitti03xpcMyLv3pRo1tmWNVsfic2RpBpqSx4FNlcfuiNQ9j82myJeI9hpeTHZSXw4AJiFfV648hYT1zPRwrkp0R3Lvr95ifZDCTb2Q9Mtlm4xkjHsJS61bK0MQX5dVkQqc/VtsAZK2eB7ivT0ZeBkpk7wgsKb+yKR7Ew/nmoGkFJ/l4Vw+uAG3VNpbIvU8YrMLcKfy2Aex/X+jBZd0tCmTebj4AiwhW9WvjsPPl1WolYAmYBvky+0hdPuOU5AEVP+HhHQawiDg68AVSP75evv1E2AccBqwBf73dX1++ZcQZ7ussA1ubbkrvuRPubWCrmp2aAK9Rkbphb7E50LkKyUFG+MWETCO7KwCdUCWErM2CVgZGfQne9RWQpxIb0XSpmYxQVNougAHIJPYxfjt23eQhDRf8KDT9+B/Pdl55pqQ1U9tW5rxsyKiYVXkI0ajexbZC4c2EnMB+gfhjAR6y7gOmgfHl9wuvZEKYr5eti6TgHWRL9JFHvW0Z1MRx8xG8F/oixTUeofw/boEWaFbV6nV9+D/PPKxkRW+gVt7rowv+VPOrqCrmv01gV4j42yK/oaaSbrQuvXQz4RLyLJ0lmbDw5A9XV8v3XonAcsBF+G2sqK1GcCxFHNFoAvwY9xCzbS2BPF5qcfx1ffgP7HO3w9NH+At9O35hHRx/73Rr9iWgI3iSzbygLaaVIm0+3pXVNBVi/0hvuSKpJoEfAe3gku+7GWK5aC0FX6vp9ZmI/4+1Sj64A/yFezSprPjS/6UoyroquVdYBhtciT6G2sy6XJKj0A8o7XaF5GtpCQQdxLQD31VwlDWjJSLzXOZ0s5IrLXLClUIuwWJPGmLRhj8t8LtmsxGVspS0IRMkLXaj4gv2cgLfclnHWyAX1fQVYs9TfaKYsSYBGwAvO7xN3zbo6RzMnVhecTJNHX/tWeTkO2z1jTC4N8VeBG3dv0yuuql7FNBVzX7kGxtdxoZ5Cz0N1jK5aXuuHuq/yy26BoIOQnYFvEITj0YVbO3gfWdejEu6+G2vxzL5gA7tGhuhMEf4CTc2vUu0DO26Fa4RC2kKlVs5IiRuHl+bx9f8qccXEFXLfYxEl6TNUJMAr6DW2nl2DYLqZuQdUaTj0lV2eYj90IjDP5rIgmTXNqWMn5+1wq6qtlCZKvUMKpyFfob7Y4Eess0IRmuXB7w+8lOnHJrfE8C8mgzyVbypmUZhWhM3U8pLauDfwfgYdza9l/Svhtc3m2pihUZOWQUbg/KlvElf8omuDtdHR1ddW0MAV4g/Us+pX2ApJHNGiPxU9Qpz/YSMNy1IwPh4jlfQr6gUxX8AdiuHV21WqqERUZOGYv+Zrsvgd7WnI/bwzKfzztIZQVbCZCEMin3YZelJ34TOOXRsvrlDzJwf4xb+1ImOwO4G732/yXQa+ScL+P2wKT0BXBN8lFCvrS7xxZeI7YSAP907kV/XEj6/khpWf7y7wY8i1v73iRtBsPN2tFVq+0dX3I+yOJeb1ZoQsJl1lIe/xBSaCMVewE3O57jbCR7WxYZhvgrpC7pOQd4AngOyeQ3Ewm1GoiE722CaOwY4Lf3I10p1jL7ItXkfFMCXkHCU99Ctj4WITkb+gMbIn2bOrXuS8hkf2piHe1xPvB9x3PsC9zkQYuW24Ddlce+hjx/S/zJMRoFlyqBJeBL8SV/hmtx098M7BFdde2k2g6Yg3yBb05tlef6IRUA78ZviuG3SZeCGmSl6e02dLnY/chzN7CG3++IJLW5CPjIs45aLMvL/iADt2sbUzo1g3u1wqyUPDdySDfcipY8RtpVlqG4p7Z9j2yXro05CVgI/BEZ+LRsiHxN+dKUMo3znyroqtfG4Bbh0Bc4E12ZZo1lffBfAfdnfzbi3JmKJtySSb2OZKM0DDU/xO0h2jO+5M/wLdz0l5CvsqxlCWxNjEnAo+i3g9piHySpiquuj0mz/7w8fvIoTEW2MnyxNnKtQt4LWR/8OyDPrGs7vxlb+DK4rmDUUvfBMCrSFamYp70Jn6W2ZeJQNAH3tqGrXvtjbOF1EnIScDWyGuSbwfgZrP4SQFs1znXQW7bHEIdO33QHrvGgry3L+uAP8Fvc2zkmuurP0hG3lMVvYF//hieOwO1hOjy+5M+wPH6q3B0YW3idDMNvOFozcDJht3G6I8VpXHTOJq4vQF9grqPmWwibl70JuXY+fS6eJ/uD/67AYtza+SHp23k4bm2woj+GNzoj3qTam/F95KWZkv1wfwHOBdaNLbxOeiPRD65tnYekVo5BNyRqxEXvkZG0gntSmYcIs6LSFgfhVimzbNeTPuKgGmviJw1z6ol+NyT0UKt/CvmuomlkkMNwe6hSOmuVuRj3l8PLpJ/MVKMDUthIm5b2YWCjyJoH4lbM6aGIWh9x0DmZ2jz8fbIh+jS404GfkP2Q6QG4faSU7arYwtvgZ7i14XvxJRtFpyMS86u9KReQvtBOb/y8JMYQJq7dNwOQDGa1pKhdgngcp0wasksbumq1ZuKUDV4R/bJ6M2lDY7+MTARqSZX9LnAKEsKZdToh2Uddn+t3kGcmJcNxK8k+BfHbMgzvuFbbS5lMo8xo3Kodlu3c2MId6IDE7P8KiRm/DSksch2S7OhwwjijabgC/TWJ4Wvi4g9zaQR9tTAYyctwNuIs+F9kUvsv4EQkHDHrX/yt8eGQuQTYKbbwNrgSt3YcFl+y0Sh0wD2t5i7RVX+eX+P+wiiR3SyBeWZt9F/YV0bQp/WubwbWiKCv0fgmfp7lX8UW3gZb4+a0mTriymgA9sTtQRtP+pj6jsA9uL80liCxuoZf7kB3PSZF0KZ1zkodVlZEtgM+wf05vpP0A2cnJJ22Szt2jq7aaEjuwu1GPSq+5M8xCLf8BmWbhxTrMPyh3Wpqxi1LYTX6K3WVgAMC6mpENkTv5Nra3kTeBalxjSxJnbLYaCDWwW0ffTZxHLaqMQp/2dxWjqy9yAxBvxQ6OqCuLZWamoHlAupqNFajNsfWarYQ2CKy9rYYjNtkZjHZLV9uFJRzcHv4srIk6ppwo2yTkIRDhh+0WdD2D6hJuzLxfEBNjcYI3MJFW1tWfHguxq0dF8aXbDQ6A3DPrndQdNVtcwF+XigTyXbhoDxxHbprcHRATccoNV0TUFMjMQiYgJ9n9TqyEemwM26Of/OwDw8jEa6FgqYSPylKW3RF8rL7eLE8i+wVG26cj67/fxFQ02+UmvIUMppVegNP4OcZfZpsZDXsheTsd2nLb6OrNowWOgEv4HYDXxxddduMwF9t90dJW6e+CGgLupwSUNNpSk2/CaipEeiGn+p+JSTZz4i48tvFdRv1daSWhqEkdTha3lmMLIve7XCOw4B/I2F5KXkbyZT2AO6D92jEx2F3pFytUT/vK4/bn3AOd9spj5vmVUVj0Q2pQ7C9h3PNQ8KY3/ZwLle2An7geI6jECdmw0iKa/GZSYStjFYPu+MnU2AJybBmKwE6XGuhZ8n28tw3jUJP/KT4LSE5O/aJK79duuGWVr0E3BBdtWG0w4q4l0c9J7rq9vke/l7+j2I+ARpGk37g9mWbeu6bRqAv+gJGbdlxceVXRLuVVLaPkHeuYWSGo3G7qZuB3aKrbp8/4O/l8ywWHVAvPfBTxja1fYTt09bLIOBJ/F2Df8WVXxEftUiyNJkxDEBSabqUSS0B75GdgbIDcC3+XkITsXCdermJ9AO4q/3He68Um6FIunBf/X8H0DlqC9qnN/Aqbu0ZT3baYxifYR3cc3OPIRvxuSB7db72IEuI165lDKydb5B+AHe1r3rvleKyIvAK/vr+AbLjWwRwCW7taQa2iS3aMOpBG77V2o6Mrrp9euF3L3IqVjugVjrhL/FLCnsJizSqlbXwl+GvhGwh9I3ZgCq4llIvIQnLDCPTdEGfxrVs88lWbuu++EtCUm5fVrIgZp2vkH4g19reAfqjiOyEn8I+ZXsZqSeRFUbgnjV1MmELXRmGNzZHwm5cbvjxyBJ8VhiEe9Kj1tYMnBSzATmlCUmlm3owr9euDNEZBeQ7SFEeX/0+hWx5yHcAxuL+rtgltnDDcOE83B/mM6Orrsww3J14lrVzgY4xG5FDugOPk35Qr9WeIlt7z1mkI/AX/Pb7O2TPx+ZXuLfr/OiqDcORXrgPls3IEnCWGIl8Zfh8cY0hW/uVWWQY+ZgEPIZ4shvt0xu4Fb/9PhVYO2YjamAHJFuqS7teJxt1Cwyjbkbhvrw3F4kuyBK+vZVLLefLkt9DFumOpI1OPci3Z5eTrW2rLLI8skLis9/fJXvviBWQFNAu7VrC/7d351FyFWUfx78zk4WQEJYAMUKIHDbZAhgQZJUAiiwimxJBRAVe2eQoIpugR1Fw315RUWRRfJVFCRBAhIRdX3gJsitLEMKeBZKQhSQz/f7xZMw4Z2a6+96nqu69/fuc8xxRTHfV7c6t6rpVzwPvj9xuEVfnkP8v+JMUL6XuGHz3BHRPdj4asxMltTeWXCn1gN8dTwCHB+1xNeyF/VL3vPbPAu+K2IdGDMUygObtW5Gyo4pk0oGdx837l+FaipMfoNva+P+a6QK+i46P1dOBPR66Et8d5I3GXOC3wCFoD0c9HdiG17zL4b2jqMm1fkb+vj2F1UKQgIo2oFTVOOwX2xo5X+cs4ML8zXG1BjAF2Nn5de/Azg5nrYrXSgYDG2OrMusRLvXuYmyj2SvAM1hKVxnYGGyS5lHNr6eHgQ9QvEqLn8QS/uTxNnY/mZ67NSI9rIMNxkMSvPck8s+Kl2PLv0XjWbWsZ7xKseojiDRjH/yX/GvYZtC1IvajUdti5b/z9u9zsRuOjQnjCFdKu5BaYQVgNFY84mNYQgqwgfQu7AjadRHbcgWW3jWP2djmwufzN8fVKsDl+D/Dr2FHKr8ELHF+bZEQupf8z8bOwXuqYXkh5ju/rod9yZ+DYDIrS2HHcDBwMrA7Kx87vgj8HnsUqRXIEtsHGzAHmm1eTbxqZSOxYy15Z8iPUMysWG3At/D/xVPDEiONj9cVkUzGYI+vQvwdqHo8T7yVjVWxQlUDtWc2xVxxlQbsiT2zbOSLN5l4qyE7YL9k8/5luZXiVsX6L/KX/OwrFgOn0horV1I+GwIzST+QljGWAbs0f8kzacdyjzR6z/HevyGBjQfepLkv4NER23dsk23rL4pU57u3fbFlyhA3i2nAJvG6IlLXYIp1NLNscVbzlzyzY5ps25to9bE0xmE7lZv9Aj4SuZ2/zNDGvuLsyO1uxjbY87QQN4xFwJnouKAUw2dIP4iWNf6M/16JgWTJX/ISNrZIgY3CzsZm/SK+M2Jbh+KT2rULO2FQVOvhkxSkv3gImBCtNyJ9m0b6gbSM8RyWTySW9XK09UlsjJECWpX8deu9z7LXswH502XWsD0Fu0VuezOGAj8n3E1kGfAdVIBG0gn1uKvK8Ra2ShjTLjnbfC+6zxROB7aRL+8XcmLshmPpQT0yhM0BNovc9mZ9isY3ZmaJmcDH0SZBiasdW4lLPaCWKbpIk/Z7Ysb29ozJKPtloVyMz5cyxQQA7Iy7R/tfoPjPqSYA/yLszeU+7LSFSCwhEv5UOS7Idplz85gA1LAxRwrgq/h9KVNNANqwfAQefXiGuHsZshiFHWMMeYPpxFKSjonTJWlxV5F+UC1LTCHupr+evCYANWzskYSOx/eLmWoCAPZcyave++MUP6VlB3aCIW+55HqxADiX4lVTlGrxHFiqHP8kf02UPLw/p+PjNl+6fRj/6lopJwAA78B2xXr0ZTpp/6I16r1Y5a/QN55ZWEpobeCRUH5D+gG2yDEP2Dzz1fXhPQFYjo1FEtHO+BSd6B2pJwAAW+BX3vU+YETc5mcyAriEODehV7BsgqtE6Zm0kmHAjaQfaIsYc7DJfmohVmoWEf8EWcvanPr5/bNGESYAYKkn38anT7cTr9ZBXodhN4oYN6SZwAloIiC+2oETsbz2qQfdIsQiirUXJ9SjmtmkX91oWtmOS70T+1U7LtDr7wVMDfTazToa+4vj8RndDByKHcEruvWBX2OFnGJ4DfgpcBE2+RDx0A5sDWxMayaPWYydSpqO7cMpionYj6IQnsdWAl4O9PotbSSW9S3kbLUoKwDdvopf3+6kXBvhDsee28f6pbIEK9f87hidE5EkQm/WfBRYM1pvWsRQ4qTaLNoEoA0blLz6dx/l2BjYbTRWlzvWJKCGHR+8Btg1Qv9EJK4YpzWmYWOWOGgH/kCcm3/RJgAAQ7AlfK8+Tqf4RwR7O5A0ZVafAD5P3FzlIhJOrOOafyBdroNK+RHxbvhFnACAbeK7A79+Pk7xkwX1NhJ7Vt9J/InAEuB/sO9H2fbNiMhKMfM1/ChSnyrLK0Vu2ScAYM/vPavqPQO8K2YHnLwH288QexLQ87p9Be0VECmj2AmbvhSnW9XzCeIX2CjyBABsc8nf8evvCxS/gFB/Pkr4mgL14mHgHGynt4gUX+wJQBc2lkkTPkj4FLFlnAAArIvVpfbq8xxg96g98DMM+DJWVjTlRKAGPIjN9ss6oRJpBSlSNi/FxjRpwATs3GiKm3gZJgAA6wHP4tfvJVgZ3bJaDzstkWJ/QF8xA8srcCAwPGC/RaQ5qWo2LMDGNhnARqQtq1mWCQDAhvjujO/CivOU2ZbYEb4i1WZfAvwFOA3YDtURF0kpZdGmV7ExTvqwLvA0aW/WZZoAAGyK//G4XwGDY3YigO2A60k/+PcV87FSyF8B9qYctRpEqiJ11cansbFOehgBPIDPBX4WeCTjny3bBABsJcDzcUANG6BGxuxEIDsCfyb9oD9QLMP2D/wMq02wK7B6iIshIpknAI/gd599AE38/20wfoluXgc2wXI9t8oEAOwZ+BP4DkyPEK7mQmy7SwHkSAAAEK9JREFUAjdQrEcD9eI5bBXjm8AkYCcsM6KIZJd1AnA7Nra8nvHP946bKf9Ka25twOX4XNC3WFlustUmAGDLSt61EmZhy9RVsTnwS+y5fOoBPmsswhI53Qj8BNtbcCSwL7ADlttBvy5E+pZnAgA2xnidOrqcxInFUmc1uwA40+F1lgMHATet+O+3k20wv5E4lZyWY2fwpwCPOb7umtjMckfH1+zEjtp9C/vSVsFo4GRsyb2qldrexo54zsGOIXUB81b8u0Ur/j3AG/GbJpLMO4EDMvy5qVi1WID9gMnAIIf2XAic5fA6pXMKPrOoLuCYXq+ddQUgRdwAjM10Bfu2GmEKJ11LuaoJNmI4cBL2izr190ChUBQ3epcQPga/R4qn0GIOx+/Mdl9H18o0Aahhqw7bNH0V+zcMWw3xbueT2DJ6Fe0CXAYsJP33QaFQFCt6TwDAxh6P1+7ExsSWsAewGJ8L97N+3qNsE4AaMBfLc+9lEPCLAO1cQLW/rCOB47Gd+am/EwqFohjR1wQA/IrVvU219lv1aWvsmaPHBbuG/pOqlHECUMN2mG7V+OWsqw07b+69+70L+B7Vr3m9PfDfpE1OpVAo0kd/E4AO7PGox3u8gY2RlbQ+tvHN40LdCawywHuVdQJQw38SAFY4x2vVpWc8Box3bmsRtWNHCX+EJgMKRStGfxMAgCHAbU7v8xLVOX79b6uTPTlP73gM2+0+kDJPAGrAa1haW0+7YMf6vNu6GDiV9CdKYulg5WTA60ywQqEodgw0AQAb47wqtT4BrFXn/UpjGHAPPhfmBWwloZ5bnN4vZbyCf835LbAEMyHaewOtl+JyCHbc9NvAo6T/zigUijBxC/V5rnLfg42dpdYBXIfPBZlL47+KL3V6z9TxMjZoexoN3B+ova9iCWla1VjgOOyZ4DzSf38UCoVPXEJjtsTGKo/3vI6SFw/7OT4XYjGwWxPve4zT+xYhZmGb0TytClwdqL1dwI9XvEcrG4x9Z8/BEj55bX5VKBTx42gatxt+e65+3sT7Fsp5+FyA5cDBTb73SKr1fHYe8P4mr0E9bcDp2PUN0eYZwD7ObS6zdmxz52eB32DXJ/X3SqFQ1I/XaD4J2iH43VvPa/K9kzsWv4t/QsY2HOXYhiLEIrKlsKxnImEnS5dR3XS7eY3GJkmnYdfpQcpdp0ChqGJMIpsTHdtwbMY2RHcgVuLUo9Nfz9mW0/HLOFiEWAp8POc16ctYwu0LqGEz6CMCtLuKBmH7Pj4GfA24ArgbeJFyVTNUKMoencAXyed8p7Ysw8bWQtsJv1Sql+BztGwP4F6nNhUhOsm+KjKQocDFgdvuXfeg1QwFNgU+iD1KOB+rbvgn4C6spsGr+E3AFYpWjC5sF/7u5NcG/NqpXQuxMdaN59ntzbCB1mO5dwrwEewZipf1sXz7o/Gp4tSsw/B9Jv414KvYF8PTsViZ2YESLeWxAKsueBG+n6/8pzWws8SrYd/3DmxvDNgGze4sjvVyaoi0iuXYBPphLCGPl0FY9cD9HF5rDpbT5Z8Or+VmDH7ny/+GVWmrmqHYL2DPmeoV2Fl0bzsQfpPaY2iToIi0huHY2OZx73wOG3MLYSQwHZ+OPU21k8kMwS9vdHfcA6wdoK2rEaaYUO/4C/65DkREimYU8A987puPYqt8SQ0BbsWnQ68DG8dtfhId2DEwz0H0aWCTQO09DFt2CjkJWIql1l09UB9ERIpgQyzLq8d9cxoJC7K1YUvQHh2ZD2wXt/lJdWDHvjwH0VnYs6EQxgJ3OLe3r5iN1RUodfYrEZEBeFbF/T2WYyS6H2RobF/REnWQ+9CB3+7Q7lhI80mTmmnv2div9dATgYeBD9M6BYZEpLXsjY19HvfLH0RuO6c7NbyL5lIsVk0btuPec/DsAi4k3Kxwe2wHauhJQPdE4PBA/RARSekI/PLU5M1X0LAj8UtI8oVYjS6wEJOAGnbiINQz9REr2hwrydI9wJ6B+iIikspp+P3wOzJ0Y/fEL1Xpd0M3tmTOwD/T21M0XkExi/dhx/liTAI0ERCRKvoePvfHpViSsCC2wTbreTT0dyTauFBwn8Y/i9s87Hl6KEOwhERez7MaiVuwGgYiImXXjo2JHvfG+cB47wYOw35NejTwNsIkr6mK/bBseZ4DZhc2SIecdG0J3Ofc7nrxIFYbIUVmRxERL0OwsdHjvvgPnDO5nuTUsOmsTEcq/dsBK6DjPWDeiqVCDqUdOBm/laJG43lsP0mzJTtFRIpiJPAQPvfEz3o27E6HBs2gQOkLS2Aj/FZdesYrwF6B274BVqAm5iSgBrwJfBur+yAiUjZeafWneTYqb9KCWVgVM2nOOvjlj+4ZnVip5dBL53tjKStjTwSWYgky9ka5BESkXDbDxsw898C5ng3Ku8HrGnQjzmo4/kWEuuNOwv9aHgSciGX5iz0RqAHPAGeh1ScRKYc28teMWeLZII/KcOd7NqjFdOB3VKR3zAIOiNCHNbF8/6lq1S/DHkvsh1INi0hxfQOfHz5ufunQoBr2S1Cy+wSwmDAD5MXE2US3OXaML8UkoDtewE5FbBa2qyIiTfHacP8Lz0aNxyfr23LgEM+GtaAdgJmEGRhnALtH6sf+wCOB+tFMPIQ9ItgobHdFRAZ0KD7jbCewlXfjLnBoWA37Bbubd+NazDuwrHghBsRO7HGD6znSfrQDHwOeDNSXZuMBrM7FuJCdFhHpZXf8Vne/EaKBHfgd7ZpL2BS1rWAItmwfajB8HJgQqS8d2OONZwL2p5noAv6K5el+d8B+i4hshV954D8RcI/TMOBup4bOROe1PZxIuBK9S4GvAUMj9WUwcCzwr0D9yRozgIuwlMrDQ3VeRFrOWPwe6d6NjdFBrYX9OvRo8GPY7nDJZ3fCZA7sjn8A74/VGWx14yTgJcc+eMUSLGXnF9EqlohktyZ+xdQex8bmKMYCLzo1/C7iPG+uujH45ZLuK7qAXxPxS4atPHwGvwlniJgJXIlNWLZBRwxFpD7P1fQXsTE5qi2xZ/keHbge3Tg9tAGnEu6RQA2YAxxP/MROuxIuIZJnLMA2aF4IHAisEeJiiEhptWPJ8TzuN/OwHx5J7IHfzsWfRm57le2KnXUPOdD9mTRH5yZgpTNTJRRqNpZhpwsuxgol7YEee4m0sovwubcsxu4nSR2Gz9nFGnBO5LZX2VrAdYQd3JYA3wRGROpTT+OA7xO/8qBXvABMwVYKJmE7gVUmW6TavozP/aMTG3sL4WR8OtUFfCpy26usDTgFG6hDDmYvAUeTpt7D6sAJWKnp1IO6x1/qmdi+mMuxbIXHYLP8cegxmUiZfRob4zzuFSd7NMjzhv1NLKNaXsuBg4CbHF5LzHZYdbzQFRnvx/Yg/C3w+/Rne+wY4SSstnbVLMMmW69hezHmYEWWuv95Vo9/XoiVR65hxbwWJWiviJj9sRVZjwqsFwBnO7yO6wSgDbgU+KTDay0EJmIDiod9gY9iGxfXdnrNshlGnIp4NeC3wJnAyxHery/DsQyDxwE7JWpDUc3HVhqWYxsWRWSl2djRvKuwfU4edgSmAqs6vNbl2Cp5zeG13A3Gfrl7LHG8Tv5frGOAO5zao2gu5uEzGcxra6wK4eukvyYKhaI8MRVLu57HptjKnEd7bsLG2EIbgf1y9+jwDLJ/AOviU8ZYkS8+V++DiqQD2AerbDmH9NdFoVAUP54F1iGbMfiNQfeTZrN1JusAT+PT8elkK1N7o9P7K/LFMmDbOp9VbIOBDwGX4ZeDW6FQVDMm07yR+G1Mfprsk5BkNgJexecC/IXmjki91+l9FT5x7cAfV1JDsRz/v6W8RwoVCkXYaKYw2hD8srK+SolLlU/A76Z6JY1vWvQqXazwicXEKyiUxxBs8+l3gEdJf90UCkUx4nwa044lKvN4z/nEq8gazAfwS0373Qbf849O76fwiy0G/MSKaSx2kuCP2KbG1NdQoVCkiWtozPec3m8pNnZWwlH4JUD4fAPvN9XpvRR+MX7AT6z4BmMVEb+FpfYtSypihUKRP26nvi84vVcXNmZWyun4XJxOLNHLQDQBKFZ0YRn7qmQ49rjgXOAWtEKgUFQ56k0AJuH3I/f0Ou9VWt/H5wLVWx7RBKBYcc8An1VVdGCJpo4GfkGxSxgrFIrmYqAJwJ74pVuvdFG8NuAKfC7UfCzFbV80AShWfKSfz6nq1sAqMx6PJSO6B3iL9J+HQqFoLvqbAGyN31Hi32ObCKPxyEvcjBq2qWp9bNaUx2pYNbVdgOdyvpaE8zssB3YrehMb9HuugHQAG2N7IsZjN5BNgQ2BVWI3UEQy2xC4FZvo5zUNy5za5fBaDUtRvQ3sefCdwDYOr/VP7FfW7B7/21TyTzAkvyuwCd/S1A0piTHAu7AbS+//3IASpAEVqaipwF49/vvawL34FFh7GKv4Oc/htZoSewWg2zxgP+A+rMxpHpsBN2AfjiqepbcEm9z9ENscJ417ZUX8tY9/1wGMBkb1iHVW/Ofavf73USv+/92/TFbBikGJSH7DsUyzHoP/89hYGH3wh3QTALBKcftiy6Ojcr7WTsAfgIOxKmdZHUXfN19pzNtY4Qv94vfXif2dyVthcXXsOeNgSpRbXMTJ+7Csn1kNwsaaHR3aMgcbA1NVTS2E9+K3Meo32GONrJsAJwbuq4iIpDOR7JsA24BLMv753rEI27+WVMoVgG73Y7XbryN/e45CGwJFRMTf14FPO7xOJ3AktodAVjgOvyMbCzL+Oa0AiIhUV9YVgKxjSl9xXPBeltRX8LvImgCIiEhPWScAXnFe+C6W20/QBEBERPylnABcHKF/pdeB1Y/XBEBERDylmgDcQDH23P2HqGkHG9SJbeZrhfzxIiJSbf8LHEG+I+pBFHECALAYOAB4NHVDREREMnoSS/SzMHVD+lLUCQCszBY4M3VDREREmvQy8CFgbuqG9KfIEwCAF7EL+EbqhoiIiDRoPrA/luq3sIo+AQCrq34wlmNeRESkyJYChwJ/T92QesowAQArLnMEtkFQRESkiLqwTey3pW5II8oyAQCYDJySuhEiIiL9OA24OnUjquxClAdARESaFzIPwAUR+9Gy2oBL0QRARESaE2oCcCU2NkkEg4Gb0QRAREQaF2ICcDswJGYnvJRpD0BPy7Bdln9L3RAREWlZDwIHYTv/S6esEwCARcCBwFOpGyIiIi1nBnbW/63UDcmqzBMAgNlYoqDXUjdERERaRiXGnrJPAKACszARESmNyqw+V2ECAPYc5jBsb0AeXQ5tERGRYsp7j18GHIL2nxXS0dgHnHU35/j4TRYRkUi2Jfv40IWNMVJgZ5Dtw32Lkh7lEBGRhgzFSvNmGSPOSNBeyeDHNP/h/ipJS0VEJKZLaX58+HGSlkom7cBVNP7hvglskKSlIiIS0wbAPBofH66iOvvlWsZQ4Hrqf7iLgA8kaqOIiMS3L3bvrzc+TMbGEimhQcB59P/M5/+A9yRrnYiIpDIBGwP62xN2LtCRrHURtErxgrWAA7Bd/iOAl4CpwH3Yhy0iIq2nDdgZqxGwHjbwPwxMAeYmbJeIiIiIiIiIiIiIiIiIiIiIiIiIiIiIiIiIiIiIiIiIiIiIiIiIiIiIiIiIiIiIiIiIiIiIiIiIiIiIiIiIiIiIiIiIiIiIiIiIiIiIiIiIiIiIiIiIiIiIiIiI/Kf/By40rHDxEs+XAAAAAElFTkSuQmCC;" vertex="1" parent="1">
          <mxGeometry x="388" y="513" width="75" height="75" as="geometry" />
        </mxCell>
        <UserObject label="Flexibility =&gt; &#xa;Employing wide-ranging and comprehensive cognitive categories to form associations &#xa;&#x9;&#x9;&#x9;&#x9;&#xa;&#x9;&#x9;&#x9;&#xa;&#x9;&#x9;" link="https://www.flaticon.com/search?word=positive%20mood" id="8HKQdC73j9jO4bcsfkeK-5">
          <mxCell style="text;whiteSpace=wrap;fontStyle=1;fontSize=14;align=center;" vertex="1" parent="1">
            <mxGeometry x="308.25" y="588" width="234.5" height="70" as="geometry" />
          </mxCell>
        </UserObject>
        <mxCell id="8HKQdC73j9jO4bcsfkeK-6" value="" style="shape=image;aspect=fixed;image=data:image/png,iVBORw0KGgoAAAANSUhEUgAAAgAAAAIACAYAAAD0eNT6AAAACXBIWXMAAA8eAAAPHgH67H1EAAAAGXRFWHRTb2Z0d2FyZQB3d3cuaW5rc2NhcGUub3Jnm+48GgAAIABJREFUeJzs3XecXUX9//HXbnpIQigJEJDeOyJVBKVIFSkqCkixoaiABYWvIrEBCqKoKIoFRFQUKYIIgiKC9Bp6Dy0ESAIkJKTt3t8fn+yPzWbLvfOZmXPuue/n4zEPRbl3PnPO3jPnzJn5DIiIiIiIiIiIiIiIiIiIiIiIiIiIiIiIiIiIiIiIiIiIiIiIiIiIiIiIiIiIiIiIiIiIiIiIiIiIiIiIiIiIiIiIiIiIiIiIiIiIiIiIiIiIiIiIiIiIiIiIiIiIiIiIiIiIiIiIiIiIiIiIZNVWdAAiLaIdWBsYDcwGngAWFhqRiIiIJLMm8CvgNaDWrbwB/AHYrLjQREREJIUjgTdZvOPvWRYCX0ejcSIiIpVwKNBJ/51/9/KtYsIUERGRWCYAM6m/869hNwvbFxGsiIiIxPE9Guv8u8o1RQQrIiIifu3AFMJuADqAVfOHLCKtqL3oAEQqZntgpcDPtgP7R4xFRKRPugEQietA5+cPiBKFiIiIZNMGTCZs+L/7a4AVM8ctIi1IIwAi8bwDWM35He3AvhFiERHpl24AROLxDv930WsAERGRJvIIvuH/rjIfWCZz7CIiIhJgU+J0/l3lo3nDF5FWo1cAInHEGv7vouWAIiIiTeAB4o4AzAGWytoCERERaci6xO38u8oHcjZCRFqLXgGI+KXqqPUaQEREpMTuIs0IwExgeMZ2iIiISJ1Wx7byTXEDUAP2ztYSEWkpegUg4nMglgI4Fb0GEBERKaGbSff0XwOmAYOztUZEREQGtDK2eU/KG4Aa8J5cDRKR1qFXACLh9ifPb0h7A4iIiJTI9aR/+q8Bz5N2noGIiIjUaXlgAXluAGrAtnmaJSKtQq8ARMLsT97JeXoNICIiUgJXk+/pvwY8ladZItIq9F5RqmYUsBIwpo//fyY2cz/Em8BcYDTwODA08HtCvRN4GBiCtTPUUvQe+5vAVGCG47tFRESyGQx8GrgTWEjeJ/MqlgeA44BhjZwEERGRnNYA7qX4TrOK5UFgrfpPhYiISB4rAc9RfEdZ5fICMKHeEyIiIpLDlRTfQbZC+Ue9J0RERCS1bSi+Y2ylskN9p0VEmoXyAEiz+nDRAQS6ougAAh1adAAiEpduAKRZbV10AAFqwLHAa0UHEqAZj7eI9EM3ANKsxhUdQIDbgKexuQvNZoWiAxCRuHQDIM3qjaIDCHDJov+8tNAowswpOgARiUs3ANKsJhUdQICujv9qmq9DfbDoAEQkLt0ASLO6ZOB/pVRuA55Y9N/n0HyjAM0Wr4iIVNQg4B6KXx5Xb9m/R/ybkXc7YU95DKUFFhGREtkUmEXxHeRA5aI+4j+5BLENVOZgORdERERK5Z3AKxTfUfZVrgBG9BF7G3B6CWLsq8wA3tPPsRcRESnU24AbKL7D7F6mAp/HXlUMZG9sB76iY+5ebsE2WhKRimorOgCRSAYBXwNOwrYHTu1mrNPubh7wEnAXcP2if27EVljK3ZWApXv8f+OA/Uj/m+0Evgd8A9taWUREpClsDTxJ+ifkN7GsfjnsjO3Kl7pNLwF7ZGqTiIhIdGOAC8kzVH4psGyidgwGJgIdGdrxT2DFRO0QERHJ6hPAbNJ3nk8TP1f+WsAdGWKfC3wBvQ4UEZGKWZ88+QLeBPaNFPO2wLQMMT8KvD1SzCIiIqUzDDgLm+CWskOdDWzijHUC9i4+ded/HjDKGauIiEhT2Bt4mbQd63+cMf42cXyvA4c4YxQREWk6KwHXkraT3TwwtuWwd/Kp4rodWDswNhERkabXDnwVmE+ajvargXEdkCieTizj4NDAuERERCpla2yHvtgd7rmB8Xw1QSxTgd0D4xGRCtN2wNLKbsdmwf8+8vfWk/63N7EzGP4T23XwmsjfKyIiUhkfBWYS56n7W4ExHBap/vnA8Whtv4iISF3WxkYFvB1wX0Pu7cAywJA+/v/VI9T9BLangIiIiDTgK/g64NdYfLLdUtieAbdhm+vUsNS+k7ANd5brUf8kZ/2/jHAMREREWs6t+DrgC7t9147AUwP8+9NZfF3+RGf9L5NnN0QREZHKWAV/tsADsEmAE3nrib+e8jssM99mzvprwC6Rj4uIiEilHYev450NrAfcEPj5R7AkQt6liT+LfWBERESq7L/4Ot4p2JC+5zvexH8DMJXwpYgiIiItZQUaG7Ive9kp7uERkapRIiAR0/Xuvio+UHQAIlJuShQSZgSwLrA0NuT7KPb0KM3rWmDXooOIaArwNmxSozSnwdh1ZhQ2v+QxYEGhEYm0sG2Bv7HkJjJvABcAGxYXmjgsh11Yix62j112iHmQJJv1gfOBWSx+PucAf8bSV4tIJm3AaQy8RGw+8OWCYpRwR1J8Z52i/CjmQZIsjmHgXSo7sGWmGsEVyeD7NHbhPbGYMCXQlRTfWacoz6JOopk0ugz1u8WEKdI63kXjyWEWonzszWJpYC7Fd9apyrbxDpUktAkDP/n3LJ3oNY9IUlcRduG9qohgpWGHUHwnnbKcEe9QSUJ/Iuz8XltEsCKtwLM2vAObhS3l9leK76RTlqfRa4CyGwvMI+z8dgKr5Q9ZqkB5APq3P+Frw9sXfV7KayR9b91bFasD7yg6COnXviy+g2Qj2rAcFiIN0w1A/w50fl4/zHLbG9uut+q8f8eSlq4zIiUTY214B7Bi7sClbqHvXZutPBXrgEl0o7D1/d7rzEq5A5fmpxGAvr0P/77q7Yu+R8pnOLBX5jrnYmvzX81c7xrAFpnrlPrshWUW9WgH3h8hFhFZJNbacK0GKKd9yfsU/jC21S/Y5FDvzoONFq0ZL6c/E+f8XpM7cJGqGo1tyxrjhzkfWCZv+FKH88nX+f6OJecaDMKyueXagfAxz8GSJIYDM4l3nVk2b/gi1XQwcS++h+YNXwYwBNvEKXWn+zr2t9SfnYDnMsRSAzZt8DhJWvsR9/wenjd8kWqKvTb8r3nDlwHsTvrO9nZgrTrjWRq4KENM36z7CEkOFxD3/F6WN3yR6hmJbb0Z84c5e9H3Sjn8nHSdbAdwKjbK0Ig24HPEe/XUW3mgwZgknaHYZNCY53cOtqpARAIdSJqLr9bqlsf9pDnHLwF7OGPbEJiUKL4aMMEZn8SxJ2nO7wdzNkKkai4kzQ/z9zkbIf3y5nforfwdGBcpvpHAuQlirAHvjhSj+KQ6v3/M2QiRKhmGTdxK8cN8jfB0nxJXzGH2ecAXSJNv/0PEHyZ+b4I4pTGDgJdJc515HbuOiUiD9iHNj7Kr7JmvKdKPJ4hzPh8Dtkwc6+rAzZHirQEbJI5XBvYe0l5n9snXFJHq+A1pf5jn5muK9OMc/OfyfPJNuBqMJfLpcMb8ItoZsAx+StrrzG/yNUWkGgYD00j7w3yZ8N0FJZ7NCe9MZ1JcXoedgRfqiLGvMjF7xNJTO75zWE+Zhj+NuUhL2Y20P8quslOuBkm/QiZh3QGsXUSw3YwDrqDx2J9CS8TKYHvyXGd2ztUgkSpIuTa8e/lxrgZJv0YAN1LfOesETqc8kzjbgGOxzYXqiX86sEkhkUpPPyDPdebsXA0SaXbt2PvRHD/MZ9F72LIYjt349fc64HHKO3N+U+Ae+v97uwNYt6gAZTFtwNPkuc68gHZ7FanLjuT5UXaVrfM0S+q0Hpa970ZshcD92C5th1D+JVXtWPKqi7Gby5nAM4v++QDUCZTJluS9zmyXp1kize0s8v4wT8vTLBEpkVPJe505PU+zRJpXG/bElPOH+XiWlolImTxC3uvM03maJc2q7EtF1sYSoaS0OrBq4jp6WhsbnnskYR2dWFYwEenfWGAF0q6SeBv2qimn1YF3Ag8lrEPXGYlqNPBt0q+VbYUyB7gO25Ne+QdE3jIC+BI236OT4n+rzVzmANcCB6E5J+KwBTaRqeg/6CqWm4GV6z8VIpW1CfHSQassXm4AVqz/VIiYdYEZFP8HXOXyFDC+3hMiUkHroetM6vIosGy9J0SkDfgfxf/htkK5os5zIlI17VhehKJ/g61Q/lLnORFhV4r/g22l8q76TotIpexH8b+9Vipb1XdapChlmbDxgaIDCNSsT9OHFx2ASAE+XHQAgZr1OnNk0QFIc7id4u9WGy0d2DKb10oQS6Ml5bIgkbJ6iuJ/eyFlK+CxEsTRaLmvvtMiRSnLCEAzThi5DZgMXFlwHCG0GkBa0biiAwjwLHAncEnRgQTQdabkynID0IyJJLp+kJcWGkWY+UUHIFKAN4oOIMBl2NN0M94ALCg6AOlfWW4A7ik6gABdHf/VwJtFBhIgZQZCkbKaVHQAAbo6/juA54sMJMBjRQcg/SvLDcCfiw6gQbcCTy7677OBvxUYS4hmfG0h4tVsT9HPAjct+u814MICYwnx96IDkObQhm3FWvSklXrLfj3i35b+95QvU5lOc865EPEaQf6Nvzzl8z3iXwV7jVF0XPWUGcBy/Z4NkW7WAF6h+D/cgcqf+oj/hyWIbaDSieXrFmlV78bmwBT9Wxyo3EDvm7V9ugSx1XOd+Ug/50CkVxtS7qU6V2BPEb0ZBPyqBDH2VRZiFw+RVrcPMIvif5N9lZvpf5Tua5R3A6OFwGf7iV2kX2OxOQFF/yF3L1Ox4bh6dtQ7CHi8BDF3L89hTz4iYtbHJh8X/dvsXl4FTgKG1RH/LsC9JYi5e3kB2LmO2KUk2ooOoB+fAM4CRmao63/Agz3+t3nAS8BdwL9pbOlcG7AdsD22+c7SPf7/ccD+QZE27lLsWM7IVJ9IsxgGfA84hjzXwluw7Ye7W4C9+rwH+Bc2qbgRWwI7Aiux5HVmeew6k6NtVwAfA6ZlqEtaxPrA3aS/c30TODZTm3bB7pRTt2lOxjaJNLPdgCmk/03OByaSZ/XVjtiywVzXzjI/TEoTGwacRp5Z9pcAyyRqx2Dsx5+jHQ9ge56LSH3GA1eR/rdZA67FnthTaMM65BwTHR8GNk/UDpHF7AO8TPo/6qeIv4vV2lg6z9Sxd2KrEep5hygii2sHvkKeznMq8N7I8a+Iva7McRPzC/K8nhX5/1YCriP9H/cc7IYjhm2xtfc5Lih7RIpZpJVtRZ6JvAuBj0eKeX0scVDqmGcAB0aKWaRh7cBXSX+XPhvYyBnrBGwiYeof5VXACs5YReQto4ELyHMT8J4Isea4YfkvsKozVimRZp64sTXwB2CthHX8B9+P8zzg8CiR9G4ecAK2WqKWsB7p2zDsorgqdhO2XI8yGJud3Y4tIx2Dzfzu2phmDnYe38BGiqYtKtOxiWmTsVdfUoxDgZ9hnWwqj2E5UDoCP/8dLDdAKh3AtxfVExqjSHRjgN+T9q53s8DYlsMu7KniesgRmzRuArA7cDx2Y3cjNss6x6TO2djEziuBM4AjgLcDwxO2V96yFnA7ac9x6CvHoaTNoPoMsENgbCJZHAbMJM0P4CuBMR2YKJ4acA6agJPSGKyz/yY2Y3sa6Tv5kLIAuxE8H/gU9sqqmUf1ymwIljMg1Q3fjwPj2iZRPDXgYtKtihKJam1sy8zYP4JfBsZzQoJYppMvgVArGQHsib1KuQ97L1t05x5aZmAjBccC68U8SALArqTJGXBVYDyHJohlNnZDKdJUhgLfJ26e7F8HxvL1iDHUgOux3cAkjtWwTvIf2Hv4ojvuVOVJ4Gxgb+z3IX7jsK1uY56nawJjOSJyHPcBGwTGIlIK7wVeJM4PYmJgDIdHqn8+cCJ5sodV3SrAF7CUrGXdTCVleRX4LTbaMcR5LFtdV8KducQ5N6EPGrtEqr8Tew2heSVSCeOBf+L/YezWx/e3Y+/H+rqQrhGh7iewd3wSbiT2lPRf8kzYa5YyDRsZ2CL4yApYJryH8Z+PI/upYxn6Tu61FP6bkFeA9zXYbpHSOxnfD+NVFh82XQo4DriNt94TdwCTsF28lutR//3O+n8R4Ri0qs2xDu41iu9sy17uAI7CJj9K436I7/gvxB5YugzFNvC6gcVXEj2CTUTs+SrQm8L4JxGOgUjpTML3w7ig23fthKUJ7u/fnwYc3O0z33TW/zL1bUEsph1bffE/iu9Um7HMwiZCrtHogW9hbfgz8P2n2/dtxsDXrTdYfAfDTzrrfw6tHpGKWQf/BXF/rAOeSGMzw38HjMKeQr0xaH/tgQ3HloLGGIpVsVGtK7DtrKV/2+E/3scs+q7DsBn49X7un1jyqeXxr1zZNupRESmYdxnebGwZ1X8DP/8QsCkDjxoMVH4W+8BUyEgsT0PKRCitXq7DOjnp3Rn4jm8n9qBwWeDnnwPehb0u8MRxeuwDI1Ikb06AF/Bv4jMHm8jn+Y4X0QqAnoZjM7CnUnwH2Srl78CW9ZycFtIGPI3vuL6G/xXCAvyjX09GPjYihVmNai3z2jHu4Wlabdjyyuco/py0YunEssOtOdCJahFbUfw5iVm0IqTFVPXJ8kCqNanlA0UHUAJbATdhefiVEKkYbdhv6xFssmCrrxqo2u9S2/xKJdxE8XfTMcvzVPdmbSATgAup1ohOVcoUbESmSjfbjfC+3itbeTju4ZGyq+IPdwI2RFy1DnMHbHlbq2jDljd9H9tOtxm9uqgAvI7dxHQ3FmvnGCyHRLP+Hv+N5Y5vpffIWwB3Fx1EAhsDDxYdhOQxuOgAEtif6nX+YMONrXIDsC62CdNORQfSj1nYhfJxYHK38iI2eXQ6je2d3obdBCyHLe1aHVuPvzq2He3GlHdntp2xpFcnY0lxFhYbThZVG/7vcgC6AZAm9i+KH0pLUZ6heZ8Q69UGfBF4k+KPd/fyOnA1lg9iP2wSXBHn4m3Ypj7/h63T965SSVHuBNZPdQBK5FGKP9Ypyr0xD5JITuOwJTFF/4hSlSrvCzABuJbij3ENe7q/HPgslsuhrNkY24ANsVclf8FeNxR97GpYDo1PJ2x30Tal+GOcsqwd71CJ5PMJiv/xpCxVTdZxAJZGuchjOxn4Aba7WrNumzsYSwpzCvAYxf+9Xo7dlFfNtyj+2KYsX4l3qETy+QfF/3hSlqeo1muAIdgWpEUdz+eAM7E0qFU6rl22AE7Fn43SU16geimFH6L4a0HKclu8QyWSx1gW3zmrquUdsQ5YwcZhs8dzH78O7FXDB6nmJNi+bIntLjmH/Md8AfDV9E3MYiOKvwakLp3AqrEOmEgOH6X4H06OclqsA1agHbA15DmP21TgG8BKGdpXZssDx+NPPxtSfgeMSN/EpL5B8deAHOXYWAdMJIfLKf5Hk6M0+1rrw8k7UvMYdjFr9o4ntnbgfcCt5P37vZfmzuR4P8VfA3KU/8Y6YCKpjSL/0Oab2JrnGZnrrWG7hzWbNuCb5MvoNwnLCVHFd/ux7QncTr6/38nYUHqzWY/8v/V5wJ/wb/fbaOkAVoxz2ETS+hB5fxwPAZstqns18qce/k6EY5bTUOAC8hybh4EPU81kUCm1AftiT+g5ztOrWAKhZvI18v7On8D2wABb3fFM5vqrvJRTKuQi8v0ozsX2oe9uMLY0KNdd+iOuo5XXUtie8qmPyTRs3X4rTexLoR04kjxzNOZhN+/N4h7yXWd+z5KbLS0LXJIxhmtdR0skgxFY4pbUP4bXGPhi9W5s454cP85NGjtMhVia9KMj87Gd6cqaJrdZjcaWEKbOyrgQOCJPk1zWJs/vehY2T6Y/nyHPK88FWGpqkdLaj/Q/hNuxfOz1GEueEYmJ9R6ggixD+glm92DL2ySdtUg/gtMJHJerQYFOJP1v+i5sH4x6bADclyGmI+s+QiIFOI90f/wdWFa1RoeV24DPkfbp6f4GY8ppeWwSXqq2zwa+RHlT9FZNG3AUNgqWsrP5Uq4GBUg5SbITm1A8rMGYRgDnJIyrBlzZYEwiWT1Mmj/8KVhaWI/NSJs1rIyzdMdi26SmavOtKFd5UVYm7X4NncDR2VpTv+Gk22PkZWAvZ3wHkm410iwsY6dI6bSRZuLdlcTLYb4U8KsEMdYo33a5o4BbSNPWhdhES03yK1Y78GVgLmnOcwcDvwPPLdXmP9cRLzHVqsCNieJcJ1KMItHFvBDNxd5Fplg7/iHiD6HuliDOUCOA60lzAXoOeGe+pkgdNifdhkMLsVTNZbExcdu3AJtTEHupaqrVSJshUlJPEOeP/FHg7YljXZ24T8hl2Xe9nXTLk64HxudrijRgaeBvpDnv87BVNWUwnngJrJ7GNp9KaSfspjnWuajijo5SETEmwZyHDV/nMBibWNjhjHkK5clydyZpOoEz0JB/2bUBJ+H/e+6tzMBmu5dBjEmtF2E3TTksB1wWIeZmyjkiLWhzwi8+rwMH5w8ZsAmGL9QRY1/l5Pwh9+pzxL/wz6N874Glf+/HVmfE/lt4inKMAB1DeBtmAx/PH3KU1Uhfzh61SINCJtk1srY/lXHYhMOQi+JSBcTb017Ef9/YjClixWyF7boY+ybgVmwmfpGGYq8JG439XoofxdiUsNVIj6FNtKQJjKD+jHOdwPcpz9KWNmziYb2TGadhk5KKtjbWWce80D8DbJizERLd6qRZmvvrjG3oy3rAK9R/nfkJxd+4dBmJpTGv93jPoDk3bJIWNQL4Of2/DniMcs2c724zBs41fjvlWJKzFPET/TyObawkzW8cafLmfypnI/qwBgNnuHwW22q5jA7Ecg/0F//9FD9qIRJkPSyH+Y3YCoFJwJ+xd/1DC4yrHu3AB4CLsYvITOyp+GLgAMqzw90fiHthfxCYkLUFktoyxM8JMRfYJmcj+tC1c+JF2N4fbwIvAf/G3rmX4fVcf8YCJ2Cph7te4b2Jrbg5kvKMjopIycSe9DcJLTOqqtHET07zLLYrnsTRTr6VCSLSxDYk7i5kjxEvE5qU0xji59G/JGsLRERa3DBsRnOsi/gz6J1/q0ixP8THsrZARKSFxUz2MxVYM2/4UrAVgSeJ9zc0i3JMiBURqbT3EC8V6mxg67zhS0msT9xd625BW0KLiCQzjHjrujuw1QzSut5F3A28jskbvohI6ziNeBdrpRUVgMOI+ypgtbzhi4hU3xbY1qUxLtR/yhx7mQwC9gCOB87CNs85iHwbUJXRT4h3E3BV5thFRCqtHbiDOBfo+2ndzu4T2Nr13o7L68Dp2GuWVjOE+tN311MOyhu+iEh1HUmcC/NMYN3MsZfBUOAC6jtGdwArFxNmoSYQb/OgZ7B89yIi4jAaeJE4F+bDM8deFo3uUHkf5dk4Jqc9ibfC5OTMsYuIVM6pxLkgt+p7//cSdry+XUSwJfBj4vy9zQbeljl2EZHKWJ04y7SexTaEaTWDsDkPIcdsDq3ZgQ0n/Jj1LBdkjl1EpDJ+Q5wL8T65Ay+JT+E7bufnD7kUNifOipMOYNPMsYuINL11iHMR/l3uwEtiFDAFfwe2Ze7AS+IM4tx8/iV34CIize5C/BffV2jd7X2/SZwO7N+5Ay+JkcAT+I9fJzaiICIiddgQe/r0XnwPyx14SUwA3iDODUANmx3fivYgzvH7W+7AC9QO7AWcB9yJbbp0K/BTYIfiwhKRZnEe/ovurUBb5rjL4tfE6/xr2KS4Vt3o5grijAJsnDvwAmyAbYrU37G4GlipqABFpNwmAPPwX3C3zR14SWwKLCTuDUANyyLYitbF//dYwya0VtnbgenUdyyeB9YoJkwRKbMY6/5/nz3q8ria+J1/DZtQuFTGdpTJD/Afv7lU98l3GWAyjR2PB7AMlSIigM1c9+7RPp/WfbrYnTSdf1c5OV9TSmVZ4DX8x++U3IFn8l3CjscXighWRMrpaPwX2XOyR10Og7AUvilvAGZR3afYgUzEf/ymU70Uy+3ANMKOx0MFxCsiJXUPvgvsXFozex3Ax0nb+XeVX+ZqUMksTf3vuPsrh+QOPLHN8R2PVl2mKyLdbIX/4np29qjLYSngBfLcACwENsrTrNL5Ov7jd332qNPaC9/x2C5/yCJSNr/E3zGtlT3qcvgGeTr/rvL3PM0qnWXx51foxLJcVsV++I7H3vlDFpEyGQXMxHchuTh71OWwEvZuPucNQA3YJUfjSijGboGnZY86nV3xHYuD84csImVyCP6LaqsOJZ5L/s6/BtyLTQBrNWvg36PiWaqTpGobfMfi0/lDFpEyuQzfReT2/CGXwsakSfpTb2nVVMuX4D9222ePOo0N8B2Hr+YPWUTKYmls9r7nIvLJ7FGXw1UU1/nXsCfZEclbWT7eiW814EfZo05jZXzH4bv5Q45iGWxvg12AtWndVNkiLh/FdwGZBYzOHnXxvO9eY5UTUje0hAZhNz+e4/YC1XiFMgbfcfhp/pBd9gf+x5Kblb2A7cDZqtkyRYL8Dd8FpBXXpbdj7+CL7vxrWIa8VlzLPRH/savC7njt+HbuvCB/yEFGAn9h4PZMRts/i9RlGP5lVVW4iDbqCOJ03rdF+p6fJG1tOa2J/7hVJTWwZwVPM2yVPAS4lvrbNAObGyEi/dgN3wX0eaoxjNqIkVi7vZ3PFOzVyV0Rvms+tmteq7kD33G7O3/ISXj+Hv+TP9yGnUjj7boLzQsQ6deZ+C6gZ+YPuXCxkv50be+7U6TvuyRZi8vreHzHrBPb/rrZPUz4MbingHgbsTzheTb2LyBekabxEL4LaFWWUtVrRfwJk2rA/Sz+dHJFhO+sAXukaHSJrYZ14p5jdkTuoBPwvEp6qoB4G3EG4W27qIB4RZqCd/nQS1R7+H8ksC22Q+K52JDiPOJ01Hv2qGsD/MltusoM4DrgdOAjwHpU+zzdje94/T5/yNFdR3j7pxcQb71WwDdH6cn8IYs0hw/hu3Cenz/kZEZjkxmPBX4H3Em8zr5n+VcfMfw8UX01bAj1zkVtO3ZRW4eFHarSOQXfsZmcPeL4PImRFhQQb708T/814JX8IYs0h7Pw/bg+kj/kKMayeGf/IL5lVI2UDuDtfcQ1Hng9Uxw1bOLggyx+UzCykQNZEjviPxarZI86rvPxtb+M593z7r+rPJYitSkzAAAgAElEQVQ9apEm4ZlBvRBYLn/IDVsZeB9wMpbu2Js8xlt+O0C8Mba79ZQFwH2L4jwGuykoe5KnwVguBE+7D8oedVw/wdf+Mk6E9D7919AcAJFeLYXvnXMZl09NwDr7idikuhcptjPtWeYAbxugDSOAZ0oQa88yZdExnbjoGI8foB25eSdRnpU/5Ki8r0HWzx9yv2I8/deAfXMHLtIM3onvh3V2/pB7tQf2/nMGxXeSA5Vv19mmI0oQ60ClExsp+CIwtM52pXQCvvbcnD/kqLzt3zZ/yP2K8fT/CMoDINKrT+P7cRW9h/hY4A8U3xHWW6ZS/1B6mdIM11PuxXZFLNIO+Nowk+beHvhofO1/b/6Q+7QCMBv/3+WhuQMXaRY/w/fjWi1/yP/fcODWPuIqazmqwTa+pwQxN1KmYTuyFWUY/h0t18gedTzeDb0+kD/kPsV4+n8MmxsiIr24kfAf18sFxNvdb/BfIHKWhwi7GBW91XCjpWdyo9y8aYHfnz/kaN6Pr+2fWPIrC6Gn/wJVOVmIvKUN2MTx+UmxAgmwDnBYgfWH+Aq2aiLkcx2RY0lpYyy3RFG8f5ee30TRZjk/v3SUKPyOx78k8VHgjxFiaTm6AWgNK+D7wd8fK5AAn6C5JvZcB1wZ+NkHgF9HjCWHTxZYt/fvspk3U5rp/PyYKFH4rAB8JsL3fIfmunEuDd0AtIbVnZ8vcgRgqwLrbtRM/EOrX8FyFzSLzSluMp33BqCZ5wB4RwBGRYnCR0//BdMNQGvwXugeihJFmGa5SM/E1iA/4/ye17H3u82S0nQZbIVGEbx/l6vHCKIgM5yfnxMlinB6+i8B3QC0htWdn58cIYZQ3qHOHK4HtgNuiPR992J5G26M9H0pdQJvFlT3VGfdE2je/RFewbepT9E7AurpXySTXxA+u3Y2xa6XvrSPuIosr2Kd/inAO9I1nTZgbyy9aRmzBdawfemL9DC++NfJH3I0oXkxOoBVC4i3i2b+i2TkSZta5PA/WAKiIju457FJfd8GDgTWTNvcfi0H7Io9PV2InZuFFHt86s12mIp36eSO+UOOZntsBKbRNv+5iGC7UdY/kYxuJvyHdnUB8Xa3FPAC6TuyDmxI8SLgq8DulC//fW9GYmldP4ON9NyBDYvn6Pxfx57miuTdUnn//CFHdS6NtXcGxSb10tO/SGaPEv5Du6CAeHvaizTb9/4D+Bz2vr3sO+A1YjC2xv2jwJnYFsApbgCOyNSe/nwbXxuKXMYYwzDgGupr6yws42SR9PQvktl0wn9sPyog3t58nvgd2OPAijkbUYA1SDOCckrORvTjOHztOCF/yNENxmbD9zfyczuwaVEBLjIePf2LZDUI39PzSflD7tNJxO/IJgHL5mxERhOAJ4h/zM6hPBvpHIqvLWfkDzmZlbD5IZdhr4JuxF6R7Eo5Vnx9Ff/fnp7+RRowBt8P7uj8IfcrxhBiz3IL5UiMEtNyWGbB2Mfqj5SjM+myJ772/CJ/yC3rFvx/f3r6F2nA8vh+cEfmD7lfbcCviN+xXUvzrgnvaQw25Bv7GP0dGJKxHfV4N742/TZ7xK3rVXznSk//Ig1aGd+P7uD8IQ+oHXsSjd3BXU7zbyk6AstREPvY/A9bkVE22+Fr14X5Q25Zb+A7V3r6F2nQGvh+dGXaN7y7oaTZPvd8yvN+u1FDsJwFsY/JXZRn97ie3o6vbRfnD7lleVYj6elfJMB6+C6Q++YPuW4jgf8Sv8P7cc5GRDKINKMiDwHjMrajURvha98V+UNuWZ5Xd3r6FwmwAb4L5Pvyh9yQpbEn1Ngd37dyNsKpDfgl8Y/BZGCVfM0IsiG+Nl6VP+SWtTXhN6F6+hcJsA6+C+QB+UNu2PKkSXZzfM5GOHyP+G1/GRs9KrvN8LXz8vwht7QLaOz8dAK7FBKpSAWsju8C+eHsEYdZBXtijdkJdgIfz9iGEF8nfuc/A+tYm4F3DsBf84fc0sbQWGryLxYTpkg1eFcBfDR/yMHWAV4kbme4EPhgzkY0IEV2xDewmfXNYht87f1T/pBb3ijg1/S/kdFrNNe1R6SUxuO7QH4sf8gum2JPsDE7xXkUn0O9p0MI2wmuvzIX2C1nIyJ4J742l2Gvi1b1dixT4f3Yb3YacAOWnnm5AuNqGc2+5lkGtsD5+RFRoshnErZ50LXEy+43FLgEu7l4LtJ3emyK7QIXc7liB5bz4dqI35mDNzHRHOfnh2OvnyYAq2K73S2DXVuXxnJWjMXO1TLYcZ656LNzsfz9b2D7dUzrVqYAzwLznfGV2d3YLpZSEN0AVN+bzs+PjRJFXrdi27xeSbzsfmOBb1CO3eN+TNwbsxrWrksifmcuY5yfn1XHv9MOrAlsjt18bbLonydgE1BT6cQ2cpoMPA08jN3g3k85bkRFpAl49odv5s1S9sNGQGK+ChiZtQVL8q57760cl7UFcR2Or+0n9/KdE4DDsOHpm7GbhNjH3FtmAP8BTsOW6qa8EZH6DcZeSx2KbZe9M803iioV45kY95sC4o3pMOK+K981b/hL+Azx2lIDJmaNPr5j8bX/i9iror2xra9TbKCUo3RiIwTnYtk7m3Hkrpkthe1W2tvW628AZ2Ovh0Sye4TwC8ulBcQb2zHEu9AWvTnSD4jXlrMyx57CRHzH4DnsPXvRHXjssgDLknki9spC0tkNe0Uz0Dl5Edi2oBilhd1K+IXkpgLiTeEbxLmwFp0X4EzitOM8mnfPg+5+TPGdbTOUh7DXHRuEHWbpxVgGXs7Ys7wGrF9EsNK6/kH4heOZAuJNJcbT837Zo17c1/C34VKqMwH4MorvXJutTAK+gOYNeLwfW6kRcvxvpxo339IkfkP4xWIB1eks2rDMb56L5+bZo17cIfjif5h4KyPK4B6K71CbtczFNpDaGXVI9RqPJY/yHvs9cwfem/aiA5AsXnB8djCwUqxAClYDpjq/Y3KEOIqsv4atZqiK1YoOoIkNw1J9/wu7MfwUmrHen4OxPUcOivBdRY8kSgv5NL671XfmDzmZvxN+HF4tIN6eJuA7l7OpztPeGIp/iq5aeRmbK1DmLaBzWxnbNjrmcb45awv6oBGA1jDF+fkqTVpZzfHZp6NFEW4qNnQbaiTVubgfWHQAFTQOW1kxGTid6vythGjDEmQ9COwT+bu9CaxE6ubdMe3M/CEn40nqUpZMeY/iO59b5Q85qncC/6P4p+VWKLOA7wLL1nVmqmNN4DrSHdd/5WtK3zQC0BqecH5+oyhRFG85fPsDTI4Uh9dk5+dXixFEATbAVjDcBGxfcCytYhTwf8BTwFeo1gTS3rRjyaUmAbskrOeWhN8tsoQXCL9b9UwiLJMt8d21H5M/5F6dg68dX84fsssE4JfETeusElYex5bAVdEG5BlZ6gA2zNSmflVleZcM7FHsQhpiArAi/hn0RVvN+fmnAz83Gks1uyE2CvEycAc2xBiy29vkwDi6eI9DLu3A0cAp2DGU4q2N5V64Dvg8lmW02Q3GRjdOwnZ3TO08LDGTSDY/w3fXun/+kKP7Ar5j0GhK1bWBX9D3ZkwzsPer4xv83g872/G3BusrwoZU4z3/bOw8z8CSak3t9s/NPqIxF+s0vVsyF2lzbFviXMfsbmzfAJGsPofvD/f7+UOO7kf4jkG9T6GbYwlWFtb5vXOAn1D/k/m2znbcV2c9RRiKLUObR/EdXH9lNnAncBE2W/5z2K582wDrYCM99Sy3HI6NsG0M7IitNT8B24nwKuBJ4m5mlaLcv6jdzWQQ8E3y7gNxFdqkSQqyHb4/3irsCeBJG/tKHd//LuxHHnrBng+cz8CTLldwtKMGvF5HW4qwHbbkqugOrWeZhuWP+AawL7AWeSdQLwW8A9uI6qfAXZRv9GAh8D3sBq7shmG/01zHZia2i2dV8m9IExqB76Ixj+Z/D+tJG3tHH9/Zhq0Rvsnx3T1LB3az0tdTVRv2BOqpY5kBj1Y+7dhM87J0aq9g6V4/DqybsN0eI7EbzonYq5KyHLu7KH/eEE9q9EbL1cCqeZol0r978f0xN3v6yhmEt/0vPb5rMDZce5/jO+sp/wbe20tbHnJ+b9F7GnQZD1xD8R3XJKwz3ZLmXB69NDZP53dYxsoij+VsLPtoGe1AnmPwKsVvHS6ymF/h+6P+Rf6Qo/GmjT190fcMxy5uTzq/r9FyJ/AB3uqcPCmNa5RjKde78S1P9ZYHsfft6yRuZ25Dgd2xrWpnUtzx/SPlm/D2F9K3+3LCV1yJJHM4vj/sZ2ne91ib4mv7CdhSoRed3+MtjwAfA851fs+xvsPp0o7NHq93kmTM8io2wW7r5K0sh6WAw7CRpCImE95PeW6w2kh7Q/QK8JFsrRFp0Nvw/5Fvlz3qON6Hr90dzs/HLt54ikrvPIr4G6vUUx7Adrsbmb6JpbUuttrEkw47pLyG/f6K5p0821+5iMaX84pk580j/+P8IUfhXQZZtfJX3+EMshI2SSxnO68CdqV5R65SWBr4IvAc+c5Dx6I6i7Qi8ds1hWrkSJEW8XN8f/AvYmtom80ZFN/plqnc5TucDdsYS4STo22d2ChDs296lNowbHlarvNSw5YxFnX9GIzl3IjVlvMo12oakQF5h8JrwF7Zo/bLMfmnmco03+FsyK7YMHCOdl2DzeSX+g0FjiLf/JYr8G3K5RFj/f+zwJ65AxeJYQT+d4BXZo/a73aK73TLVnJchA8nT7a1+4E9MrSnykYB38afY6KecivFPD3vGRhvDRtZOgdbUSTStLxPwx3AGtmj9nmJ4jvcspXU2zx/ivQzz2dgT6/N+FqqrFbBlvCl/vu7l2ImzoVkBH0S2LmAWEWiOxj/j/f0Jb61vEZS/nzqRZS9PQd1AEeR/phfiM3sljT2IH2+i4eBlXM1aJFR1L/RVAdwFuXLZxCFZsa2plHY+z7PEPAsYHXsCazsNkDbb/bms9gukbEdhU02TXV9mbyojn8m+n6PZbCbkuUWldG81XmM5K2dITuxPRlexeZjTMd2ClyQOd6BjMA2Z/oy6UZZngJ2Ap5P9P29GQaciv0G+tq/4G7gGOxmQaRSfov/7n1i7qAD7UHxT9tlLN/zHNQ+fJq0T/7nUfw72CHY1tAHA6dhQ8r3YR26p20LsZub/2BZ/I4DdgHG5WjUALYHniDdeX2YYl4HrIol+Locmyf0H+zmdQ/0gCwVthP+H+10bE1x2R1F8Z3tK9hucqtgOQmeLkFMf/Ic1F6kHPZ/BTgwcrz1GoVt+HQqcANxl5LVW54CLsCW7W2Qtrl9GoU/A2V/5V60rE4kizbgcfw/2lNzBx7gVIrrZCdjw4g9M9ANBg4h/WZC/ZVbGz+UfdqPdNkSbyb/e+K1sWHv67CdMIs6R32Vp7En1X2w4eycDiJdNsFbKW6JoEhLORb/D3YOlmK4zP5A/gv0A1gO9iEDxNaGLU36TwExvljf4RvQ1qRbOvZj8u0xvyrwVfJnK/SWV7FXI3uRbzVE17yaFO25MmM7RFrWGPzvLWvA73MH3qD/ku9i/D8s2VLI+8NtgEvIt+9AJ/4L7RrY5LXYsc3B3rGnNgRL5XoV5dvvIaQ8D3wLm6Cb2ijg4kTtSDE5VUR6+CFxfrC75w68AXeQ9qLbiW3P+65I8a6PTQLLMfQ83BHnMqR5CnwJuxlKaSz2tP98gvjLUDqAS4EdYh2wPrSR7hXblxLHLtLy3gbMxf9jfZryrpW9nDQXqAXYWvRNE8W9MpZvIdUWpi85YhsKXJ8gpgdJm2RqBWwnxNw74hVZbsXmCqT0ceJnfOwA9k0ct0jL+xlxfrBFbTE7kKOJe2Gag21qkisb4ljgROIPtf/OEVOsv5nu5b+L2prC8sD3yZPmtqzlVuC93gPZj/cCb0SO+TVgnYQxi7S8WKMACynnDmwrEefC/yrwHYrb93s4ts4+1nrs0Nz5B0Wqv3u5hiVXSsQwFJvNn2szomYo/8R2Z0xhe+If6/sp7+iiSCX8iDg/1nsZeOZ7Eb5CeJtewDqR0dmj7t0g4EP4ZqtfFlj3OsSZONozlhRL2fYBHosca1XKAmwUK8WIy9uxvA0x442ds0JEulkWS+wT48f6g8yx12MwdhFppB2PAp8g/zrrRuwGXEtj7XqAsBz6w7H0qDEv7BcT/4ZxPI2f61YtU0iTYGkj4OXIsX4mQZwisshxxPmhdmJL4cpmEDapbqDJSncAHwDaiwkzyJbAn7HXMP217TrCU8v+fIDvbrRcSfw1/h/BcusX3bE2W7mE+CmHt8Bem8WKcTbFZUEUqbyh2CzsGD/WaZQ3QdD62CS2R3kr3qnYjP5dCowrhjWxHP8P8NaNzqvYMsU9Hd/7IeJ2ONfhW4LY09JYPoqiO9JmLi8SPi+kL9sRd8XFPZR7RE6kqe1AvHzuN2FD71KMwcSZPDWeuO907yRuutetKcfeClUondhqnpivZXYj7hLBMyLGJiI9xNzw47TMsUt8MVMpP4Otyojlk8RZwaKyeLkBWLGB8zCQj0WMrQNbbSBO2u5QejMW26Rm1QjfVcOWjf0lwndJfntj7+pjeB0bYXogwncNAc7GbgDKoAO7uXkC22TrCSyB06xF/zlnUQHLoDhyURmDdbTrYhsQrQ0slzPwfkzB0iTfHun7vgN8LdJ3PYStNpgX6ftEpJt3Ey83+hvAZlmjlxhGA88S76kt1vvlpWl85UPs8gyWSOkTwIbEncy4LLZd9zewuRJFJi+aje30GEMb9iAQK7aJkeISkV58j3g/1qeJP8tY0vop8c7/1yPF9DYsMUzujnA+cAVwBLBapLbUawg25D0ReKSBmGOVDmzn0BhGEW+i8Tzs5ktEEhhK3HXf11POJEGypO2JNwL0N+K8blyTvJP9OrB34UdRnmF5sCWfZwDPkfdG4ORI8a9HvGRS/44Uk4j0YkPs3WWsi8jZecOXAG1Y3vgY5/spbMjea33y7dw3C9slc7UIcafUji3tvJ58NwGnE+dm7sCIMR0QIR4R6cOniXsRUUavcou15n8h8M4I8ayLrVFP3bm9hL2qWDZCzLltjWVVjDVqM9BNQAy/jBTPk8TNKSEiPZxPvAvIfGDnvOFLnYYSb7Ohb0WIZ3XiTUTsq7yKZcEcESHeoq1L3Il2fZWJEWJdisWTcXnKCRHiEZE+jCDufIDpaJvPMoqVDvo2/EmgViDezUhvpQP4FdWcnLoL8Sbb9VWOixDnlsRJEvQ65ZqnIVI5qxI3I9wjpNv/XRo3ljh59BcAmztjGQHcHCGWvsqdWJraKhuMzd5PtRVyB3Hev58SKZ5TI8QiIv14LwNvONNI+Qe2SY8UL9ayT+/Qfzu2OU2KTms+cDzNtdGT1wRstnyK4zkH2MYZ33DivAp4g7BdLkWkAScQ9yJySt7wpRfLYhdQ77l8CP9mLd+KEEdv5UlsslwrGgSchI3OxD6uU/Cnd96JOHuQnOmMQ0QG0Ebc/PCdpNmTXOr3deKcS+/kzn2JtxlV9/In4ixHbHbvIs2kyhvx5/iIMdF4DhoFEEluBHAH8S4gs4CNsrZAugzHtkP2nsNLnXGsTfz31R3AMc64qmZZLMFR7JuAHzrjmkCcrYO/7YxDROqwEnGTszyGJgUWIUaeh3n4VnUMBm6JEEfPmD7siKnKhgEXEfd4dwL7OOP6vwhxTCfudtMi0odtgTeJdxG5HO1SmVM7cSZgefdoj/3e/3WUa2Igg4BziHvcpwLjHTENJ0665886YhCRBhxG3IuIfrz57I//fM3Ct5Z+G+KuLJkKbOGIp9VMJO7v9zJnPB+LEMMTtNZKD5FCfZ94F5A5aD5ALv/Bf76+66h/KHF395uO/nZCTCTuTcCHHLEMBh6PEEOs7adFZADt2HapsS4gD1CN1Kxltgb+Gfev4cudf7Kz/p43jjs4Yml1PyHeuZiK7+/ioxFiuNhRv4g0aGlsHXisi8iP8obfcmK8d/c8/a8FzI0QQw1b3/4+RyxicwIuI97v9+fOWLyjAPPRkkCRrNYBZhDnAtKJhvFSaQcm4zs/c/ElgLnUWX/3v5MjHXHIW0YANxHnvCwENnXEcnSEGL7iqF9EAuxOvG1JnwPG5A2/JeyM/9z8tuD6u8r3HXHIkpbDfncxzs2/HHGMxL/3yEOO+kUk0HeId4H/aebYW8Hv8J+XTQLrbsM244nxt3Eb/gx0sqSdiLcyYy9HHDFeU3lGIUQkwCDgeuJcQDqo/s5tOY3Gn/f/Rkf9MZYe1rAJiGs64pD+TSTOebqT8NweK+Pfv8AzT0VEAq2AbRQS4yJyN9o1MJaD8J+PwwLrbgPujVB/DTg4MAapTzs2hB/jXL3fEcffnHU/4ahbRBx2Jd58gE9kjr2qvJuuvEr4Es39nHV3lfMC628FbcCWwLHYTpsnYZtthcylWQXLqug9X3cGt8ZWd3jrf7ujfhFx+C5xLvovoR3dvNqBl/Gdh7Md9d/orLvrBsSTebDK9qDvxEpzsAmToxv8zi/28X2NlncHtmkw8IKz7pMD6xYRp2FYYp8YF5FvZY69arbFfw5Ck+1sE6HuGtrdry8nU19ip0nAqg187xDgwTq+d6BypaNtP3TWfaujbhFxipXvfSZ6+vPwzqp+nvAc6xc66+7qvAYH1l9lP6Dx49jIjnm7Nvj9vZVObMvnENs5614ILB9Yt4hEcAb+i0gN/85zrewufMc+dM/35Yiza+S7A+uvskY7/67yvQbruTiwnu7ltLAm0oY/cdVHAusWkQhGEmeTj9nobj7EBPy5/98ZWPdxznprwFWBdVdZaOdfw+YENDIxcB38o3gvEp63wdPWGpo4KlK4nfB3QjVsjbI05kP4jvl0wpdiTnLWXUNP/z15O8QatjqgETFGAfYNaCvALs56nwysV0QiipGFbjqwVO7Am9yZ+I75nwLrXd9Zbw24PbDuqjoV/zGtAV9vsN6tItR5YePNBWzr6FnOulcOrFtEIlkFG8b3Xkg+kzvwJvc/fMf7iMB6T3bWW6PxJ9Uqi/Hk31VC3sn/21nnTMLzSFzurPsDgfWKSETfxH/xui971M1rKP5JeBMC6/YuAX2U8JUHVROz869hyYIatUeEeg8IqBfgs856QyexikhEo4Fp+C8k2+YOvEl5h25D35+u7qy3BpwQWHfVxO78a8AWAXG0Ac846/1VQL0AmznrvSWwXhGJ7ET8F7DfZo+6OX0e33G+ILDezzjr7QRWC6y7SlJ0/vcRvknP9511Px9Ydzu2CVRovbPQaJJIKYzGv9/3G2gyYD1+j+84h8638G7kclNgvVWSovPvBN7riGmLCDGEbtN7tbPe0GREIhLZyfgvJB/OHnXzuQffMd48oM52LG+/p97PBtRbJSk6/xpxltE+7IwhNKXzN5z17h9Yr4hEtgIwF98P+rLsUTefmYQf3/nYJMJGbeKos4btA9/KaZ9Tdf4/Inzov7uTnXFcFFjv+531nhxYr4gk8Ft8P+i5wNjsUTePFfEd30mB9R7lrPe2wHqrIFXnfxZxOn+ArZ2xPB9Y75rOekPzWYhIAm/Hf2E7OHvUzWMHfMc2NHHLb5z1nh5Yb7NL1fn/mHidP9imTN7EPKsE1NuGb0RLOwMuotmQUgZ341/Tv1eMQCpqLefn7w/8XOgkry7/dX6+Gf0A+GKC7/0ptua/FvE7F2LJpTxC/kZq2PbEodZwfLZSdAMgZXG+8/O7E56nvurWcX7+qYDPDAI2dNTZib9zaTankqbzPxebcBez8+9yo/PzoTeJIX+TXcajlUMipTIOm2zmGU5UUqDe/RHfcd06oM71nHXeG1BnvUZh75HLlBc+1bD/2cQd9u/J+3rp94H1fsdZ70aB9VaKRgCkLF4B/uX8Ds+65irzdnSTAz7jXWsdO83zcGxS4l1YIpknsUlor2KjTyHLHGNJNez/c+BzpHny73Kv8/tDX0897agTwuYeiEhCn8Z3V39t/pCbgicX/xuBdXpztp8UWG9vNmDg7YgXAt8l7dNyb1I9+f+cfG2Z4ohzamCd3q2BDwmsV0QSmQB0EP6jnoXNTJbFvUD4MQ1913q6o84a8ZI7rQW82EC9P49Ubz1Sdf6/IO+NzA2OWDuBkQF1buSos0Z4EiIRSehWfD/srfKHXHpzCD+etwfW6Z13sGVgvd21Y5u/NFp3jiWlqTr/X5J/FOPXzphDJql6c1t8K6DOytEcACmbfzo/v0OUKKpjOOF7rwNMD/zcco46AZ5wfh4s5WvIxNAzgaUj1N+XVO/8f8Vbr9Fyetz5+eUDPjMdXzu9f5+VoBsAKZvrnZ9/R5QoqmMZ5+dDbwBCLupd5gCvOz7f5dDAz60AfD1C/b1J1fn/Gpvk2Jnguwcyxfn5kM54AfbKL1TKG7ymoRsAKZtbsNS+oYqczV1G3huA0Ius5wnLc2HvLmT5Ypdj8OdP6ClV5/8b4FMU0/mD/3yF/q146h3m+Gxl6AZAymYudhMQaj18Q95VM9r5+fmBn/Ocg9CVBz2t6PjsUOCMSHFAus7/t8AnKa7zB//5CpkECDDPUaduANANgJST5wZgELBxrEAk+AYgZPfALrFuAN50fn5fYLcIcaTq/M8DPkGxnT/4RwBCO2PPDYDn77MydAMgZXS38/ObRYmiGrydQ+hFtgw3ADGyCZ6Jb2lpqs7/fODjFN/5g/98hf6thN6cgkYAAN0ASDnd5fz8elGiqAZvB9ER+DnPvgwLHJ/t7tII37ExNrkuRKrO/3fAxyhH5w++jhjCb7AWFlBnpegGQMroGcJnn4M/DW2VeDuJ0KczTyc+yvHZ7s4FZkT4nm/S+GTKVJ3/BZSr8wf/xjpFjDJ5b1oqQTcAUkY1LHVrKN0AvMXbURTxfjbWDcBM4OQI37McMLGBfz9V5/974EjCR2VSKWqiqWcYXzcA6AZAyusxx2fXIn82tLIqagTAc4GNdQMAcA62F4LXZ7A9BQaSqvO/EJMwZ4IAAB0USURBVDiC8nX+4D9foTeLugFw0nsQKStPdrER2MX6xUixNDPv09nwwM/NJHwZXswbgIXAccB1zu8Zgk0I3LOffydV5/8H4HDK2fmD/29sZuDnQv82QTcAIqX2PtLkSldprPx1oBPVh5sddS4g/sPJpY54upe9+/j+VLn9/4BvQmUOR+Fr466B9c511PnrwDorRa8ApKy8+cUljtAsbdMcdQ4GVnV8vjdfwjcvocsPsNGAnv9biif/PwEfpbxP/l3WdH4+ZMLvaHyvAF51fLYydAMgZbQn8OeigxAg/AbgZWe9sdPwPoUN4XutB3yu2z+n6vz/THN0/uA/VyF/K97NfHQDIFIyo7HJTkUPe6u8VULnUZzkrPdzS36l2yjgBWdcNazzGEe6Yf+LaK75WZMIb+tcwh5E3+GoswYcHVBn5TTTH5lU28rA31EWv7IZjw21Njp8PtlZb4qlnG8AJ2JZ9DzGArcBa7gjWtJfgEPwJbnJqQ1bdRPqWcJWqqziqBPgFefnK0GvAKQMNsTy/6vzL592wt7HT3bWmyqb4wVY5+2VovO/GDiY5un8Ad5G+GY+AE8Hfm51R50Azzs/Xwm6AZCiLQdcgV1IpJxWC/jMw846tyPN7Pca8FnKlUkP4BKar/MHeKfz86F/J94bsGedn68E3QBIkQZjTz3eWcSSVsjFdhq+PAxLA5s4Pt+fu7CsemVxCfBh4u2BkNOOzs+HJmla3VHnQmCq4/OVoRsAKdLXgHcXHYQMaP3Az3nSOYO/c+nPicTbddDjUpq38wf/Obo/8HOeV0RTaI7VFcnpBkCKsjLwlaKDkLqEPol7t+NNeQMwBfhuwu+vx2XAQTRv5z+e+tIj92UhYSMAI/FNEvWkGa8U3QBIUb6Lb/KQ5LNp4Odudta7I2mvUT8Enkz4/f25nObu/AF2wrfnxr3A7IDPbYhvfsgjjs9Wim4ApAgrYUudpDmsgD3tNeoWbNJdqHFYJ5PKPODLCb+/L38DPkTz56M/0Pn5mwI/550bohuARXQDIEU4FOWgaDZbBXzmFfzDrR9xfn4gl+HfKKgRVwAfpPk7/1HYfh0eoTcAWzrr1Q2ASIEeoPgMdyqNldD35T921jud8C2J67URNhSf+hhekaEtuRyC71gsBJYNrPseZ93jAusVEacJFN+ZqTReru/tZNZhrwh1e5806+G9URmo/APf9rVlcyW+4/G/wHrHYDcPofU+FVhvJWkYVnLbOsJ3zMYmUT0OvBnh+1rBeHyb1myN7YLX6KS167FzNMJR96HY03NKE7FEPN5NZnrzd+x9eYzdCMtgHLCb8zuuDvzctvgmAN7l+KyIOJ2K78nhZjSEF2IItu7dc+x3CKz7Mme98wnLRtioo51x9lauwrdtbRlNxH9cQleWnOKs96uB9YpIBH8g/Mf7BvYKQcL8C9/F8zuB9R7srLcGnBVYdyMG49vZrmep2rA/wFJYlkfPcXnIUf/dzrp3ctQtIk5XE/7j/UsB8VbJN/FdPO8MrHc0MMdZ9xukGZ7vaWdnnFXu/AGOwX9sJgbWvRK2h0NovW9SzXMi0jRuJ/wHfEoB8VbJbvgu3B1YToAQFznrrgHfCKy7UX91xnk11exohmC7PHqOTSewbmD9Rzjr/k9gvSISyW2E/4BzDANX2UhgLr6L6KcC6/befNSwvAJLB9bfiDWwp8WQGK+hmp0/wJH4z+ENjvovcdY90VG3iERwFeE/4DsKiLdqrsN3Eb02sN52LO2utwP5YWD9jfpyQGz/xLfaoczGYLs7es/fRx31h96UdZWUe0uISB0uwPcj3it/yJVyPL7jv4DwVRgnOOuuYSsCNgqsvxFtNPYq4Gqq2/kD/AD/uZtG+DE61Fn3DLTsXaRw38L3Q54FHI5+zKE2w38hPyqw7mWw8+etP1fq3kHA6fSfeKYD+B7V/nvcALvx8p63bzti+Juz7j846q4sz05OIiH2IU5SlxlYTu85Eb6rlbQBuzi/41Zgu8DPnoXNJPf6IHBxhO+pxzrA54D3AKtg6/ofB27EMgg+nimOolwL7Or8jrnA6sBLAZ8dDzyHL43yIegmQKRw4/E/SagUXzbueWLrtAZxnianELZDoTTmk8T5eznHEYP3tdV8wvcdEJHIvJt5qBRffrTEWa3fuZFi+AcaxUxpIyzttvc8zQVWDYyhDRvp89T/98C6RSSB4yi+A1PxFc+ErtWwvPgx4jg+MAbp3wjgfuKco5864tgxQv2HOeoXkcjGE2cYWKXYEpoTAOAnkWKYT5wNpmRxvyDO+ZmNL323NynTm+TJHSEiDfgVxXdgKr7yMOFD8MtjEzljxPEUmg8Q02HE+xvxZG9cG9/WvzXsBkJESmYFYCbFd2IqvrJPzxPbgGMjxnEfMNYRi5idifd65lks+2Son0WIYU9H/SKS0EkU34Gp+MqNS5zV+g0BHogYy7X4loq1uq2Ik6ehq3zQEct4/BMQn8FyOYhICQ3CcqcX3Ymp+MpuPU9sA7bBP8zbvfwRSzssjVkLmEq88+CdeX9mhBhOdsYgIomNx4YKi+7EVMLLzUuc1cb8OHI8Z6ObgEasRpx9GrrKTOBtjngm4N8+eoEzBhHJZGPgeYrvyFTCi+dd62jidkA1LOubXgcMbBPgBeIee8/qEIizQuSPzhhEJKNVgQcpviNTCSuT8L1v3Q57aosZ0z+xmwvp3U7Aq8Q95pc5Y1qHOJMQtTRUpMksC/wO6KT4Dk2l8RK6SVCXbySI6U60RLA3B+DfXrdneQFb3ulxeYQ4bnLGICIFeg/+9J8q+cvL+JKuDMJm8seO6ylshrvY3IivE3fiZQ0bvdnJGdtukWJ5vzMOESnYYODDwH+xLVeL7txU6is/7O1kNmB5bPlW7LjmAV+itfcOWAn4F2nO+xecscVaEnoPrX2OG6IDJc1gFWw70ndhEwY3BEZF+N75wIvYDUZVtWEX/uGZ6uvA3uff4fiOd2A3fqF7DfTnKuAI4JUE311mewLnkeZ1yJ+Ajzi/42vAdyLEcgBwaYTvEZGSOh/fU8I04GDsqaMVtAP7k2+lxb3YCI7HgaQb+XkB2M8ZX7MYA5xFunk1/8N/c7keceYj3IseakUq707CLxILgS3zh1wKa+FfX11vOSFCvF9KHOM1wPoR4iyjNmyk40XSHb/H8U/6awNuiBSPJy21iDSJlwm/SLT65iDnkOcGYC6wWYR4Y2SE66/MB06nWssF3wHcQtrj9iK2WY/XFyLFc32EWESk5NrwbSX8pfwhl8pHyHMDUMMmdXmHh9uItzVtf2UqcCLNvaHQlsBFpJ80Ow2bi+O1GXaj6I2nE7vpEZGKa8d3sfhc/pBLZS/y3QDUgB9FiLkdyw+RI97XsRGBlSPEnctupFk+2Vt5lTid7QjiJf66MEI8ItIkPCMAPy0g3jI5mrw3AJ3EmXDXDvwyY9zzsJuO3fFPaExhPPBZ4G7yHZOXgM0jxX9upJhm0lw3ayLi5Nm1bCqwVP6QS6ENm7Wd8waghj1Vrxsp/h8WEP9L2I3jDhQ7y3xpbGLfNcRP5DNQeZ54EyY/HjEub/4BEWkyt+K7aPyecj7VpfZt8neeXeV+4t14HU9xyaGmYBsNfRrLR5HSSGAX4JvYTPkY78tDyiTi7az3DuKlII6x3LSlac2kNKPfYk9CHk9jO4Y9AbzhDajEhgNrYglSNi04lr8CH8JeC3h9EBuiz5XgqC8vY9shP4r9LT2+6D9faOA7hmHnaF1sZv3a2LnaiuJzVfwTO9YzI3zXisBt2MZfXh3YiMytEb5LRJrIURT3JKviK9/r5XyG2gp4tgRt6q3MwUYLHsfyVlwP/B2brHczcB+2BfJ0ypvq+ofEe8JeCssOGSu20yPFJSJNZm2KvziqhJdPLnlKg40jXX77Vi1v4E/t290g4uzy11UeIU2aaBFpEvdQ/IVSJazMB/Zd8pQGGwRMxHakK7ptzV7uI/7chrMjxrcQ22tCRFrYMRR/sWylMoW4aWXfxCa4xbQ9tvVv0ceqGUsnNuQ/rOGj3r/TIsf5zcjxiUgTGg28RvEXzlYpX8Q67Jjvq2cR/2luDPbEWdb36mUsjwM7hxzsAXwtcpw3oln/IrLIiRR/8WyF0j13QuylhK9hT+6x7QA8FDnWqpUF2BN6ivfpX4kc6wzirB4QkYoYjs2kLvpCWvVycLdjPhj4T+TvnwW8h/iGYns/aKRoyXIN6fIYfCtyrB3A+xLFKiJNbAfyZ0VrpXJlL8d8BeC5yPXMAfbspa4YxgE/w5dCuirlQdJ1pqkyNeq9v4j06QSKv7BWsTwGLNPHMd+a+Jnp5gNH9lFfDGtgSaRacbXAY8Ah2J4KKQzDMmzGjvuKhDGLSEX8nOIvslUqLwHrDXDMU6QW7sSW9KXMUro2NiIwO0H8ZSt3Y69wUk6eW5b4r4W6/hZipSAWkQprw7aeLfqCW4UymYE37xmCJWRJFUOONL/LAydR3myCoWUBlngn9jLL3qwNPJywLadlaIOIVMTRxNtspBXLv6hve9UvZojlDvLM/B4E7AVcQnEb7sQojwP/B0yIe3j69D7g1cRtmguslak9IlIBm2Brhou+IDdTmYltrVrP+9bx5JtZ/zJp1qj3ZSy20dRVwLxIbUhZnsL2V9gywbHoSzs2078zYjv6K5flaZaIVMkBwC0Uf5Euc5mJDbMu18Bx/WXmGBdiHU7uJDCjgPdj80ueCIw9dpmN7dD3RWCDdE3v08rAdQ3EG6vsmqNxIlI9bwe+i+0friWDltL3Ymyb10aTwGxR4DG8Bds2tygrAR/Alrpdj+3kl7K9C7BkRhdhozNbU+z2wPsD0yjm3D+AsgBGl3KmrUgZjQQ2wpYsDTTRbSB/BC51RzSw9bEnYK/vAOfQ2F713bVhs713jBBLqJnAl4FfYR1D0VbBzs/q2DLD1bBXJOOwUZVR2N9czxz7r2Ed/PRu5XngaWwS5pNY5z8vcfz1GAucAXy84Dg+D/y04BhEpAI+gf+pZBo2kzy1GNvdTsWf8vXDEeKIVW5k4GWK4vc+4id9Ci0zyPN7E5GKG4Y9CXsvSj9PHOchEWKsYfsmeIwAnokUS6wyZ1G7Yu9gJzaScSnFn+OeRSMAIhLF8fgvSB3AtoniG0Ocm5TXsWFcj4kR4khVngUOc7ZPzEjgq9j+DEWf197KQmDTZK0XkZYxhjjL2e4mzeSsWNkNv+eM4200R9a8a7EJn9K4QdhNVFmG+/sr1yU6BiLSYk6hHJ1sT+8nzjrrN/EnhvlDhDhylU7gr8DGzja3inbgIJpv6+T9UxwMEWktY4mztKkD2D1STKtGiqmGP5XqDsS5Efkjlp42VwfRAfwJjQj0ZTA2qXMS+c7JFOBA4I0I3/UkmvshIhEcR5wL3OvYEkOPUVi+ghjxvAIs7YilHbg9QhyzsDX0bdhcglwZ5LrKTdhsdi17tr+vY7GlhjnPwb3YxEKw/RdifKd3YquICEOxPOoxLkqPY+vAQwzBtj+NddH9fGAcXT4eKY4TenzvR7AZ/Dk7oBq2ac2XaM2lZFsAZ5MvhXP3chE2ubDLCOLcgMwi374HIlJhHyDeBe9BYMUG6x9G3CHyR/FNTByD5Q7wxtHXUO0mpN1NsL8yF3s9sDd281dV47HNse6kmOM8Dxtt6G3k5YOR6jjfdYRERLCL1P+I2wFvWGfd47AZ7DEvvt5JUqdniGM0NjegiM6pq0zHsgq+l2LT7MayPJbk6lqKTXv9DLDNALHeEKGezjrqEREZ0EbE3Q52NvBJ+t9hb3firPXvXrzpidclzk54/6qzvk8RZ2KYt8zEtgT+JLb0sRm0Y3sEnIztlVCGvS7+Sn2bS8XaV+IWNL9DRCI4kfgXxEewTm5V7IK9EvAh4o44dJVXgBWcxyDGPISF2DB/vdahfDs3PoENMX8SG82pZ6vk1EZiezH8H3Allh636OPUVV4DDm+wPbF2lvxog/WKiCxhMHAbxV9MQ8tBzvbvESmOnwXUPRj4OnFGH1KUN7C/jV9iEyx3w25cUswjWBrYHNvS+iTgz9iNZBme8Hsr/+atWf6NGE+ciYkvYCscpAEaNhFZ0obAXcDwogNpUNcWv6GGAPfh32f+Vew1wrTAz2+EdbLbO+PIpRPrgJ5j8d39pmMd9uuL/r052DEegmXeG4P9jS3XrayAdaTL5Avf5VVsd8bfYh1xiC9huw16nQJ8LcL3iEiL+zLFP1U1UqZikwk9YuVDONYZB9hw+9FY51n0sVXpvfwR/+smsBGURyPE8ya2JbOIiEsb5dwNrbcyH3sv7DEOe5rzxvIQcWfTTwDOI3/yIJW+y33Azv2csxD7RIrtr5HjEpEWNQZLHlP0BXegckyEtp4TKZY9IsTSm62AmyPFqBJWXsImsw4a4FyFujpSnLFvTkSkRa1JnIQ4qcrZEdq4GXEml10ZIZb+tGGTHItKINSq5XUshfOYAc+QzwbYaJY33kmku0kRkRazJeXcH/0K4lzoro8Qyzxs4l8O7dhkxycixK3Sd5kL/II47/nr9aNIsR+dMWYRqbgdKddNwJXEWaUQKwVyjFnc/6+9O4+xq6oDOP7t1FImdWQpEELZBBQFIlDAkCIhuIeERTFEQAEliIgaFIVgkE0EMQiuEXBpAqFWFmVVg4mECG4QAaWKLEJE1ArF4gBtLZ36x69joc70vfvu7y7vzfeTnH+azLm/c+7rPXc553eK2oB4Jf1QD/FaJi9LgQspns46wyZELouybXia/llJIakP7Ec7ZqX/kJy158PAYwnxLKbcroNlDRE3MndTvi1TufwNOI3qX/V3chI57flq3YFLGmy7kTNo9louJ2+W/VlJMZ2QFE+GvYg+WkbzA2q/lHuINyltyXsxnVhpULZdKymWjVKSOtqCnI1MipTlwIcT27A1Ofn376WdE662JD5LND24trn8gfYOkG8mp4231R24pME3RCS8qSNt7QNEWthMVyfFdkByXJm+TvODbJvLSiLrYlv9gJx2HlJ34JKmht2JPOhVXKBHiU1fZibHPI+cxDrXJMeVaVdigGt6kG17+VGvHVyDHcjZnfNh8v8PSdL/HErebnajwNeIXQOzDZEzWe4FYPsK4svyU5ofXPulHNRjH9fhQnLaeFrdgUuaevYlNrIpmjxoFbE98CnAxhXG94GCcU1WPldhjGUdSvODaj+VB6lmR8MMI8TqhLJtfJZmljW2mrsBStUYItLX7kV8JtiBWJe8MfFacymxVvkBYsbzz4mbhiqNEGvmy14InwR2Bp4vHVG+mcAiYMeS9awCjiD6bPc1ZQ9g05L1ljEGPArcR/xm7gcOA45PqPtU4JKEeqpwHLHbYFnzgQ8m1CNJfecicp4Y31d34AWcTk4bL5+k/q2A/YFjgXOBq4A7iafop0seczlxc3U/8GMizfOpwLuIG5BZE8SzacJxVxM3pFtM1qkNGwJ+Q/k2rgL2rjn2VvMNgDQ17ES8bSg7GepXxCTC1aUjyrcl8YZjpGQ9S4m0xk/18LfTgdnAZkSipemsTawzi8h1v5LYe2F0zb8/Qwzio/TmZGLFQ1nfIvIBtNE84kar7Jj1C+BNtPP3K0mVuInyT1BjwBvrDryA+eQ8/Z9Sd+AlZSXOafsTctbS1aPrDlySmvIWci6c8+sOvIC5xABWto1/JC/TYp2yEudkPGVXZQ45yav+ysSfU6acNmbwkpTnFcTT/+Yl63mO+BZd5DX1NsR6/NcTr+efIl59Z5sGXAdsm1DXMcCfEuqp22PEJMXXlaxnWyJD4KLSEf2/GcTE2HcSv4ltibdK4/trdDJK/J4PLBnHq9Yc9/aS9UhSq32cnCfDMyapfzox4/5gYq31fODXwL8nqGMFcC1x8c90dEL7VgO3JsdVtx3JSZzzODF/IctGwDlMvpHWMiKl9PeAM4mNnXZh4jcxw2viK9vGtuexkKRSZhMTzMpeLP9MTKzblbg4f5a4WN9Lb5vuvEjs+JZhFvBEQhtXEEsb+11W4pyzkuLZg97Pz3+ITzLXAecDRwF7EssCM9p4bVIbJal1vkHOhXKUatLqfiqhjeclxfKlhFjaICtxzvPEhlFl7ER89sn+3WSksR4vB5RsoyS1Tj/kwh8jku30ahtioCobx2Kqzb5Yt+PIOT9Xl4hhhFh22vRvrFN5gJhXIEkD4zaav7h2U0aBN/TYxmuTYjihx+O31TRiHkbZfhkjkh4VNQTcnHD8usqJPbRRklrpcJq/qBYpj1M8C91+5LwKvpfBXA21Lzn981tiQC/iiwnHrbMsIebLSFJfm0lsf9r0RbVouZPuN6QZAu5JOu4BXR6zH11FTh8VyZ///qRj1l0uLdBGSWqlM2n+Ytpr+W6XbTwx6XgLuzxev5pDfGIp20+LiaV8nexFLK9r+nfUS1kJ7NZFGyWplbYg54LfZPlohzZuDPwz4TgvANt17NH+l3VDeFGH48whZ/VBk+XGzt0pSe10Ac1fRMuWlUTq4slcknScc7vq0f63IZElsGx/LSeW9U1kmJzd+pouY+QnqZKkWjxE8xfRjLKEyGq3rp2J5DBl63+CqZUL/j3knJeJnpCnAQuS6m9DmSzjpSS11gi5CVKaLotYu43uuFuT6j6qWNcOhNvJ6bu3rVPvGUn1tqUsKNivktS4OTR/8cwuN7N2CdpBSXXeRXt3u6vS7kQK5rL999LEOYeQswNjm8pNPfWuJDVomMF6AzBeLiQ2hXkwoa6273dftcvIOScfIzJNTrThU7+XK3ruXUlq0H00fwHNLmPkvfrvdpnhoNoc+Bfl+3EJ8GhCPW0sx/bcu5LUoA/R/AV0NTFRLyNHf2Z5Ftiy964dGKfQ/LlYtzwEPNeCOP5O7jbIklSbGcAj1HfBHAXuJjLOfQZ4N7GMagYwl3bdBJxWol8HyQxii92mz8d4uZ6YkzEN2B54B/AJ4HLgDnJyPnRbTu69WyWpebsQr2gzL4zPEKl3rwROBw4GdqBzjvjDace8hEeIFMkKb6X5c7KaiVd6TGQTIsvgMcAXgGvW/G3GpMbxcllXPSdJLbc3xZ/yXiQGyluIzVyOB+YRF98yzi8YRxXlkJJtGES30Ow5eQp4dck2DAN7Au8FziNuDH5HJC3qNo5VwMUM5oZQkqaomcTT+rqz55cRkwUXAmcDRxBLxKp6Qh4CbiB38ChSbquoXf3utcAKmjknK4EDK2zbdCJr4cHEp5/vAL/k5RMgnwC+Tfz2JWlgzSYy621F8a1dM4wAv6eZgWbXGtrXry6mmRuATvs9VGkYPwdJUq22p94JXauBr9TRsD42Qsx8r/OczK+lZZKkVtmf+l47LyHefGj9TqC+wf8ufPqWpCnrZOoZbD5SV4P63BCxlLPq8/Ek8QlKkjSFfZNqB5tFrM1Xr87mUe1yzWXAPrW1RpLUWjOAn1HdgPP2+poyMBZSzbkYA46ssR2SpJabTTVZC6+vsxEDZGuqScd7QZ2NkCT1h12IHP1Zg80K4DW1tmCwnEPu4P8TTLAjSZrEYeTtKf/5mmMfNMPA4+SciweBjWqNXpLUd86m/IDzD7rLK6/1O5Ly5+IZfBMjSerCNMpPQjum9qgH1x30fh5WAQfVH7IkqV8N0/t69HtoJsXxoNqT3j/LfLKBeCVJfW47YDHFBpzlwNwmgh1wX6b44H9lI5FKkgbCXF6+a1unclIzYQ68DYgd9Lo9Dzeu+RtJknq2D/Aw6x9wluF3/6rNAr7P+s/DGHAFDv6SpCQbAp8mvu+/NE3tX4BLic8FqseBwA3E7P7x87AEWADs22BcKmla0wFIUgevBDYhnvqfbjiWqW4zYoLgUuJGQJIkSZIkSZIkSZIkSZIkSZIkSZIkSZIkSZIkSZIkSZIkSZIkSZIkSZIkSZIkSZIkSZIkSZIkSZIkSZIkSZIkSZIkSZIkSZIkSZIkSZIkSZIkqVv/BQ1oxsi86x0kAAAAAElFTkSuQmCC;" vertex="1" parent="1">
          <mxGeometry x="660" y="515" width="70" height="70" as="geometry" />
        </mxCell>
        <UserObject label="Originality =&gt; &#xa;Uncommonness or infrequency of the ideas, solutions, or products&#xa;" link="https://www.flaticon.com/search?word=positive%20mood" id="8HKQdC73j9jO4bcsfkeK-7">
          <mxCell style="text;whiteSpace=wrap;fontStyle=1;fontSize=14;align=center;" vertex="1" parent="1">
            <mxGeometry x="569.38" y="588" width="251.25" height="70" as="geometry" />
          </mxCell>
        </UserObject>
        <mxCell id="8HKQdC73j9jO4bcsfkeK-9" value="" style="endArrow=classic;html=1;rounded=0;exitX=0.996;exitY=0.622;exitDx=0;exitDy=0;entryX=0;entryY=0.5;entryDx=0;entryDy=0;exitPerimeter=0;" edge="1" parent="1" source="8HKQdC73j9jO4bcsfkeK-2" target="8HKQdC73j9jO4bcsfkeK-4">
          <mxGeometry width="50" height="50" relative="1" as="geometry">
            <mxPoint x="380" y="460" as="sourcePoint" />
            <mxPoint x="430" y="410" as="targetPoint" />
          </mxGeometry>
        </mxCell>
        <mxCell id="8HKQdC73j9jO4bcsfkeK-10" value="" style="endArrow=classic;html=1;rounded=0;exitX=0.996;exitY=0.622;exitDx=0;exitDy=0;entryX=0;entryY=0.5;entryDx=0;entryDy=0;exitPerimeter=0;" edge="1" parent="1">
          <mxGeometry width="50" height="50" relative="1" as="geometry">
            <mxPoint x="467" y="550.17" as="sourcePoint" />
            <mxPoint x="660" y="550.17" as="targetPoint" />
          </mxGeometry>
        </mxCell>
        <mxCell id="8HKQdC73j9jO4bcsfkeK-11" value="" style="shape=curlyBracket;whiteSpace=wrap;html=1;rounded=1;labelPosition=left;verticalLabelPosition=middle;align=right;verticalAlign=middle;size=0.5;rotation=90;dashed=1;" vertex="1" parent="1">
          <mxGeometry x="403" y="540" width="45" height="300" as="geometry" />
        </mxCell>
        <mxCell id="8HKQdC73j9jO4bcsfkeK-12" value="" style="shape=image;aspect=fixed;image=data:image/png,iVBORw0KGgoAAAANSUhEUgAAAgAAAAIACAYAAAD0eNT6AAAACXBIWXMAAA7DAAAOwwHHb6hkAAAAGXRFWHRTb2Z0d2FyZQB3d3cuaW5rc2NhcGUub3Jnm+48GgAAIABJREFUeJzt3XeYZVWVsPG3uptumm6ajNDknAVF0Q9QDGDGUUbGMYxpFLMoo4ijAjrmjHFQcUaMY8AAoyhmQSSqICAgUWhCkxq6m6ZTfX+sqrEsK9xbdc5d+9zz/p5nPcCE2uGec+86e++zN0iSJEmSJEmSJEmSJEmSpEYayK6AVKFZwCZjxKYjYhNgLrAhcf2vA8wf+v+fB8we+vfh/71y3QMMAquApUP/s2XAyqF/vxtYAdw5Iu4YESP/56t6VmupAfyCU5PMBrYGdgQWAlsO/ftwbA/MyKqcinc3cC1wC7Bo6N+H4yrgvryqSb1nAqASbQzsC+wDPBjYnfhxX4jXrOpzK3AdkQxcCvxh6J+3ZVZKqotfpso0C9gW2AvYfyj2BHbAa1PluBu4HLgIuGzo3y8GlmdWSpouv2TVS5sDBwIHD/1zf/465y41yWpihOCcEXFzao2kLpkAqE47Ej/2Bw39cw+85tS/bgHOJpKBi4DzcOGhCuaXsaq0PfBk4InED/4mqbWRct1LJAM/An5IrC2QimECoOmYBTwSeBpwKDGkL2ls1wFnAT8hkoJ7c6ujtjMBULd2AA4jfvCfCCzIrY7USKuJKYLTiYTgotzqqI1MANSJ7YBnAEcS8/mSqnUdkQycismAesQEQOPZBjiC+NE/EK8VqVcuB74JfB34U3Jd1Mf8UtdIWwHPwh99qRTDycBXcRGhKuYXvOYQT/ovAw7BrXSlUp0LfB74H+I8BGlaTADaazfgxcBLgM2S6yKpc/cBXwO+ROw7IE2JCUC7rAscDhwFPB4/f6npLicWDn4OuCu5LmoYfwDaYS/glcDziGNuJfWXZcA3gM8AFyTXRQ1hAtDfDgbeDDwVP2upLc4BTgJOA9Yk10UF80eh/8wEngK8FXhEcl0k5bkG+AQxPeDJhfo7JgD9Y31iQd8xxBG7kgSwGPgCMSpwS3JdVBATgOZbSPzovwy35ZU0vuXAF4EPEjsPquVMAJprU+CNwOuAucl1kdQcq4hdBk8Ers2tijKZADTPxsSP/hvwiV/S1K0E/ht4B7AotyrKYALQHPOBVwPH4at8kqoznAicANyaWxX1kglA+eYBryFe59souS6S+tcy4BTg3cDtyXVRD8zMroDGNRN4KfA94B9wnl9SvWYTrw6/jFgncBHuI9DXHAEo0yHAx4D9sisiqbWuJvYT+WZ2RVQPE4CybEMMvz0fPxtJZfgpsej40uyKqFpOAZRhPSLT/h9gf/zxl1SOHYlpga2B83BXwb5hApBrAHgBMc9/ODArtzqSNKYZxMPJS4ClwMXAYGqNNG0+aebZCTiZOJZXkprkD8Qi5QuzK6KpMwHovVnEDn4nAOsm16VfLQFuBu4cEYuBO0b9zx4YiuEhzaXE6meAu3tYX41vA+LpcyZ/3fhqLnHvrEPsiLnJiNh0RGwCbElsnqXqrQI+BLwTWJFcF02BCUBv7Q98Hlf3T9dyYi/z64DrR/xzOO7KqZYKtQDYAdh+KHYY8d87EAdpaequAo4CfpldEXXHBKA35hIb+fw78dSizt1CvI98GXD50L9fAazNrJT6ykJgT2AvIknfE9iHeC9enRkEvgy8HhPwxjABqN/jibn+nbIr0gBXAr8BfgtcAvyRGJaXem0ukQjsCxwAHDT03zMyK9UAi4idS7+TXREp01zgU8ST6qDxd7ECOBv4ALHT4WZT62apZzYEngK8C/gFsXVu9n1UanyVWL8htc5+xJB19k1YUqwGzgWOJ56m5ky5d6UyrENsnXsckRCsIv8+KymuBx41xb6VGmcAOJp4us2++UqIxcA3iAVCW06jX6UmmEfs53EycCP5918JsQY4CddTqM9tBZxF/g2XHRcBbwcehvOlarcHE4t/z8GpwPOAnafXnVKZnkm8Y559k2XFZcCJwG7T7EepX21NjA6eTXuTgeVDfSD1hbnA58i/sbJ+9E8A9ph2L0rtsgOxbmB4O922xTeJBZVSY+0A/I78m6mXsRj4MPGOtKTp24V4q+Bm8u/vXsbV+D2ihnoSsZVs9k3Uq7iQWMg3t4rOk/R3ZgCHEotm2/I2wf3AiyroO6knBohFPavJv3nqjluJ1bt7VdJzkjq1kPieuZb874FexMm4Q6oKtwFxbG/2zVJ3/AZ4Ft6QUrYZxMZDbXi76JfAg6rpNqlauxP70GffJHXFGuB0YghSUnkeTDwp30/+90VdcTNwYFUdJlXhSGI/+uybo45YRmxX7Pu5UjNsTWyffQ/53x91xAPAyyvrLWka3kx/vrO7GHgbcV66pOZZABwD3ET+90kd8UHcSExJZhJPxtk3QdVxL/A+PKRD6heziTd0FpH//VJ1nAasV11XSZObD5xB/sVfZdxH/PBvVGE/SSrHesQue7eS/31TZfwW2LzCfpLGtZDYyz77oq8qlhGv8rm6VmqH+cTU5V3kf/9UFdcSC7Gl2uxL/8ynrQI+gT/8UlttBLyH/nlr4E48Wlg1eRIxP559kVcRZwJ7Vts9khpqB2Lv/ezvpSpiBfCcartHbfdPwEryL+7pxlXEK4uSNNojiPn07O+p6cZaPFFQFXkezd93+z7iKN451XaNpD4zA3gB/bFQ8O0V941a5lU0+x3/tcRRxJtV3TGS+toGwEdo/pkmJ1bcL2qJN9HsH/9rgMdX3iuS2mRf4ALyv8+mE58kDmmTOvJm8i/aqcYq4rW+eZX3iqQ2mkXMqTd5u/OTcddATWIA+BD5F+tU4/fAwyrvFUmCnYCfkP89N9X4KpHMSH9ngBgqyr5IpxLLiSkLL25JdRogthVu6kFD38Dvya60Ze7kfcTQf9P8EXgucGl2RVS02cThMAuIBV7zhmIGsRvkUuJLfSmx38WKnGqqIbYBTgUek1yPqfgy8EJijZfEieRnpt3GWmKu31f7NNI6xHnpLyOms84Arqa7V1nXEFurngl8DHglcAgwt4ftUPkGiLUBD5D/fdhtfIH2PNxqAq8n/2LsNm4hdiaUZgL7E1/E36DeodlVwIXEaNmhmHwqPAy4kvzvxW7jpDo6Q83xrzTvVb9vA5vU0RlqlL2IH+LbyLsW7yGGgQ/Fp6m2m0v8oGZ/P3Yb76ijM1S+FxFDndkXYKexFHhJHR2hxtiCWKdyGfnX4+i4hphK266uxqsRjqB5pwweW0tPqFhH0Kztfa8GHlxLT6gJtiWerpaTfy1OFmuIqYg9aukJNcG2NG/zoGNq6QkV50k062CfM4ANa+kJlW4X4BSadb0Oxxrgf4id5NQ+6xGr7bOvw05jLXHui/rY3jTn/dW1xByvu1e1z3rEcHoTV1ePdR2fiudRtNVRNOc6Xonbp/ethcCN5F9kncQS4Bn1dIMKdzhwA/nXYNVxF/Gmgglt+xwELCL/Guwk7iEeFNVH1ie2yc2+uDqJS4gtN9Uu2wI/Jv/6qzvOxfUBbbQlcA75118ncS2weT3doF6bCXyf/IuqkziL2KVN7XI4cCf511+vYjmxUZHaZQ7NWRdwAR6o1hc+Rf7F1EmcQuzipvaYRcz1N+l11CrjVPySbZsBmrPz6unEA6Qa6jjyL6LJYi1xQ6hdFgK/Jf/6y47LiLcd1C4voRlvt3y4rg5QvY6k/Cer+4Fn19UBKtaOxN4O2ddfKXEH8Mhp9aia6InEwVPZ199k8aq6OkD12J3yL6w7gUfX1QEq1v7kbt9baizF8y3aaG/Kf+tlFX5XN8YGwFXkXzQTxU1EkqJ2OZTyE9PMeABHxNpoG8o/TGgR8SaDCjZAHJaTfbFMFNcDO9fUfpXrkcAy8q+/0mM18Kwp9rGa60HAH8i//iaK3wCz6+oATd/x5F8kE8WfiGxX7bI3zTsgJTMeIEZL1C4bEftEZF9/E8Unamu9puUw4ukh+wIZLy4jVn6rXbahOTtQlhRLgIdMob/VbPOBn5J//U0UL6qr8Zqa7YDF5F8Y48WFwKa1tV6l2pjy16OUHIuIHRLVLusBPyL/+hsv7icW86oAc4HfkX9RjBdnAwtqa71KNQB8l/zrr+lxHs67ttEcyt7B9RpiykLJPkf+xTBenI8//m31RvKvv36JD3TZ9+oPcyh7JOC79TVdnXgG+RfBeHEJsEl9TVfBDqA5R6A2IdYC/9DVJ6B+MRf4BfnX4Hjx8tpargktJHYQy74Axoqr8J3RttqAeNUz+xrst7gDF9G21QJiNDX7GhwrluGeLj03gzg5L/vDHytuIBYlqp1OIv8a7Nf4ehefg/rLhsDF5F+DY8XFuE6lp0qdX72J2Odd7bQPsW1o9nXYz/Hkjj8N9ZvNgMvJvwbHivfX2G6NsB+wgvwPfHTcgUNBbTaD2Cks+zrs97gaWLfDz0T9ZxvKPDtgDfC4Gtst4sa/hPwPe3Q8ADy2xnarfC8l/zpsS7ytw89E/WlP4G7yr8PRcRMu/K7Vp8j/kEfHWjzApO3mEDd/9rXYlliKG2u13WHASvKvxdHxrTob3WaPIX5ssz/g0XFcjW1WM7yC/OuwbXFiJx+M+tpLyL8Ox4rn1NnoXhvIrgDxLugllHeK3inE0K/aaxbx2ucO2RXp0CrgWuB2YDmRVM8jnqh3IkYzmuBuYHvieGW117uAt2ZXYpQ7iGmKxdkV6RcfJD+rGx1nEl/+arcXkH8tThQriB3LXg3sxcTX7ExgVyKp/TrlH1/s6JsGgFPJvxZHxxfrbHSb7E95r1Zdglv8KvyR/OtxrLgeeB1xINFUrQ/8K3BFAe0ZK27F968Vo1a/Iv96HB1PrLPRbTALuIj8D3Jk3EUMlUoHkH89jo7FwFHAOhW2cwYxr/mXAto3OtwiWACbU971eT1xvLGm6C3kf4gjYw3w1FpbrCb5JPnX5Mj4CvW+hjS/wDZ/u8b2qlkeQXl7xHyk1hb3sV2IRUrZH+DIOL7WFqtJZlPOWRQr6O1i1H8kFt9lt3u47dOZ5lB/eSX51+TIWAP8v1pb3IcGgJ+Q/+GNjNOJoVAJ4JnkX5ODwH3AE2pu61j2B26bQn3riFfU3FY1yynkX5Mj4xJcq9KV0lZWX00cRiEN+wr51+Uy4MC6GzqBPShjFOSndTdUjTKX8g4OemOtLe4j84Gbyf/AhmM58JBaW6ymGQBuIfe6XA08pe6GduAR5E/V3U986UvDtiMWxGb/fgzHvXhEfEfeTf6HNTJeUm9z1UB7kX9dvr32VnbuKPL7w4NYNNrhlLV77OfqbW7z7UBk89kf1HCcVm9z1VCvIfe6/DXlrUf5Nrl98q76m6gG+jT5vyPDsQZ4WL3NbbZvkf8hDYcnO2k8p5F3Xa4C9q2/iV3bElhCXr+cU38T1UClnSB7NmVsr1+cgylnuGYN8Ph6m6sGW0TetfnpHrRvqo4nr19WUu3mR+ofe1PWyPKR9Ta3eWYAF5L/wQzH++ttrhpsA3J/5LavvYVTtwG557TvVn8T1VBvJP93ZThuBNart7nNUsIiouG4GN/Z1Pgyt//9Zg/aN10fJ69/nt6D9qmZZgBnkf/7MhylnWCYZj7lbCiyDNi93uaq4f6FvOvzaT1o33Q9nLz+eVMP2qfmWkgZ+1YMEht4bVFvc6tR95G3RxMHOZTgROBP2ZWo2SbEUOkuQ/8+byg2IpKxNUQitIR4d3UZ8T7tVcCVxIXbZlnDzEuBHyWV3Y0LiCHObRPKdgoghpZ3Jfpic+Ke3oA42XEecXLevcT9vYy4ru4CriVOfby991XumUXAvwH/nVwPiM/lzcAbsiuSaQPgTvKzsUHg9/TfIqKtiCfWzxKrT6vYGOMmYue1k4jtcNu2D3vWDoA/7EXjKvIFcvroZ71oXEHWJ0aFPgT8mDh9broLqe8Gfgv8F3EU9A69akwP/Yj835tBYmHi1jW3tWjvIP9DGCRerXpozW3thXWBI4DPECMZvei7NcSRzR8EDgVm1t7KXKeTc42WtPHPZF5GTh9d1IvGJRog3pZ6D3Au8b3Vi369lthf/zn0x/G22xEjmRnX6Ogo+a2eWm1I7orhkfHemttat/2JJ/IStr68eagu/bp98i/J6dcmvTr0KHL66MpeNC7BtsRw8dXk39/3A98gdtmre3q4Tv9Gfl8OEm/29OMoy6TeS37nDxJz203cR3wBcBzwZ/L7cLy4iDimtp/eqriInL5s0g5iW5HTR7f0onE9MpN44j6bcvZHGR1/Ad4JbFpTH9RpBvAb8vtwEPh8zW0tzqaUcZ74Wpq34c8mxGLFUtZOdBK3Ek8w/fDu61Xk9OEuvWhcReaT00dLe9G4mq1DnIZ6Bfn3bTf9fhLNm8/eh3gCz+6/1bRsAetHyO/0QZp1OMNGxDx7KXNXU4lbiQ055lTcN72UdVLlwl40riID5Dy1rqW526zOBF4B3ED+fTrVWEGsP2rSqXfvIb/fBoEv1d3QUmxJvH6S3eFLgAfV3NYqDBBPBLeS32dVxdXAk6rspB66lpw+a9I84brk9NGKXjSuBvsD55F/X1YVS4kRvyYsCF6PMpKuNcSIRN/7MPmdPUgz3r/cjbJ2r6o6TifnffHp+D05ffXgXjSuIpuR00eLe9G4Cm1EDJ2vJv9erCN+DxxYWW/VJ3Nzr5Fxat0NzbYAuIf8jr6asoehZxAHq5QwP1V33EvcgE1xNjn99JReNK4iDyWnj67pReMqcjhlvLVTd6wBPkrZC4EHyLuvR8ZKmvdA1JU3kd/Jg8BT627oNGwGnEl+H/U6TiV2KivdD8npnyaMWA17Djl99PteNG6aZhGLeNeQf8/1Mi4Edpp+99Vmf8r4TD5Qd0OzrEMZcy1n1d3QaXgMuUfNZscVlD8P9g1y+ubLvWhcRT5ETh/9uheNm4ZtgHPIv8+yYgnw7Gn3Yn1OpYw+2qDuhmZ4Pvmdu4o4G7pEb6CMDDQ7lhLDo6X6KDn9sqgXjavI78jpo6/1onFT9Chiz/3s+6uEeDdlvq2xBfEDnN0//1Z3QzNcTH7HfqL2VnZvgBgSzO6bkmI1sZ1siV5BXr80YbvqrclLZN/Rg/ZNxeHAcvLvq5Lii5R59srbyO+bGymzb6bsUPI7dSnlvfY3kzioJ7tvSoy1RGJUmseS1ycf7UH7puvN5PXPc3rQvm69gN7t2d+0+D7lbQ42jzJeuX5e3Q3tpayFUyPjfbW3sjuzge+R3y+lx4em2sE1WUheX9xB2QslZ5K7X/3+9TexK2+k3G18S4lfE6caluQY8vvlD5Q5TdK1vci/CZYQW+iWYoA4kzr7ImtKlHYSXuY84TE9aN9UPY+8fllLWSfVZZ2I2MT4GWW9lj2XvB0/R0bTtqkf0yfJ78jS5gZL2Qq5SfHaKfV0PX5BXj/cRmwgU5p1yX36L+kkwKfjsH+38XVi/5NSvIb8PvlW7a2s2VzyV77eTVlfmG8l/8JqYqwGnjWF/q7DCeT2RYlniB9Pbp98pv4mduQQ4sjc7PuliVHSdT2bvG2/h2MVzTpX4e+8kPyL6q21t7Jz/0z+dEiT437KOBb30eT2w1riKbMUDwceILdPjqy9lZPbmTJ2Om1yvL7rXq9PCdM4x9beyhplb6+4mHIWmOxMGe+YNj3+TP5GGbPJP9BqMbBd3Q3twCbkPymtJXbQzDQHuIj8+6PpsRL4f132fV3WIb5vMvvjzzR0MeDu5D/tvq32VnZmDmXsg9Av8c3uur8WPyK/H64GNq+7oROYSxk725WwBfCnyO+HfokbgI276/7avJz8/nhM3Y2sQ9aOacOxDNi09lZ25jPkX0T9Fq/q6hOo3qvJ74NBIrHM2N9iAfDTKdS3jviPmts6mWeR3wf9FqdTxpPvHOAWcvviK7W3smKzgdvJ7bRP1t7KzhxO/s3Uj7GCGGXKsin5897DcTVxdHSvbENZI1q71tvcCW2J8/51xUu7+BzqlL3AdQXlPMx2JOs0sOFYQ8y5Z5tL/vxoP8cvyH1K+M4YdcqK++jNscpPJTYkym7vcJxbb3Mn9VXy+6Bf407y13ZATEcsJbcvjq69lRX6Gbmd9e36m9iRd5N/E/V7ZG7/+swJ6pUV/0s9x64uJA7byW7f6MicCjqE/HVO/R6f7/jTqNenye2HP9bfxGpkHgYyHCWsIt2FGLrJvoH6PW4h762A2ZT1NDwcDxBfnLtU0MatifU82W89jBUryNvhczZweQd1NKYXa4EDO/xM6rQjsRdJZl88pPZWViB7H+Xz6m9iR0pYJd6W+HCHn0kd3jlBvbJjLfArYiXzDl20aSHwIuBM8r/0JorPddGmqh07Qb2MauN3lLFL4LfJ7YeU82y6nWM9F3hkHRXp0D+R/5rYI8mfm2yTFUSGfktC2ZsA11PWPvTjuQG4FLiKWKR7L5EkbEjMc+5KnN1RxchB3VYTi0CvSSh7HnAdZcxPt8URxJqbTAcThxdluY6Y3htMrMOEtiV3TuxWyjhH+X/Jz5rbFpmnPX5ognoZ9cSpHX0y9cge5WxjXEwZrwX+kdx+OKD+Jv6tbjr9WOD9dVWkA+8D3pJYPsQ8zUWUcbFOZDUxtHYZsdvUYmKl60ziCWcL4olw76EovT33AdsTZ0/02hbE2x5zE8puo7XAvuQsjJpDfNYLE8ru1p+AS4gRn0XEOo6VxB4OGxNPk3sSxyiXdBrfeJ5CHC2f6fXEmpgsHyaOmS5S5laYaylj6PKb5GfL48Vy4MvA0+huyHozYrX9/1L2KWeZpz56wmPvInNjlFdMUK/sWEO8gfViujtEZi5wGLFwtOTtys/uok112YTcw55upNCHsR3JvTh+Un8TJ7UN+W9AjBWLiW2RN6ygjVsDH6PMVeG3kzcFtIAyzhDv97gX2KrDz6QOJa78H37ro4q9T+YRT7k3FdCusaKEw8Cy934o4a2Iv/Pv5HbKs+tv4qTeQv4NMjLWACdTz2tyC4l52Ow2jo7MU/KeO0G9jGoi87S4AyaoV1b8DNijhrbOBU6kvKONT6qhrd16LPbB3/kDeR1yB2XMYZX0dHA9vXkb4wjg7h63baLIfgOklP3x+zEuJXeR7yfGqVdGLKc3W+XuSawTym7vcGSO8g0bINZVZPXBLcRarWJkD/9nvgc+7OHk3xzD8RNgo3qb+zd2BK6ooR1TiRX0tu2j7UF5T039EKvJHfqcTUylZffDIPAX4MH1NvdvrAd8q4Z2TDUyR/mGvZncPihqGiD7ZLR96m/ipEp5OvgWOaMhmxCbMGW3f5DY+CbTq8jvg36LE7v5AGrwDPL7YJBY2b9tzW0dy0zKOdU0e5QPYpFl5nqvd9bfxM6dQV5HXNGD9nXiOvJvjLOIJ5UsGxBns2f3w/frbmgHvkJ+P/RL/IL8Ic/Pk98PfwG2q7uhExgAThmjXr2Oe8mfBgD4OXl9cH4P2teROcQ72FkdcXz9TZzUDuTfFL8nVvBm2xq4jdy+WALMqruhk5hPPK1lXxdNj9so4537a8jth/uI+fhs65B/2NsgZZz3kvlK6Bpg8/qbOLknkHsh1LECtlv/Sv6Xw+61t7JzjyN/D/lH1N7KyT2UWKyV2Q9NjlXA47vu9eptS35fvKD2VnbuQcTGQpn98dbaWzm5TcndF+X59TdxcpkboPy+B+3rxJfJvRleXX8Tu5Z9fGb2jpDDnkbZmyeVGmuJxLoELyG3L0o53nykZ5HbJyXs+wIx7ZrVB5kbYv2fzNXf/96D9nUicwOYi8ifHx3LRuROBZxVfxM79nw8N77bOG5KPV2PzP0ulpKz6K8TPySvX+4H1q2/iZN6KXl9sJjk7/7tyWv8IGVs/bs5uX3w5PqbOGVvIvfmKEn2a0NNik9NsY/rcil5ffGhHrRvqvYjN7Hdt/4mTmojYifGrD5Inep85TiV6kVc2IP2deJR5PXB7yh0X+gh84E7yeufTepvYlfeTV5fNCVOoYyz34fNIG9fhxWUsQByIj8g71opYfdXyO2DE+pu3EQ34xPrLnwC30sse6TdEss+mbgISrWU2Dc7y66JZY/lrcDriKcm/b2PE0OqJfXPduQNNZ9OLLYr2WcTyy7l/v5OYtlPyip4gNynuxIOhQD4IDntf4A40rN0jyDvGnlxD9o3Fc8ljmXN6pfSYi3lHnH6JPL6pYQd7yYzm9iKPaN/ilgER7z6nHWNrKK7k127Nt4IwB7k/QAtBi5OKnu0rNfvzgXuSiq7G+eTNx+fOTozka8ChxMbmrTdCiIhKnWuO+v+XkmcK1G6leStyC/l/r6JOC8hwyxqfhgeLwE4qM5CJ3Em5QwTdnPudpV+nlRutwaJndwylDx/+iNiP/fzsiuS6CpiQ5evZ1dkAln393nEkdtN8LOkcku6v3+YWPbBdf7xEhOAzM4ebf2kcn+XVO5UZNU167Pp1A3AIcTcd9ucRkwPlbKXx3i8vyfn/Z37m1Trb3FpCcAa4MdJZY8l6yK8Mqncqciqa0lfEON5ADgaOJJmTOlM11LisKZ/BO5JrksnvL8nl1XXeZTzxsjZxI6sGQ6kxv0AxurgzYGd6ypwEhcQiw9LUesCjAncnFTuVNyUVG4TEoBh3yL2tfg45UxvVe0MYG9yV453y/t7cveSs55lgLzPZ7SV5E2FLAD2quuPj5UA1DrnMImShv9nkHMAz1pij/mmyMqMm5QAQIwAHE0MjV+QXJcqXQM8lVj4eENyXbq1IKncrHtmqpYmlVvSPX5mYtm1jciPlQAcWFdhHShpZewscoagVtOsp8QHksqdk1TudF1I3GOvonk/mCPdBhxLPPX/ILkuU5V17OzKpHKnakVSuSXd45nnE/Q0AcgaAXiA2Pu+FCuJ9zB7bTZlnIfdqaxhuqynkiqsBj5DTAu8kDhauCluI/by35HYJyPrx6EKWSNtJRzt3Y2sJ/GSRkr+DNyaVHbPEoB1iD2gM1xEeV8mWRfgBknlTsWGSeWW9OUwVauIw2j2Jt6X/xXxamWJLgBeRhxe836aNU01nqy9GrLumakYIG+qpLQk/zdJ5W5PHNNcudEJwB4cQbyGAAAdWklEQVTkDbucnVTuRLIuwJ2Syp2KrAWj/ZAADFsDfI14bXBb4gn7qtQahZuJhYv7AQcAn6d5w9cT8f6e3Dbk/CasJs5pKMk5iWU/uI4/OjoBqKWQDmV27niynhCydiibiqwdu/opARjpJuIJezdiweAJxGZLvVhrsZp4ynkXf01Gjgb+0IOyM2RdQ97fkyvx/u67BGDWqP/ep45COjBIbH9bmiVJ5R4EfDGp7G5lrRnJ+mx66fyheCcwl7guDiFeC9qdeJKcPcW/vRq4jnjP+zJi+uFXlDfsWqfM+7spsu7vEveRuJiY+lovoexafptHJwBZIwBXUd4Z7wDXknOzPi6hzKlYH3h4UtnXJJWb5X5iJfLI1cizgB2Ik9M2IxZkzifmmNcnRviWECNZS4fiDuJ+u5b+Gs6fiqxraEdiXvf6pPK78fikcq9NKnciq4i1MIcklN2TEYCsBKDE+X/Im4fdCXgI5W8Z+gzy3lho0m5qdVkNXD0U6l7mOotnUe4hScO2Ah6ZVHapb8acQ04CsCfxXVvpm2kj1wBsQt4BDOcnlTuZzIvwhYlld+pfEss2AdB0eX9P7PnUuA3tJEpYBDuW3yaVO4d4bbg2jyPv3ONH1NmwadiHvD5ZAmxUfxOnbE9i9XpG36ymrE1C1Fy3k3ePH9qD9k3VOsQURVbfPKH2Fk7NduT1yT9X3ZiRIwBZw/9ryTtveTJXEz9yGRYAr00quxPHk3dYx7Xk7UCo/nJFYtlvSyx7Mi8mfuyylDrCdyN5CxRrXaR/CjlZTalDPcMuIC/jW0buTTieg4nELatf/qv+Jqol3kfedTxInJxYmgXAIvL6pPTDkn5NTr+cXnVDRj7BZb3veUlSuZ3KOgUK4nWTjyWWP5Y5xDa2A4l1+Hli2eovmfc3wEcpb+fP9wNbJpZf0pkwY8n6zar1N/pmcrKaE+psVAWeRO4TwiBxcEwpPkl+f2xdeyvVFusRW5BnXs/fJzehHulwckf3BoEX1d3IaXoFOf3yADVNu84hb0HXM+toUIXmER2feUPcDzyq7oZ24EXk9sMg5c4NqrmGz2DIjONqb+Xk9ibmt7P7Ytu6GzpNB5LXN7U8/Oya2KAm7ItdwhfE3eRu1fxUYuOY7H74dN0NVeucQP51vZZYeJdlO2Ib6ux+KH1NGMQmW1mjJLU8CD4hqTFLyVtJ3o3Xkn9jDAJ3kbMz4TOJUYjs9g8Cj6m3qWqhPci/rgeJH5Vjam7rWPYAbphCfeuI/6i5rVW5jpz+eUEdjXl5UmMuraMxNdiU/GmA4VhGbNDRCzOAt5M3PTQ6rqcZCaOa53zyr+/h+ChTP+OhW08jHiyy2zwcWYvRu/VTcvrn+CobMfxlun2Vf7QL1yeV2607gB9kV2LIesCXiFfhNq6xnO2BHxEH0ZTyo/sV4ilJqtqXsiswwuuJV832rLGMecBHiAWIpWw4dj7NWeNzXVK5O9TxR79OTjbz8ToaU5MjyM+OR8ftwMuodj/+9YkNSpYV0L7R0aRjVNUsm1LGGpeRsRL4ALFNe1VmEDvKlTLkPzJeXWE76/Y2cvro53U05rdJjcmY75qqOcBt5N8kY8X1xLntm02jfdsD7wDuLKA9Y0XmWdxqh2+Tf52PFfcRBwdNJwHegHhYuKKA9owVy6k20anb88jpp+vraEzWD9sRdTSmRseRf6NMFCuJqYpjgP2Z+NzqDYkd/d5OnMaY/e7vZPH0CdoiVeEA8q/zyeICYqHc45j4B3MOsC/wGuA7lLOId7xo0mgwxGLsjH5aTYUjvgNDf+wBcjaieCjlH3k70gIiAytlzmwyg8SWnrcTTxEziSH+Bw1FU1wC7Ee0R6rTj4HDsivRhTuAW4g3qlYC84HNiZNds07y69ZKYGfgL9kV6cJC8rYs3oZ4ZbMSDyIv62vKD+lI7yQ/W25b/FNHn4w0fYeQf723LU7u6JMpywB5oyr7VtmQvZIakXWi0nRtDNxL/k3TlriCct5CUDuUsPFXW2I1NZ9zX6M/kdNnj6+qATOo91WyiSxKKne67iJW5qo33oKv/qm3htf6qH7/SRy73kRZUwCVLZacwfRWjk/H4qRyq/ABIvtTvc4EvptdCbXOb/DI6V64jXidrqnuSCp306r+0AzyXr3I6rwqrCS2B1Z97qdZ7wWrvxxLs7+jmuCNNHcqGPKuj0pHALISgDuTyq3KT4BvZFeij70XuDa7EmqtO2n202npfk3s7NlkWb9hfZEA9EN2/Qb6ox2luRTXWSjf54BfZleiDy0DjqL56yyyEoBKpwAq+2NdavoIAMRCxhfgIrUqLQOeTexNIWVaS1yLt2ZXpM+8mv5YQ+UUwDT0QwIA8EPgg9mV6COvIl79k0pwG7Ht65rsivSJrwFfzK5ERfpiBGBBVX+sS/2SAEDMFZ6dXYk+cApwanYlpFF+hlNSVbiKOHq+X2SNAFT2mz2D3p07PdpdSeXWYTXwHCrcnrGFLgBel10JaRzHE9sEa2ruBp5BbEneL7J+wyr7zZ5BHBqRYXlSuXW5CXgi/ZXY9MqfgcPpv2tC/WM18ExijwB1537iMK9+m9q7P6ncyn6zMxOAlUnl1uly4CnEQjZ1ZhFx+Mpt2RWRJrEc+Af6YwFbr6wBnk9/TpFmLVSudAQgawqgX1d5n0esHF6dXZEGuBd4KjWdcS3V4A4iYW3SyXVZBok5/9OyK1KTrIfYSh/aryfnQINtq2xEgZ5OPDFkH7ZRatwJ/L8p966Ua0diD/vs+6jUWE1/Lfgbyzrk9G2licctSY3YospGFOrRxFaX2TdjaXEdsNs0+lUqwRbA78i/n0qLFcCR0+jXJllDTh8PVNWAO5MasFFVDSjcXsRwYfZNWUpcCmw1rR6VyrEhsVtg9n1VStxNPPi0xf3k9HNl0wBLkxowr6oGNMAOwMXk35zZcTqwwTT7UirNXODL5N9f2XEVsPc0+7JplpDT15XtBbAyqQHrVNWAhpgDnET+TZoRq4ATiUWnUr96AXkPVNnxbWI0pG1uJ6e/N6uqAWuTGlDZHEbDPJPYKyD7hu1V3AgcVEnPSeXbg5jmyr7vehX3A0dX0nPNdDM5/b5lVQ1YldSAto0AjLQT8FPyb946Yy3wJWDjivpMaop5wCeJlfDZ92GdcT7w4Ir6rKluI6fvKzvDJ+tVtblVNaDBDieekLNv5KrjSuJdaanNHgKcS/79WHXcTTz1z6yuqxoraxH9/Koa0PhFDA03D3gfeSMxVcYyYq4/a3dJqTQDxNqAxeTfn9ONtcRhXZtX2kPNlvX7WdkIelYGk3UMcal2IBYJriD/Ru827huq+8LKe0XqD+sTT81Z+65MJ9YQb/A8rPJeab5l9P7zWFtlA25NaMAg7dgIaCq2JX5Mm7CL4BJi9MJ5fqkz84hE4Cby79/JYg3wDWJho8b2AL3/XFZU2YCsTWq2qbIRfWgL4I3AJeR/EYyMtcCvgJcRTzWSujeXOCTnR5S3WPAq4vjj7WprfX/I2gp4SZWNuC6pEWaVndsP+Ahxcl7Wl8KVxJfCDjW3VWqbrYA3kZvs3wF8Gs/n6MZG5HxWi6tsxB+TGvGIKhvRIjsCRxFDc3XuJ3DbUBlHEdsZS6rfFsQ++idT78PZMuAs4M3AwbT7teyp2oac386bqmrAAPAbcrK+JxAXoKZuJrAvMZqyO3HAzq5D0elrlvcST/dXEuecX0UkhVdUXVlJXduJuMd3Je7v3Yf+vdN1NyuJUwuH7/GrgMuJQ4xWVV3ZltmdnO/Ja4nrYtpmUfF8QhfcE3761hBnDFw8xv9uLvGu6PrEFp3zh/7vlxKr9u8Z+vesM60lTe6aoRhtFn97b88HZhP39N1D/1xKLCZWPSp7F79LD1T1h2YRT4AZ3AegXvcPRaXzRZKKsJr4ob87uyItlvX2U2Wf+QxMACRJ6tamSeXeUdUfmkHeFIDvjkuSmirrN+zOqv5Q5gjAg5LKlSRpuio7krdLlU3rziBvDsmdACVJTZU1AnBXVX9oBvG+dwYTAElSU22ZVG6lIwC3VvXHuuQUgCSpqbZKKrfSNQCZIwADSWVLkjQdWyeVW+lbAFkjAHOIvZQlSWqSGeSNYlc6ArCEvN2itk8qV5KkqXoQeecnVLoGAOD2qv5glyrZz1iSpB7aNqncB6h4J0DImwbwaFlJUtNkPbxeD6yt6o8NJwA3VvUHu2QCIElqmp2Tyr2uyj82nABcW+Uf7cKOSeVKkjRVWSMAfZUAuAZAktQ0JgAV2IE401qSpKbYNancWhKASv9ol+U/JKlsSZK6tTl5BwHVkgDcCKyu8g934bCkciVJ6tZeiWVXOlo/nACsBv5S5R/uwjOSypUkqVtZCcASKj69d8aIf/9TlX+4C3sDD08qW5KkbmQlAJVP1Y9MAC6q+o934bWJZUuS1Kl9ksq9uuo/WEoC8Fxy51UkSZrMTGC/pLL/UPUfLCUBmAm8L7F8SZImszswL6nsS+su4BZgMDGeV3cDJUmaoheS9/tY+QFEM0b997lVF9ClT+DugJKkMj00qdx7qOFNvdEJwPerLqBLGwGnAxsk10OSpNEellTuJcQoQK02IfYEyJwGGAQuJJIBSZJKMAdYQc5v4sfraNDoEYA7yZ8GANgfOBPYIrsikiQR+9XMSSr7kjr+6OgEAOB7dRQ0BQcAFwz9U5KkTAclll35K4Dj2YYypgGGYxXwLvIyL0mSvk/Ob+BqYL06GjQwzv/8O5S3R//1wNuArwNrcquiihwLbJxdCUnqwMuBDRPKvQ/4dB1/eLwE4FDgrDoKrMD1RGd8Fbg5tyqapmuAHbMrIUltNF4CMABcAezWw7p0ay1wHvBzYuHiFcSxxqtG/d8NEFnbRsTrhRsO/XOdof/9KmDp0L/fDawk3re8p8a6K5gASFKS8RIAiAN6ann1oEZrgHuBZUP/vWAopuJeIqG4HriBOInpAmLL5GXj/7+pCyYAkpRkogRgXeAqYlGg/mo18Efgt8QIxNnAn1Nr1FwmAJKUZKIEAOBFwH/1oB5Ndy1wBvBN4Bx6sGNTnzABkKQkkyUAM4HfA3v3oC794i/E6yJfIkYIND4TAElKMlkCAPA0Yn9+de9i4GTgy8Dy5LqUyARAkpJ0kgBA7A749Dor0ufuBL5AvL54fW5VimICIElJOk0AtgAuw01bpmsVsabiHcCi5LqUwARAkpKMdRbAWG4FXldnRVpiHeAo4pXCk4HNc6sjSWqrThMAgK8A362rIi0zm0gErgL+fei/JUnqmU6nAIZtBpwPbF99VVrtMuClxN4CbeIUgCQl6WYEAGAx8A+4E17V9iL2DzgZmJ9cF0lSC3SbAABcArwQN7up2gxiWuAS4PHJdZEk9bmZU/z/u4L4wTqkwroobAQ8n5ie+TX9nWgdTbRXktRjUxkBGHYi8ImK6qG/NYPo3zPw1UtJUg2mkwAMEk9wn6yoLvp7TwZ+BxyQXRFJUn+ZTgIAkQS8DvjPCuqisW0L/AI4MrkekqQ+Mt0EACIJeBXwkQr+lsY2F/ga8LLsikiS+sNUFwGO5cfATcCTKv67CjOIg5kGiBGBfuAiQElKUsUIwEinAI8j9gtQ9QaAE4CT6H4TJ0mS/k/VCQDEhjYHEkfhqh6vI5IASZKmpK6h+ruI42+XE3sFOCVQvUcAa4BfZVdkGpwCkKQkdYwADFsNvB84GLiyxnLa7J3EGQKSJHWlzgRg2PnAQ4kfq+U9KK9NBoDPAE/ProgkqVl6kQBA/PCfAOwKfBFY26Ny22AW8HXgkdkVkSQ1R68SgGE3Ay8CHg78gP7e576X5gLfADbNrogkqRl6nQAMuxh4KjEi8HGcGqjCNsCp5H2mkqQGyV6dfxdwJvBZ4F5gS2Cz1Bo12y7ASuIUwSbwLQBJSlLiZjJ7A/9E7H2/e3Jdmmg1cCjwy+yKdOAaYMeEcj9AJJ+SVIL3ZRRaYgIw0u7Ao4hXCQ8CdsqtTmPcDOwFLMmuyCSyEoCdgGsTypWksaSshys9ARhtS+KVwp2JH46dhv65BRMPJS8lphiWAPeMiBlDsT4wH9gOWEj+1EgVPg28OrsSkzABkCQTgErMIn7M5wJziB/5JXT32uEs4gjehxO77T0SOIDmJQVriS2Zz8uuyARMACTJN+KKtinwYuD7xCK7wYbEH4B1auiPqlxDTr9kJB2SNJ6s3wh1aQvgzcAN5P/AdxLH1tMNlTABkCQTgMaZDbwKWET+j/xEsZRIWkpkAiBJSb8PbhozdSuJhXY7A28D7s+tzrjmESMWkiSpBjsCPyH/iX+suB/Yur6mT5kjAJLkCEDjXQscBrwBWJVcl9HWBY7LroQkSf3uIGIznuwn/5HxALB9jW2eCkcAJMkRgL5yDvAw4NLsiowwG3hjdiUkSWUwAajPLcCjiWSgFC8gNkqSJLWcCUC97gGeCJydXZEh6wPPzq6EJCmfCUD9lgFPI3blK8FR2RWQJOUzAeiNJcBTgZuyK0KccfCQ7EpIknKZAPTOzcTwewmvCL48uwKSpFwmAL31G+DfsysBPIvmnW4oSaqQCUDvfZjYMTDTJsQxx5KkljIB6L1B4JXknx3wtOTyJUmJTABy/Bl4d3IdDk8uX5KUyAQgz4fJfStgL+IkQ0lSC5kA5FkBvDe5Dk9MLl+SlMQEINfngRsTy3choCS1lAlArpXAZxPL3z+xbElSIhOAfKeQtznQbsCCpLIlSYlMAPLdCpyRVPYMYL+ksiVJiUwAyvCtxLIflli2JCmJCUAZzgRWJ5XtCIAktZAJQBnuIs4JyLBtUrmSpESzsiug/3M28OiEcrdKKFPd2wd4SXYl9Dd+DZyWUO42wDEJ5TbB94BfZFeiKUwAynFRUrlbAwPEGQUq187A67Mrob8xi5wEYAu8FsZzEyYAHXMKoBwXJpW7LrBxUtmSpCQmAOW4EViWVLbTAJLUMiYAZbk5qdyFSeVKkpKYAJQl63TAeUnlSpKSmACU5fakcucmlStJSmICUJaszYBMACSpZUwAyrImuwKSpHYwAShLVgKwNqlcSVISE4CyrJ9UbtbUgyQpiQlAWTZLKvf+pHIlSUlMAMqSlQDck1SuJCmJCUBZtkwq996kciVJSUwAyrEVeXvy35FUriQpiQlAOfZNKneQvC2IJUlJTADKkZUA3IWLACWpdUwAyvGYpHJvTCpXkpTIBKAM84BHJ5X9p6RyJUmJTADK8Fhg3aSyr0gqV5KUyASgDE9OLPvyxLIlSUlMAMrwpMSyL0wsW5KUxAQg3x7AjkllLwZuSCpbkpTIBCBf5vD/+YllS5ISmQDke0pi2b9MLFuSlMgEINc6wMGJ5f8ssWxJUiITgFy7A3OSyr4L+F1S2ZKkZCYAufZLLPt/gbWJ5UuSEpkA5Mra/x/ge4llS5KSmQDkenBSuSuAHyWVLUkqwKzsCrTcbknl/hJYmlS2muVS4L+yKzGJg4EjsivRQzcCx1T8N98ObFTx3+zEfwB3V/j3fLOpCyYAuTZPKvcHSeWqea4BPppdiUmspl0JwG1U/5m8npwE4BTcjCyNUwB5NiDvAKBfJ5UrSSqECUCerKf/1XgCoCS1nglAns2Syr2RWAQoSWoxE4A8C5LKvS2pXElSQUwA8mRtwnNvUrmSpIKYAORZk1Sun7kkyR+DRFkJwNykciVJBTEByJOVACxMKleSVBATgDzLksrdCjeAkqTWMwHIc3NSuXOAPZPKliQVwgQgz2JgVVLZj0wqV5JUCBOAPGuBRUllPyWpXElSIUwAcmVNAxwGrJ9UtiSpACYAua5OKnc94F+SypYkFcAEINeFiWW/BpiZWL4kKZEJQK4LEsveA3huYvmSpEQmALn+QN6bAADvwrUAktRKJgC5VgCXJpa/LfDexPIlSUlMAPL9NLn8VwFHJtdBktRjJgD5vp9c/gBwCrBPcj0kST1kApDvN8BtyXVYnxiJcItgSWoJE4B8a4EfZlcC2Az4FXBwdkUkSfUzASjDd7MrMGQT4MfAi7MrIkmqlwlAGX5A3rkAo80FvgB8C1iYXBdJUk1MAMqwCvhcdiVG+UfgSuB4YMPkukiSKmYCUI7PA6uzKzHKfOAdwF+ATwD75lZHklQVE4By3AScnl2Jccwnzg74PXAZcCKwfWJ9JEnTZAJQlg9mV6ADewInAH8mFgy+FNg0tUaSpK6ZAJTlXOCM7Ep0aCZwGLF24VbgbOBoYMvMSkmSOmMCUJ63EnsDNMlM4CDgY8R6gbOBt+CaAUkqlglAeS4Bvp5diWkYTgbeQ6wZuBH4T+CZwMaJ9ZIkjWACUKbjgfuzK1GRbYCXA6cBi4ELgfcDTwTWSayXJLWaCUCZriEW2vWbGcD+wLHAmURyIElKYAJQro8AF2RXQpLUn0wAyrUGeCHwQHZFJEn9xwSgbFcA/5FdCUlS/zEBKN97gG9nV0KS1F9MAMo3SBzPe3l2RSRJ/WNWdgXUkfuAI4DzgA2S66J2mQfskl2JSWyWXQGpiUwAmuNK4PnE+/S+P69eOQy4KrsSkqrnFECznAH8M+UdGyxJahgTgOY5DXgu8ZqgJElTYgLQTN8kttdt2qFBkqRCmAA01ynAkcDy7IpIkprHBKDZTgMeC9yaXRFJUrOYADTf+cDDiKN3JUnqiAlAf7gZeDTw38n1kCQ1hAlA/7iP2DHwH4E7kusiSSqcCUD/OQ3Ym9gzQJKkMZkA9KfbgMOBpwPXJNdFklQgE4D+djqwB/B64J7kukiSCmIC0P9WAScBuwIfBe7NrY4kqQQmAO2xGDgG2JrYRfDK3OpIkjKZALTPfcBngb2AZwFn4bkCktQ6JgDttQb4NvAEYFtincA5qTWSJPWMCYAAFhHrBA4G9gTegW8PSFJfMwHQaFcAJxKLBg8BPg7ckFkhSVL1TAA0nrXAr4Cjge2JzYWOI6YJBvOqJUmqggmAOnUZ8H5immAX4I3AL4nXDCVJDWMCoKm4Bvgw8BhgQ+AwIjm4CEcHJKkRZmVXQI23HPjJUAAsJBKCQ4HHDf23JKkwJgCq2iLgi0MBkQDsDxxETB88HJidUzVJ0jATANVt0VCcPvTf84ADgAOBY4EFSfWSpFZzDYB6bRnwc+DdwB3JdZGk1jIBkCSphUwAJElqIRMASZJayARAkqQW8i0ASRNZBtySXYlJbABsll0JqWlMACRN5CzgmdmVmMRriUOrJHXBKQBJklrIBECSpBYyAZAkqYVMACRJaiETAEmSWsgEQJKkFjIBkCSphUwAJElqIRMASZJayARAkqQWMgGQpGZ5ODBYcWzb0xb81fUd1q/T+Lee1r7hTAAkSWohEwBJklrIBECSpBYyAZAkqYVMACRJaiETAEmSWsgEQJKkFjIBkCSphUwAJElqIRMASZJayARAkqQWMgGQJKmFTAAkSWohEwBJklrIBECSpBYyAZAkqYVMACRJaiETAEmSWsgEQJKkFjIBkCSphUwAJElqIRMASZJayARAkqQWMgGQJKmFTAAkSWohEwBJklrIBECSpBYyAZAkqYVMACRJktRT1wCDCbFjLxonSR3K+B4cdARAkqQWMgGQJKmFTAAkSWohEwBJklrIBECSpBYyAZAkqYVMACRJaiETAEmSWsgEQJKkFjIBkCSphUwAJElqIRMASZJayARAkqQWMgGQJKmFTAAkSWohEwBJklrIBECSpBYyAZAkqYVMACRJaiETAEmSWsgEQJKkFjIBkCSphUwAJElqIRMASZJayARAkqQWMgGQJKmFTAAkSWohEwBJklrIBECSpBaalV0BKcE12RWQpGyOAEiS1EImAJIktZAJgCRJLWQCIElSC5kASJLUQiYAkiS1kAmAJEktZAIgSVILmQBIktRCJgCSJLWQCYAkSS1kAiBJUguZAEiS1EImAJIktZAJgCRJLWQCIElSC5kASJLUQiYAkiS1kAmAJEktZAIgSVILmQBIktRCJgCSJLWQCYAkSS1kAiBJUguZAEiS1EImAJIktZAJgCRJLWQCIElSC5kASJIkSZIkSZIkSZIkSZIkSZLUFP8f8o5e8Tu5lGgAAAAASUVORK5CYII=;" vertex="1" parent="1">
          <mxGeometry x="230" y="720" width="83" height="83" as="geometry" />
        </mxCell>
        <mxCell id="8HKQdC73j9jO4bcsfkeK-13" value="" style="shape=image;aspect=fixed;image=data:image/png,iVBORw0KGgoAAAANSUhEUgAAAgAAAAIACAYAAAD0eNT6AAAABHNCSVQICAgIfAhkiAAAAAlwSFlzAAAOxAAADsQBlSsOGwAAABl0RVh0U29mdHdhcmUAd3d3Lmlua3NjYXBlLm9yZ5vuPBoAACAASURBVHic7L17lJ5ldf/9mWRyIjMhIYSjkYKchIgiCKgRfhQkcsxL+SG+lYql/AQNIQa1fVe1ra7XWuRMQeVXYK0ul30LWJXiD1HkWEBJRY4JJZyPMRByToDJJJP3j/08dRhn5nme+zrd131/P2vtRVbIzN77evZz7+u+DnuDEEIIIYQQQgghhBBCCCGEEEIIIYQQQgghhBBCCCGEEEIIIYQQQgghykJXagMcmQEcCOwD7AvsDewITAamNf4LsBFY3fjva8DSQfIwsCKq1UIIIURicpsATAKOBv64Ie/D3YetwGPAXcAdwO3A246/UwghhBAeOAi4AngDS9ghZQ3wfWyikdsESQghhMieCcDZwDOET/ojydPA5xq2CCGEECIgk4CFwCukS/xD5RVgQcM2IYQQQnjmBOA50if8keRZ4Lhg3gshhBA1YybwE9In+Hblx8C7goyEEEIIURNOAlaSPql3KmuA/xlgPIQQQohKMx64DBggfTIvKgPAJcA4z2MjhBAiD6ZgW8MXYNfInwZWAVuAvsaflwI/x3LeacAOSSwtCdOAe0mfwH3JPcBUryMkhBCirEwEzgDuBzZT7OXxAWAesF1k25OyC/A46ZO2b3m04ZsQQohqsh32pr8Cf7ljPbaSvHNEP5KwJ/A86ZN1KHm+4aMQQojq0AV8BislHyp/rAe+REW3lHeh2sm/Kc9Rg5mcEELUhF2BO4mXQx4E3hPFs0hMw+rtp07OseRRdCZACCFy5yDgVeLnkDXAiRH8C854qnXgr125m4ou5QghRA04GdhAuhzSD5wZ3MvAXEb6ZJxKLvIwfkIIIeIyB0vAqXPIABlPAuYS557/cuBfsXr9c4C9sW2H8Q2Z1vi7OcAXgesJe5hj8Id3gvMoCiGEiMUHgHWkT/5N6SfDPDITK4AQalBWAlcChxS0rws4FLiKsJUI38AOkQghhCg3O5Fmz7+VrAH2COi3d0LV9n8V6xY42aOtPcD5wLJANv/Qo61CCCHCcCPpk/1I8hugO5zr/vgE/p3vB64AegPavQ3wdax8o2/71UVQCCHKy/GkT/KtZGEw7z0xCf8tfZ8CDozow0HAMwF8mBjRByGEEO0xGXiF9Am+lazDtilKy0L8OnwT1mwhNtsCNxewdzQ5N6oHQggh2mEe6ZN7u3JhoDFwZgJ+Z1HXAGOjevBOuoHrhrGrqLyE3UoQQghRDsZgK7SpE3u7sh672VY6zsZv8u+Ka/6wdOF3EnBWXPOFEEKMwkmkT+qdyueDjIQDXfjbN7+JtG/+Q+kGfoof356iHBMbIYTIjVnA5cBi0lbpG0kex+rR7I+dK5jc+PMC/HbB/bXrQPrmcPwlyBR7/q3YFngWPz7Ojmy7EELkzHjgO8AW0if54aQPO0cw2ovrWOwcmI9bZgPAjA7GLzjX4u7UJuKe9u+Ug/FTHvKfYhsuhBCZ0oP1Vkmd5EdL/kd14M9R+JkEfLIDnUGZBKzF3aHSnm4cxKW4+7kaXQkUQohW9FD+ZnLzCvg134PeSwvoDcKJuDvzKn6r+4WiF/gd7v6qMJAQQoxMDsn/cYqdVxuLnWNw0X1LAb3vYIzrL2jwxx5+x8XARg+/JzTr8TPz6mTJSAgh6kQPcCvlPy91LXYuoVO2YLfLXNjL8ee98ShuM5mV5PH236QH90ZHD0W3Wgghyk8Ob/5N2c/Bz1mOulc46PbGDNxb/l4Z3Wp3voubz1uA6dGtFkKI8pJT8t+KW2+aXkfdbzvoBvxsARyI+73273uwIzauNo+h3DcehBAiJrks+1cGHxOAfRx//jXgQQ92xGYR7kswrmMnhBBVINfkP9PhZ3dz1L3e8edLMQG4C1vOyI2tmO0uaAIghKg7uSZ/gGMcfvbjjrpXO/58KSYAD3iwIRWutmsCIISoMzknf7DeLkWvAbr2hXna8ee9TABcexMv9WBDKlxtL3VfZyGECEjuyR+szv8XCvzcPNxuEEBJcufzuJ1kfE98k72xF26+PxffZCGESE5up/1Hkz7g6A58Pxore++q99QOdAbjDdycyPkq3Pa4+V6Ke5xCCBGRKiX/wZOA+Yy+HdCNdQX0kfy3YPknOa5NDcbHN9kbE3Dz3fkepxBCZEQVk/9gWQIsxIr89DRkFnB+4//50nN/pwMfCk0Aisub8U0WQogkTOb3t758y30UL8pzUiCbQso5BX31jrYAisvv4psshBDRCfnmf2/j9xdlDHagLnVSb1fWAdMc/H2H4664FiPw4kgiXG1f48UKIYQoLyFP+98HHAtscPgdA8AVfsyJwvfwUAPAF4/jNpv5RHyTvXEcbr7/Or7JQggRjTK/+Q9mMvBSIDt9ylpgB08+e1kBWO748zkXw3G1fZUXK4QQonyU/c1/MBuxu/ll52+B11MbMZircJvRXB/fZG/ciJvvF8U3WQghgpPLm/9Qbghksw9ZhF0lLBXzcXPqNdy7CaZgDHaP38X306NbLYQQYck1+QPsCLwSyHYXWQ3sHtDvwhyDu3OHRrfanY/g7vf7olsthBDhyDn5N3k/tteeOuk3pR87b1ZKtsdOUbo4eFV0q935Hm4+vw2Mi261EEKEoQrJv8kx+KnY5yoDwBmBfXXmEdycXImdwsyFXuwAn4vPd8c2WgghAlGl5N9kLnbIMFXy7yeD5A9wKe7Onh/d6uL8JfXyVwghRqKKyb/JB0lzJmA1JV72H8oJuDu8jLQfdLtMwQ4uuvq7Z2zDhRDCM1VO/k12Be4gXvJfREkP/I3ERGzG4up4DtfiLsfdz8XRrRZCCL+UtbZ/KE4EXiZc4t8A/BUlvOrXDtfgPgCbgINiG94Bh2D7Mq5+fj2y3UII4ZM6vPkPx1Tgm/hZBW7KOuDbeKzwl4KP4WcwngG2jWx7O0wFnsPPJGeXyLYLIYQv6pr8BzMBq+NyL8VeCgewlr7nkHc/nP+mC3gaP0FwM+VaBukGbsGPbzlXPhRC1Bsl/z+kF+tp8y3gNuBJ7JZYP9CHdcx9EvgZcAlwKnZ9vnJ8Dn/BcB3lqBDYBfwz/vwKURdbCCFCo+QvRmUCfg9JXEfalYBu/Cb/t4D9YjoghBAeUPIXbbEAv8HxU9KcCZiKv2X/wbIe+NOIfgghhAtK/qJtJmEH+XwGybPAwRF9OAQ/B/5Gk+9iKyZCCFFWlPxFx8zBf7D0A1dghXhCMRm4AD9X/dqR3wJ7BPRHCCGKUrd7/sIjPyZM4CwHvozfmWMvVt7X593OdmUVVmBCCCHKgt78hRMzsSY/IRPnd4DDKHZboAtr6fs93Bv7uMoAtvJQpquPQoh6ouQvvHAS7q2C25HXgRuAhcCxwD7AdGB8Q6Y3/u5YrAnPjcCKCHZ1KvcAOxcaaSGEcEfJX3jlEtIn1pzkdeDjhUZaCCGKoz1/4Z1x2Jtt6sSak2wGvko5CiEJIaqP3vxFMKYAD5M+seYmt5N5gwghROnRm78Izi6Ev1tfRXkJ+HCB8RZCiFYo+Yto7IkmAUWkD5hfYLyFEGIktOwvorMT2g4oKj+hnK2ShRB5oTd/kYypwN2kT6g+ZAD4NvBZYGMEfU8C7+t0wIUQooHe/EVyuoGvA1tIn8SLynqst3OTfYHFEfS+BZzVwVgLIQTozV+UjBOAN0ifzDuVBxm+tW8vcH0kG64BJrY3zEKImqM3f1FKdgV+SPqk3o70AV+jddnecxv/NrQ9D2OHK4UQYiSU/EXpmQM8RfokP5LcCuzfgT+HAC9EsGsNcHIHdgkh6oOSv8iGCdjb80ukT/hNeQg4uqA/04FbItg4gJVdHlfQTiFE9VDyF1kyHjvolmpFYAD4BbYq4VqStwv4a6zEb2i77wPe5WivECJ/lPxF9nQBs4F/AlYTPoG+AFxEZ0v97XIksDyCD2ooJES9UfIXlWMicBy21P0wfq4Q9gH3A/+AldwN3YBnZ+I0R9oC/B0wJrA/QohyoeQv2iL3bnPTgQOBfbA7+HsDO2JX8aZigdoFbMAOym0EXgSebsgTwH8Cb0a2uxv4JvCXhP8MbgNOB1YE1iOESE8Pdlh5doDffR9wLPY8FUI4ciKwivCrAS8DH4nkkxAiDXrzT8MUbGX6AqyD69PYc30LtsK8ClgK/By4DDgNdXkVDXYHfkP4ScAmYCH5r/oIIf4QJf+4TATOwLaPixzuHgAeAOYB20W2XZSMCcB3CT8J2Ar8CDUUEqJKKPnHYzvsTX8F/sZ4PXaubeeIfogS8qdYMISeBLwAfCiOS0KIgKi2fzxOBV4j3HN5I9YfZ3wkf0QJeS+whPCTgDeBv4jkkxDCP3rzj8OuwJ2EfyY35UHgPVE8E6VkMvAD4gTbPwPbRPFKCOELJf84HAS8Srzk35Q12CFxUWPOAd4mfLA9hl2hFEKUHyX/OJyMXXmMnfyb0g+cGdxLUWoOAp4jfLCtAz4ZySchRDGU/OMwB0vAqZJ/UwbQJKD2TAP+nTgBdwU6hCLisiPwKeBy7K70UuzudB+6Rz0YJf84fAB7IUqd/JvSD5wQ1GNRerqwyoExZqUPAO+O45aoKdthXT8XUfzNqE73qJX847ATafb8W8kaYI+AfotM+BhxAvQNrOynED7ZBbgUv3urVb9HreQfjxtJn+xHkt9gZeRFzZmBtSoOHXAD2JaAgk640g0sIOzSahXvUeuefzyOJ32SbyULg3kvsmIs8P/ipyNiK7kD26cVogh7AQ8R7yFZlXvUevOPx2TgFdIn+FayDtumEAKwZfo3CB94r2LbD0J0wlxgLfEflLnfo1byj8s80if3duXCQGMgMuXd2IGo0IHXT5wWxqIanEWxRik+4zXHK1RK/nEZAzxF+sTerqzHboYJ8d+Mx/brYwTgv6MAFKNzFnaGJPXDMrd71Er+8TmJ9HHaqXw+yEiI7Pkkce6wPocVKRJiKHNJ++Y/VHK5R63kD7OwehCLSVuFr6g8jh123R87VzC58ecFjf/nS8+viw6wqD57Y+V9Qwf721i5YiGa7EWaPf9WUvZ71HVP/uOB7xDnUHMI6cPOEYwdxcexWO2LPg/6BrDbYEIMyzZYo58Ywf8DbKYr6s044p7271TKeo+67sm/B7ib9PFRVPqAozrw9yj8TAJUul205C+w1r+hvwRLsFbGor58hfQP41ZStnvUSv7h/I8l8wr4Pd+D3ksL6BU15APA04T/IqwH/jSST6Jc7EIee7Zluket5J9/8n+c0Zf9R2Isds7BRfctBfSKmrIt8CPifCm+C0yI45YoCZeS/mHcrpThHrWSf/7Jfyt2uK8oCx11P+WgW9SQLizoNhH+i/EbYPc4bonEbEceb/9NSX2PWsm/Gsl/K7CfwzjMctS9wkG3qDEfAp4n/JdjLXBKJJ9EOs4l/YO4U0l1j7rutf1D+p9CXCZbvY6633bQDeRf0W0GcCCwD7Avdv1tRyzIpjX+Owab8W/AmoW8CDyL3WNfglXQWxPb8BIwAzu9f0xgPVuxJdevYXfDYzIZOBSbpe+NXVHbDbshMQX78nah+HDlP7FJpQ8WA9cCtwMvNP7uj4CjseJCszzpeQD4sKff1S49wK3A7AC/+z6sLPiGAL/bFyH9T8UU7PlRhF7sTEpR+oCJDj+fHZOw+t6XAY/ip9LYFuyhczX2BapSJ7FWjAH+jjh3b+8hfLvWMdjD5ULsAd/vwe4t2ESgjvHRDjvi53tY9XvUWvavzrL/YNEWQGC6gMOxt4IYBUbWYG/GR8ZwriR8HHid8GO7nDDjegDWD/6lCD4Mjo/cV9B88Cncx7Tq96iV/KuZ/LcCX3QYFx0CHIUJwNnAM6T7cJdgbyXbBPa1DLwLW0YMPaabgb/GPXmOwcq73h7B5pHkCeyNtA7xMRKX4z6OVb5HreRf3eS/FVs9LnoNcImj7kpeA5yEzYzK1Jt5GfaQqvry7zjsTTpGE5dbgOkF7TwW9zu0vuPjXKofH8NxK25jV+V71Er+1U7+TZlfYGzO86C3coWAjscOX6X+QEeS57HOUVXnZGypO/R4vgAc0oFdBwC/jGCXS3zM7cCfKuC6QlfVe9RK/vVI/lux7aijOxibo/FzFfvUDnSWmpnAT0j/QbYr/4ZVPqsyewIPE+fLc24LW8YB3yBO/QIf8iOqHx9N3sBtrKp4iErJvz7Jvyl92ErAaKtZ3diE18dzbAuw/Si6smEusIr0H2Cnshr4vwKMR5mYCFxDnPG8nuHvMB8APBLJBt/xcXJ7w5w1rofxXO6tJ79HPQxK/vVL/oNlCbYyNasxFj2NP5+P+57/YLm/3Q+krHQDFxBnvzmk/G+qv/d7OnEqvS3FEn6T07C7+ak/Y8XHyLiOT+76B6MiP3n6f1Igm0NK1m3Yp1GtWeLdwFSfA1RC3gc8Sfix3Ah8FrvLn/pz9SX3UN34cB2b3PU30Zt/vv6PwV4+Uj8n2pV1pC1l7cTO5Lmk20oWY2cZqkwP8K+kH+scZQnVjA/XccldP+T75uuLKvj/hUD2h5ALAo1BcPYkTg36VPIi9WiAMx8/hVjqJi8CexQY7zLjOia568/5zdcHVfF/MnEKibnKWmCHQGMQlF2odvJvyrPU4wT4QZT7ymZZ5UXg3QXGu6y4jkfO+qvw5utC1fw/zpPtIcXl2mwypgGPkX7wYsliihe5yYnpWDGV1OOdmyyhOvHhOha56q/Km29Rqur/DW3amEIWYYfns2I81Trw167cQYYfVgG6gK9iJX5Tj3lOUpX4cB2HHPVXNfm1S5X935FyVaFtymoy3V6+jPSDl0ou9jB+uXAk1uwn9ZjnJJcUGuly4ToGuemvcvJrhzr4/37iNJ5rV/qx7YnsmEuce/7LsdPpC4A5WO/3adjqw/jGn/du/L8vYkVnXotg11bgfzqPYj7sjF15S/2FUXzEw9X/1PrLImVJfqNRh+Tf5BjKUXl0ADgjsK9BmEnYCn8rgSvprJb8YLqAQ4GrGr8rlJ0rsGWlulCWAk+Kjzi4+p9afxmkbMlvOOqU/JvMJU4BtJGkn0yTP4Sr7f8qVmpxskdbe7BSjcsC2fwjj7bmwomkKfGs+IiLq++p9aeWsia/wdQx+Tf5IGnOBKwm02V/sK5+vgdkE1YdzueDfSg92L59iKWfqvcNGI7dgQeJ84XJPT5y7Rvg6ndq/Sml7MkP6p38m+yKHdqNFReLyPTAH8Ak/N8Pfwo4MKIPB+He5nSoLMW62tWNCcB3CfuFUXykw9Xv1PpTSQ7JT8n/nXyasAed12LnlLK+HeTao3uo3ARMieqBsS1wcwF7R5N5UT0oF38KrMf/l0bxkRZXn1PrTyE5JD8l/+GZCnwTv4eE1wHfJtMKf4OZgN/9kmsYvb9yaLqB64axq6gsx1rs1pX9gLdQfFQpPlx9Tq0/tuSQ/JT8WzMB65J6L3ZYr9NxGMBa+p5Dxo19hnI2/gLlGuwkdmq68PuQPyuu+aXiYyg+qhYfrv6m1h9Tckh+Sv6d0wt8AvgWcBvWNXUVNjHoA95o/N3PsNofpwLbJ7E0IF342xe9ibRvdkPpBn6KH98WU47ElYIfovioWny4+ptafyzJIfkp+YvCHI6fQHmKNHu6rdgWa/Tjw8ejItteBmZSbKlM8VFuXH1NrT+G5JD8lPyFE9fiHiibiHuau1MOxk8Suy624SXgH1B8VDE+XH1NrT+05JD8lPyFE5PwUzv5wtiGF+BS3P1chZWgrQtj8XNqVvFRPlx9Ta0/pOSQ/JT8hTMn4h4srxK2iIsveoHf4e7vCbENT8j/QPFR1fhw9TO1/lCSQ/JT8q85Yzz9nj/28DsuBjZ6+D2hWY+95bnycQ+/Ixd8VLmrW3wc7eF3iDTcDRyL1ZEvKz3ArcDsAL/7Psrvv/DIo7jNFleSx9tdkx7c69w/Gt3qdDyO4qNTeSS61cVwfVNMrd+nbAb+kfJv3+jNX3hjBu6d366MbrU7ruVttwDTo1sdn+koPqocH64JI7V+V9mATXAvwwpdlR0lf+GVY3APnA9Ft9qdw0j/8KmLKD6qK66k1p8TSv7CO+fhFjivkVfhkyZdhG0MIVF81EFcSa0/FyYDdxHmM7wPO/wqMsPHIcB9HH++2WYxN7YC96Q2ogYoPoRwYzLwf7DbOL65Hzvwtz7A7xaB8TEB2Nvx5xd5sCEVD6Q2oAYoPoQoTg/wc8Ik//uwGvhK/pniYwKwk+PPP+nBhlQsTW1ADVB8CFGMyViPihBX/e4HjkNX/bKm28PvcD348YwHG1LxdGoDaoDiQ4jO0T1/0RIfKwCujVlWe7AhFTnbngs5j3HOtot80Zu/aAsfEwDXFYCcA0l7X+FRfAjRPjrwJ9rGVylgIYQQaVHyFx3hYwLg+oaWc/EI3X0Nj+JDiNYo+YuO8TEBWOf489t5sCEV01IbUAMUH0KMjq76iUKUYQXgPR5sSMVeqQ2oAYoPIUZGB/5EYXxMAJY7/vy+HmxIhWsVRNEaxYcQw6M3f+GEjwmAa7GTwzzYkIoPpzagBig+hPhD9OYvSsF86tvs5XXSN1Opuig+qi2upNafAjX2EV4owwrADsAhHuyIzYeBGamNqAGKDyF+j5b9hTd8lAJ+CJs5uryl/Rn5NX35M8efH8CS20oPtpSZ6dibsMtkU/FRXnJ9i84RlfctJ1Owz+Rw4GBgN+y5ty2wGdgIrACeB/4LaxJ2F/ZcrASP4LbstBJb1sqFXmAVbj4/Gt3qdDyG4qNTeSS61cVIvQSfWn8seoB7CbPsfy9519tIwUTgDOy8xGY6H/MBbCIwj7yvOgNwKe5BeH50q4vzl7j7e2l0q9NxOYqPTuXy6FYXI3UCTq0/Bkr+5WE74ALsjd7XZ7AeuATYOaIfXjkB90FYRh6BOAU7mObq78diG56QI1B8dCrHxza8IKkTcGr9oVHyLwddwGfw890eSdYDXwLGRfLJG5OANbgPwMWxDS+Aj7fZZdSrD8NYrF6E4qM9WQmMj214QVIn4NT6Q6LkXw52Be4kzOcwnDxIhgXQrsHd8U3AQbEN74BDgH7c/fxmbMNLwLdQfLQr18Q23IHUCTi1/lAo+ZeDg4BXCfM5jCZrgBMj+OeNj+HH8Wew05NlYyrwHO7+bcJmlHXjXfhJjlWPj63AkZFtd8HV19z1h0DJvxycjN2KCPE5tCP9wJnBvfREF/A0fhy/GT9XFH3RDdyCH99uiGx7mbgBxUcreYy8Ch+5+pu7ft8o+ZeDOfh5YXGVATKaBHwOf45fRzkehF3AP+PPrxB3eHNhNoqPVvLnUa13x9Xf1PrrIkr+7fMBrMtt6s+sKf3YQfvSMwF4GX+OX0faN71u/D7c3wL2j+lAydgfGwPFx/CyDPsO5YSrz6n110GU/NtnJ9Ls+beSNcAeAf32xgL8Ov5T0uz5TsXfsu5g2QCcHtGPsnA6YfbTqhQf50T1wA+uPqfWX3VR8u+MG0n/mY0kv6FcW5/DMgk7qOXT8WexEouxOAR/B7pGkquxalJVZyLma8ixrEJ8/BcZfLmHwdXv1PqrLEr+nTGX9J9ZK1kYzHuPHId/x/ux6nkhO1VNwe5xxzr88VsyWdYpyB6YjzHGMvf4OCmg3SFx9Tu1/qqKkn9nTAZeIf3n1krWYdsUpefHhBmA5cCX8RvcvVj51pBVnkaS1djMs2rMxXyLPZ45xseNHm2NjavvqfVXUZT8O2ce6T+3duXCQGPglZlYRbNQg7AK+A5wGMVOg3cBHwG+h3vjFlcZwD7UHJeAh9KN+TJA2jHNJT5eJ++2wa7+p9ZfNVHy75wxwFOk/+zalfXANB+Oh75GdRJwUwQ9K7D2ig8AT2L7s2/w+77WvcD22JL0e7GkcGTj78rEvcCnsNPgObILcD3l63NQ1vjYCpwC/CSwnpC4JnHXZ4OPSURVUEvfYpwE/HtqIzrkC9jLSem5hPQzppxkOXBUoZFOy1H4qfdfJ/l2oZEuF65jkFp/VaQqb/6zsHM2i0lbha+oPI7dhNsfO1cwufHnBY3/50vPr4sOcGzGAfeQ/oPJSTYDXyOPhkFjMFuL9MSus9yGNUnKHddxSK2/ClKF5D8e27LbQvrxLCJ92DmC0b7TY4FzG//WVd8AGW0dTgUeJf2HlJv8DJheYLxjMR2zMfU45SaPYX3Fq4DrWKTWn7tUIfn3AHeTfiyLSh+drdoehZ9JwCc70JmcXYDnSf9h5SYvAocWGO/QHIrZlnp8cpOnyeQaT5u4jkdq/TlLVZJ/qN4HsWReAb/ne9B7aQG9SdmT8AV2qih9wHkFxjsU5+FnBls3eR7YrcB4lxnXMUmtP1dR8i+HPE6xrbyx2DkHF923FNCbnJ3RdkBRuZGwhW5a0Uu5S2WWWR7BYr9quI5Lav05yl0o+ZdFFjiMwUJH3U856E7KVPLe8xksA9hp7s8CGyPoWwq8r9MB98D7GrpD+7cRG8sy1BLwJXeSpl9BDFzHJrX+nGQz8I/YgbmcqUry3wrs5zAOsxx1r3DQnZxxwEXk/ZBfzzsPYszC7pmH1rsROKOTwXbkDOJMbp7ExrDJaeR5FagpA1iMV6HA00i4jlFq/WWXDdgy82W4JZuyUKXkvxW3FdleR91vO+guDSdgRVlSf5CdyoMM/4XsxYrhxLDhWqz5UigmNXTE8OV6hv8yzQIeimSDT1kJnNjeMDvhaqf0i1hULflvRRMAL+wK/JD0H2Y70ofde2/1VjefOAflHsYOV/pmz8bvjjGe81vYMg74W2BTBHt8yPXAji188oWrrdIvYlDF5L8VbQF4ZQ7lrsl8K1bVqV0OAV6IYNca4E86sKsVf9L4naHtfgEbo3aZBfw8gl1F5Rng+A788YGrzdIvQlPV5L8V+KLDuNT2EOBoTMCqJb1E+g+3KQ8BRxf0Zzp2XSO0jQPYvdBxBe2k8bOXEudcxi0UL3J0DHaqPnVcNOVl4Gzcxr4orrZLvwhJlZP/VuwqX9FrgEscdWd5DbBdxgNnkW5FYAD4BbYqyedssAAAIABJREFU4dqwpAv4KnHK5d4PvKuAje9q/Gxo+zY3xsLHmH4CK6mb6iDpY1jin+joiwuuPki/CEXVk39TWm1hDsd5HvRmVwioCF3AbOCfiNNf/gXs5HYnS/3tciRxGua8jr0lt8sxjZ8Jbdfyxhj4Zhb2mcWoTLgK+D5weAA/iuDqj/SLENQl+W/FzjF1skJ8NH7OM53agc5KMBE4Dusw+DB+Gkf0YW++/wB8mPCti3cmTnOkLcDXGb2h0JjGv4nRgOMewhfC6QI+AlwA/Ao/X7LNWOGqq4CPk2aZfzRc/ZN+4Zs6Jf+mNA8zj7Yd0I0VDvLxXNqCh3bloZNdaKYDBwL7APsCe2Onr3uxYkM9mI8bsENtG7G3xKcb8gTwn8Cbke3uBv4e+ArhP4PbgNP5wxOjM4Af0NlKQRG2Ym/nzS2QmGyD9SzYD7vVsDdWincbfh8fYPGxDouDF4BnsZLVi4FFjf9XVlyTmGv81V2/eCc92GHp2akNScQT2NXpX2LPEoA/wp6zf4G/Wg6/Aj7q6XeJRJyA3RcPPTt9hXcGy4eI05hpLXCKh3ESI+P6GUm/8MVkrExxiGfJfYQrg35SIJtDyjlBRkJEZ3esqFDogNmEXTtZSJz79A82fBNhcf2cpF/4IOSyf+jGR2OIU+bcl6wDpgUZCZGECcAVpA8sX/J9wlYoFL/H9bOSfuFKrm/+g/lCIPtDyAWBxkAk5tPkXft+Q8MHEY/UCbDu+utOzm/+g5lMuWrPjCRrgR0CjYEoAftgzT9SB1qn8iRpuhTWndQJsO7660wV3vwHc5wn20OKS/thkQk9wL+QPtjalX8h//7kuZI6AdZdf12pypv/UG5o08YUsohqdxYVQ/g81vEpdeCNJG83bBTpSJ0A666/jlQ1+YNdI39lGLtSy2p0qLqWHIzdSU8dgEPluYZtIi2pE2Dd9deNKif/Ju/H9tpTP2Ob0o9tT4iaMg24mfSB2JSb0TUUYaROwKn114k6JP8mx1CO9uMDwBmBfRUZ0AX8FTYbTBWM/Q0bVD1NNEmdgFPrrwt1Sv5N5pL2VlY/Sv5iCEcAy4gfjMsauoUYTOoEnFp/Hahj8m/yQdKcCViNlv3FCOwE3Em8YLyzoVOIoaROwKn1V506J/8muwJ3EO95uwgd+BOjMANr8hMrIGN08hN5kjoBp9ZfZap2z9+VE4GXCfec3YBtseqqnxiRI9AWgCgPqRNwav1VRW/+wzMV+CbwGv7GYx3wbVThT4yCDgGKMpI6AafWX0WU/FszAWuzfi/FnskDwP1YVz/dqBKjomuAoqykTsCp9VcNJf/O6QU+AXwL25p9EliFTQz6gDcaf/cz4BLgVGD7JJaK7Pgg8Czpk/5QeRE4LKDfIg9SJ+DU3wNJe5Ljnr8QSfkM8Cbpv7wjyduoOUXdcY2h1Pol4UXJX4gOmARcR/ovbruiZkD1xTV2UuuXhBUlfyE6QO2ARU64xk1q/ZJwouQvRAd8GlhP+i9uUXkTONP7qIgy4xozqfVLwoiSvxBtMgG4gvRfWl/yfWwbQ1Qf11hJrV/iX5T8hWiT3YEHCf+l7Ae+1JAYtQQeROUs64BrnKTWL/ErVb3qJ4R3TgBWEv5L+Qowe5DeDwEvRNC7FjjFfZhEiXGNkdT6Jf5Eb/6ZkXtFtxnAgdjBuX2BvYEdsRrW0xr/7cJqLK/D9qhfAJ5uyBNY44WNke3uBv4e+ArhP4PbsbMFrw/5+x2w0/tHB9a/FbgI+CqwObCuoUwGDgX2w2JjL2A3YBtgCvam0oWdu9iAxcGLWN2F54AlwAPAmsh2d4JrEnWNv9z1Cz/cBxyLfY+ECMIkrCHDZcCjWDlF11nrJuDXwIXARwmfkHfGmuuEno1vAb4BjB3FlrGNf7Mlgj0xGgqNwVY6LsQSt4+tji3YROBq7AE3PrAPneLqX931S9xFy/4iGF3A4cC12JJy6GB+CSvXGOJK25HA8gg+rADmdGDXnMbPhLZreWMMfHMA9pm9FMGHNcAPGn6UYQXN1Z+665e4iZK/CMIE4GzgGdIF9y+B43B/0Hfx+yXw0Db/CphZwMaZjZ8Nbd/mxli4jukY7AzF7RFsHkmeAM7FthRS4epD3fVLiouSv/DOJGAhdnAtdYA35TE6e6MezHTglgg2DmBbI+MK2knjZy/Dz9ZKK7mlMTZFOBZYHMHGdmUZNhFIsT3ganvd9UuKiZK/8M7x2OGr1ME9kvyCzrYGDiHP0/anEGe75QVsjNrlAGxVJnUcjCTPA3M78McHrjbXXb+kc7kLJX/hkZnAT0gf2O3IJuDvaP2mPR9rBRnankew0+2+2avxu0Pb34eN1WiMww4rbopgjw/5EbBLC5984Wpr3fVL2pfNwD9SvoOwImPmYr2TUwd3p/IQMGsYf3qB6yPZcB1hK+7FbEp0PcPfIT6AOBMR37IaOLm9YXbC1c6665eMLhuw3iSXYddphfBCN3ABcfabQ8lbWMveJvsSZ2/6LeBznQy2I5/BHgSh/VqKJfwmp2F381N/zi7yvwn7xuRqn/QLIaIyDTtEkvrh7EMGsHvnnyVOshqaJGNxQEN3aP82YmN5YQRdseQeYGrHI94errZJvxAiGjuT55JuGeQmwiWSdoi5vVE1WUKx65mtcLVL+oUQUdgTOymd+mGcm/QBCwqMdygWEOeAY9XkRWCPAuM9Gq42Sb8QIji7oORfRF4GPlJgvENzMOW+sllWeRF4d4HxHglXe6RfCBGUaVgxndQP39zkVmD7AuMdi+0xG1OPU26yhOJFkIbiaov0CyGCMZ7qHPiLJZuBv8HK3ZadMZitMcocV0nuwG7CuOJqh/QLIYJxOekftjnJCuCYQiOdlv8B/I7045eTXFJkoIfgaoP0C1FTQnczm4tV+Aut5zWsPOUDwJPYWYMV2JUysL7wM4DdgfcCh2Hd3HYIbFen3At8CqstnyO7YLcEPpbakCGUOT5OBf4tgp5QuCZR12dDav1CTMHakB+OnY3aDdvi2xZbGd2IPW+eB/4Lew7dBbyewthYzCRshb+VwJV0Vkt+MF3AocBVjd+V8k1wALgIP0vCqenGfEld4CmX+FgB7FjQxjLg6n/u+kU9mQicAdxPse3PAWwiMA/YLrLtUQhV2/9VrFvgZI+29gDnY2/esRPVauI3kInBXMy32OOZY3z8yKOtsUmdgFPrF/ViO6yC7Qr8ff/XY9uBO0f0IyjH4/8huQmrDufzwT6UHuBi4jWd+S3+74WXiT0wH2OMZe7xEaNvQAhSJ+DU+kU96MJKor9GuGfYeuBLuLV0T84k/N8Pfwo4MKIPBwHPePZhqFyNLSNVnYmYryHHsgrxsZQ8v/ipE3Bq/aL67ArcSdhn2GB5EHhPFM8CsBC/g3ETdsgiNtsCNxewt5VsAE6P6EdZOJ0wDYWqFB/zonrgh9QJOLV+UW0OwrYVfT+3Wska4MQI/nllAvAK/gbhGmBsVA/eSTd+2+G+Bewf1YNysT82BoqP4WU5+a0KpU7AqfWL6nIycbqgjiT9wJnBvfTI2fh9uJfhik4Xfh/ys+OaXypmo/hoJWfFNd+Z1Ak4tX5RTeZgCTh0km8lA2QyCejC377oTaR9sxtKN/BT/Ph2Q2Tby8SNKD5ayWLKMbFpl9QJOLV+UT0+AKwjfrIfSfqBE4J67IHD8ePsU6TZ023FtsCzuPu3CXhXZNvLwEz8zKirHh9bgaMi2+5C6gScWr+oFjuRZs+/layh5DfGrsVPcox5mrtTDsZPEvtmbMNLwLdQfLQr18U23IHUCTi1flEtfK1ShpDfUNJicZOAtbg7eGFswwtwKe5+LiOPRj++GIsdcFN8tCersCZaOZA6AafWL6rDXNIn+VayMJj3DpyIu2OvEraIiy968dP0pmz18kNyBIqPTqX0e34NUifg1PpFNZiM3xtsoWQdtk3hBV9voX/s4XdczO+bs5SZ9dhbniu5Vn4rgg9f6xYfR3v4HUKI9vgsVvCn7PRiZclLxaO4zWpWksfbXZMe3BsdPRrd6nQ8huKjU3kkutXFSP0Gnlq/yJ8x2OHi1G/37cp6YFqQkSjADNw7v10Z3Wp3voubz1uwlpFVZzqKjyrHR+oEnFq/yJ+TSJ/UO5XPBxmJAhyDuzMfim61O4eRPgjqIoqP6oorqe2XSAbL48ACrOrp5Ibs3/i7xz3q+TUlYT5ujiwnr8InTbqA10kfcFUXxUe1xZXU9kskW4E+rJfHaAXKxgLnNv6tq74BbPXdCR+HAPdx/Pm7MIdyYytmuwiL4kMIUWY2AccB38G27kZiC3BV499uctTZBRzp+DtKMQF4wIMNqcjZ9lzIeYxztl0I0R7nA3d08O/vAL7sQe9hrr/AxwTA9U7iUg82pCJn23Mh5zHO2XYhRGsWA1cX+LnvAkscdbu+fHuZAPQ4/vzTHmxIRc6250LOY5yz7UKI1lzL6Mv+I7EF95Lfezn+vJcJQK/jz6/xYEMqVqc2oAYoPoQQZeWXiX4WPNQC8HG6ug+3uuUTcD8QkYoJwNupjag4io9q4/oMyvGAqKgOvcAGh59d56C7D5jo8PO1akgjhBBC+MRlApv8erOPCcB6x5933UJISc6250LOY5yz7UKI1sx0+Nl3O+p2zb2lmACUpqZxAXK2PRdyHuOcbRdCtOYYh5/9uKNu5zNGPiYARfc/muzpwYZUOJ/CFC1RfAghyspZjF79byTGNn7WBedbRj4mAMsdf975LmNCcrY9F3Ie45xtF0K0Zn/gCwV+bh6wn6Nu5zojPiYArkZ82IMNqcjZ9lzIeYxztl0I0R4XA0d38O+PbvyMK84NgcowATiSEpyGLMAYPNRiFi1RfAghysx44BasMd5o2wHdWFfAnwHjHHUO4KHXSBkmADsAh3iwIzaHAdunNqIGKD6EEGVnPPCPwGPAQmAWViW3p/Hn84FHgctxT/5gfUbe8PB7nNkem424tDa8KrrV7nwPN5+3ANOjWx2f6Zivio9qxodrW9Pc9Yv8OQn3OIot5wQZiYI8gpszK4HJ0a0uTi+wCjefH41udToeQ/HRqTwS3epipE7AqfWL/BmDrWSnTurtyjo8XTH2VQnwTsef3w4424chkfg87h9AJ+0jc0fx0Tl3e7BDCNGaAeCK1EZ0wPcoWZ+RE3Cf1SzDvbNgDKYAr+Hu78diG56QI1B8dCrHxza8IKnfwFPrF9VgMvAS6d/uW8la7FxUqZiEdW1zdc7H1YjQXI6fZFanPgxjsXoRio/2ZCVuDbZikjoBp9YvqsOJpE/wrWRBMO8duQZ35zYBB8U2vAMOAfpx9/ObsQ0vAd9C8dGuXBPbcAdSJ+DU+kW1uIH0SX4kWYRdJSwlH8OPk88A20a2vR2mAs/hJ4ntGtn2MvAu/CTHqsfHVvKqH5A6AafWL6rFjsArpEvyI8lqYPeAfjvThdUm9uHszZRrptONFXrw4dsNkW0vE75m11WOj8fIq/BR6gScWr+oHu/H9tpjJ/mRpB84LqjHnvgc/py+jnI8CLuAf8afX7OjWl8uZqP4aCV/HtV6d1In4NT6RTU5BlutDZ3cW8kAcEZgX70xAXgZvw/5lG963fh9uL+FNY+oK/tjY6D4GF6WYd+hnEidgFPrF9VlLtbtNmSCH036ySj5N1mA30H4KWn2fKfib1l3sGwATo/oR1k4nTBfpirFR6mqe7VJ6gScWr+oNh8kzZmA1WSy7D+USdhBLZ+D8SxwcEQfDsHfga6R5GpgYiyHEjIR8zXkWFYhPv6Lcp1raJfUCTi1flF9dsUKt4V8hg2WRZT8wF8rjsP/oPQDl2JlVkMxBbvH7eO0ejvyW2CPgP6kZg/MxxhjmXt8nBTQ7pC4+p27flEfPo2feiYjyVpsBT3HF4E/4MeEGaTlwJfxWxWuF/hL/FRw61RWY3tNVWMu5lvs8cwxPm70aGtsXH3PXb+oF1OxOi4+nwXrgG9Twgp/LszEKpqFetCvAr6DtV0tchq8C/gIVlfZtXGLqwwAF1KNmV835otrh8i6xMfrwIwC9pUFV/9z1y/qyQTsXNO9FFsRHADux879eGnsU4TQ16hOAm6KoGcFcBfWI/lJbH/2DWB94//3Ym2L9wDeiyWFIylfv/Z7gU9hp8FzZBfgesrX56Cs8bEVOAX4SWA9IXFNoq7PhtT6hegFPgocjp1Fejf2Nt+LJfr12PPmOeyszwPY8+iNFMbG5hLSvgnmJq9jd1Bz4whs4pJ6/HKSfyg00u/E1QbpF0IEYxxwD+kftjnJZuBr5NEwaAxm62bSj1tOchvWJMkVVzukXwgRlKnAo6R/6OYmPwOmFxjvWEzHbEw9TrnJY8B2BcZ7OFxtkX4hRHB2Ifzd+irKy9hhtLJxMPo8i8gzwM4FxnskXO2RfiFEFPZESaOI9AHnFRjvUJyH2ZR6XHKT54HdCoz3aLjaJP1CiGjsBDxM+odxjvITbDslFb3YKf/U45CjPI61RPaNq13SL4SIylTgbtI/lH3IAFbE4bPAxgj6lgLv63TAPfC+hu7Q/m3ExrIMtQR8yZ2E61fgapv0CyGi0w18HdhC+gd0UVkPnDrIp32BxRH0vgX8rw7G2pU/I05XrKXAAYP0nhZJbygZAK4Axncy2B3iaqP0CyGScQJWECH1w7pTeRDYbxh/Yi6TX4s1XwrFpIaOGL5cz/B1/GcBD0WywaesBE5sb5idcLWz7volo8sG7KXmcurdylwEZFfgh6QP9nakD7v33qps73ziHJR7GDtc6Zs9iXNWow8bq9EYB/wtsCmCPT7kemDHFj75wtXWuuuXtC+bgSsJu6Ilaswc4CnSB/pIciudzYIPAV6IYNca4E86sKsVf9L4naHtfgEbo3aZBfw8gl1F5Rng+A788YGrzXXXL+lc7sZvsy0h/psJwLnAS6QP9KY8BBxd0J/pwC0RbBzA2uGOK2gnjZ+9lDiH726heJGjY4BHItjYrrwMnI3b2BfF1fa665cUk3vRJEAEZDxwFulWBAaAX2CrEq4NQ7qArxKnXO79FLtu9q7Gz4a2b3NjLHyM6Sewkrqpbgs8hiX+iY6+uODqQ931S4qLJgEiOF3AbOCfiNNf/gXgIsIceDkS61cf2odOGwod0/iZ0HYtb4yBb2Zhn9mLEXxYBXwf6/xVBlz9qbt+iZtoEiCiMRE4Dusw+DB+rhD2YW++/wB8mPDtQXcmTnOkLdg1y9EaCo0h3lXMe/BbAnc4urCyyRcAv8LPocHNWB+Lq4CPk2aZfzRc/au7fom7aBKQKbn3wp4OHAjsg93B3xs7fd2LFRvqwXzcgB1q24i9JT7dkCeA/wTejGx3N/D3wFcI/xncBpwOrBjy9zOAHxC+9fBW7O28uQUSk22AQ7Hrmnti8bFb4++b8QEWH+uwOHgBeBYrWb0YWNT4f2XFNYm6xl/u+oUf7gOOxb5LQog2OAG7Lx56hv4K8NFBej+E1aUPrXctcIqHcRLlxTVGUuuX+JP7Gb6WhxBiBHbHigqF/nJuAhY2JMZ9+gcbvolq4xonqfVL/Iq2A4TokAlYydjUX15f8n3CVigU5cE1VlLrl/gXrQQIUYBPY/0FUn+Bi8qbwJneR0WUGdeYSa1fEkY0CRCiAPtgrWNTf4E7lSdJ06VQpMU1blLrl4QTTQKEKMAk4DrSf4HblX9B+351xTV2UuuXhBVNAoQoyGewZfXUX+KR5G1gQTDvRQ64xlBq/ZLwokmAEAX5IHYvPfWXeKi8CBwW0G+RB65xlFq/JI5oEiBEQaYBN5P+S9yUmxs2CeEaS7nrrxo92FW+EM+Nql4RnIJVqL0AuB0rMrcKq7Da1/jzUqyT6WXAacAOSSwV2dIF/BXQT7rE39+wIfcKksIfqRNwav1VRJOA1kwEzsBWNoo0eRsAHgDmAdtFtl1kzBHAMuIn/2UN3UIMJnUCTq2/qmgSMDzbYW/6K/A3Huux/jahe6WIijADq/EfK/nHaOQj8iR1Ak6tv8pMBu4izDMlxzMBpwKvEe45uxFrzjY+kj8iU3YC7iTeBODOhk4hhpI6AafWX3W0EgC7Evd5+yDwniieiew4Am0BiPKQOgGn1l8H6jwJOAh4lfjP2zXAiRH8E5mgQ4CijKROwKn114U6TgJOxtobp3zeqrS60DVAUVpSJ+DU+utEnSYBc0j7stWUATQJqDUHA8+RPhCHynMN20RaUifAuuuvG3WYBHwAWEf6Z2xT+oETgnosSsnnsXK7qQNwJHm7YaNIR+oEWHf9daTKk4CdSLPn30rWAHsE9FuUiB6swU7qoGtX1AwoHakTYN3115WqTgJubNPGFPIboDuc66IMqB2w6ITUCbDu+utM1eoEHO/J9pCyMJj3IjmfJu2pU1fZ0PBBxCN1Aqy7/rpTlZWAycArgfzwKetQTZbKMQG4gvTB5Uu+D0zyOkJiJFInwLrrF9VYCTg3kP0h5MJAYyASsDtW+Sl00PQDX2pIjOstDzZ8E2FJnQDrrl8YOa8EjAGeCmR7CFmPrmFXghOAlYQPmFeA2YP0fgh4IYLetcAp7sMkRiF1Aqy7fvF7cl0JmBvI5pDi5fZV7hXdZgAHYgfn9gX2BnbEAnFa479d2N70OuBNLPE93ZAngEVYE4aYdAN/D3yF8J/B7di+/OtD/n4H7PT+0YH1bwUuAr6Ktc2MyWTgUGA/LDb2AnYDtsF6ePdg478ei5GNwIvAs1idgyVYy841ke3uBNck5hp/ddcv3kkPcCvvfOGoE4uBa7Hn7guNv/sj7Dl7FjDLk54HgA97+l3ZMAmrj3wZ8ChWJcl1JrUJ+DW2r/JRwj8Qdsa664WeIW4BvgGMHcWWsY1/syWCPTE6Co7BHjwXYl8QH1sdW7CJwNXAsZSvU5erf9IvfBNyO6Cs0gfMo/Xz9tzGv3XVN4C9AFeeLuBwbFa1lvAf5EtYb+YQV9qOBJZH8GEFVsqyXebgt7/1SLK8MQa+OQD7zF6K4MMa4AcNP8rw9ujqj/SLENRpEtAHHNXB2ByFn0nAJzvQmR0TgLOBZ0j3wf4SOA73B30Xv18CD23zr4CZBWyc2fjZ0PZtboyF65iOwc5Q3B7B5pHkCWxGv42jLy64+iD9IhR1mQTMKzA28z3ovbSA3tIzCSt2UKY7mY/R2Rv1YKYDt0SwcQDbGhlX0E4aP3sZfrZWWsktjbEpwrHYXlvquGjKMmwikGJ7wNV26Rchqfok4HFGX/YfibG4P8NuKaC31BxPORvfNOUXdLY1cAh5nrY/hTjbLS9gY9QuB2CrMqnjYCR5HjtRHBNXm6VfhKbKk4AFDuOy0FH3Uw66S8VM4Cek/zDbkU3A39H6TXs+fvZ5Wskj2Ol23+zV+N2h7e/Dxmo0xmGHFTdFsMeH/AjYpYVPvnC1VfpFDKo6CdjPYUxmOepe4aC7NMwFVpH+g+xUHmL4Kx29wPWRbLiOsBX3JjV0xPDleoa/53sAcSYivmU1cHJ7w+yEq53SL2JRxUmAS22CXkfdbzvoTs544u03h5INwGmDfJqFNcUJrfdN4M87GWxH/ryhM7RfT/LOSdX/jd3NT/05F5UB7KCOy7mMsuM6Rqn1l102YHvFlwP7exiv1FRtEqAJQAGmUZ0gGMDunX+WOMlqKfZWHJsDGrpD+7cRG8sLI+iKJfcAUzse8TxwHZvU+nOSzcCVlK8WRadUaRKgLYAO2YU8292WQX6IVbBLxZSGDanHIUd5HNi18yEvPa7jklp/jnI38brkhaIqk4AvOoxB7Q4B7omdlE79oeUmfbidNvXNAuIccKyavAjsUWC8y4zrmKTWn6vEbJUbiipMAhZT/BrgEkfdWV0D3AUl/yLyEnBYgfEOzWHEqbxXNXmWeDcEYuA6Hqn15yyaBJRDWt1iGo7zPOjNphDQNKyYTuoPKje5Fdi+wHjHYnvMxtTjlJssoXgRpLLhOhap9ecuVZkE3E36sSwqfXTWVO1o/FxpPrUDnckYT/4zvNiyGfgbrNxt2RmD2RqjzHGV5A6sK2TuuI5Dav1VkCpMAsZjBxxzfY4065mMth3QjW2f+kj+Wyj3y+F/cxnpP5yc5DU6ayxRFo7CbE89fjnJJYVGuly4jkFq/VWRKkwCwK46XobtrW8g/bh2Kkuww32zsM+jp/Hn83Hf8x8s9xcd4MGE7mY2F6vwF1rPa8BdWAvYJ7GzBiuwK2VgfeFnALsD78X2r48EdghsV6fcC3wKqy2fI7tgBX0+ltqQIZQ5Pk4F/i2CnlBsdfx512eDq/4qcR/WJ2NDakMy4yTg31Mb0SGfx1qUl5aZhK3wtxJbMuqklvxguoBDgasavyvlrHEAuIhqLAl3Y76kLvCUS3ysAHYsaGMZcPU/tf6qSVVWAmIyhjg1TnzJOuxcXakJVdv/VWyJZbJHW3uwJZplgWweTVYTv4FMDOZivsUezxzj40cebY2Nq++p9VdRNAnonC+Q/nNrV74daAy8cTz+nd6EVYfz+WAfSg9wMfGazvyW6t0LH8wemI8xxjL3+IjRNyAErn6n1l9V0SSgMyaTx7XmtZRv6/odTMJ/S9+ngAMj+nAQ8IxnH4bK1cDEWA4lZCLma8ixrEJ8LCXPngGufqfWX2XRJKAzTiT9Z9ZKylQQblhcyxsOlZtIU/52W+DmAva2kg3A6RH9KAunE+ZUb5XiY15UD/zg6nNq/VUXTQI64wbSf2YjySJKfk5sAvAK/hy+hmJlFn3Rjd92uG9RjY5eRdkfGwPFx/CynPxWhVx9Tq2/DqJJQPvsiN8c5ktWY7eUSs3Z+HP4GsJfH2yHLvw+5GfHNb9UzEbx0UrOimu+M67+ptZfF9EkoH3ej+21p/7MmtIPHBfUYw904W9f9CbSvtkNpRv4KX58uyGy7WXiRhQfrWQx5ZjYtIurv7nr903I2viaBLTPMcQ7DD6aDABnBPbVC4fjx+GnSNvydiS2xRq5uPq3CXhXZNvLwEyE6fY/AAAaHklEQVRsJqv4aC05VYJ09TV3/SHQJKAczCVtNcJ+Mkn+ANfi7vAm4p7m7pSD8ZPEvhnb8BLwLRQf7cp1sQ13wNXX3PWHQpOAcvBB0pwJWE0Gy/5NJuFnz+TC2IYX4FLc/VxGHo1+fDEWO+Cm+GhPVmHNUXLA1dfc9YdEk4BysCvWvCvE5zCcLCKDA3+D8XF/8lXCFnHxRS/wO9z9LVu9/JAcgeKjUzkhtuEFSZ2AU+sPjSYB5eHT+HmRGUnWYvf8S33Vbzh8dPxbGN3q4nwFd38vjW51Oi5H8dGpXB7d6mKkTsCp9cdAk4DyMBXbwvXZ+XQdVt631BX+RuNR3AZgJXm83TXpwb3R0aPRrU7HYyg+OpVHoltdjNQJOLX+WGgSUC4mYMXN7qXYuZ8BrKXvOWTQ2Gc0ZuDe+e3K6Fa7813cfN4CTI9udXymo/iocnykTsCp9cdEk4By0gt8AjvofBvWcnwVNjHoA95o/N3PgEuwFuDbJ7E0AMfgHnwfim61O4cR5osoUXzUSVxJrT82mgSIUnEebkH3GnkVPmnSRdgDIRLFRx3EldT6UzAZuIswn8f92ButqAE+rqLt4/jzzesVubEVuCe1ETVA8SHEO9mI3RK5O8Dv/gjwczQJqAU+JgB7O/78Ig82pOKB1AbUAMWHEH/IRuz69X0BfvdHsP1qbQdUHB8TgJ0cf/5JDzakYmlqA2qA4kOI4dmAHT67O8Dvng38Aq0EVBofEwDXWeIzHmxIxdOpDagBig8hRkYrAaIwPiYAro1ZVnuwIRU5254LOY9xzraLfNBKgChEGVYANniwIRXrUxtQAxQfQrRGBwNFx9SpIY0QQlQZTQJER/iYALi+oeW8v6QvQ3gUH0K0jyYBom18TADWOf78dh5sSEXWNZwzQfEhRGfoYKBoizKsALzHgw2p2Cu1ATVA8SFE5+hgoGiJjwnAcsef39eDDalwrYIoWqP4EKIYWgkQo+JjAuBa7OQwDzak4sOpDagBig8hiqOVABGU+dS32cvrpG+mUnVRfFRbXEmtPxfUQEj8AWVYAdgBOMSDHbH5MDAjtRE1QPEhhDvaDhBB2B4YwG0GeVV0q935Hm4+bwGmR7c6PtMxXxUf1YyP1G/gId5oO5ENwGLgcmB/D/6Epge4lzBjcS+aBNSSR3ALnJXYElUu9AKrcPP5kehWp+MxFB9VjQ/XpJFav0/ZDFwJjPfgV0g0CRCAv0qAdzr+/HbA2T4MicTncb/jfbcHO3JB8dE5d3uwQ8RlLHAucBvlToIbgGMJsx0wG7iVcvsvPHMC7jPHZeQRNFOwg2mu/h4f2/CEHIHio6rx4epnav2hJIc3Ya0ECC9MAtbgHjQXxza8AJfj7udKyr9M6JOxWL0IxUf14sPV19T6Q0oOSVCTAOGFa3APmE3AQbEN74BDgH7c/bwmtuEl4FsoPqoYH66+ptYfWnJIgpoECGc+hp+AeQbYNrLt7TAVeA4/Ph4Z2fYy8C78JEfFR7lw9TW1/hiSQxLUJEA40QU8jZ+AuRnojmv+qHQDt+DHt8fIs7CND25A8VG1+HD1N7X+WJJDEtQkQDjxOfwFzHWU40HYBfwz/vz686jWl4vZKD6qFh+u/qbWH1NySIKaBHTOFOA44ALgduxFeBVWy6Ov8eelWCvly4DTsAJnlWMC8DJ+H/Ip3/S68ftwX4aNUV3ZH3gLxUeV4sPV59T6Y0sOSVCTgNZMBM7AyiBvpvNxGAAeAOaRd8vzP2ABfgPmp6TZ852Kv2XdppwT1YNycTp2/9j3A0XxkRZXn1PrTyE5JEFNAoZnO+xNfwX+xmM9cAmwc0Q/gjEJO6jlM2CeBQ6O6MMh+DvQ1ZT/olz71rGYCFxN2Aeq4iMdrn6n1p9KckiCmgT8ni7gM/ip8TGSrAe+BIyL5FMwjsP/4PQDlxK269QU7B63j9PqQ+WkgHaXlT2A3xLngar4SIOr36n1p5QckqAmAbArVs00Vlw8CLwnimcB+TFhBmc58GX8Bk4v8JeEm93d6NHWXJgLrCb+Q1XxERdX31PrTy05JME6TwIOAl4lflyswbo3ZstMrKJZqAFaBXwHOIxip8G7sDaW38O9ccto8jr1agvbDVyEe4dIxUceuPqfWn8ZpOxJEOo5CTiZMOeW2pV+4MzgXgbkJOIkgtexO+YLsSYX+2CtVMc3ZHrj744FzsfeuHwe4hhJBrAgqgu7AP9Bui+M4iM+rmOQWn9ZpKxJcDB1mgTMIcxWX5FnRNaTgEtIP4ip5Nsexi8XjiLsAZkqShXiow+3MXA5s9HrqPvtAjrrlASHow7+fwBYR/rnQ1P6sYZ7WTIOuIf0gxhbbsOa4FSdMcDfUOwubJ2lKvHxBm7jsJ+D7lmOulcU1FuHJDgaVfZ/J9Ls+beSNdih6iyZCjxK+kGMJY9RseIOI7A91vs79XjnJlWKD9fy31900L3QUfdTDrqrnATboar+39imjSnkN+R5VRiw/eHnST+IoeVpbBZZdQ4DXiL9eOcmVYsP1wngYoqthIwFljjqvqWA3sFUNQm2S9X8n+vJ9pCyMJj3EdgT/wVUyiTPA7t5G63ysgD3vd86ShXj43Lcx2V+Ab3nedB7aQG9Q6laEuyUqvg/GXglkB8+ZR2Zv0DsTDW3Ax6hIqUcR2EK8EPSj3WOUtX4OA33sekDju5A59HAJg96Ty3k8R9SlSRYlCr4Py+Q/SHkwkBjEI2pwN2kH0hfcifl7FHvkwOwjlahx/JN7NrLxRF0KT7c2QE/V337sJWA0bYDurHVJx/Jfwt2hsUXVUiCLuTs/xjsPEjq50S7sh6YFmQkIjKOchSMcZGBhg/ZHsxok89iiTn0eC7FJhpNPgVsjKBX8eHGA/gbsyXYPucs7KHf0/jz+bjv+Q+W+wOMQ85J0Ae5+n9SIJtDyueDjEQCTsD9KlEKWUnmpRrbYBLWcjfGeN6IbTEMZRbwUCQbFB/FyGn5tCmhOi/mmgR9EdL/HORxbJVqf+xcweTGnxc0/p8vPb9u9wPJgV3Ja2/5emDHICNRHvbC9q1Dj2UfdqBrNMYBf4efpV/Fh3+2I23J1E5lHWGXUDUJqN8koA+bCI+2hTUWOBc/B6gHyLuE+LDModx7Mc8AxwfzvjycAqwl/Hi+iF0nbJdZwM8j2KX46JycKn7GqMCoSUB9JgF9WCXUdjkKP5OAT3agMxsmYLOkMt0xfxk4mwr0aW7BOOAy4pzLuBWrwV+EY4izOqH4aJ+dscNJqT+LVrIWO7gYA00C6jEJmFdgbOZ70OvjGmtpGQ+cRdoVgcewB/vEwL6WgZnArwg/ppuBr2Enb13oAj6BldRNdZC0TvHRDl8i3Xe1XVkQzPvh0SSg2pOAxyleyGqxo27XQlZZ0AXMBv6JOP3lVwHfBw6P4VxJmEOc7nev0dlSWbvMwk7bvxjBhzrGR7uMAx4k/UN5JFlEmhsZmgRUdxLgMqFMWco6SyYCx2H7jQ9jd3ldP8DNWGGiq4CPU69l3LHAN/Azjq3kP7By0CHpAj4CXICtZvg4NFjn+CjCe7DGJakfzENlNbB7QL9boUlANScBOTaz+m+6XH9BYqYDB2K93PcF9sZOX/dixYZ6MB83YCd/3wReAJ7FShIvxt4K1kW2uwzsAPwLnVVgK8JWrKjPX2PJNCbbAIdiX9I9sfjYrfH3zfgAxYdvTgR+THnqH2zG6rz/LLEdPdjZl9kBfvd9wLFYLJeVkP6nYgp29qUIvbg9W/rQ9qMowGzi1L1ejT14Rf04k3IU+RoAzgjsaydoJaBaKwG9DmPR66j7bQfdooZ0YQe1+gn/xfgtGfevFl44kzixNpL0U67k30STgOpMArLeAhD1YVvgJ8T5UlyNlqaEcQJpzgSsxs4LlRVNAqoxCfiiwxjoEKCIwoFYkZrQX4YNwOmRfBL5sAfwG+I9lBeR9sBfu2gSkP8kYDHFrwG69raoxTVA4cb/At4i/BfhCazmtRDD0Y298awjXAyuxa5lleXwYTtoEpD/JGB+Ab/P86C30oWAhBvbYPfVY3wB/j/K/6AR5WBHrGaDz6qB67DyvrEq/PlGk4C828P30dltqqPxc0X51A50ihqxL347T40kbwNfiOSTqBbTsNj5NcVuCwxgLX3PoQK90dEkYDxwJXZlM3VCLzoJmM/o2wHd2AqVj+S/Bdi+jXEVNeM0wi6zNuV54OBIPolqMwNrbHIpdlf/SaxFeF9D3mj83c+wImCnUs2HX90nAWDbiJdhe+s5dZhsyhJsq2sWNt49jT+fj/ue/2C5v+gAi2rSjVXAixHk/wdrASuE8Mtk4C7CfG/vx+3eelU5ifQTh07lnCAjIbJkN+zkc+ig6wf+H/KvIClEmdFKQFzGAEtJn9TblXVUY9tLeOB4YCXhg+41wpcNFkIYWgmIyxdIn9jblQsCjYHIiLHA3xOn3OpdwE5x3BJCNNBKQDwmAy+RPrm3krXke9tFeGIGcBvhg20AuAJ1wBMiFVoJiMdxpE/wrcSl/bCoAEcAywgfaCux7QUhRFq0EhCPG0if5EeSReRV5Ep4pAs7gBejucoi7GChEKIcaBIQhx2J0ym1U1lNHuWtRQCmAT8lTqBdiRXlEEKUC00C4vB+bK89ddJvSj/lbmwlAnIwVnQndJCtw4oICSHKiyYBcTgGPxX7XGWAcra0FhH4AlZuN3SQPY6VDxZClB9NAuIwl7TVCPtR8q8lPViDnRhB9n2scZAQIh80CYjDB0lzJmA1WvavJftjrXVDB9hbWKtgIUSeaBIQh12BO4iX/BehA3+15NPEWXJ6ATgkjktCiICoTkA8TgReJtxzeQPwV+iqX+2YCFxNnNnlT4Bt47glhIiAVgLiMRX4JlYa3dcYrwO+jSr81ZI9gN8SPvH3A19CjXyEqCKaBMRlAnA6NjZFarMMYCss56DGPrVlLnbYI3TyfwWYHcknIUQaNAlIQy/wCeBbWIn2J4FV2MSgD3ij8Xc/Ay4BTgW2T2LpEHJ/G5wBHAjsg11j2xur5DQZm1VNxnzcgC2zvIntfz/dkCewAxcbI9vdjQXLlwn/GdyOnS14PbAeIUR6eoBbCTPhvw84FnueChGdSdhBjMuAR/HTCW8T8GvgQuCjhE/IuwD/4cHuVrIF+AbWNVAIUR+0EiAqQxdwOHAtccozvoQt07wvgC9H4ffwyEiyApgTwH4hRB5oEiCyZgJwNvAM4RPmSPJLrBiD66rAGOBrwOYINv8KmOlorxAifzQJENkxCVhIuToyPYYd8ijCdGxPLrSNA9jWyLiCdgohqocmASIbjgeeI33CH0luo7OtgcOAFyPYtRY4pQO7hBD1QZMAUWpmYgVqUif4dmQT8HVav2mfh10BCW3PI8BeLWwRQtQbTQJEKZmL3ZlMndg7lYcZfjVgCnBjJBuuw7ZMhBCiFZoEiNLQDVyAn6t8qeQt3tmu8b3Akkh6P9fJYAshBOodIErANMLNRFPIxcCZWKGh0LqWAgd0PuRCCAFoJUAkZGds3zp10s5RbsKaUQghhAtaCRDR2RN4nvSJNDfpAxYUGG8hhBgJrQSIaOyCkn8ReRn4SIHxFkKIVmglQARnW+zUfOpkmpvcgTU3EkKIUGgSIIIxnmod+Ishm4G/wUoICyFEaLQdIIJwOekTak6yAjim0EgLIURxtBIgvDKXOPf8lwP/ih2UmwPsjV01HN+QaY2/mwN8EbieOF35OpX/wM5KCCFECrQSILwwk7AV/lYCVwKHFLSvCzgUuKrxu1Im/gHgIqw4khBCpESTAOFMqNr+r2LdAid7tLUHOB9YFsjm0WQ1tlIihBBlQZMAUZhP4D9o+oErCLuPtA3W6CdGE5+twEPAewL6I4QQRdGZANExk/Df0vcp4MCIPhwEPOPZh6FyNTAxlkNCCFEArQSIjliI3yC5CeuwF5ttgZsL2NtKNgCnR/RDCCFc0CRAtMUE4BX8Bcc1wNioHryTbqzlri9/3gL2j+qBEEK4o0mAaMnZ+E3+XXHNH5Yu/E4CPhrXfCGE8IImAWJEuvC3b34Tad/8h9IN/BQ/vl0f2XYhhPCFJgF/yBTgOOAC4HbgaewK/BbsQPkqrI37z4HLgNOAHZJYGpDD8RMET5Fmz78V2wLP4u7fJlTsRwiRL5oE2AHuM7DbDJvp3M8B4AFgHrBdZNuDcC1+kmPM0/6dcjB2HdHVz2/ENlwIITxS10nAdtib/gr8+bseuATYOaIfXpmIFbRxHYhvxza8AJfi7ucT0a0WQgi/1K1OwKmELSG/EatDMz6SP944EXfnX8Vvdb9Q9AK/w93fvWIbLoQQnqnDSsCuwJ2ES/xD5UEyKxB3Ge5OL4xudXG+gru/X4putRBC+KfKk4CDsJfTWMm/KWuwF+sseBQ3Z1eSx9t/kx7cGx3dE91qIYQIQxUnASdjhdtiJ/+m9ANnBvfSkRm4t/y9MrrV7nwXN5/fBsZFt1oIIcJQpUnAHPwc+HaVAUo+CTgGdyc/FN1qdw7D3e8DolsthBDhqMIk4APAukA+FJF+4ISgHjswHzfnllOOin+d0gW8jpvvfxbdaiGECMv/397dxOhZVQEc/3daqKQdGUVFIJqIKCpEohhEUZPaioCErnSjiQuMggUblbhxa4zfisaPREmMu8bEGA26IJ2CH1E2UAMII9oGNYppaUunC8fS1sV9mzSTznTe99yP5878f8nJNJ153uecu7n3fT7O7XkR8Era3PM/VxwBLs9d7FSGz7gyePweUoG9OUXKPeKaHIlI0oAcA24Gflfgs98F/Jpyi4BvM8xGbRcCu0hdaQflAWIrm531U84muvPh/fVTlqQqersSsL1QrjljcG/LPUasoJvqp5zNLcRq/0P9lCWpml4WAZvIu5NtqThKuk0xGPuJFdRVw4NFXkes9ifrpyxJVfWwCNhRKL8S8ZUM9WZzkFgxF9VPOZuXEav93/VTlqTqhrwImCJtQtd6Yl9pzAMvCdSb1QKxYrrre3yGjcRq/2/9lCWpiaHuHdDDvf/FceeEtWbnAsAFgCStRMkrAUOIx0gPtl9FWvBsGv17J/Hn5c6MwTw/5i2AyeNA/ZQlqanVuAhYID1HsH6ZutcDdxH/0nyK1CHw5csPcx37iRVyRf2Us4k+BLivfsqS1NxqWgQsAFvHqH0reRYBHxrjnGeVoxHQseDxvS8AIuazZCFJfSnZLKi2zwC7x/j73cA9Gc57ffQDciwAng0eH+0k2FI09+jYSVKvVsMi4HHgBxMc9z3gieC5w3NnjgXAXPD4d2TIoZVo7tGxk6Se9b4I+BFwYoLjTgD3Bc8dvQI9iAXAFvrcDGiKlHuECwBJa13Pi4AHGh0LA+kFkGM74LdXzzruncTr3lY9a0kaph4fDJy09wCjYyPnDr9GnuMKwCOkZCJ63BY3mvNJ4NEciUjSKtDzlYA1bS+xlcxzpIYJvZgGDhGr+ZHqWUvS8PV0JeBNgTqvDp473EcmxxUAgNng8S8FPpEjkUruJH7/JTpmkrQa9XQl4MbAse8Lnvtw8PhsbiW+kvoX+fd3LuHFwH+I13tz7cQlqSM9XAl4nOW7/y1lPek1wMi575/gvEVcABwhPphfq534BL5FvM5DpH0EJElL62ERcPcEdX0qw3m/McF5i/kh8YL+B1xbO/ExXAccJ17nJI0jJGkt2gw8SPuJfqlYYLw3uraR5rroeT84xjmLezd5BvOvwIWVc1+JGVLv/hw13lA5d0nq2fnAd4AXaD/hL7UIuJvlbwdsIO0KmGPyP0HajG4w1gFPk2cwf0EarKHYQLrfkqO2OfpsfCRJrV0FfJN07/0Y7Sf+xfEE8GnSE/6bR3E1ab+A6D3/M+P30YEs4ePkK/A+hjFRrgN+TL66bq+avSRpObfRfuEwbtxRZCSCNgL/IO8ioOWVgA3knfyfIV3KkiQNwxTpymzrSX2lcZSBtAE+m53kLfaXtHkmYIZ8l/1Px46qFUiSVuKTtJ/YVxpfLjQGWVxAepAvZ8F/A95WsYbryPfA3+mYw1f/JGmINgF/p/3kfq54HnhFoTHI5v3kL/w4cC+pEU8pm4AvkedVv8Vh4x9JGq5baD/Bnyt2Fqs+s59RZgCeBe4hb9fAaeBz5Onwd7bYlTFXSVIZu2g/yS8VDzOst+OW9SrSJj+lBuMQ8F3geiZ7W2AdaUvf7xPf2Ge5OABcOkF+kqS6Lgb+SfvJfnEcBl6Tu9jSr9ndBvy8wnkOAHuAPwJPke7fHwTmR7+fJjVNuBx4I2nRsIXyjRROkfZJ+FXh80iS8rgG+A1lbzeP4wVgO53OI1+n/eqpVQz6aU1J0lndSJ6OfdE4CXy0cK1FnQc8RPuBrB2zo9olSf3ZTttug8fpfPI/bQb4E+0n5Vqxl2HuZyBJWrm30uaZgMOktxJWjUuB/bSfnEvHPuCSTGMmSWrrMmA39eaQhynwwN8QXEH+BjtDin3Aa7ONliRpKD5Meg291PzxPOk9/25e9ZvEJazO2wF78Zu/JK1mM8AXyNsz5ijpgfHBd/jLZQZ4kPaTdq6YxXv+krRWbAQ+AvyWyTrHniRt6XsHDTf2abnd7nnAF4HPNs4j4hTwVeDzpHc1JUlryzRwA/Ae0p41ryZ9m58mTfTzpL40+4AnSf1q9oz+b827lTQQrb/FjxsHgQ8UGA9JktaMy4Cf0n5SX2nswva+kiRlswX4M+0n+KXiaeCmYtVLkrSGbQTuYlh7Mz8D7BjlJkmSCjof+BjwF9pN/HPA7aNcJElSZdcC95J2/Ss96R8BfgJso9+3EyRJWlZvE9yLgPcCW0c/3wxMBT/zJKkx0Syp3eMssBD8TEmSBq23BcBiFwFvAa4E3gC8HriY9P7lDLB59HfHSN/s50kdnOaAp0i3Fx4FnquatSRJkiRJkiRJkiRJkiRJkiRJkiRJkiRJkiRJI/8HBTn3I7RjoVEAAAAASUVORK5CYII=;" vertex="1" parent="1">
          <mxGeometry x="650" y="320" width="90" height="90" as="geometry" />
        </mxCell>
        <mxCell id="8HKQdC73j9jO4bcsfkeK-14" value="" style="endArrow=none;html=1;rounded=0;exitX=0.5;exitY=0;exitDx=0;exitDy=0;dashed=1;endFill=0;" edge="1" parent="1" source="8HKQdC73j9jO4bcsfkeK-6" target="8HKQdC73j9jO4bcsfkeK-15">
          <mxGeometry width="50" height="50" relative="1" as="geometry">
            <mxPoint x="440" y="500" as="sourcePoint" />
            <mxPoint x="695" y="440" as="targetPoint" />
          </mxGeometry>
        </mxCell>
        <mxCell id="8HKQdC73j9jO4bcsfkeK-15" value="AuDrA model" style="text;whiteSpace=wrap;fontStyle=1" vertex="1" parent="1">
          <mxGeometry x="655" y="410" width="80" height="30" as="geometry" />
        </mxCell>
        <mxCell id="8HKQdC73j9jO4bcsfkeK-16" value="Compositional Stroke Embedding Model" style="text;whiteSpace=wrap;fontStyle=1;align=center;" vertex="1" parent="1">
          <mxGeometry x="207.25" y="803" width="128.5" height="30" as="geometry" />
        </mxCell>
        <mxCell id="8HKQdC73j9jO4bcsfkeK-17" value="" style="shape=image;aspect=fixed;image=data:image/png,iVBORw0KGgoAAAANSUhEUgAAAgAAAAIACAYAAAD0eNT6AAAACXBIWXMAAA7DAAAOwwHHb6hkAAAAGXRFWHRTb2Z0d2FyZQB3d3cuaW5rc2NhcGUub3Jnm+48GgAAIABJREFUeJzt3Xe8JlV9+PHPFtqytAWW3heXpiBIExAQFGusKGLFgiUaY2I0MSSGmBhUVAQ1Go29oKggqDFSRQJIEwtlEeltF5a2u7Dl3r2/P869Py+XW55nzpk5Uz7v1+v7YoGdme/MnDlznpkz50xDktREuwEvBg4a/vNcYL2sGSmHJcAi4HrgEuAc4IasGUmSSnE48H/AkGFMEJcAhyFJaoV5wM/If3MxmhM/BXZCktRYzyI85s19QzGaF4uBI5AkNc5xwCry30iM5sYq4E2MMW3sf5Ak1caRwP8AM3MnosYbAJ4HnD/yH2wASFI9zQOuADbKnYha40FgX+AWgOl5c5EkTeA0vPkrrTnAqSP/4hMASaqfQ4GLcieh1joSON8GgCTVz/8Bz8ydhFrr/4CDbQBIUr3sBlyXOwm13i72AZCkenlx7gTUCS+yASBJ9XJw7gTUCYfYAJCketk1dwLqhN3sAyBJ9bIUWDd3Emq9JbkTkCQ90SDFh3ydkyFf5bMxxcvKoE8AJKlehiKWtU7vnsLlxT4AkiR1kA0ASZI6yAaAJEkdZANAkqQOsgEgSVIH2QCQJKmDbABIktRBNgAkSeogGwCSJHWQDQBJkjrIBoAkSR1kA0CSpA6yASBJUgfZAJAkqYNsAEiS1EE2ACRJ6iAbAJKkXkwHjgXOAe4BBoChGsfAcJ5nA6/B+50kqeZibnpl2Qn4TWRuueNqYMfUB6YGllPseCzPkawkaWJ1awDsBCyKzKsusRDYIe3hye5Wih2LP/lIRJI0kenAGcCmuRNJZC5hf9p07/tlweUuSpmEJClenZ4AHBuZT13jmJQHKbNDKHYMDsqRrCRpYnVqAPwkMp+6xo9THqQa+B797f938qQpSZpMnRoA90bmU9e4O+VBqoHZwOX0tu+XAuvmSVOSNJk6NQBWROZT12hjD/h1gM8Cqxh/n1cCpwJrjywwrfocJUmTiLmRp67T7wG2SLzOOrgb2Dp3EiXZATgaeAYwB3gQuAr4PnBbvrQkSVOp0xOAsyPzqWucmfIgNVWbPoWQJKX13dwJlOT03AlIkjRWnZ4ATCeMoJf7F3vKuBJ//EpSp+wMnAz8ntAJ7BHC8LYnAdtkzGusOjUAIAyfuzAyr7rEQmD7pEdHklRb04ATmLxH+3LgvbkSHKNuDQAIjYCmPwm4kvYNAyxJmsTn6f0mcWKmHEerYwMAwmPzYwiD6NxNM2YDvBs4C3g1PvaXpE4pMpRt7mFi69oAkCSpEWYAN9P/TXQJsEuGfEfYAFAlHAhIbbIe4V3lTsOxDWEgjNExgzBs5hqjllsOPA48xJ87hy0C7hz1z3uABcCjFeyH0jgY+FXBZa8FDiTPiHExN3LrdPVsZu4EpII2J4x0tc/wP/cGtqxgu3cDNxIaA9cRRtj6LaGDmeplv4hl9wI+DbwzUS6SpIJmAS8ATgGuJ38Ho9GxktDD+PPAG6nXJ2Vd9q/En9sc/QF8BSCp82YTOnH9hPAoNveNvp+4CfgCYUzuTVIfGPXkvcSfx0cJ4wdUyQaApE6aBjyXMATpMvLfyFPEIOFd9PuBeekOlaZwCGnO328YNYNaBWwASOqUWcDbCe/Vc9+wy47fAx8Bdkty5DSR6cCtpDln/1lh3jYAJHXCesCHgcXkvzHniKsIj6rnxh5Ijeto0p2rqvoD2ACQ1GprA+8D7if/TbgOsYrQ1+EYwtMQpfNd0pyjqvoD2ACQ1FqvBO4g/023rvEo8HVCX4gZBY+x/mw9QqfMFOemiv4ANgAktc42wNnkv8E2Ke4lfPq4Hw7yEmMvwmBPKc5J2f0BbABIao1pwLsJv2xz31CbHHcD/wX8Bb4mKOIdpDsXZfYHsAEgqRXmAj8l/82zbfEYoc/AO4Dtej4bOp00x7/M/gA2ACQ13iGER9i5b5ZdiFsJ/QaOI8yHoPGtT/37A9gAkNRoxxPGx899Y+xq3Al8E3gXsD/VDmRTd3XvD2ADQFIjTQM+Rf4boPHEWEWY4e7LhAlu9gPWneAcdkGd+wPE5CL1zF7FSmkN4L+B12fMYTlhNMEbCJ8a3kH4NXw/YZ73JYT352NtOBwbABsB2w7H1sD2wK6Ez8naZIhwfBYQjtcNw3++EbgvY15VOR14dYL1LCHMSvnHBOuCuBt5mXX6dEJj5zWE/Z2Ln6mOZ5AwjfhVhDEovgesrmjbY8/RJsADE+ViA0CprAH8gNBDvUq3AxcAFwLXEG5gAyVtazvC8L1PJfyC3p/QQGij5cBthOM7OkYaUwuBB3Ml14dNgM0IU0VvSThfmxM+Sd2RcC5TuBY4kHDcYtWxAbAT4freq6T1t9k1hBEpbyl5O72coyfkYgNAKcwktC5fWcG2hoBfA2cAPwb+VME2J7MVoeJ/NnAk1c8cl9NKQmNgEaFB8MhwPEToJT/y7ysIv5IHCO/elw//eckE651GeBoD4anLTEIfhnUIvzjXH/5/Gwz/eQ7hqc3of478uco67guE1yux6tYA2Am4DNi0hHV3xSLgAEJn3TL0c47KzkUdMg34GuW/w74TOIHwWL7OtgPeApxJe2YzNHqP5xMvZvupTSf8asx9XNsQVw0fz9SKnKOyclHH/AvlXjSXEp4szKxof1KaBbwM+AbhV3HuCsgoP35LvJjtp3ZsZD7GE6OMAaSKnqOqJrdSS72O0KGkjAvlauCF1e1K6dYmvHs7h/DoPHdFZJQXsf0KYrad2k8i8zGeGD/u7/D3pOg5KiMXdcRTKecR90JCw6LN/VPmAn8FXEH+CslIH28mTsy2U3Mgr7Rxd3+HvydFz1EZuagD1iN8KpbywlhN+IRwToX7UQe7AB8h9MrNXTkZaeJviBOz7dQczCttpPhKZKyBgrmU9bWUWu5LpL0oHgJeUuke1M804GBCT/IHyF9RGcXjOOLEbDu1eyLzMZ4Yd/V3+HtSp/KiljuKtO/9r8ax68eaARwGfBK4mfyVltFf7PGkM9qfmG2n5vTdaePM/g5/T+pUXtRi6xIGg0l1MXwDx6jvxe7APxC+8x0kfyVmTBzXTnAO+xGz/dReE5mP8cRIMfLkWHUqL2qxj5DuQvgifodaxHqEAYdOInzLW9ZXGEaxSPHlSsz2U5tOeEqX+7i2Ia6knDqvTuVFLbU9YQz9FBfCKbS7l3+VtgBeS+hAeSM2CHJGqpkB61ah70j4Oif38W1yLCTUoWWoW3lRC32NNBfCaRXn3TUbEfpp/DPh++D7yV/5dSF+Q7rXWXWs0HfEJwFF40pgh/4Pec8K5+avMPXiKYQZ9mJH4zsXeAF+flK1HYGnEzqn7QE8jTB2uDO5pdGl2QBfRegX8AzCJEuWoScbJPziv5IwR8oZlDsbYOHyYgNAvfga8MbIdfyJMINeE2aQ64K1CZ0LdydMYDSP0CiYR3iKoN69hjC1cCp1bQConmwAqDSbEXr+rxWxjseBfQlPEVR/cwiNgR0JU+huQ+hrsDVh9sMtiSsPVXuAMAPa/YRR0zYFjki07lQzAI5mA0D9KFxemjjBiqr1NuIr+3/Dm3+TPDgcV07yd9YnDGm8MbDJ8D9H/jyL8MnohsP/nEX4emH0NL+j/zxiKbBqzH8bAh4e9e/LCI/clxCmHH54+M9Lx/y3kRv+/WPWuT7h64kUrgXel2hdklQr04n/7v8PwJpVJy5N4HTSdOx6lPDqpAwxeal7LC8qxbOIK1yrgYMqz1oa3ztI17O7zKlUrdDVD8uLSvEF4gpXGcNeSkXsReiLkuLmn+p7/4lYoasflhclN40wXWRM4Tqw8qylJ5sN3ECam//vgHVKztcKXf2wvCi5vYkrWBdUn7I0rm+R5ua/hDB9c9ms0NUPy4uS+wfiClaKMdGlWK8izc1/iHLf+49mha5+WF6U3E8pXqgWA2tUn7L0BNOB20hz8y/7vf9oVujqh+VFSU0jDJ5StFB9tfqUpSc5hDQ3/5Tj/PfCCl39KFxenI5V49mJMKhLUT9KlYgUYZ8E61hCeI2wPMG6pFqxAaDx7Bqx7CrCpD9SbnMSrON40k3yI9WKDQCNZ37EstfjryXVw8NT/5VJfYG0k/xItWIDQOOJGeL0N8mykOJcEbGs4/yr9WwAaDxbRCxrA0B1cRlwc4HllhKm+PVJllrNBoDGs1nEsjcly0KKMwj8U4Hl3gbcmDgXSWqEmyn+ackBGfKVJvNZei+/J2TKcbS6fgY4HTgWOAe4BxiIzLWtMTB8fM4mPEkq+4d2XcuLGuouiheomC8IpDJMI9zYVzJxuV0KvDtXgmPUsULfifB6L/fNtYlxNbBj/4e8Z3UsL2qwmEGAYvoPSGXaGfg0cB3wGPAQcA1wIrBtxrzGqluFvhOwKDKvrsdCYId+D3yP6lZe1HALKVaYVgNrZchXapM6VejTCY2k3DfQNsRVlPM6oHBOdgLUeO4puNz9wIqUiUjK6hjg6bmTaIl9CKNK1oYNAI3nwoLLOQWw1C7H5k6gZV6TOwFpKntQrIfvETmSlVqmTq8A7o3Mx3hi3N3f4e9JncqLWuJU+itIZ+RJU2qdOlXoKyLzMZ4YZQwuVafyopZYA/gJvRWiy4D18qQptU6dKvR7IvMxnhh39Xf4e1I4H/sAaCKrgJcAHwaWTfB3VgKnAIcTpk2V1C5X5U6gZa7MncBo03InoEbYFHgZYZS/jfnz99M/opwWrdRlMb/kU9fprwG+k3idXXYM8L3E6yxcXmwASFK91KkBMJ3wq3XvxOvtoquA/QnjpaRUuLz4CkCSNJHVwNGEkQBV3CLCcUx985cktUidOgGO2JEwpn3uTnRNjCspbxhgInOTJNVIXSv06YR32D8mfM/ubIDjx8Dw8TkLeDU1ng3QPgCSVC8xN3Lr9O4pXF7sAyBJUgfZAJAkqYNsAEiS1EE2ACRJ6iAbAJIkdZANAEmSOsgGgCRJHWQDQJKkDrIBIElSB9kAkCSpg2wASJLUQTNzJ1BzmwDbAHOH/7wBsF7WjFTEEuBhYDFhWs47gQeyZiRJmdkACGYDBwF7AXsCuxOmv5ydMymVailwC/AH4HfAb4BLh/+7JLVeV2eOmkm40R85HIcAa2XNSHUwCFwLnDcclwDLs2akLnI2QPWjcHnpUmFZG3gJ8HrgiOF/lyaznNAQ+CZwNjYGVA0bAOqHDYBJ7AO8AXgtsHHmXNRcjxAaAd8AzieukpYmYwNA/bAuGmMt4O3AHwkHxzBSxk3A8fjaSOUYpHjZ9EdOt2xM8bIy2LbW4rrAW4H3A1tnzkXttxD4NHAa8FjmXNQeS7ADssq3pC0NgFnAe4H3AZtmzkXdswj4FHAq8HjmXNR8fwTm5U5CrXdTGwYCejHhU66P4s1fecwFTiKUwxdmzkXNd0PuBNQJNzS5AbAVoUPW2cAOmXORIIwd8RPgHGD7vKmowS7JnYA64eImvgKYAXwAOIHw6F+qo2XAR4CTCZ26pF7tClyfOwm13vymNQDmAt8CnpM7EalHvwSOBe7JnYga5RLC6KRSGS4BDmnSK4BnA7/Fm7+a5VDC6ILPy52IGuVDuRNQq30YmjEb4AzgX4Bzgc3zpiIVsinwM+AzwBqZc1EzXEwoM1Jq5wAXQP1HjZoN/BB4bu5EpET+Bzia0EdAmsxOwBXAnNyJqDUWA/sRJkKrdQNgE0ILeN/MeSwBFgD3EirtR4fDjl31NwNYfzhmA1sATyH/lM6XAy8iXIzSZJ5FePq5Zu5E1HgDwFEM//qvs+2AG6l+iNf7gTOAdxP6HGxZ9o4qi60I5/c9wA+AB6i+rF0PbFv2jqoV3gSsIv8Q2EZzYyXwRhpgD+AuqjswlwN/Q5geuAl9IpTedGAv4G8Jj1yrKnt3ArtXsH9qvkMII07mvpEYzYvFhBlwa28n4D7KPyB3ETpk7VnNbqlhdiF0PP0T5ZfFRcD8SvZKTTcy0FTuG4rRnDiHUG5qb0tCx4QyD8bvCFMDz6hon9Rs0wlDTV9JueXyFkL/BKkXhxG+4859czHqG78ifILcCBsSvvEv62BcRhijvc6dHlVf0wgNgV9TXhn9DbBBVTukVphPeG11FmGK6ofJf+Mxqo+Hh8//WYTX2U+hQdYhfPNaxoG5l/CL3xu/Ujma8l5TXQSsXdmeSM0Xc72pBr5N+op0gDBH+4YV7oe6YyPg84RPQVOX3a9XuB9S09kAaLC3kb4CvR04sMqdUGcdDNxB+jL85ip3QmowGwANtQdhYJ2UFefZOGqWqrUx6XtmP45fqEi9sAHQQLOBG0hXYQ4QOsP4rl85TCNMUZ3ylcB1wLpV7oTUQDYAGugbpP219PJq05fGdTSwnHRl+6vVpi81jg2Ahnku6SrIJTg9sOrlMOAR0pXx51eavdQsNgAaZG3gj6SpGB8Anl5t+lJP9iYMv5minC8A1qo2fakxbAA0yL+QplJcBhxUbepSX/YDlpKmvJ9Qce5SU9gAaIidCO/rYyvDlfhYVM3wQtLM4vYYDRnPW6qYDYCGSPWp1OuqTlyK8CbSlPuzK85bagIbAA2wP2kqwc9UnbiUwOdJU/73rTpxqeZsADTAOcRXfldhZyg101rA1cRfA2dWnbhUczYAam5PYDVxJ+pRGjbDkTTGPOI/D1wNPLXqxKUaswFQc98j/pePY6OrDVLMffHdyrOW6ssGQI3NJ3541EtwiF+1w3TgMuKuhwF8GiaNsAEQYWbJ6z+eUOkVNQD8JeWerJ2ApxGmDr4X+DXwUInbG7E5sA9h8qKHgGuAe0re1kbD27qaMKd93cwGDgC2JAwaVdTjhLEi7iUMpPNgfGpJrCZcE9dQ/NqbAbyVMPeAJNXSTEIFHNNC+1SJ+b2EUBGP9wvrDMI72zLsB5zLk5+MrAYuJO1UxvsD542zrcHhHPZLuK0Y2wJfJ804EePFHcPrPwZYp6J9msxpxO3P3YSGgNR1PgGoqRcSd3KWApuWkNcM4As9bP8x4GWJt/1uph4YZhB4f4Jt/TWhMTPZtgaA9ybYVowjCL/Qy7jxjxePEG7A21WxcxPYjPipsI+qPGupfmwA1NTpxJ2cT5aU18l95LASODTRdl/fx3aHCI95izquz229MWJbMfYi3XC5/cZK4NPA+qXv5fg+00OOk8W3qk9Zqh0bADW0PuEXdNETsxzYqoS8DqT/Tol3EfoHxNiE/j8BWwpsUWBbcwmfTfazrSWEX6VVmkYY2yHHzX/s+T285H0dz9bAigL5jsQyYL3Ks5bqxQZADb2BuBPzxZLyOqNgPt+I3O4JBbf7bwW2dWLBbX240J4V95yCeZYRA8Dfl7u74/pSwXxH4tjqU5ZqxQZADX2duBPzjBJymkn/v4xHx0sitn15wW1eW2BbRUecu7LQnhUX+wi8jDiVaj85jR0i+8sV5irVkQ2AGrqd4ifl+pJy2iYipyFgEeHxehEPFNzmsgLbKjraXBWfPo6WanKo1PHZMnd6HDdE5HpbxblKdWMDIELMN/oT2ZnwWVdRsY/bJ7Ju5PKbEn4hFlG0o9ksYI2KthXbz6FfuTrfTeUvCV9rVCWmM992wA6pEpGkWMdTvEU2SOgcVYZdIvIaHa8qsO2VEdvrtwHQlBbxxZG5lhkrqG7mve2Imysj5msRqemaUt/VUhlPAJ4dsezvCL2y6+xzhJH11F5rAl+j/8ZXEbcD10Usn+MLBkktUEYDIGYkuwuSZVGeTSjvKwXVx26EwZSqEFPuU44cKalDUjcANiR0tivqwlSJlOwvgNfmTkKl+yDVfGsf0wDYnvr2p5BUY6kbAE+l+GdUA4T3wk3xWcrrr6B62Jhq3rH/ktD/pYhpwO4Jc5HUEakbADHTlC4gfKffFBsCX8GpituuigbAw8BNEcvPT5WIpO5IPR1wzCdJC5JlUZ3nEMbd/0ruRDrmbCafzngO4R3+bgm2tRthuujfJVjXZG4Cdi247PYJ85DUEakbANtFLNvEBgCECWXOI0w5q2qcDPyqh7+3F3AK8RM6PYfyGwA3Uny0SccCkNS31K8AtoxYtqkNgPXxVUBdXQscSfzgUrENiF7EvAIoMmmUpI5L3QDYOGLZPyXLonpHAG/PnYTGNQC8jbhf8FV0srs5YtlNkmUhqTPq1AB4JFkWeZwMzMudhMa1kjBLYlHbEQYHKtPDEcvGXHeSOip1AyDmm+kmfQEwnnUJo8eVMbiS4v0PsKrgsjMof66EJRHLVjFWgaSWSX2zivmVFFMB1sVBwHtyJ6FxPQ7cG7F82TfZmPK/VrIsJHVGnRoAS5NlkddHiRsPQeWZFbFs0acHvYppAJT9ekJSC6VuAMyIWHZlsizymkV4FRBzLJTetsS9Ky/7CdWKiGVTf84rqQN8X12OA4G/yZ2EnuBNFP9UcxlxnfQkqXZsAJTnI8AeuZMQALsA749Y/iacP1xSy9gAKM9ahAFoqphTXhPbg/AFQEwnvqsT5SJJteG7w3I9nTClrKq1LmFmymOB44nvJR8zXa8k1ZINgPL9Ex7n1KqcNnol8IsKtydJlfDGVD4/0Wq2nwKLcychSanZB0Ca3OdzJyBJZbABIE3sMsJUz5LUOjYAevMYsDp3EqrUEHGfDkpSrdkA6M0dwGm5k1ClvgxcmjsJSSqLDYDe/T1wfe4kVImbgL/NnYQklckGQO+WA28BBnMnolI9BLyMdsxOKUkTsgHQn8uBT+ZOQqV5DPgLfNIjqQNsAPTvn4Hf505CyT0EHAVckjsRSaqCDYD+rQDeSPnzw6s6vwUOwJu/pA6xAVDMb4CTciehaAPApwg3/5sy5yJJlbIBUNy/4ixxTTVEGOJ3H0Jv/+V505Gk6tkAKG6A8FXAytyJqGcPAl8g3PhfBPwubzqSlI+TAcX5LfCR4VB9DAKPAvcBNxJu9BcQvuKwwSZJ2ABI4STgxcB+uRPpkGcBv8qdhCQ1ma8A4g0Qvgp4PHcikiT1yicAadwIfBj4eO5EIn1/iv+/Ergd+Dnhk7mh0jOSJDXCUESUbZeI3G7oYf3TgYsjtjFRrNHnfqbe/kTxa2DvPnMbLeZYHRKx3Tqr8/Uj1ZHXTARfAaSzGngTsDRzHlXZj/Ae/gW5E5Ek9c8GQFq3ACfkTqJCs4DTgfm5E5Ek9ccGQHqnARflTqJC6wGfyJ2EJKk/NgDSWw0cR7emk30RsHXuJCRJvbMBUI7bgA/kTqJC04BDcychSepdlxoAVff6/CJwbsXbzGmrCrdlD15JitSlBsBDEcsuLrDMEOFVQMx2H6P/aYdjthfjsT7/ftXnQ5I0SpcaAA9Q/KZTdKrYu4H3F1wW4PoCy+Sa1rbf7RbNcwVwR8FlJUnDutQAWA2cXXDZH0ds9yuEqWer2m5MrkU9DPyyz2WK5nkusKzgspKkktR9VKZdCWP395PXtcQ3lLYkPLbuZ7uLgU0KbGtDwtOOqkYEHAI+VCBPgPMLbOuZBbfVBHW/fqS68ZqpkZUUPxlrV5TjB/rIaSmwZ6LtvojeGx+DwNER23rp8DqquPlfCqxVMM8dgPv72NZJBbfTBOtQ/Bwsz5CvVAc2AGrkIYqfjLkV5nkCU98gFxGmnU3pZYTH5VNV5m9MsK3XEmYoLPPmfwGwcWSe+wB39rCtk2n3K6vNKX4eHsyQr1QHNgBq5A6Kn4z9Ks51P+BnPPmpxWLgVMprkGwJnEJoYIze7grSD6u7M/BtwjvzlDf+64G3AjMS5bkR8DGefEwGCI2MwxJtp84OoPj5uD1DvlId2ACIMC3x+i4jVGRFHAd8LV0qPdsA2I0wpO19hJvbQAXbnQ7MI3w//xCwgPCLvQzrALsDWxD3qmUR4WZzW4KcxjODMGvjloRGywK688nfcYQOo0VcChyUMBepKWJu5Knvf533fYq3xv47Q75SXXyV4tfO6RnylerAJwARUr9TvSFi2efQ7ne80kSmE8p/UTHXnaSOmpl4fddGLLsNodPdRWlSkRrjMOKGUr4mUR5S1bYkfPG0L6FD8f3A1cAZwD0Z8xqxFfBK4BmEz7IfAK4iPO2+N2NetbQNcY9kvl99ylJ2PyDuutmy+pSlKGsRphFfwfhleiXhs991plhPWa8A1iF0TJ7o0/blw/kX/QS6tW6k+AkZJAzWI3XF7sSN2VBkuGgpp3UII4f2Ur5/y+RfRpXRAJg/vN1e1nERUzdSOuU04k7K/1afspTNecRdL5+pPmUpytfpr4wvIYxrMp7UDYDXDm+vn/V8rc/9b7XDiDspQ8CbKs5ZyuHNxF8rh1SetVTcMwnzshQp6//Fk39tp2oArDO8/iLrWU3xz99bZzpwF3EnZinh0ajUVk8lfoCm2/FbZjXLV4gr82NfCaRoAPTzyH+i8DP2UT5C3MEcIowquHXViUsV2Ibehj+eKj5cdeJSpD8RX+5HvxKIbQC8gqmHZ+8lck3DXktbMHHvzn7iFsJwtlJb7ECoLGKvjeWE+QOkJklxXxiJoo/sUy0/OsoaxbWxvkqaA3sfcHjFuUtlOAJYSJrr4ssV5y6lEDNhXJ3DCbnG2J50rb0Bwjeh61a5A1IiswnfDKeaonk5sG2leyCl8Svy36zLiIsSHqPWOIW0B/kO4B04+IKaYW3gXaR53z86PlnlTkgJvZ/8N+sy4n0pD1JbrA/cTfqDvYgwZe+h2BhQvaxFeGV1GmFY09Rl/27CdSU10QY8edrvpsdCGnpNpvyEaAbhsf98Qu/9DQifBB4OHJVwO2M9BlxH6Fh1P6GH6LIStyeNti5hKum5wFMIn6+WOTLY/wIXEr49foTwdGEB4ZPAwRK3K6XyAuBswj2j6QaBFwE/z51IEbENgM2BVxFmMnsWDW0FSS3wCHAx8AvCRCoL86YjTerlwLdo9jC6jxM+RzwzdyJVOxQ4B1hF/scvhmE8MVYRfmE5SqDqbFfg9+S/XorEAmDP9Iek3vamvb04DaONcRGwF1I9zSY8Cch9nfQTPyC84u6MtQmTjgyQ/+AbhtFfDABihX3+AAAgAElEQVSfIlzHUh29gfihscuOx4H3lnUA6mpn4FryH3zDMOLiamAnpHqq8yuBTj7y35dyPmUyDCNPLCbMyCbVUR1fCXTukT+Ejn5LyX/wDcNIG0uwg6DqrQ6vBDr5yB/CVKVtHbPZMIzw2aCdA1VnOV8JdPKRP8CmpB+61DCM+sXtwByk+srxSqCTj/whDAz0M/JXTIZhVBNnk3ZEUKkMVbwS6Owj/xFvJn+FZBhGtfE6pPor85VAZx/5j5hD+yZpMAxj6riPjj7yVOOU8Uqgs4/8p4/6818T3v9L6pbN6PijTzXGUsITqzcSJoKLsZxw33sloVNs54y8+1uP0CFoo4y5SMpnMWE2z6WZ85B6tSvwfWCPAsveRJjI7rdJM2qYmcP/fDXpbv6DwGXA9YRPCSWltxFh6uEDSDOt6saECvErCdYlVeEG4EDgC4RZ+Xr1Q+AtdPRX/3guJv49yuPAxwnzokuqxlzgE4TrL/YavrDi3KVU3sbUA9ctHf57GmVjwq/2mIrjbuAZVScu6f/bE7iNuOt4EMcFUHNtT3iCNbYhsBT47+H/rzFeSVylsZgwYZCkvHYgfu6Ol1WetZTWGsDTgCOG/7lG3nTq7VPEVRgvrz5lSROIbdCfXH3KknKJGfnvsgz5SprYNOByil/TP6k+ZUk5TCfu8f03UyUiKYkh4q5LX+dJHfIAxX8t7JohX0mT25Xi1/T9GfKVlMkKilcWszPkK2lysyl+TS/PkK+kDKYRLvqY5SXVj9e1pElNn/qvSJKktrEBIElSB9kAkCSpg2wASJLUQTYAJEnqIBsAkiR1kA0ASZI6yAaAJEkdZANAkqQOsgEgSVIH2QCQJKmDZuZOQJJUyFrAM4GDgN2BTYCNsmakHB4izOJ5PXAJcCmwsteFi84aFjPZiKRyeV231+bAKcBi4s6z0c54APg0sBk9iNmQpHryum6fdYETgSXkv8kY9Y8lwIeBWUzA6YCldvK6bpetgbOAfXInosb5HfAS4Lax/8NOgJJUbwcCV+PNX8U8Dfg1cMDY/+ETAKmdvK7bYQfgCkIHPynGg4RGwB9H/oNPACSpntYHzsGbv9KYA5wNbDjyH2wASFI9fYLweZ+Uyi7AR0f+xVcAUjt5XTfbfOAPOFaL0hsEngrc4BMASaqff8ebv8oxA/hX8AmA1FZe1821GXAXNgBUngFgG58ASFK9vBxv/irXTODFNgAkqV4OzZ2AOuEwGwCSVC975E5AnbCHfQCkdvK6bq6HgQ1yJ6HWe9gGgNROXtfNNUDoqV3E8wizwakbNgF+XnDZQRsAUjt5XTeX5079KFxe7AMgSVIH2QCQJKmD/Na02TYljO08H9iY0HFoNrBWhTmsAJYCjwCLgQXADfgeUpJqzQZAc0wjTAxyxHA8k3DTr6vFwP8B5wMXANcR925TkpTYUESofNsAHwRuJu5c5Y47gZOAndMeHk3A67q5PHfqR1R5sbDV03OBC4HV5L95p4zVw/v1nHSHSuPwum4uz536YQOgRZ4PXE7+G3UVcRnhu2Wl53XdXJ479cMGQAtsCZxB/ptyjjgH2C7+EGoUr+vm8typHzYAGmwa8NfAEvLfiHPGEuCvcCCTVLyum8tzp37YAGio9YEfkP/mW6c4B9go5qAK8LpuMs+d+mEDoIH2pPk9+8uKPwJPK35ohdd1k3nu1I+o8mJhq97BhIFzct9o6xxLgMOLHmB5XTeY5079iCovFrZqHYbv+3uNZYTPIdU/r+vm8typH1HlxcJWnaOA5eS/sTYplg8fN/XH67q5PHfqR1R5sbBV40DCmPm5b6hNjMeAQ/s/5J3mdd1cnjv1I6q8rIhYeL0Kdq4N9gIeJP+NtMnxCLBvvwe+o9an+HFeniFfPVFUha7OKVxephPeRxe1dcSyXbEHcB5+2hZrfeB/CMdTk4u5LmPqA0kNMhN4iOKzyj2bMPWrxjcP+AXlztr3OHAN4TzcSqjAV5S4vbHWItyctwd2BfYB1i5pWxsTjuezCJ9QanzPjlj2wWRZSKq9n1H8EcLlGfJtim2A2yjvcfiXCNMCl3WzLWptQl5fprxPHW8jHF892TTg1xQ/tj+pPmWN4SsA9SOqvHwycgWvKH//Gmcz4EbS3/juA/4OmF3drkRZD/gAsJD0x+JGwnHWEx1N3HH9RPUpawwbAOpHVHl5ReQKFhMedSvYCLiWtDe7QeBzwAYV7kdKGwL/SdiPlMflWuxbMdo8wvUYc0xfWnnWGssGgPoRVV42Jr5ivht7aAPMAn5F2pvcA7RnytwXEH+DGhuX49coEL40uY24YzmADao6sAGgfkSXl19GrmSI0BntZLr7WHYL4BLS3txuBnaocicqsCPwJ9Iep0uAzavciRrZjHDdpRhg6vyKc9f4bACoH4XLy8jUq28hdNpKYZDwq+x64B5Cw6DN1gZ2AV5E2nfzCwid6e5OuM662Ipws5mfcJ1LCTMJLqD937KvA2wJ7A4cAExPtN7jgK8lWpeKi7mRO5129xQuLyOFZT3C48M5KbJRtNsIn7rdmTmPMm0DXEz4fFD5PUB42rQ0dyKyAaC+FC4vI78clgCnpclFkRYR3vm3+eYPYf+OJDwlUn6n4M1f6pTRrcUNCY9P52bKRaGD3KHAdbkTqdDuhD4oZQ6WpMndS3iN9WjuRAT4BED9iX4CAPAw8MH4XFTQo4Rf/l26+UPY3yMJI1Iqj/fjzV/qvGmEkcBS9tA2po5lwCE9nJ82O4RwHHKfi67Fmb2cHFUq5nyqe5KWl42BOyJXavQeznf/Z0eR5nM2o7e4Fb/7r6OYc6ruSV5e9sDpa6uIAcLQrfqzlwCryH9u2h4PA3v2eE5UrZjzqu4ppbwcQvg6IHdF1dYYBF4/2QnosNeTfthg48/xKHBwz2dDVYs5tyrP4YRJ2K4BbgF+A3yB8Ml2TqWVl30Jn6XlrrDaFoPA26c6+B33dmA1+c9V22IhYcpm1VfM+VV6mwI/Z/Lj/jNgk0z5lVpedgKuityI8edYBbyhlwMv3oivA1LGFTjwUhPEnGOltS1hSPZejv3N5PmMvvTyshZhvHEr47i4l/yPi5rmUMJxy33umhwrgY8Ba/Z57JVHzLlWOlsAf6S/439BhjwrKy9PI+xg7gqtabEa+DrhUVKZ5hCmc30n8A7CO6s1Em9jjeH1vmN4Oy+l/CGk5wLfJP95bGKcS+jUq+aIOd9KY1PCGCVFzsGLK8618vJyMPBjwi+L3BVcnWM18FNg/2KHuWdbERoY452P+4H/IH6Wxs2G13P/ONtYSZhEZsvIbUzlQMK7NvsGTB4rgbOAZxY7zMos5twr3gbEvfb+fsX5ZisvmwLvIlQ2D0Um0pYYJBSeE4F5xQ9tzw5k/Jvy2HgM+Cz9vwPefni5x3rYxiLC7HRl2xn4V+Bq/FpgJB4kDOrzTvJ1RlIaMeVAcWYRJimLOQd3VJxz4VxTjhs9HdiOMMXrNsD6hFkG1x7+/zHDDH8sLrVSLSd8VvUg4X3RdYRvrKswj9Cxq5/BXFYBPyRM/3zx8L+PtQbh3ftbgFfQ32uEBwlfj9zSxzIxNiLMJzCPMIjV6DJXRymug+WET3QfJVQ2NwG3E56MqPlibuTOBVDcOoQnjIdFrmcF1dZBhctLlYXFQp3ez4DnRyy/BLiWMP3w44QLYAfCADHrReb1wojl28zrQFOxjFRvTcJr7eclWNci4l+59qMRT358rJXWLuR/7DxZzC9v1xvN60BTsYxUawbwPdLVfT+tNv3iuU4fb21qhKp7mvbrBbkTkKQpTAe+Abwq4Tp/kHBdpZqZOwEVVkUHwxh1z09SetOBzQkdxB8E7sybzqSmAV8Ejk24zgXAtxKur1Q+AWiuuj/uq3t+ktLZFPgkcBdwN6Fv0R3D//5x8oyQN5VTgLcmXN8ywuRu43Ws7jzfa6X19+R/zz9Z/F15u95oXgeaStPKyJFMPXvs/cBzMuU3no+Str57nHAccmhEeWlEkg2yD/lv8pPF08vb9UbzOtBUmlRGDiF89tZLbiuB12TIcax/JG1dtxJ4UaV78ESNKC+NSLJhfkX+G/14cWGZO91wXgeaSlPKyCzC4/5+8hsg7WP3fv31BHkVjQHCY/+cGlFeGpFkw+xOeO+U+4Y/OpYCu5a50w3ndaCpNKWMvLdgjqsJN+KqHU/aYcQHqcfMro0oL41IsoGeTRgRLveNf+Tmf1S5u9t4XgeaSlPKyEWRuZ5UYa6vI+2w4asJw27XQSPKSyOSbKj5wP+S9+b/c8IY/Zqc14Gm0pQyMlXHv17iY5Q/euErSD+V/d+WnHM/GlFeYlpfM6pMtMH2JsxEVeVseefirHO9mkHx4zyQIV/l0YgKnd47/00Vn6e8T9JfkDDPkfjnknItqhHl5fGIJNepMtEWeBrwHcqbrnkl8G3gqVXtUEvMovgxX5YhX+XRiAqdMAFVqjrl66T/ofdsepvFtJ+o48R0jSgvj0QkuUGVibbIFsAJhMl+UhT+W4EPEUb6Uv82ovixfyhDvsqjERU68M3IXMfG2aSbRe8A0veN+myi3FJrRHlZGJHk1lUm2kLTCN/l/wNwAbCY3o77A8D5hEGH9qw86/bZluLXwL0Z8lUejajQgcMjcx0vfkb8E9+9CVOyp8zrv6nvTIuF96vKHVoAPKXgsnsBv02Yi8J0lfOBjYH1gbUI78oeJTQQFhAabUpnb+DqgsveAOyWMBfVV8yNvOqb1I+AlyVe5y8Jk50tKbDsHoRxSDZJmM/p/PkrgjqquuFXyGUUb6kckSFfKbXnUvwauCRDvsqjKU8AIPx4+E1EvhPFr4E5feayM+FJWco8zgLW6DOPqhXevyonA1ocsew2ybKQ8okpxzHXj1SWRwmd7S5PvN79CCOdbtnj398G+AVp+yedBxxDiyf3qbIBEPM4eX6yLKR8ir4CA1iULAsprYcIE/1ckHi9uw2vc6qG82aEz5G3T7jtSwmvNpYnXGftVNkAuCNiWRsAaoNdIpa9PVkWUnpLCe/tf554vfMJr78mGmRsU0IjIeU94grgeYR9UiJvovi7iuuqT1dK7kaKXwOvy5Cv8mhSH4Cx1gR+QPo+Affy5HFHNgCuSryd39J/34PcGlFeDotIcgUws8pkpcTWIG5gpkOqT1mZNKJCn8QM4KukbwQ8COw/vI11ST8b6gKaOcZJI8rLZpGJOs68mmw+ceU/5WdNqrdGVOhTmA58gfSNgIcJ/Q0uSrzem4GtyjgQFWhMeVkUkegbq05WSujNFC/7DgLULY2p0KcwDfgE6RsBqeNOYIeSjkEVCu97lZ0AIe5d/uHJspCqF1N+7QOjJhoC/o4wkmhdLSKMz3Fr7kS64JMUb63EfEUg5XYXxcv+xzPkq3za8gRgtL+k2llKe4mHCEOkN11jysurIpOdV3XCUgK7EFfuX159ysqoMRV6n44nblr4lPEI8Ixyd7cyjSkv20Ume3zVCUsJ/CVx5b6pnZNUTGMq9AKOobxpynuNZcCzyt7RCjWqvMQ8Cv1hhnylWD+meJm/NUO+yqtRFXoBLwIeJ8/NfwVhkJ82aVR5+XpEsisIs9e10RbAC4HXD/+zqu9Ru7bdqs0hDCdatMx/qfqUlVmjKvSCDifM9lflzX8lofHRNo0qL6+LSHYIeEf1KZfqAOB8nvxubJAwGcX+Ey/qdhvg3cSV91dXn7Iya1SFHuFgwrv4Km7+A7T3WmpUedmcuN6gl1afcmneRyiYUxXcv3a7jXU5xcv6IGGsc3VLoyr0SPsA91PuzX818JaqdiiDxpWXy/pIcLxow+RAx9HfPr/R7TbOzsQ1di+uPmXVQOMq9Ei7AndT3s2/bU+Nx2pcefm7PhIcLz5SfcpJzSXMo93PPi8hDKfsdpvj34gr539TfcqqgcZV6AnsAPyJ9A2AD1S5E5k0rrzM6yPB8eJ+wmQQTXUixfb7w263MWYDDxBXzps8PKmKa1yFnsi2wE2ku/mfUG362TSyvFwxSVK9RJN/HV1NsX2+0u02RuxTrjb1dVF/GlmhJ7IZYUre2Jv/p6pOPKNGlpfYwVHuBdapPOs0ivZ8fcjtNsLaxL/TbPt7S02skRV6QhsR10/stOpTzqqR5SX2++gmV5K5TljXtptL7Kd/bR7vQlPr2vUyntmEz4X73f+vEaYi7pLGlpfvEJf8rcAalWcdr2s34sYW0ALWBG4nbp+/XXnWqpMuXS+TmQX8L73v+7eAGVkyzaux5eWZxCU/BLy/8qzjde1G3NgCWsDfE1+m2zYYkvrTpetlKmsCn2PyfR4EPkr3fvmPaHR5uZK4HVhGmGSoSbp2I250Ae3DNsQPb3pV5VmrbrpyvfTjAOB0Qr+gkX1dRHjk/7R8adVCo8tL7NDAQ8APKs86TtduxI0uoH34EfFl+ZjKs1bddOV6KWp9mv0ZeGqNLi8zSPPt5wurTjxC127EjS6gPTqK+DJ8MzCz6sRVO124XpRO48vL8cRXnn8kdBppgq7diBtfQKcwizSjmL256sRVS22/XpRW48vLWsBtxFeg/11x3kUto9j+LXO7tfRV4svun2jmFy1Kr/EVuirVivLyeuIr0SHgDVUnXsCNFNu3691u7byGNOXWd/8a0YoKXZVpRXmZDlxDfEW6lDC7VJ2dRrF9O8Xt1spT6H+So/HiWrr7CZOerBUVuirTmvJyJPGV6RDwO+o9TPAuwCr626cBYDe3WxuzgD+QprweXnHuqrfWVOiqRKvKyxmkqVS/S71/VX2C/vbnJLdbG9OB75GmnJ5ece6qv1ZV6Cpdq8rL1sQPpjISn6s4937MoPehkL9NuiEuu7bdMpxCmvK5BNiq4txVf62q0FW61pWX95Gmgh0CPlRx7v2YBryLMKLVeLkvAt45/Pfcbj38I+nK5nsrzl3N0LoKXaUqXF7qWtFOBy4CDkmwriHCOANfTrCusqxD6P/wDGBTwo3wauA84HG3WxtvIAw9muK6uZRQvlcnWJfaJeZGXtc6XeVpZcNvPvAYaX5prSJ8riUVdSyhY2KK8rgMmFdt+moQnwCoH60tL+8i3ePW1TRz5kDl9x7CjGOpyuLx1aavhmltha5StLq8nE66incI+Aw+JlNvpgH/Qtry17SJq1S9VlfoSq7V5WUOaYYJHh1fxklXNLmZwFdIW+5uBTaqcifUSK2u0JVc68vL3qTrDzASvwDmVrkTaozNCB0SU5a3ZcBeVe6EGqv1FbqS6kR5OZa0FfIQsBB4TpU7odo7DLibtOVsNY71r951okJXMp0pLx8lfSNgAPgn6j1qoMo3A/gw6Xr6j45/q3A/1HydqdCVRGfKyzTgW6SvoIeAc4HtK9sT1ckOwPmUU66+gZ1O1Z/OVOhKolPlZU3Kq6yXEUZ6W7OyvVFOawEnkL5/yUich2VJ/etUha5onSsvs4CLKafSHgL+CBxV2d4oh8OB6ymvDF0KrFfZ3qhNOlehK0ony8sGwFWUV4EPEWZ8q/OUtOrf7qSbcXKiuIJQPqUiOlmhq7DOlpc5hMq2zMp8kDB4y9Mr2ieVY2/gh6Qd0W+8uBy/9VeczlboKqTT5WV94JeUW6kPET7l+ilwUDW7pUQOIpy3ssvHEHAhPvZXvE5X6Opb58vLLOAsqqnkh4A/AB8Atq5i59S3rYEPEs5TVWXiLMIsh1Kszlfo6ovlhfAd/38QfqlXVekPEj4ffAPhSYTy2YBwHs6j/Mf8Y+MzhHEEpBSs0NUPy8soryXMKV/lDWCIMOXwZYTBio7EX4Nlm0UYxfGjhPfuZQzg08s5f0/ZO6rOsUJXPwqXl7YOULI/cCawRcYcVhBuTL8DbgRuGo47MubURNOAbYCnAPOBXYCnAgcQvuPP5X7g1YT3/lJKMTfyttbpmljh8tLmwrIV8CNgv9yJjLEMuAW4D1gMPAo8TDiJywlPL7pmHWBtQnnckPA6ZWNgc2BHYN18qY3r18DRwJ25E1Er2QBQP3zyM4GZhPncczweNtoXq4CTgDWQyhNTRtU9lpcpPJvw6D33DcRobvyBMJaAVLaYcqrusbz0YBbh11vVPcSNZsdq4IuE8iNVIaa8qnssL304jHLHgDfaE38ADkaqVkyZnZkhX+Uzk+JlZXVXO4zMBP4SOBHHbNeTPUx4WvRpYGXmXNQ9j1H8M+KbgCUJc1G9rUf4QqqIx7raABixGfBPwNtw2laFm/0XgX8DFmXORd11J44yqvLdMT13BpktBN5N+Lb8m4T+AeqeAcL53wX4K7z5K68FuRNQJyzoegNgxK2EYWTnAafSzW/xu2gl4ca/O+H835o3HQkIA4hJZbu0668AJrI5cPxwbJU5F6V3F/Bfw7Ewcy7SWAcBl+ROQq13oA2Ayc0EXgocBzwXe9g22QDwv8BXgLOH/12qo2mEznzzciei1vojYWh19Wgz4L2ECX8cS6AZMQj8H+G9/twnn1Kptt5A/uvHaG+8Fhw3uqgtgL8AXgQcSvgUQ/WwBLgI+Anhl/59WbORipkOXAU8PXciap3fEkY17ew4ACnNJEw4dDhwILAv/tqs0iLgCsKTmQuBK/HxvtrhWcD5+OpR6awiDI1/CfgEoCzbE1ruuwC7Et61bEvoXKhi7iPM57AAuIEwxfI1wO05k5JK9m7gtNxJqDXeBfznyL/YAKjWWoQBPm6OWMfHEuVSpQ9GLDuP0Gt/RaJcpKY5FXhP7iTUeKcS+rEps5jOG03Utf2VUjue8Pg2d+cxo3kxQNyPMCUWczKbqGv7K5Xh+YRXXrlvKEZz4nbgKFQrMSe0ibq2v1JZ1iQ8DVhE/puLUd94kPCrf9JJpewDkMdQxLJNPGdd21+pbOsCLyd8inwI4dNkddu9wMWET6DPBJZNtYCVax5duyF2bX+lqm1EGKxs3dyJqHLLCF9JPdzvglaueXTthti1/ZWk2nM2QEmSOsgGgCRJHWQDQJKkDrIBIElSB9kAkCSpg2wASJLUQTYAJEnqIBsAkiR1kA0ASZI6yAaAJEkdZANAkqQOsgEgSVIHzcydQM3NBHYA5gOzgfWHY0bGnD6Ycds5xO7vIPDocCwBbgJuBQYi1ytJjeZMa0+0G3A4cCjwVGAnYI2sGakMK4FbgN8DvwQuAG7ImpEkqVLTgGcBXwbuJUxba3Qz7gG+BByCDWNJaq3NgBMJvwJz33iM+sUtwL8QyokkqQW2BT4DLCP/TcaofywHvghsgySpkTYETgNWkP+mYjQvVgCnABsgSWqMFwN3kv8mYjQ/7gXegH0EJKnWNgd+Qf6bhtG++DkwF0lS7RxO6NWd+0ZhtDcWAs9Fkhoq54A2Zfkn4CuEAXuksqwLHAusAi7JnIskddoM4D/J/8vQ6F58DofVlqQs1gS+R/4bgdHdOBNYG0lSZWYAPyT/DcAwzsH5NSQ1RNP7AEwD/gt4be5EJOAphMmjzsqdiCRNpekNgJOA9+ROQhplT8IEUhfkTkSSJtPkAU2OBr5fwXYGgNuAGwmfFj5KmGJWzTCD8EXIVoRpnbenmsf0ryS8mpIkJbQT8DDlvcu9FfgYcBThcy+1x7rA84CPExp2ZZWhh4Adq9klSeqGNYGrSF9hDxJ+sR1Ks5+MqHfTgcOAHwGrSV+mriCUV0lSAv9I+or6x8BuVe6EamcP4CekL1v/UOVOSFJb7UDaqXzvJEwWJI14KXA36crYMmC7SvdAklrobNJVzOcSJgySxtoE+BnpytqZ1aYvSe1yOOkq5E/he35NbjpwCunK3KHVpi9J7XEeaSriD1WduBrtBNKUu19UnbgktcH+pKmE/73qxNUKHyNN+Tuw6sQlqenOJL7y/TY+9lcx04DTiS+DP6o6cUlqsrnASuIq3psIo8FJRc0GbiCuHK4CNqs6cUlqqvcSV+kOAPtUnrXaaF9CeYopj85dIUk9uoa4CvfU6lNWi32OuPJ4RfUpS1Lz7EhcZfswsGHlWavN5gCPEFcut6s8a0kaY3ruBKbw7MjlP0toBEipPAh8PnIdseVaklrv2xT/lbUC2LT6lNUBmxHXMfUb1acsSc1yD8UrWYdfVZl+TPGyeVeGfCWpMbYg7j3rK6pPWR3yKuLKp58DSspqZu4EJrFLxLKDwAWpEpnEDOB5w7E9sHbk+pYDtwE/H47ByPWpPOcBqynej2Y+sDBdOpLUHm+n+K+rKyvI7xDg+ogcp4rrgIMr2A8VdzXFz+/bMuQrSf9fnb8CmB+x7DXJshjfqwi/AHctcRu7AecDR5e4DcWJKWcx5VuSotW5ATA3Ytkbk2XxZHsCXwfWLHEbI9Yc3tZTK9iW+rcgYlm/UJGUVZ0bALMjlr01WRZPdjLx7/r7sc7wNlU/t0Qs69wUkrKqcwNgvYhlH02WxRNtBxxZ0ron81xCJ0PVS0w5i2ngSlK0OjcAYirIpcmyeKLDSlpvLw7JuG2NL6YB4BMASVnVuQEQ84niQLIsnmiLktbbiy0zblvjiylndf4EV1IH1LkBUEfLMm67rKcakqQOsgHQnzK/LqjztiVJLWMDoD+/JMwGV7XFwMUZtitJaikbAP1ZCXwsw3b/A1iVYbuSpJayAdC/TxFG6KvK+cBnKtyeJKkDbAD0bwB4OfDTCrb1k+FtlfVVgySpo2wAFPMo8GLgGOAKwuQuqQwBvwZeDfwF5Q1qJEnqML9FLm4I+N5wbAJsC8yJXOeDwB3AA5HrkSRpUjYA0ngAb9qSpAbxFYAkSR1kA0CSpA6yASBJUgfZAJAkqYNsAEiS1EE2ACRJ6iAbAJIkdZANAEmSOqjODYCVEcuunywLaWIbRiy7PFkWklRAnRsAMWPgb5csC2liMeVsSbIsJKmAOjcAFkcse1SyLKSJxZQzh46WlFWdGwA3RSz7EmDLVIlI49iaMFtjUTHlW5Ki1bkBcEPEsrOAk1MlIo3jk8A6EcvHlG9JarUtCVPuxsSHKs9aXXACceVyNbB55dGgRuoAAAIzSURBVFlLUoNcT3wj4L+ADapOXK20IfBl4svk76tOXJKa5kTiK9sh4H7g34EDgE0r3QM13abAgcBHCeUoRXn850r3QJIaaB7hcWmKSteYPAaAe4CzgdeQp3/IfOAUwpOfZVPk29RYDeyY6oBJUpudQ/5Ku4txNdXdqKYDHwFWlbxPdYizEh0zSWq9A8hfaXc1FgI7TH2KoqV4r96U2DfRMZOkTvge+SvursZVlPs64Lga7GNV8e1Ex0ySOmMr4BHyV+BdjWOmPkWFrAHcVYP9qyIeBrZIc9gkKV6dBwIa7W7gbbmT6LDXlLTeQwmNuy54F3Bv7iQkaURTGgAA3wf+M3cSHfWMkta7T0nrrZtTge/kTkKSRmtSAwDgrwifqalaG5e03jklrbdOzgT+JncSkjRW0xoAA4T30T/NnUjHxMzMmGO9dXEOcCwwmDsRSRqraQ0AgMeBlwJfyZ1Ih1xZ0nqvLmm9dfAl4OXA8tyJSFIbvRV4jPw9vNser+71hPSpjV8BLCN82ihJKtl84FzyV/xtjSsp90nRm2qwj6ni58DOSY+OJGlKLyHcrHLfBNoUC4Ht+zgHRX0pw76ljF8DL05+VCRJfTkM+CoOHBQbV1LNMMAQnjCcCKwseZ9SxiOEfiiHlnA8JKl003InUKI1gP2Bw4E9gKcQRmKbDaybMa+6GiT84r8S+C5wBmHmuirtDLwTeC6h8TGr4u2PZxmwBLgPWAD8AbiI8Kt/Vb60JCnO/wPHD1qgywSi8QAAAABJRU5ErkJggg==;" vertex="1" parent="1">
          <mxGeometry x="530" y="716.5" width="90" height="90" as="geometry" />
        </mxCell>
        <mxCell id="8HKQdC73j9jO4bcsfkeK-18" value="BERT-embedded context-dependent numerical representation of words" style="text;whiteSpace=wrap;fontStyle=1;align=center;" vertex="1" parent="1">
          <mxGeometry x="485.38" y="806.5" width="179.25" height="30" as="geometry" />
        </mxCell>
      </root>
    </mxGraphModel>
  </diagram>
</mxfile>
